<svg width="196" height="152" viewBox="0 0 196 152" fill="none" xmlns="http://www.w3.org/2000/svg">
<path d="M164.57 66.6406H22.9863V151.874H164.57V66.6406Z" fill="#FFF0E6"/>
<path fill-rule="evenodd" clip-rule="evenodd" d="M159.922 124.062H138.061V144.971H159.922V124.062ZM132.727 107.605H110.867V144.971H132.727V107.605ZM105.533 100.512H83.6726V144.971H105.533V100.512ZM78.3382 92.0742H56.4781V144.971H78.3382V92.0742ZM51.1438 130.034H29.2837V144.971H51.1438V130.034Z" fill="#DA0F47" fill-opacity="0.59"/>
<path fill-rule="evenodd" clip-rule="evenodd" d="M154.616 96.2623L155.69 93.5116L162.932 102.832L151.401 104.492L152.536 101.588L89.7246 75.4515L83.9089 85.8361L73.2966 80.3915L51.7753 135.876L37.2419 128.598C34.1541 133.795 31.5902 138.31 29.5662 141.253L24.978 137.955C27.2394 134.668 30.1801 129.371 33.7933 123.371L35.1283 121.155L48.7967 128L70.3396 72.4599L81.6791 78.2773L87.2947 68.25L154.616 96.2623Z" fill="#D70015"/>
<path fill-rule="evenodd" clip-rule="evenodd" d="M150.553 93.3281L149.422 37.0691L104.131 27.2286L55.1281 16.2824C46.3845 14.3293 37.2745 14.7589 28.7548 17.5262L19.0513 20.6781L5.6666 37.7736C5.40905 38.1026 4.9321 38.1611 4.60211 37.9044C4.27223 37.6476 4.21347 37.172 4.47101 36.8431L18.1409 19.3833L28.285 16.0884C37.0636 13.237 46.4503 12.7944 55.4597 14.8069C73.858 18.9166 104.461 25.7525 104.456 25.7516L150.914 35.8457L152.076 93.6122L153.08 92.3133C153.219 92.1325 153.48 92.0984 153.662 92.2379C153.842 92.3774 153.876 92.6368 153.736 92.8176L152.103 94.9318L152.237 101.583C152.245 102.001 151.912 102.346 151.494 102.355C151.076 102.363 150.729 102.031 150.72 101.614L150.581 94.6962L149.096 92.8217C148.954 92.643 148.985 92.3826 149.165 92.241C149.344 92.0994 149.605 92.1304 149.746 92.3092L150.553 93.3281Z" fill="#1A1616"/>
<path fill-rule="evenodd" clip-rule="evenodd" d="M44.68 33.0899C44.68 33.0899 31.428 37.1437 21.061 40.3149C18.263 41.1707 16.0514 43.3216 15.1226 46.0899C14.1939 48.858 14.6626 51.9027 16.3809 54.2649C20.2011 59.5163 24.0606 64.8217 24.0606 64.8217C24.0606 64.8217 22.3319 65.3312 22.5132 66.4596L42.776 66.7579L34.7854 55.0568C34.7854 55.0568 51.9991 53.7996 56.4138 51.5064L82.6983 64.9989C82.6983 64.9989 79.6539 65.4918 79.4931 66.8715L94.5014 66.7027C94.5014 66.7027 98.5232 63.4597 100.182 62.1211C100.351 61.9854 100.446 61.7793 100.441 61.5636C100.435 61.3478 100.329 61.147 100.154 61.0202C95.0729 57.3264 65.087 35.6548 59.2953 34.4451C59.2953 34.4451 53.548 30.7354 44.68 33.0899Z" fill="url(#paint0_linear_609_5232)"/>
<path fill-rule="evenodd" clip-rule="evenodd" d="M59.0681 34.3219C59.2187 34.4064 59.296 34.4563 59.296 34.4563C59.8137 34.5644 60.5249 34.8359 61.3936 35.2431C62.2549 36.1698 63.0715 37.3822 63.547 38.9202C64.0067 40.4072 64.1506 42.2009 63.6978 44.3375L89.0795 59.4044L93.5051 56.234L93.7589 56.4146C93.8646 56.49 93.9703 56.5653 94.075 56.6406L94.217 56.7415L82.4658 65.1598C82.3135 65.269 82.1116 65.2602 81.9703 65.1513C82.3931 65.0399 82.6988 64.9903 82.6988 64.9903L81.8922 64.5765C81.9169 64.5438 81.9469 64.514 81.9822 64.4888L88.3451 59.9305L63.4932 45.1779C63.4144 45.4648 63.3252 45.7576 63.2247 46.0562C62.6097 47.8847 61.0189 50.2297 57.3453 51.9839L56.4146 51.5065C55.8558 51.7967 55.0917 52.0702 54.1843 52.3264C54.2163 52.3053 54.252 52.2884 54.2905 52.2765C59.6234 50.6406 61.736 47.8828 62.4387 45.7937C63.3485 43.0888 63.2918 40.9014 62.7547 39.1638C61.995 36.7063 60.2843 35.1562 59.0681 34.3219ZM54.713 32.7579C55.032 32.8262 55.3361 32.8998 55.6248 32.9769C55.6769 33.2202 55.713 33.4656 55.7525 33.6892C55.9462 34.7855 56.073 35.8794 56.0103 36.9945C55.8142 40.4851 54.4332 43.8564 51.0758 45.3442C49.0575 46.2386 46.6474 46.5985 44.4465 46.5571C42.6215 46.5226 40.4158 46.3135 38.6047 46.1803C34.4675 45.876 31.0416 45.3682 26.1346 45.9545C24.3973 46.1621 23.0962 46.7669 22.3452 47.8123C21.5919 48.861 21.4061 50.3333 21.8278 52.2234C22.1186 53.5265 22.6902 54.7324 23.3238 55.9C24.3018 57.7023 25.3058 59.5571 26.4711 61.2496L38.6429 60.6983L39.1912 61.5007L26.6804 62.0673C26.6568 62.0967 26.6287 62.1234 26.5963 62.1462C26.4267 62.2659 26.1977 62.2405 26.058 62.0956L22.2102 62.2698L21.6272 61.469L25.5011 61.2935C24.4396 59.6942 23.5053 57.9717 22.5945 56.2932C21.9246 55.0586 21.3259 53.7811 21.0185 52.4029C20.533 50.2268 20.8039 48.5386 21.6711 47.3314C22.5408 46.1208 24.0244 45.3743 26.0362 45.134C31.006 44.5401 34.4758 45.048 38.6658 45.3561C40.463 45.4883 42.6516 45.6967 44.4625 45.7308C46.5458 45.7701 48.8286 45.4358 50.7392 44.5891C53.799 43.2333 55.0038 40.1296 55.1826 36.9484C55.2417 35.8972 55.1186 34.8663 54.936 33.8327C54.8766 33.4965 54.8476 33.0928 54.713 32.7579Z" fill="#D7441E"/>
<path fill-rule="evenodd" clip-rule="evenodd" d="M35.462 56.0454L35.626 56.2856L35.6079 56.2909C35.5609 56.2087 35.5122 56.1268 35.462 56.0454ZM34.9358 55.2753C32.813 52.4445 29.0287 50.1436 27.024 49.05C26.869 48.9661 26.7927 48.7866 26.8401 48.617C26.8873 48.4476 27.0458 48.3332 27.2221 48.3412C31.9487 48.7338 36.9566 53.1813 38.5629 54.7241C36.3067 54.9408 34.7833 55.052 34.7833 55.052L34.9358 55.2753Z" fill="#711801"/>
<path d="M34.6869 11.5708C37.1117 11.6306 39.1268 9.71839 39.1878 7.29979C39.2487 4.88118 37.3324 2.87207 34.9076 2.81231C32.4828 2.75255 30.4677 4.66477 30.4068 7.08337C30.3458 9.50197 32.2621 11.5111 34.6869 11.5708Z" fill="#E86135"/>
<path fill-rule="evenodd" clip-rule="evenodd" d="M32.8188 3.28029C33.4452 2.96393 34.1569 2.79304 34.9076 2.81164C37.3309 2.87153 39.2489 4.88178 39.1881 7.29805C39.1417 9.14162 37.9567 10.6922 36.3212 11.2971L35.2405 8.82353C35.4167 8.84118 35.6039 8.81449 35.786 8.73718C36.3413 8.50122 36.6389 7.88218 36.4501 7.35568C36.2612 6.82908 35.6571 6.59318 35.1017 6.82915C34.8747 6.92558 34.6907 7.08617 34.5654 7.27826L32.8188 3.28029Z" fill="#1A1616"/>
<path fill-rule="evenodd" clip-rule="evenodd" d="M44.6731 13.5987C39.5961 13.0273 28.4799 13.5491 19.5654 14.2361C17.8854 14.3665 16.328 15.1646 15.243 16.4512C14.1579 17.7377 13.6363 19.4049 13.7951 21.0783C13.9182 22.3337 14.229 23.6036 14.863 24.7109C14.863 24.7109 13.9631 27.2524 16.7322 29.0625C17.5706 29.609 18.527 29.949 19.523 30.0546C21.6549 30.2613 27.4021 30.6569 35.1331 29.8886C35.1331 29.8886 42.0683 35.4525 49.686 31.0293C55.7311 27.5194 56.5919 14.9401 44.6731 13.5987Z" fill="url(#paint1_linear_609_5232)"/>
<path fill-rule="evenodd" clip-rule="evenodd" d="M14.8618 24.709C16.1826 25.6659 18.4866 26.8748 21.1772 26.9997C26.5868 27.2512 41.287 27.9332 41.287 27.9332C41.5155 27.9438 41.6924 28.1373 41.6817 28.365C41.671 28.5926 41.4767 28.7688 41.2482 28.7582C41.2482 28.7582 26.5479 28.0761 21.1383 27.8246C18.7381 27.7133 16.4896 26.7666 14.7548 25.2009C14.7961 24.8944 14.8618 24.709 14.8618 24.709Z" fill="#D7441E"/>
<path fill-rule="evenodd" clip-rule="evenodd" d="M30.9894 13.5465C36.529 13.3109 41.6623 13.2661 44.6726 13.6051C56.5922 14.9474 55.9471 27.544 49.8202 30.9068C43.0249 34.6366 36.7139 32.1513 34.836 29.9319C34.3076 29.3074 33.9828 27.5767 33.9828 27.5767L29.907 27.3475L25.1093 21.1684L30.9894 13.5465Z" fill="#D7441E"/>
<path fill-rule="evenodd" clip-rule="evenodd" d="M33.9824 27.5766C33.9824 27.5766 38.3581 27.5293 40.7623 27.5794C40.871 27.5817 40.962 27.6618 40.9776 27.7691C40.9932 27.8763 40.9289 27.979 40.8253 28.012L34.8305 29.9255C34.3051 29.296 33.9824 27.5766 33.9824 27.5766Z" fill="#711801"/>
<path fill-rule="evenodd" clip-rule="evenodd" d="M114.358 29.7863C114.444 29.8665 110.257 35.4382 102.53 32.4686C101.121 31.9275 94.618 27.2584 99.1636 18.5855C100.379 16.2667 105.652 9.43684 117.394 13.645C118.793 14.1464 121.305 15.2756 125.786 18.5855C127.453 19.8176 140.313 31.0553 147.615 33.9517C149.069 34.5289 149.31 34.7004 150.605 35.3195C150.971 35.4945 151.323 36.1679 149.925 36.466C149.925 36.466 151.306 36.3974 150.719 37.4172C150.719 37.4172 149.826 38.6387 149.277 39.3898C148.99 39.7811 148.528 40.0065 148.043 39.9921C147.621 39.9792 147.15 39.9223 146.926 39.7402C146.926 39.7402 145.956 41.1455 143.85 40.0551C143.85 40.0551 142.953 42.1908 138.773 39.7402C137.025 38.7163 135.645 38.0738 134.256 37.5402V39.7402L171.305 55.4809C171.305 55.4809 172.622 55.1781 174.696 55.4809L162.7 66.7212L133.231 59.1132V64.5495C133.231 64.5495 135.696 65.3386 135.986 66.7212H116.56V57.7526C116.56 57.7526 98.0661 59.4645 101.474 44.7385C101.798 43.3365 106.317 33.0908 116.56 30.8776L114.358 29.7863Z" fill="#FD9500"/>
<path fill-rule="evenodd" clip-rule="evenodd" d="M134.577 50.2738V50.2734L155.72 58.1013L160.135 50.7355L160.905 51.0625L156.359 58.6449C156.358 58.6866 156.349 58.7285 156.334 58.7697C156.3 58.8612 156.237 58.9337 156.159 58.9803L153.017 64.2216L152.181 64.0056L155.287 58.823L134.528 51.1368L134.552 50.7098L134.577 50.2738ZM101.133 46.7205C101.433 47.9417 102.218 49.0701 103.53 49.3133C105.13 49.6101 106.932 48.621 108.25 47.8234C109.961 46.7869 111.2 45.3878 112.36 43.9125C113.56 42.3852 114.674 40.7765 116.097 39.3724C116.777 38.7014 117.707 37.9834 118.698 37.6677C119.414 37.4399 120.16 37.4163 120.881 37.7301C121.806 38.1328 122.556 38.9632 123.12 39.9608C123.927 41.391 124.352 43.159 124.421 44.3587C124.738 49.9838 124.597 55.1576 124.487 60.7585L133.231 60.7835V61.6102L116.56 61.5625V60.7359L123.658 60.7561C123.767 55.1717 123.91 50.0136 123.593 44.4052C123.53 43.3033 123.139 41.6798 122.398 40.3661C121.928 39.5344 121.321 38.8235 120.55 38.4877C119.881 38.1967 119.183 38.3215 118.537 38.6154C117.828 38.9382 117.18 39.4666 116.681 39.9598C115.283 41.3391 114.191 42.922 113.013 44.4223C111.792 45.9747 110.48 47.4391 108.68 48.5299C107.207 49.422 105.169 50.458 103.378 50.126C102.374 49.9398 101.6 49.3489 101.063 48.5706C101.041 47.9904 101.062 47.3744 101.133 46.7205ZM134.256 39.7403L135.017 40.0637L134.536 50.9392L134.021 59.3172L133.231 59.1133V60.1644C133.177 60.0894 133.148 59.9961 133.154 59.897C133.154 59.897 134.243 43.4973 134.246 38.7545L134.247 38.7214C134.25 38.6772 134.253 38.6331 134.256 38.5899V39.7403ZM115.395 30.3006C115.702 30.2422 116.203 30.1514 116.843 30.051L113.936 27.5555C113.763 27.4067 113.744 27.1455 113.893 26.9726C114.042 26.7998 114.304 26.7803 114.477 26.9291L117.796 29.7785C117.836 29.8128 117.868 29.8531 117.891 29.8968C119.488 29.6781 121.58 29.4641 123.688 29.457C126.661 29.4471 129.659 29.8663 131.414 31.2005C132.297 31.8716 135.017 33.9834 135.101 37.8794C134.818 37.7604 134.537 37.6482 134.256 37.5403V37.5603C134.033 34.248 131.685 32.446 130.912 31.8578C129.274 30.613 126.464 30.2745 123.69 30.2837C120.296 30.2951 116.943 30.8538 115.713 31.082C115.991 31.0081 116.273 30.9398 116.56 30.8778L115.395 30.3006ZM134.528 51.1368L134.536 50.9392L134.577 50.2738L134.552 50.7098L134.528 51.1368Z" fill="#C93400"/>
<path fill-rule="evenodd" clip-rule="evenodd" d="M143.305 40.6274L141.173 39.2215C140.981 39.0957 140.929 38.839 141.056 38.6487C141.181 38.4585 141.439 38.4061 141.63 38.5319L144.167 40.2047C144.065 40.1611 143.959 40.1115 143.85 40.0552C143.85 40.0552 143.715 40.377 143.305 40.6274ZM146.321 40.2387L143.259 38.1513C143.07 38.0226 143.022 37.7651 143.15 37.5768C143.28 37.3885 143.538 37.3401 143.727 37.4689L147.301 39.9057C147.149 39.8676 147.016 39.8143 146.926 39.7403C146.926 39.7403 146.729 40.025 146.321 40.2387ZM150.857 36.8924C150.147 36.7249 149.696 36.7378 149.413 36.8219C149.351 36.8405 149.298 36.8652 149.258 36.8891L149.515 37.1296C149.682 37.2856 149.691 37.5474 149.535 37.7139C149.378 37.8803 149.115 37.8888 148.948 37.7328L147.284 36.1767C147.117 36.0208 147.107 35.7589 147.264 35.5924C147.42 35.4261 147.684 35.4176 147.851 35.5735L148.635 36.3067C148.927 36.0524 149.551 35.7816 150.834 36.0412C150.703 36.2043 150.426 36.3593 149.925 36.4661C149.925 36.4661 150.768 36.4243 150.857 36.8924Z" fill="#936A36"/>
<path fill-rule="evenodd" clip-rule="evenodd" d="M114.417 29.8158L114.358 29.7863C114.444 29.8665 110.257 35.4382 102.53 32.4686C101.121 31.9275 94.618 27.2584 99.1636 18.5855C100.379 16.2667 105.652 9.43684 117.394 13.645C118.478 14.0334 120.228 14.798 123.043 16.6604C123.399 18.0903 123.35 20.5226 119.601 21.8022C119.601 21.8022 121.619 26.9295 115.573 27.7407C115.573 27.7407 115.212 28.7062 114.417 29.8158Z" fill="#F39207"/>
<path fill-rule="evenodd" clip-rule="evenodd" d="M113.408 57.7749L116.521 45.3978C116.553 45.2697 116.676 45.1866 116.808 45.2053C116.94 45.224 117.035 45.3385 117.03 45.4705L116.555 57.7528C116.475 57.7599 115.199 57.8698 113.408 57.7749ZM114.356 29.8018C114.279 29.8849 114.199 29.9576 114.12 30.016C114.12 30.016 110.482 25.5643 108.637 23.307C108.559 23.2119 108.564 23.0743 108.647 22.9843C108.73 22.8942 108.868 22.8793 108.969 22.9492C110.875 24.2406 114.223 26.5662 115.488 27.8034C115.488 27.8034 114.983 29.1213 114.366 29.7906L114.358 29.7862C114.36 29.7882 114.359 29.7934 114.356 29.8018Z" fill="#D7441E"/>
<path fill-rule="evenodd" clip-rule="evenodd" d="M96.923 7.17081C96.8442 7.20718 96.9509 6.9998 96.954 6.91341C96.9603 6.75232 96.9623 6.59112 96.9665 6.43002C96.9779 5.96224 96.9592 5.49456 96.9623 5.02678C96.9696 4.07002 96.7592 1.34867 97.8827 0.880267C98.4423 0.646943 98.5926 1.68264 98.6009 2.02932C98.633 3.36933 97.7003 4.39242 97.5075 5.64295C97.4982 5.70515 97.551 5.52463 97.5749 5.46645C97.6246 5.34618 97.6723 5.22507 97.7241 5.10551C97.8713 4.767 98.0195 4.42931 98.1729 4.09358C98.6569 3.0334 99.1274 1.89395 99.8446 0.963653C100.015 0.742419 100.513 0.145677 100.856 0.406591C101.366 0.794913 100.674 1.89416 100.448 2.26553C99.9513 3.07979 99.3087 3.79382 98.7729 4.58059C98.2288 5.37759 97.7904 6.26345 97.2349 7.04557" fill="#936A36"/>
<path d="M101.128 13.1478C103.592 13.1478 105.59 11.1557 105.59 8.69839C105.59 6.24107 103.592 4.24902 101.128 4.24902C98.663 4.24902 96.665 6.24107 96.665 8.69839C96.665 11.1557 98.663 13.1478 101.128 13.1478Z" fill="#936A36"/>
<path d="M91.514 11.3468C94.6567 11.3468 97.2043 8.80672 97.2043 5.67339C97.2043 2.54006 94.6567 0 91.514 0C88.3714 0 85.8237 2.54006 85.8237 5.67339C85.8237 8.80672 88.3714 11.3468 91.514 11.3468Z" fill="#1A1616"/>
<path fill-rule="evenodd" clip-rule="evenodd" d="M97.6517 11.4886C97.034 10.7253 96.665 9.75501 96.665 8.69927C96.665 6.24369 98.6642 4.25 101.127 4.25C101.776 4.25 102.391 4.38805 102.948 4.63646C102.831 6.15544 102.001 9.13626 97.6517 11.4886Z" fill="#1A1616"/>
<path fill-rule="evenodd" clip-rule="evenodd" d="M99.0654 73.3819C99.0654 73.3819 97.1284 73.086 98.486 71.1879C98.8768 70.6422 100.509 69.8992 101.476 72.1547C101.476 72.1547 103.274 71.3046 103.726 73.5595C103.726 73.5595 105.405 72.7497 105.981 75.0236C105.981 75.0236 107.685 74.8071 107.91 77.1397C108.246 80.6189 108.525 83.1185 108.73 85.8899C108.73 85.8899 109.243 91.2084 113.043 94.4974C113.043 94.4974 115.336 86.8932 123.665 89.3773L131.425 92.4359C131.425 92.4359 135.815 90.949 137.922 94.0066C139.4 92.8927 141.785 90.9128 142.432 90.3156C142.752 90.0211 143.402 89.7793 143.748 89.9642C144.037 90.1192 144.232 90.6793 143.892 91.0544C143.892 91.0544 144.611 90.454 145.202 90.9562C145.431 91.1505 145.619 91.5494 145.316 92.2458C145.316 92.2458 146.059 91.568 146.604 92.0278C146.817 92.2065 147.197 92.6571 146.695 93.4207C146.695 93.4207 147.498 92.778 148.021 93.2853C148.253 93.5106 148.447 93.9756 147.072 95.6857C146.699 96.1487 146.319 96.6075 145.931 97.0621C142.372 101.288 136.503 102.775 131.353 100.753C128.047 99.4615 125.002 98.2659 125.002 98.2659C125.002 98.2659 129.219 105.902 129.19 110.323C129.165 114.261 127.45 118.352 122.547 119.541C121.411 119.818 120.229 119.85 119.079 119.634C115.867 119.033 108.731 116.767 109.546 108.546C109.546 108.546 103.443 104.566 99.4167 98.0954C96.3137 93.1169 95.5302 87.042 97.2683 81.4435C98.1585 78.5677 99.1856 74.8579 99.0654 73.3819Z" fill="#A8CFCC"/>
<path fill-rule="evenodd" clip-rule="evenodd" d="M143.276 97.1302C143.276 97.1302 146.737 93.3555 146.695 93.4206C146.695 93.4206 147.254 92.9722 147.743 93.1189C147.739 93.1241 147.736 93.1282 147.732 93.1323L143.737 97.5456C143.622 97.6727 143.425 97.682 143.297 97.5673C143.17 97.4537 143.161 97.2573 143.276 97.1302ZM141.711 96.1021C141.711 96.1021 145.32 92.2333 145.315 92.2457C145.315 92.2457 145.923 91.6919 146.443 91.9254L142.167 96.5237C142.051 96.6487 141.854 96.657 141.727 96.5402C141.602 96.4234 141.595 96.2271 141.711 96.1021ZM143.905 91.044C143.991 90.9768 144.485 90.6193 144.967 90.8125L140.722 95.3788C140.605 95.5048 140.408 95.5121 140.282 95.3953C140.156 95.2796 140.149 95.0832 140.266 94.9572L143.905 91.044Z" fill="#4644AB"/>
<path fill-rule="evenodd" clip-rule="evenodd" d="M105.793 77.02C105.936 76.3149 105.975 74.9981 105.981 75.0227C105.981 75.0227 106.246 74.9889 106.581 75.0916C106.575 75.606 106.541 76.4626 106.402 77.143C106.368 77.3114 106.204 77.4199 106.036 77.3858C105.867 77.3517 105.758 77.1874 105.793 77.02ZM104.346 73.4194C104.405 73.9475 104.45 74.8587 104.286 76.0215C104.262 76.191 104.104 76.309 103.934 76.285C103.764 76.2611 103.646 76.1041 103.67 75.9347C103.819 74.8803 103.786 74.0488 103.735 73.5544C103.784 73.5323 104.03 73.4296 104.346 73.4194ZM101.576 75.0797C101.764 73.418 101.441 72.0711 101.476 72.1539C101.476 72.1539 101.714 72.0413 102.039 72.0068C102.187 72.5888 102.362 73.6645 102.194 75.1491C102.174 75.319 102.021 75.4416 101.85 75.4225C101.68 75.4034 101.557 75.2498 101.576 75.0797ZM98.5098 73.1796C98.5388 72.7145 98.5481 72.4086 98.5481 72.4086C98.5543 72.2376 98.6974 72.103 98.8694 72.1085C99.0404 72.1139 99.1751 72.2571 99.17 72.4281C99.17 72.4281 99.087 73.6468 99.0653 73.3811C99.0653 73.3811 98.7834 73.338 98.5098 73.1796Z" fill="#4644AB"/>
<path fill-rule="evenodd" clip-rule="evenodd" d="M108.717 85.7168L108.73 85.8894C108.73 85.8894 109.243 91.2079 113.043 94.4969C113.043 94.4969 115.336 86.8927 123.665 89.3768L129.654 91.738L131.164 100.678C127.932 99.4155 125.002 98.2654 125.002 98.2654C125.002 98.2654 129.219 105.902 129.19 110.322C129.166 114.26 127.45 118.351 122.547 119.54C121.411 119.817 120.229 119.849 119.079 119.633C115.868 119.032 108.731 116.766 109.547 108.546C109.547 108.546 103.443 104.566 99.4168 98.0949C97.1357 94.4339 96.1076 90.1807 96.4143 85.9596L108.717 85.7168Z" fill="#4644AB"/>
<path fill-rule="evenodd" clip-rule="evenodd" d="M109.546 108.546C109.546 108.546 113.116 110.683 116.048 112.049C116.185 112.103 116.262 112.248 116.229 112.391C116.195 112.535 116.061 112.631 115.915 112.618C114.161 112.499 111.429 112.191 109.595 111.392C109.467 110.533 109.442 109.588 109.546 108.546ZM123.056 102.393C115.209 97.1176 112.671 94.1757 113.043 94.497C113.043 94.497 113.162 94.1013 113.446 93.5195C114.639 94.7017 117.804 97.6146 123.636 101.535C124.362 102.023 126.823 103.596 128.479 106.34C128.908 107.759 129.198 109.154 129.19 110.322C129.187 110.948 129.14 111.576 129.045 112.196C129.027 112.144 129.019 112.088 129.019 112.03C129.069 106.185 124.098 103.091 123.056 102.393ZM126.489 101.247C125.724 100.354 124.335 98.7047 123.522 97.7375C123.47 97.6766 123.47 97.5867 123.522 97.5257C123.574 97.4648 123.663 97.4503 123.731 97.4926L125.003 98.2676C125.034 98.3234 125.698 99.5335 126.489 101.247Z" fill="#4644AB"/>
<path d="M135.944 114.138C138.539 114.138 140.642 112.041 140.642 109.454C140.642 106.866 138.539 104.769 135.944 104.769C133.348 104.769 131.245 106.866 131.245 109.454C131.245 112.041 133.348 114.138 135.944 114.138Z" fill="#A8CFCC"/>
<path fill-rule="evenodd" clip-rule="evenodd" d="M137.389 104.995C139.276 105.603 140.643 107.371 140.643 109.454C140.643 112.039 138.538 114.139 135.944 114.139C134.243 114.139 132.752 113.236 131.927 111.884L134.93 110.386C134.874 110.629 134.893 110.9 135.001 111.156C135.255 111.76 135.904 112.066 136.451 111.838C136.998 111.609 137.236 110.934 136.982 110.329C136.855 110.024 136.625 109.796 136.359 109.673L138.053 108.828L137.389 104.995Z" fill="#1A1616"/>
<path fill-rule="evenodd" clip-rule="evenodd" d="M115.223 122.455C115.223 122.455 116.217 122.206 117.599 121.858C122.554 120.613 127.735 122.801 130.289 127.213C132.183 130.49 131.796 134.601 129.322 137.468C128.32 138.629 127.531 139.544 127.531 139.544C127.531 139.544 129.104 139.512 130.936 139.474C134.007 139.41 136.709 141.488 137.429 144.468C137.49 144.74 137.557 145.013 137.629 145.284C138.169 147.307 139.383 149.086 141.073 150.329C141.704 150.795 142.289 151.378 142.42 151.999C142.42 151.999 113.385 151.963 99.7296 151.946C96.9904 151.943 94.4896 150.396 93.2687 147.952C92.0489 145.507 92.3184 142.586 93.9662 140.405C93.9662 140.405 83.478 129.694 83.9152 117.222C84.1526 110.448 90.3337 106.552 94.8897 108.556C102.634 111.959 108.954 117.149 115.223 122.455Z" fill="url(#paint2_linear_609_5232)"/>
<path fill-rule="evenodd" clip-rule="evenodd" d="M100.79 131.497C100.79 131.497 95.6465 126.658 91.9497 123.178C91.7983 123.037 91.5631 123.034 91.4087 123.173C91.2553 123.313 91.2345 123.546 91.361 123.709C94.5158 127.78 98.9391 133.487 98.9391 133.487L100.79 131.497Z" fill="#4644AB"/>
<path fill-rule="evenodd" clip-rule="evenodd" d="M127.531 139.543L128.958 139.514C128.265 140.115 127.308 140.904 126.114 141.793L126.15 151.978L125.114 151.977L125.081 142.544C122.086 144.668 117.904 147.183 112.831 149.074C112.562 149.174 112.264 149.039 112.163 148.771C112.064 148.504 112.199 148.206 112.468 148.107C120.051 145.279 125.599 141.031 128.084 138.901L127.531 139.543ZM114.564 121.898C114.784 122.083 115.003 122.269 115.223 122.454L116.646 122.098C114.397 123.035 99.202 129.753 92.8115 142.686C93.053 141.876 93.4385 141.102 93.9661 140.404C93.9661 140.404 93.7173 140.15 93.2986 139.675C99.3553 129.849 110.137 123.991 114.564 121.898Z" fill="#4644AB"/>
<path fill-rule="evenodd" clip-rule="evenodd" d="M0.209671 147.283C-0.853673 146.545 2.2321 140.291 7.09632 133.325C11.9606 126.361 16.7731 121.305 17.8364 122.043C17.8419 122.046 17.8472 122.051 17.8524 122.055L23.1118 125.93C24.1752 126.667 21.0894 132.922 16.2252 139.888C11.361 146.852 6.54848 151.908 5.48504 151.17C5.47965 151.166 5.47436 151.162 5.46908 151.158L0.209671 147.283Z" fill="#FFCD80"/>
<path fill-rule="evenodd" clip-rule="evenodd" d="M17.1757 122.064L17.1994 122.054L17.223 122.046L17.2462 122.038L17.2478 122.037L17.2691 122.03H17.2713L17.2917 122.022L17.2944 122.021L17.3139 122.015H17.3172L17.3359 122.009L17.3396 122.008L17.3577 122.004L17.3617 122.003L17.379 121.998L17.3835 121.997L17.4002 121.993L17.4049 121.992L17.4209 121.988L17.4261 121.987L17.4414 121.984L17.4468 121.983L17.4615 121.981L17.4673 121.98L17.4814 121.978H17.4874L17.5009 121.976L17.5072 121.975L17.5202 121.974H17.5266L17.5391 121.973L17.5458 121.972H17.5576H17.5646L17.576 121.971H17.583H17.5939L17.601 121.972H17.6115H17.6188L17.6288 121.973L17.6362 121.974L17.6458 121.975L17.6533 121.976L17.6625 121.977L17.67 121.978L17.6788 121.979L17.6863 121.981L17.6948 121.982L17.7024 121.984L17.7105 121.986L17.718 121.988L17.7258 121.99L17.7408 121.996L17.7555 122.001L17.7699 122.006L17.7839 122.012L17.7907 122.015L17.7975 122.019L17.8042 122.022L17.8108 122.026L17.8173 122.031L17.8238 122.034L17.8302 122.038L17.8364 122.043L18.2938 122.38L18.2943 122.385C18.3353 122.794 18.2473 123.381 18.025 124.111C17.8342 124.738 17.5436 125.481 17.1644 126.318L22.257 129.808C22.1447 130.051 22.0243 130.303 21.8959 130.564L16.8082 127.076C16.6962 127.308 16.5783 127.545 16.4548 127.788L21.4025 131.531C21.2761 131.772 21.1442 132.018 21.0066 132.27L16.0674 128.532C15.2289 130.11 14.1806 131.881 12.9693 133.745L17.7266 137.675C17.5752 137.905 17.4216 138.136 17.2657 138.368L12.5123 134.442C12.1201 135.033 11.7121 135.632 11.2901 136.237C9.86961 138.27 8.44498 140.138 7.10896 141.743L11.9195 145.575L11.9248 145.579C11.7462 145.796 11.5694 146.008 11.3946 146.214L6.58454 142.384C6.58154 142.382 6.57853 142.379 6.57563 142.377C6.28689 142.715 6.00312 143.039 5.72537 143.349L10.4491 147.287C10.4526 147.29 10.456 147.292 10.4593 147.295C10.2708 147.508 10.0856 147.713 9.90412 147.91L5.16768 143.962C4.04806 145.171 3.04214 146.12 2.2209 146.741C1.61149 147.203 1.08988 147.489 0.690241 147.593C0.675006 147.597 0.659874 147.6 0.644846 147.604L0.209664 147.283L0.203549 147.279L0.197434 147.275L0.191423 147.269L0.185516 147.265L0.179712 147.26L0.174011 147.255L0.168415 147.25L0.162818 147.245L0.152041 147.233L0.141676 147.222L0.131726 147.211L0.121984 147.198L0.117321 147.191L0.11276 147.185L0.108201 147.179L0.103847 147.171L0.0993905 147.164L0.0953484 147.158L0.0909963 147.151L0.0871614 147.143L0.0829121 147.135L0.0793887 147.129L0.0752422 147.12L0.0720304 147.113L0.0678839 147.104L0.064982 147.098L0.0610443 147.088L0.0582452 147.081L0.0544118 147.071L0.052027 147.065L0.0482965 147.054L0.0460161 147.047L0.0424927 147.036L0.0404194 147.03L0.0370004 147.017L0.0352371 147.011L0.0320253 146.999L0.0303664 146.993L0.0272573 146.979L0.0259099 146.974L0.023008 146.959L0.021765 146.954L0.0190703 146.94L0.0180329 146.934L0.0154425 146.919L0.0146139 146.913L0.0122291 146.897L0.0116076 146.892L0.00943157 146.876L0.00891287 146.872L0.006944 146.853L0.00652967 146.849L0.00487076 146.83L0.00456081 146.827L0.00321344 146.808L0.0029019 146.804L0.00186607 146.784L0.00165891 146.781L0.000830244 146.759L0.00072587 146.757L0.000207166 146.735V146.733L0 146.708L0.000104374 146.684L0.000621497 146.658C0.0147165 146.109 0.17142 146.102 0.168 146.426C0.166964 146.528 0.174012 146.617 0.193082 146.693C0.204896 146.74 0.213705 146.783 0.245211 146.804C0.276718 146.826 0.319315 146.82 0.368026 146.815C0.44617 146.806 0.532709 146.782 0.627954 146.746C0.931307 146.63 1.29767 146.403 1.7198 146.083C3.85032 144.471 7.23664 140.594 10.6096 135.764C13.9827 130.935 16.4548 126.422 17.2317 123.871C17.3857 123.366 17.472 122.944 17.4754 122.621C17.4765 122.519 17.4694 122.429 17.4503 122.353C17.4385 122.305 17.4297 122.264 17.3982 122.242C17.3667 122.22 17.3241 122.227 17.2754 122.232C17.1971 122.24 17.1107 122.265 17.0155 122.301C16.7121 122.417 16.6648 122.267 17.1757 122.064Z" fill="#936A36"/>
<path fill-rule="evenodd" clip-rule="evenodd" d="M150.047 138.733C149.28 138.605 148.695 137.939 148.695 137.139V133.904C148.695 133.012 149.421 132.286 150.317 132.286H173.498C174.393 132.286 175.121 133.012 175.121 133.904V137.139C175.121 137.939 174.535 138.605 173.768 138.733C174.535 138.862 175.121 139.528 175.121 140.328V143.563C175.121 144.316 174.603 144.951 173.902 145.129C174.585 145.32 175.086 145.946 175.086 146.686V149.922C175.086 150.814 174.359 151.539 173.464 151.539H150.283C149.387 151.539 148.661 150.814 148.661 149.922V146.686C148.661 145.933 149.178 145.3 149.878 145.12C149.195 144.929 148.695 144.304 148.695 143.563V140.328C148.695 139.528 149.28 138.862 150.047 138.733Z" fill="#FFC367"/>
<path fill-rule="evenodd" clip-rule="evenodd" d="M171.399 137.938H174.909C174.672 138.353 174.257 138.651 173.769 138.733C173.819 138.741 173.869 138.753 173.917 138.765H173.407V144.31H174.938C174.728 144.711 174.353 145.015 173.903 145.129C173.911 145.131 173.918 145.133 173.926 145.137H171.222V151.539H170.392V145.137H162.523V151.539H161.694V145.137H154.985V151.539H154.156V145.137H153.312V151.539H152.482V145.137H149.821C149.841 145.13 149.859 145.125 149.879 145.12C149.445 144.998 149.083 144.701 148.879 144.31H150.551V138.765H149.9C149.947 138.753 149.997 138.741 150.048 138.733C149.56 138.651 149.145 138.353 148.908 137.938H153.437V132.286H154.266V137.938H156.04V132.286H156.87V137.938H161.043V132.286H161.872V137.938H170.57V132.286H171.399V137.938ZM151.38 138.765V144.31H158.844V138.765H151.38ZM159.673 138.765V144.31H164.432V138.765H159.673ZM165.261 138.765V144.31H166.488V138.765H165.261ZM167.317 138.765V144.31H172.578V138.765H167.317Z" fill="#936A36"/>
<path fill-rule="evenodd" clip-rule="evenodd" d="M178.759 123.828C183.162 122.356 189.007 126.032 192.173 132.44C195.392 138.955 194.679 145.938 190.652 148.417L190.672 148.458L186.389 150.676C186.263 150.75 186.133 150.821 186 150.886C185.945 150.913 185.888 150.939 185.832 150.965L185.66 151.054L185.653 151.043C181.211 152.887 175.104 149.184 171.84 142.58C168.492 135.802 169.398 128.519 173.864 126.326C173.864 126.326 177.731 124.274 178.013 124.135C178.232 124.028 178.454 123.935 178.681 123.855L178.754 123.818L178.759 123.828Z" fill="#FFCD80"/>
<path d="M189.298 146.365C193 144.704 193.929 138.774 191.373 133.121C188.817 127.468 183.744 124.232 180.042 125.893C176.34 127.555 175.411 133.484 177.967 139.137C180.523 144.791 185.596 148.027 189.298 146.365Z" fill="#936A36"/>
<path fill-rule="evenodd" clip-rule="evenodd" d="M180.713 123.506L180.776 123.505C180.181 123.623 179.602 123.815 179.047 124.088C177.171 125.009 175.855 126.704 175.148 128.812C174.063 132.049 174.405 136.249 176.361 140.206C178.317 144.165 181.448 146.995 184.684 148.109C186.79 148.835 188.94 148.828 190.817 147.907C191.372 147.633 191.878 147.293 192.334 146.894L192.318 146.913L192.304 146.932L192.289 146.951L192.265 146.982L192.251 146.999L192.234 147.02L192.221 147.036L192.218 147.04L192.194 147.068L192.181 147.084L192.16 147.109L192.153 147.118L192.144 147.127L192.123 147.153L192.11 147.168L192.082 147.2L192.072 147.211L192.049 147.237L192.038 147.251L192.009 147.283L191.998 147.294L191.974 147.32L191.964 147.331L191.934 147.364L191.924 147.376L191.898 147.402L191.889 147.411L191.858 147.444L191.848 147.454L191.818 147.485L191.815 147.489L191.812 147.491L191.781 147.522L191.77 147.533L191.738 147.566L191.731 147.572L191.702 147.6L191.693 147.609L191.659 147.641L191.651 147.649L191.621 147.676L191.614 147.685L191.578 147.717L191.57 147.724L191.539 147.753L191.533 147.758L191.498 147.789L191.488 147.797L191.453 147.829L191.451 147.83L191.415 147.861L191.405 147.87L191.369 147.901L191.364 147.905L191.331 147.933L191.321 147.939L191.285 147.97L191.277 147.975L191.245 148.002L191.238 148.008L191.199 148.037L191.191 148.044L191.156 148.071L191.151 148.074L191.112 148.104L191.104 148.11L191.064 148.139L191.024 148.168L191.015 148.175L190.975 148.203L190.971 148.206L190.935 148.232L190.926 148.238L190.886 148.265L190.879 148.27L190.843 148.294L190.835 148.299L190.795 148.326L190.787 148.332L190.749 148.356L190.744 148.359L190.703 148.385L190.693 148.391L190.652 148.417L190.672 148.459L188.942 149.354C188.238 149.465 187.516 149.484 186.786 149.414C186.783 149.416 186.779 149.418 186.775 149.421L182.987 151.512C182.528 151.497 182.061 151.438 181.592 151.337L185.469 149.196C185.117 149.114 184.764 149.011 184.413 148.89C183.19 148.469 181.979 147.818 180.834 146.963L177.245 149.261C177.015 149.09 176.786 148.909 176.559 148.719L180.148 146.421C179.882 146.198 179.62 145.963 179.362 145.718L175.686 147.929C175.485 147.734 175.286 147.532 175.091 147.323L178.761 145.114C177.552 143.837 176.476 142.309 175.618 140.572C175.415 140.161 175.228 139.748 175.058 139.332L171.25 141.275C171.144 141.017 171.043 140.758 170.949 140.5L174.76 138.556C174.177 136.934 173.843 135.303 173.744 133.738L169.848 135.364C169.83 135.067 169.82 134.772 169.819 134.481L173.713 132.854C173.704 131.586 173.853 130.371 174.153 129.25L170.298 130.904C170.407 130.536 170.534 130.18 170.681 129.84L174.398 128.245L174.436 128.335C174.895 127.056 175.564 125.926 176.432 125.009C176.432 125.009 177.637 124.327 177.978 124.153L178.013 124.135C178.232 124.028 178.455 123.935 178.682 123.855L178.754 123.818L178.759 123.828L178.806 123.813L178.813 123.811L178.859 123.796L178.867 123.793L178.913 123.78L178.918 123.778L178.962 123.764L178.969 123.762L179.014 123.75L179.023 123.747L179.068 123.734L179.075 123.732L179.121 123.72L179.124 123.719L179.171 123.706L179.179 123.704L179.226 123.693L179.233 123.691L179.281 123.68H179.282L179.33 123.668L179.337 123.666L179.383 123.656L179.391 123.655L179.439 123.644L179.443 123.643L179.491 123.633H179.494L179.543 123.623L179.55 123.622L179.599 123.612L179.604 123.611L179.654 123.602L179.704 123.594L179.71 123.593L179.759 123.585L179.765 123.584L179.815 123.576L179.867 123.569H179.87L179.92 123.562L179.926 123.561L179.976 123.554H179.98L180.031 123.548H180.032L180.083 123.543L180.089 123.542L180.138 123.537L180.145 123.536L180.196 123.532L180.244 123.528L180.253 123.527L180.3 123.523L180.311 123.522L180.357 123.519L180.367 123.518L180.397 123.517L180.441 123.514L180.458 123.513L180.512 123.511H180.518L180.581 123.508L180.646 123.507H180.647L180.71 123.506H180.713Z" fill="#936A36"/>
<path d="M183.1 140.304C184.577 140.85 186.003 140.866 187.417 140.387C189.081 139.773 189.593 138.84 189.006 137.569C188.498 136.543 187.633 136.122 186.412 136.305C185.851 136.413 185.255 136.534 184.595 136.655C183.401 136.851 182.335 136.706 181.423 136.233C180.484 135.748 179.774 134.998 179.276 133.991C178.682 132.791 178.562 131.696 178.954 130.691C179.31 129.7 180.154 128.968 181.458 128.482C183.079 127.951 184.705 127.943 186.325 128.437L186.098 130.544C184.809 130.205 183.565 130.214 182.403 130.604C181.809 130.815 181.382 131.149 181.149 131.619C180.898 132.095 180.931 132.675 181.239 133.34C181.44 133.746 181.757 134.043 182.208 134.27C182.659 134.497 183.232 134.544 183.929 134.455C184.3 134.392 184.824 134.297 185.475 134.157C186.767 133.903 187.879 134.054 188.829 134.604C189.751 135.142 190.461 135.891 190.95 136.878C192.199 139.53 191.349 141.403 188.434 142.484C186.544 143.155 184.59 143.098 182.599 142.326L183.1 140.304Z" fill="#FFCD80"/>
<path fill-rule="evenodd" clip-rule="evenodd" d="M180.426 126.793L187.59 144.533L189.867 143.865L182.358 126.226L180.426 126.793Z" fill="#FFCD80"/>
<defs>
<linearGradient id="paint0_linear_609_5232" x1="61.6774" y1="72.7809" x2="43.0652" y2="18.69" gradientUnits="userSpaceOnUse">
<stop stop-color="#E86135"/>
<stop offset="0.59" stop-color="#EC6D47"/>
<stop offset="0.8" stop-color="#F6886F"/>
<stop offset="1" stop-color="#FFA396"/>
</linearGradient>
<linearGradient id="paint1_linear_609_5232" x1="33.8343" y1="22.8534" x2="-2.52459" y2="-1.53506" gradientUnits="userSpaceOnUse">
<stop stop-color="#E86135"/>
<stop offset="1" stop-color="#FFA396"/>
</linearGradient>
<linearGradient id="paint2_linear_609_5232" x1="104.39" y1="139.23" x2="78.8832" y2="96.4704" gradientUnits="userSpaceOnUse">
<stop stop-color="#A8CFCC"/>
<stop offset="0.58" stop-color="#B9D5D1"/>
<stop offset="0.8" stop-color="#DDE3DC"/>
<stop offset="1" stop-color="#FFF0E6"/>
</linearGradient>
</defs>
</svg>
