<svg width="217" height="169" viewBox="0 0 217 169" fill="none" xmlns="http://www.w3.org/2000/svg">
<path fill-rule="evenodd" clip-rule="evenodd" d="M60.0384 75.6136C60.0384 75.6136 38.977 73.2626 30.8214 88.3906C28.077 93.4808 7.73527 140.684 5.57891 159.287C5.57891 159.287 0.680358 160.827 0 163.326H28.8566C29.1624 163.326 29.4383 163.143 29.5562 162.863C31.6618 157.856 50.139 113.919 50.139 113.919C50.139 113.919 52.5148 153.747 52.9999 161.884C53.0486 162.694 53.7235 163.326 54.5395 163.326C60.0099 163.326 79.0637 163.326 79.0637 163.326C79.0637 163.326 78.3876 160.701 73.4391 159.287C73.4391 159.287 76.115 97.332 68.6864 81.8199L60.0384 75.6136Z" fill="url(#paint0_linear_252_5800)"/>
<path fill-rule="evenodd" clip-rule="evenodd" d="M46.0476 123.646L48.6523 97.5285C48.6701 97.347 48.8255 97.2102 49.0093 97.215C49.192 97.2197 49.3403 97.3647 49.3486 97.5474L50.0911 114.032L46.0476 123.646Z" fill="#4644AB"/>
<path fill-rule="evenodd" clip-rule="evenodd" d="M73.9072 135.416C73.9072 135.812 73.906 136.205 73.9048 136.595H51.4907L51.4207 135.416H73.9072ZM11.9068 135.416H41.0982L40.6025 136.595H11.5088L11.5151 136.576C11.6409 136.201 11.7675 135.827 11.8946 135.453L11.9068 135.416Z" fill="#82B5B2"/>
<path d="M43.8909 39.3354C48.1717 39.3354 51.642 35.8865 51.642 31.6321C51.642 27.3776 48.1717 23.9287 43.8909 23.9287C39.6102 23.9287 36.1399 27.3776 36.1399 31.6321C36.1399 35.8865 39.6102 39.3354 43.8909 39.3354Z" fill="#A8CFCC"/>
<path fill-rule="evenodd" clip-rule="evenodd" d="M43.3177 23.9504C43.7091 25.5205 44.2749 29.4799 41.33 32.9784C41.0178 32.476 40.4528 32.1401 39.8084 32.1401C38.8262 32.1401 38.0289 32.9202 38.0289 33.8809C38.0289 34.8418 38.8262 35.6219 39.8084 35.6219C39.9783 35.6219 40.1427 35.5985 40.2984 35.5549C40.3206 36.1616 40.1627 37.0099 39.414 37.9211C37.4332 36.5254 36.1392 34.2282 36.1392 31.633C36.1392 27.5727 39.3067 24.242 43.3177 23.9504Z" fill="black"/>
<path fill-rule="evenodd" clip-rule="evenodd" d="M37.5197 35.5308C37.2993 35.6593 36.7443 35.6399 36.4919 35.6903C35.664 35.8552 34.8409 36.0465 34.0212 36.2478C31.4864 36.8704 28.9876 37.6195 26.6228 38.7323C24.9024 39.5419 23.101 40.5668 22.287 42.361C21.1037 44.969 23.2067 47.3098 25.9407 47.0648C28.5774 46.8286 30.6469 44.93 32.4037 43.1445C34.4593 41.0555 36.8064 38.8039 38.3824 36.3108" fill="black"/>
<path fill-rule="evenodd" clip-rule="evenodd" d="M28.4726 52.8474C27.1607 54.2365 15.6198 66.7762 6.9483 76.4505C4.03899 79.7226 3.77544 84.5534 6.31171 88.1194C6.31136 88.1205 6.31148 88.1205 6.31148 88.1205C8.53912 91.2527 12.5711 92.56 16.2287 91.3364C20.1919 90.009 25.6045 86.9441 31.9034 80.0774C35.1031 76.5892 37.6467 73.4041 39.7457 71.4543C39.7457 71.4543 48.954 74.3984 53.6902 69.3521C53.6902 69.3521 65.2524 84.0347 76.4423 89.8876C80.8677 92.1745 86.3203 90.6397 88.8811 86.3853C90.0732 84.4214 90.5737 82.0567 89.2322 79.4892C83.3585 68.2436 74.1353 59.7347 60.0383 46.2639C57.3019 43.6484 52.5171 39.9126 43.2499 42.0445C39.7584 42.8477 35.5023 45.4035 28.4726 52.8474Z" fill="#A8CFCC"/>
<path fill-rule="evenodd" clip-rule="evenodd" d="M48.7595 62.0911C48.7595 62.0911 49.0632 62.0133 49.4214 62.0455C49.725 62.0727 50.0844 62.1794 50.2694 62.5592C50.5173 63.07 50.1425 63.4917 49.5708 63.9225C48.412 64.7965 46.3707 65.5609 44.563 66.2923C44.3199 66.3904 44.2036 66.6658 44.3021 66.9068C44.4005 67.1478 44.6781 67.2639 44.9201 67.1657C46.8095 66.4017 48.9339 65.5869 50.1449 64.6738C51.1555 63.9119 51.5623 63.053 51.1234 62.1493C50.7652 61.412 50.0963 61.1593 49.5068 61.1062C48.9718 61.0582 48.5176 61.1794 48.5176 61.1794C48.2637 61.2459 48.1131 61.5042 48.1795 61.7557C48.2471 62.0074 48.5069 62.1577 48.7595 62.0911Z" fill="#82B5B2"/>
<path fill-rule="evenodd" clip-rule="evenodd" d="M52.4341 60.1642C52.4341 60.1642 52.9987 59.6202 53.7673 59.1861C54.2477 58.915 54.8099 58.6795 55.3615 58.6823C55.5869 58.6827 55.7992 58.7799 55.9451 58.9488C56.0909 59.1174 56.155 59.341 56.1206 59.5607C56.0281 60.0901 55.7743 60.8088 55.1195 61.4947C54.2193 62.4383 51.9407 65.2874 44.6841 66.2006C44.4243 66.2333 44.2404 66.4695 44.2737 66.7277C44.3069 66.9858 44.5441 67.1689 44.8039 67.1363C52.4626 66.1721 54.8574 63.1399 55.8086 62.1437C56.6271 61.2867 56.939 60.3867 57.0576 59.7133C57.1347 59.2123 56.9912 58.7125 56.6662 58.3351C56.34 57.9576 55.8656 57.74 55.365 57.7393C54.6534 57.7358 53.9192 58.0158 53.2988 58.3659C52.4175 58.8634 51.7723 59.4881 51.7723 59.4881C51.5849 59.6695 51.5801 59.9683 51.7628 60.1549C51.9455 60.3414 52.2456 60.3457 52.4341 60.1642Z" fill="#82B5B2"/>
<path fill-rule="evenodd" clip-rule="evenodd" d="M53.6677 63.2544C53.6677 63.2544 52.4519 66.3384 51.2516 67.5303C51.0665 67.7144 51.0665 68.0132 51.2516 68.1972C51.4366 68.3813 51.7379 68.3813 51.9229 68.1973C53.2158 66.9128 54.5502 63.6019 54.5502 63.6019C54.6462 63.36 54.5276 63.0857 54.2833 62.9898C54.0401 62.8939 53.7638 63.0125 53.6677 63.2544Z" fill="#82B5B2"/>
<path fill-rule="evenodd" clip-rule="evenodd" d="M50.0132 65.2889V66.3988C50.0132 66.659 50.2255 66.8703 50.4876 66.8703C50.7486 66.8703 50.9621 66.659 50.9621 66.3988V65.2889C50.9621 65.0287 50.7486 64.8174 50.4876 64.8174C50.2255 64.8174 50.0132 65.0287 50.0132 65.2889Z" fill="#82B5B2"/>
<path fill-rule="evenodd" clip-rule="evenodd" d="M53.4066 47.4699C53.4066 47.4699 52.6475 47.7825 52.2905 48.6425C52.071 49.1704 51.9904 49.9206 52.4055 50.9511C52.8847 52.1385 54.1171 55.6533 52.4423 58.3588C52.3047 58.5804 52.3747 58.871 52.5965 59.0075C52.8207 59.1439 53.1125 59.0747 53.25 58.8531C55.117 55.839 53.8194 51.9233 53.2856 50.6002C52.9986 49.8859 53.0152 49.3683 53.167 49.0025C53.3675 48.5221 53.779 48.3371 53.779 48.3371C54.0198 48.2347 54.1325 47.9574 54.0293 47.7181C53.9261 47.4789 53.6474 47.3676 53.4066 47.4699Z" fill="#82B5B2"/>
<path fill-rule="evenodd" clip-rule="evenodd" d="M35.2933 76.2663C34.251 77.4581 33.125 78.7454 31.9034 80.0774C25.6045 86.9441 20.1919 90.009 16.2287 91.3364C12.5711 92.56 8.53912 91.2527 6.31148 88.1205C6.31148 88.1205 6.31136 88.1205 6.31171 88.1194C3.77544 84.5534 4.03899 79.7226 6.9483 76.4505C15.6198 66.7762 27.1607 54.2365 28.4726 52.8474C35.5023 45.4035 39.7584 42.8477 43.2499 42.0445C52.5171 39.9126 57.3019 43.6484 60.0383 46.2639C74.1353 59.7347 83.3585 68.2436 89.2322 79.4892C90.5737 82.0567 90.0732 84.4214 88.8811 86.3853C86.8125 89.8216 82.8568 91.4837 79.0802 90.7906L75.8718 89.5823C72.0074 87.4604 68.1217 84.3354 64.7045 81.1714C62.7592 79.1627 61.426 77.6326 61.426 77.6326L67.0945 63.7207L57.9649 57.287C57.5806 54.6549 57.4288 52.9727 56.6092 51.2285C56.3862 50.7513 56.1122 50.2696 55.7694 49.7624C54.1765 47.4014 53.173 48.8068 53.173 48.8068C52.4329 47.8987 51.7461 47.4805 51.2883 47.2884C51.0463 47.1928 50.7747 47.2097 50.5469 47.3344C50.3204 47.4591 50.1614 47.6786 50.114 47.9324C50.0037 48.5565 50.388 49.2601 50.5956 49.5831C50.6596 49.681 50.7332 49.7726 50.815 49.8565C55.314 54.4789 52.8267 59.6675 52.8267 59.6675C50.6039 62.3867 46.6351 62.3222 46.6351 62.3222C43.7327 62.5543 41.9073 61.665 40.872 60.8541C39.3327 59.6518 37.2967 59.2788 35.4271 59.8568C30.8641 61.302 25.9406 65.6072 25.9406 65.6072L35.2933 76.2663Z" fill="url(#paint1_linear_252_5800)"/>
<path fill-rule="evenodd" clip-rule="evenodd" d="M39.7588 71.4583L44.4099 66.2886C44.4099 66.2886 50.0143 68.8315 51.7899 66.842L54.0424 69.7908C53.8111 69.5069 53.6901 69.352 53.6901 69.352C49.0583 74.2877 40.1469 71.5794 39.7588 71.4583Z" fill="#82B5B2"/>
<path fill-rule="evenodd" clip-rule="evenodd" d="M26.9839 64.7508C26.327 65.2693 25.9405 65.6072 25.9405 65.6072L26.7057 66.4794L12.7977 77.9379C12.5456 78.1454 12.1715 78.11 11.9625 77.8601C11.7537 77.609 11.7886 77.2377 12.0407 77.0301L26.8378 64.8393C26.8831 64.8021 26.9324 64.7725 26.9839 64.7508ZM66.4112 63.2392C66.5357 63.247 66.6603 63.294 66.7623 63.3818L80.3066 75.0465C80.5533 75.2596 80.5806 75.6321 80.3659 75.8779C80.1512 76.1238 79.7764 76.1505 79.5297 75.9375L66.6401 64.8366L67.0944 63.7208L66.4112 63.2392ZM28.333 63.7295C28.4028 62.5944 28.6008 60.3737 29.1381 58.4308C29.196 58.2516 29.3657 58.1317 29.555 58.1363C29.7444 58.1409 29.908 58.2688 29.957 58.4506C30.2486 59.5258 30.6483 61.0058 30.9175 62.0033C29.9632 62.583 29.0812 63.186 28.333 63.7295ZM61.0238 59.4432L61.6596 56.4352C61.6833 56.3226 61.7746 56.2362 61.8885 56.2176C62.0024 56.1989 62.1163 56.2519 62.1744 56.3509C62.5338 57.1399 63.0746 58.6595 63.3368 61.0732L61.0238 59.4432Z" fill="#4644AB"/>
<path d="M46.2258 62.5455C50.3865 62.5455 53.7595 59.2393 53.7595 55.1609C53.7595 51.0826 50.3865 47.7764 46.2258 47.7764C42.0651 47.7764 38.6921 51.0826 38.6921 55.1609C38.6921 59.2393 42.0651 62.5455 46.2258 62.5455Z" fill="#FFCD80"/>
<path d="M46.208 61.3028C49.6945 61.3028 52.521 58.5323 52.521 55.1148C52.521 51.6972 49.6945 48.9268 46.208 48.9268C42.7214 48.9268 39.895 51.6972 39.895 55.1148C39.895 58.5323 42.7214 61.3028 46.208 61.3028Z" fill="#936A36"/>
<path d="M44.0787 57.5481C44.778 58.0523 45.5763 58.2757 46.4866 58.2406C47.5703 58.1737 48.0824 57.7683 48.0578 57.0227C48.0187 56.4158 47.6336 56.0678 46.9025 55.9788C46.5613 55.9503 46.1969 55.923 45.7967 55.8861C45.078 55.8079 44.513 55.5726 44.114 55.1909C43.7026 54.7983 43.4836 54.3039 43.4452 53.7084C43.3995 52.9984 43.5958 52.4139 44.0575 51.9537C44.4959 51.4946 45.1466 51.243 45.9971 51.188C47.0365 51.1578 47.9528 51.3982 48.7455 51.8976L48.1115 52.9526C47.4676 52.5834 46.7656 52.4011 46.0185 52.4278C45.6337 52.4475 45.3131 52.5558 45.0691 52.7636C44.8134 52.972 44.6927 53.2769 44.7061 53.6669C44.7216 53.9074 44.8282 54.1088 45.0273 54.2939C45.2264 54.479 45.5377 54.5895 45.951 54.6488C46.1748 54.6718 46.4926 54.7015 46.892 54.727C47.6799 54.7901 48.2691 55.0357 48.671 55.4632C49.0605 55.8799 49.2796 56.3742 49.3172 56.9583C49.3825 58.5175 48.4539 59.3578 46.5546 59.478C45.3302 59.5407 44.2447 59.2171 43.3105 58.518L44.0787 57.5481Z" fill="#FFCD80"/>
<path fill-rule="evenodd" clip-rule="evenodd" d="M45.8264 50.154L45.5907 60.4176L47.026 60.415L47.0449 50.1518L45.8264 50.154Z" fill="#FFCD80"/>
<path fill-rule="evenodd" clip-rule="evenodd" d="M16.745 145.507C16.0288 145.378 15.4851 144.755 15.4851 144.006V140.955C15.4851 140.114 16.1728 139.43 17.0198 139.43H34.2595C35.1066 139.43 35.7943 140.114 35.7943 140.955V144.006C35.7943 144.755 35.2506 145.378 34.5344 145.507C35.2506 145.637 35.7943 146.26 35.7943 147.009V150.059C35.7943 150.808 35.2506 151.43 34.5344 151.56C35.2506 151.689 35.7943 152.312 35.7943 153.061V156.112C35.7943 156.86 35.2506 157.484 34.5344 157.612C35.2506 157.742 35.7943 158.364 35.7943 159.113V162.164C35.7943 163.005 35.1066 163.689 34.2595 163.689H17.0198C16.1728 163.689 15.4851 163.005 15.4851 162.164V159.113C15.4851 158.364 16.0288 157.742 16.745 157.612C16.0288 157.484 15.4851 156.86 15.4851 156.112V153.061C15.4851 152.312 16.0288 151.689 16.745 151.56C16.0288 151.43 15.4851 150.808 15.4851 150.059V147.009C15.4851 146.26 16.0288 145.637 16.745 145.507Z" fill="#FFCD80"/>
<path fill-rule="evenodd" clip-rule="evenodd" d="M31.7249 139.43V144.312H35.7062C35.7254 144.312 35.7444 144.313 35.763 144.314C35.6436 144.894 35.1932 145.354 34.6171 145.49H34.5865V145.497C34.5693 145.501 34.552 145.505 34.5344 145.507C34.552 145.51 34.5693 145.514 34.5865 145.517V150.362H35.7062C35.7254 150.362 35.7445 150.364 35.7633 150.365C35.6444 150.944 35.1961 151.403 34.6219 151.541H33.3534V156.414H35.7062C35.7255 156.414 35.7446 156.414 35.7635 156.417C35.6454 156.993 35.1989 157.453 34.6266 157.593H31.4807V163.689H30.2945V157.593H29.1721V163.689H27.986V157.593H20.1085V163.689H18.9224V157.593H16.6529C16.0797 157.453 15.6327 156.992 15.5154 156.414H22.9684V151.541H16.6576C16.0825 151.403 15.6335 150.942 15.5156 150.362H17.2242V145.49H16.6624C16.0854 145.354 15.6346 144.892 15.5159 144.312H20.4973V139.43H21.6834V144.312H28.13V139.43H29.3161V144.312H30.5388V139.43H31.7249ZM24.1545 151.541V156.414H25.0511V151.541H24.1545ZM26.2372 151.541V156.414H32.1673V151.541H26.2372ZM18.4103 145.49V150.362H27.2534V145.49H18.4103ZM28.4396 145.49V150.362H33.4004V145.49H28.4396Z" fill="#936A36"/>
<path fill-rule="evenodd" clip-rule="evenodd" d="M176.187 64.2726C175.376 63.8745 174.817 63.0434 174.817 62.0837V57.2048C174.817 55.8584 175.916 54.7654 177.271 54.7654H214.546C215.9 54.7654 217 55.8584 217 57.2048V62.0837C217 63.0434 216.441 63.8745 215.629 64.2726C216.441 64.6708 217 65.5019 217 66.4615V71.3405C217 72.1843 216.568 72.9286 215.912 73.3666C216.568 73.8048 217 74.549 217 75.3928V80.2719C217 81.116 216.568 81.8598 215.912 82.2983C216.568 82.7357 217 83.4807 217 84.3235V89.2027C217 90.0467 216.568 90.7906 215.912 91.2291C216.568 91.6676 217 92.4114 217 93.2555V98.1346C217 98.9775 216.568 99.7225 215.912 100.161C216.568 100.598 217 101.343 217 102.186V107.065C217 107.909 216.568 108.653 215.912 109.092C216.568 109.53 217 110.274 217 111.118V115.997C217 116.84 216.568 117.585 215.912 118.023C216.568 118.461 217 119.205 217 120.049V124.928C217 125.772 216.568 126.516 215.912 126.954C216.568 127.393 217 128.137 217 128.981V133.86C217 134.703 216.568 135.448 215.912 135.885C216.568 136.324 217 137.068 217 137.912V142.791C217 143.635 216.568 144.379 215.912 144.817C216.568 145.255 217 146 217 146.844V151.722C217 152.566 216.568 153.311 215.912 153.748C216.568 154.186 217 154.93 217 155.774V160.654C217 162 215.9 163.092 214.546 163.092H177.271C175.916 163.092 174.817 162 174.817 160.654V155.774C174.817 154.93 175.249 154.186 175.905 153.748C175.249 153.311 174.817 152.566 174.817 151.722V146.844C174.817 146 175.249 145.255 175.905 144.817C175.249 144.379 174.817 143.635 174.817 142.791V137.912C174.817 137.068 175.249 136.324 175.905 135.885C175.249 135.448 174.817 134.703 174.817 133.86V128.981C174.817 128.137 175.249 127.393 175.905 126.954C175.249 126.516 174.817 125.772 174.817 124.928V120.049C174.817 119.205 175.249 118.461 175.905 118.023C175.249 117.585 174.817 116.84 174.817 115.997V111.118C174.817 110.274 175.249 109.53 175.905 109.092C175.249 108.653 174.817 107.909 174.817 107.065V102.186C174.817 101.343 175.249 100.598 175.905 100.161C175.249 99.7225 174.817 98.9775 174.817 98.1346V93.2555C174.817 92.4114 175.249 91.6676 175.905 91.2291C175.249 90.7906 174.817 90.0467 174.817 89.2027V84.3235C174.817 83.4807 175.249 82.7357 175.905 82.2983C175.249 81.8598 174.817 81.116 174.817 80.2719V75.3928C174.817 74.549 175.249 73.8048 175.905 73.3666C175.249 72.9286 174.817 72.1843 174.817 71.3405V66.4615C174.817 65.5019 175.376 64.6708 176.187 64.2726Z" fill="#FFCD80"/>
<path fill-rule="evenodd" clip-rule="evenodd" d="M205.54 54.7654V63.0348H210.083C210.144 62.7735 210.38 62.5783 210.661 62.5783C210.942 62.5783 211.178 62.7735 211.238 63.0348H216.806C216.592 63.5351 216.216 63.9501 215.743 64.2136H211.254V72.2193H216.836C216.653 72.6894 216.328 73.0894 215.913 73.3666C215.928 73.3769 215.942 73.3874 215.958 73.3981H214.918V81.347C214.918 81.3659 214.916 81.3847 214.915 81.4036H216.721C216.53 81.7643 216.251 82.072 215.913 82.2983C216.039 82.382 216.156 82.4775 216.264 82.5824H210.005V90.1434H216.811C216.624 90.5866 216.309 90.9638 215.913 91.2291C215.957 91.2585 216.001 91.2904 216.042 91.3222H213.568V99.0659H216.814C216.628 99.5138 216.311 99.8934 215.913 100.161C215.953 100.187 215.992 100.215 216.031 100.245H209.357V108H216.814C216.627 108.446 216.311 108.825 215.913 109.092C215.954 109.12 215.995 109.148 216.034 109.179H213.322V117.006H216.78C216.591 117.42 216.289 117.771 215.913 118.023C215.988 118.073 216.06 118.127 216.129 118.185H208.192V125.832H216.826C216.641 126.291 216.321 126.682 215.913 126.954C215.94 126.972 215.966 126.991 215.992 127.011H211.642V134.651H216.868C216.703 135.128 216.394 135.539 215.992 135.83H207.816V143.709H216.82C216.635 144.162 216.316 144.547 215.913 144.817C215.946 144.84 215.979 144.863 216.012 144.888H212.377V152.526H216.864C216.696 153.004 216.382 153.414 215.976 153.704H203.978V163.092H202.792V153.704H200.396V163.092H199.21V153.704H183.63V163.092H182.444V153.704H175.842C175.435 153.414 175.122 153.004 174.954 152.526H177.061V144.888H175.805C175.837 144.863 175.871 144.84 175.905 144.817C175.502 144.547 175.183 144.162 174.996 143.709H182.616V135.83H175.826C175.423 135.539 175.114 135.128 174.949 134.651H177.914V127.011H175.824C175.85 126.991 175.878 126.972 175.905 126.954C175.497 126.682 175.176 126.291 174.992 125.832H181.434V118.185H175.688C175.758 118.127 175.829 118.073 175.905 118.023C175.529 117.771 175.227 117.42 175.037 117.006H177.615V109.179H175.783C175.823 109.148 175.863 109.12 175.905 109.092C175.506 108.825 175.19 108.446 175.004 108H181.86V100.245H175.786C175.826 100.215 175.865 100.187 175.905 100.161C175.505 99.8934 175.189 99.5138 175.002 99.0659H176.789V91.3222H175.775C175.817 91.2904 175.861 91.2585 175.905 91.2291C175.508 90.9638 175.193 90.5866 175.006 90.1434H178.881V82.5824H175.554C175.662 82.4775 175.779 82.382 175.905 82.2983C175.567 82.072 175.288 81.7643 175.097 81.4036H185.859V73.3981H179.785C179.708 73.4343 179.622 73.4544 179.532 73.4544C179.441 73.4544 179.355 73.4343 179.278 73.3981H175.859C175.874 73.3874 175.89 73.3769 175.905 73.3666C175.49 73.0894 175.165 72.6894 174.981 72.2193H178.939V64.2136H176.075C175.601 63.9501 175.224 63.535 175.011 63.0348H178.953C179.015 62.7735 179.25 62.5783 179.532 62.5783C179.813 62.5783 180.049 62.7735 180.11 63.0348H187.563V54.7654H188.749V63.0348H190.036V54.7654H191.223V63.0348H194.631C194.692 62.7735 194.928 62.5783 195.21 62.5783C195.491 62.5783 195.727 62.7735 195.788 63.0348H197.586C197.648 62.7735 197.883 62.5783 198.165 62.5783C198.446 62.5783 198.682 62.7735 198.743 63.0348H204.354V54.7654H205.54ZM178.248 144.888V152.526H188.856V144.888H178.248ZM190.042 144.888V152.526H191.855V144.888H190.042ZM193.041 144.888V152.526H211.191V144.888H193.041ZM183.802 135.83V143.709H194.82V135.83H183.802ZM204.367 135.83H196.006V143.709H204.364V135.892L204.367 135.83ZM205.55 143.709H206.63V135.83H205.546C205.548 135.85 205.55 135.871 205.55 135.892V143.709ZM203.008 127.011V134.651H210.455V127.011H203.008ZM190.076 134.651H201.822V127.011H190.065C190.072 127.046 190.076 127.083 190.076 127.12V134.651ZM188.899 127.011H179.1V134.651H188.889V127.12C188.889 127.084 188.892 127.048 188.899 127.012V127.011ZM198.587 118.185V125.832H207.006V118.185H198.587ZM195.908 118.185V125.832H197.401V118.185H195.908ZM182.62 118.185V125.832H194.722V118.185H182.62ZM187.814 109.179V117.006H202.332V109.179H187.814ZM178.801 109.179V117.006H186.628V109.179H178.801ZM203.518 109.179V117.006H212.136V109.179H203.518ZM193.318 100.245V108H194.495V100.245H193.318ZM187.324 108H192.132V100.245H183.047V108H187.117C187.151 107.994 187.185 107.991 187.221 107.991C187.256 107.991 187.291 107.994 187.324 108ZM195.681 100.245V108H208.171V100.245H195.681ZM208.941 99.0659H212.382V91.3222H202.672V99.0659H208.587C208.643 99.0482 208.702 99.0388 208.764 99.0388C208.826 99.0388 208.885 99.0482 208.941 99.0659ZM199.815 91.3222V99.0659H201.486V91.3222H199.815ZM177.975 91.3222V99.0659H189.596V91.3222H177.975ZM190.782 91.3222V99.0659H198.629V91.3222H190.782ZM180.067 82.5824V90.1434H181.515V82.5824H180.067ZM196.354 82.5824V90.1434H208.819V82.5824H196.354ZM182.701 82.5824V90.1434H195.168V82.5824H182.701ZM189.144 73.3981H187.045V81.4036H189.148C189.146 81.3847 189.144 81.3659 189.144 81.347V73.3981ZM203.485 73.3981H198.418C198.342 73.4343 198.255 73.4544 198.165 73.4544C198.074 73.4544 197.988 73.4343 197.911 73.3981H195.463C195.386 73.4343 195.3 73.4544 195.21 73.4544C195.119 73.4544 195.034 73.4343 194.956 73.3981H190.331V81.347C190.331 81.3659 190.331 81.3847 190.328 81.4036H203.487C203.485 81.3847 203.485 81.3659 203.485 81.347V73.3981ZM213.732 73.3981H210.914C210.837 73.4343 210.752 73.4544 210.661 73.4544C210.571 73.4544 210.484 73.4343 210.408 73.3981H204.671V81.347C204.671 81.3659 204.67 81.3847 204.667 81.4036H213.734C213.733 81.3847 213.732 81.3659 213.732 81.347V73.3981ZM180.125 64.2136V72.2193H194.617V64.2136H180.125ZM195.803 64.2136V72.2193H197.572V64.2136H195.803ZM198.758 64.2136V72.2193H210.068V64.2136H198.758Z" fill="#936A36"/>
<path fill-rule="evenodd" clip-rule="evenodd" d="M113.122 118.349C112.466 117.912 112.035 117.167 112.035 116.324V111.445C112.035 110.098 113.134 109.004 114.489 109.004H151.763C153.118 109.004 154.218 110.098 154.218 111.445V116.324C154.218 117.167 153.786 117.912 153.13 118.349C153.786 118.787 154.218 119.531 154.218 120.375V125.254C154.218 126.099 153.786 126.842 153.13 127.281C153.786 127.718 154.218 128.463 154.218 129.307V134.185C154.218 135.029 153.786 135.774 153.13 136.212C153.786 136.65 154.218 137.394 154.218 138.238V143.117C154.218 143.961 153.786 144.705 153.13 145.144C153.786 145.581 154.218 146.326 154.218 147.169V152.048C154.218 152.892 153.786 153.636 153.13 154.074C153.786 154.513 154.218 155.257 154.218 156.101V160.98C154.218 162.326 153.118 163.419 151.763 163.419H114.489C113.134 163.419 112.035 162.326 112.035 160.98V156.101C112.035 155.257 112.466 154.513 113.122 154.074C112.466 153.636 112.035 152.892 112.035 152.048V147.169C112.035 146.326 112.466 145.581 113.122 145.144C112.466 144.705 112.035 143.961 112.035 143.117V138.238C112.035 137.394 112.466 136.65 113.122 136.212C112.466 135.774 112.035 135.029 112.035 134.185V129.307C112.035 128.463 112.466 127.718 113.122 127.281C112.466 126.842 112.035 126.099 112.035 125.254V120.375C112.035 119.531 112.466 118.787 113.122 118.349Z" fill="#FFCD80"/>
<path fill-rule="evenodd" clip-rule="evenodd" d="M145.458 117.347H153.991C153.801 117.755 153.501 118.101 153.13 118.349C153.211 118.403 153.288 118.462 153.363 118.526H149.843V126.159V126.16H154.042C153.858 126.618 153.537 127.009 153.13 127.281C153.157 127.3 153.186 127.319 153.213 127.339H146.189V134.921C146.189 134.955 146.186 134.988 146.181 135.02H154.069C153.893 135.502 153.568 135.913 153.149 136.199H150.984V143.832C150.984 143.865 150.981 143.898 150.976 143.929H154.078C153.907 144.409 153.59 144.819 153.18 145.108H146.717V152.875H154.072C153.897 153.358 153.575 153.768 153.158 154.054H150.694V163.419H149.508V154.054H141.856C141.856 154.065 141.857 154.074 141.857 154.084V163.419H140.671V154.084C140.671 154.074 140.671 154.065 140.671 154.054H134.821C134.745 154.09 134.662 154.109 134.574 154.109C134.485 154.109 134.402 154.09 134.326 154.054H126.727V163.419H125.541V154.054H123.468V163.419H122.281V154.054H113.093C112.676 153.768 112.354 153.358 112.179 152.875H120.363V145.108H113.071C112.662 144.819 112.344 144.409 112.173 143.929H115.186V136.199H113.103C112.683 135.913 112.358 135.502 112.182 135.02H119.463V127.339H113.038C113.066 127.319 113.094 127.3 113.122 127.281C112.714 127.009 112.394 126.618 112.209 126.16H114.803V118.526H112.89C112.963 118.462 113.04 118.403 113.122 118.349C112.75 118.101 112.451 117.755 112.26 117.347H117.713V109.004H118.899V117.347H120.113V109.004H121.299V117.347H132.193V109.004H133.379V117.347H144.272V109.004H145.458V117.347ZM121.55 145.108V152.875H133.981V145.108H121.55ZM135.167 145.108V152.875H143.182V145.108H135.167ZM144.368 145.108V152.875H145.531V145.108H144.368ZM116.372 136.199V143.929H125.968V136.199H116.372ZM138.79 136.199H127.154V143.929H138.822C138.802 143.869 138.79 143.804 138.79 143.737V136.199ZM149.798 136.199H139.976V143.737C139.976 143.804 139.965 143.869 139.944 143.929H149.805C149.801 143.898 149.798 143.865 149.798 143.832V136.199ZM120.649 127.339V135.02H129.763V127.339H120.649ZM130.95 127.339V135.02H132.352V127.339H130.95ZM145.003 127.339H133.538V135.02H139.2C139.257 135.001 139.319 134.992 139.383 134.992C139.447 134.992 139.509 135.001 139.567 135.02H145.012C145.006 134.988 145.003 134.955 145.003 134.921V127.339ZM115.989 118.526V126.16H126.434V118.526H115.989ZM127.62 118.526V126.16H137.064V118.526H127.62ZM138.25 118.526V126.16H139.837V118.526H138.25ZM148.657 118.526H141.023V126.16H148.657V126.159V118.526Z" fill="#936A36"/>
<path fill-rule="evenodd" clip-rule="evenodd" d="M154.23 83.4343H165.656C185.313 83.4343 201.274 101.852 201.274 124.537C201.274 145.469 187.708 163.091 170.167 165.641C168.696 165.855 154.307 165.641 154.307 165.641C134.649 165.641 118.689 147.223 118.689 124.537C118.689 101.882 134.608 83.4815 154.23 83.4343Z" fill="#936A36"/>
<path d="M154.306 165.642C173.977 165.642 189.923 147.239 189.923 124.539C189.923 101.838 173.977 83.4353 154.306 83.4353C134.635 83.4353 118.689 101.838 118.689 124.539C118.689 147.239 134.635 165.642 154.306 165.642Z" fill="#FFCD80"/>
<path fill-rule="evenodd" clip-rule="evenodd" d="M154.438 100.115L153.208 100.047L153.236 98.223L155.382 98.342C155.89 98.3701 156.294 98.8013 156.287 99.3047L156.239 102.389C158.117 102.577 159.914 102.977 161.63 103.587C163.823 104.366 165.885 105.488 167.814 106.952C168.033 107.116 168.169 107.366 168.192 107.632C168.212 107.899 168.118 108.157 167.928 108.339L163.727 112.385C163.41 112.689 162.911 112.712 162.544 112.438C160.641 111.02 158.502 110.102 156.127 109.682L155.97 119.96C164.803 122.317 168.997 126.772 168.78 133.078C168.676 136.504 167.348 139.274 164.811 141.378C162.492 143.375 159.421 144.573 155.586 144.944L155.505 150.244C155.497 150.746 155.081 151.131 154.572 151.103L152.466 150.986L152.493 149.164L153.684 149.23L153.764 144.045C153.771 143.584 154.123 143.215 154.586 143.186C158.357 142.943 161.36 141.887 163.591 139.967C165.742 138.183 166.857 135.842 166.946 132.945C167.141 127.271 163.027 123.557 154.854 121.542C154.423 121.434 154.117 121.041 154.124 120.604L154.308 108.579C154.312 108.327 154.421 108.094 154.608 107.93C154.795 107.769 155.044 107.693 155.297 107.725C158.136 108.06 160.69 108.997 162.957 110.532L165.85 107.746C164.342 106.715 162.753 105.899 161.076 105.305C159.245 104.654 157.316 104.266 155.286 104.136C154.783 104.104 154.384 103.675 154.391 103.174L154.438 100.115ZM155.699 137.569C157.039 137.242 158.023 136.731 158.621 135.994C158.995 135.517 159.271 134.973 159.45 134.363L161.213 134.946C160.967 135.771 160.589 136.507 160.075 137.164C159.094 138.372 157.397 139.214 154.941 139.594C154.67 139.636 154.388 139.554 154.175 139.369C153.964 139.183 153.843 138.915 153.847 138.641L153.946 132.195L155.78 132.297L155.699 137.569ZM146.056 111.226C146.391 110.419 146.821 109.757 147.338 109.234C147.35 109.221 147.365 109.208 147.378 109.195C148.541 108.158 149.914 107.598 151.491 107.516C151.749 107.503 152.008 107.601 152.199 107.783C152.391 107.967 152.498 108.221 152.494 108.478L152.413 113.756L150.578 113.655L150.642 109.493C149.907 109.682 149.245 110.038 148.655 110.559C148.287 110.936 147.99 111.417 147.75 111.994C147.745 112.01 147.737 112.025 147.73 112.04C147.443 112.637 147.304 113.372 147.291 114.235L145.456 114.133C145.474 112.99 145.68 112.022 146.056 111.226Z" fill="#936A36"/>
<path fill-rule="evenodd" clip-rule="evenodd" d="M146.771 118.03C145.883 116.955 145.439 115.659 145.462 114.133L147.296 114.235C147.28 115.281 147.564 116.174 148.174 116.91L148.196 116.937C148.673 117.556 149.449 118.067 150.509 118.508L150.583 113.655L152.417 113.757L152.324 119.841C152.319 120.124 152.183 120.383 151.954 120.544C151.728 120.703 151.433 120.747 151.159 120.66C149.041 119.985 147.593 119.083 146.771 118.03Z" fill="#936A36"/>
<path fill-rule="evenodd" clip-rule="evenodd" d="M155.847 127.934L155.78 132.296L153.946 132.194L154.03 126.725C154.034 126.458 154.156 126.212 154.362 126.05C154.571 125.888 154.842 125.827 155.107 125.884C157.661 126.441 159.358 127.356 160.254 128.504L160.273 128.532C161.145 129.735 161.573 131.092 161.55 132.608C161.537 133.456 161.422 134.235 161.212 134.945L159.449 134.362C159.618 133.798 159.706 133.178 159.716 132.506C159.733 131.417 159.433 130.441 158.813 129.576C158.248 128.862 157.251 128.335 155.847 127.934Z" fill="#936A36"/>
<path fill-rule="evenodd" clip-rule="evenodd" d="M150.387 126.573C141.893 124.216 137.909 119.885 138.196 113.822C138.326 110.165 139.551 107.368 141.816 105.407C143.888 103.613 146.862 102.516 150.761 102.17L150.81 99.0002C150.818 98.4968 151.234 98.1111 151.74 98.1391L153.243 98.2224L153.215 100.046L152.63 100.014L152.583 103.073C152.576 103.537 152.222 103.907 151.757 103.934C147.931 104.164 145.021 105.099 143.05 106.805C141.132 108.468 140.142 110.86 140.03 113.972C139.772 119.403 143.684 122.993 151.509 125.003C151.935 125.112 152.239 125.503 152.233 125.936L152.039 138.54C152.035 138.797 151.921 139.035 151.729 139.198C151.535 139.36 151.278 139.43 151.021 139.392C148.728 139.051 146.79 138.433 145.211 137.551C143.821 136.85 142.58 136.007 141.487 135.02L137.927 137.768C139.606 139.058 141.471 140.172 143.517 141.11C145.904 142.178 148.419 142.801 151.064 142.983C151.567 143.019 151.964 143.446 151.956 143.945L151.877 149.13L152.5 149.164L152.472 150.986L150.93 150.901C150.424 150.873 150.02 150.443 150.028 149.94L150.108 144.726C147.566 144.46 145.137 143.807 142.816 142.768C140.221 141.579 137.91 140.128 135.874 138.418C135.661 138.239 135.535 137.973 135.534 137.698C135.531 137.422 135.655 137.166 135.869 137L140.941 133.087C141.299 132.808 141.825 132.851 142.159 133.188C143.251 134.284 144.534 135.199 146.003 135.938L146.042 135.957C147.212 136.613 148.605 137.096 150.22 137.414L150.387 126.573Z" fill="#936A36"/>
<path fill-rule="evenodd" clip-rule="evenodd" d="M152.596 91.5684C166.962 91.5684 178.502 106.418 178.502 124.589C178.502 142.758 166.962 157.608 152.596 157.608C152.072 157.608 151.646 158.03 151.646 158.551C151.646 159.071 152.072 159.495 152.596 159.495C167.872 159.495 180.399 143.908 180.399 124.589C180.399 105.268 167.872 89.6826 152.596 89.6826C152.072 89.6826 151.646 90.105 151.646 90.6255C151.646 91.146 152.072 91.5684 152.596 91.5684Z" fill="#936A36"/>
<path fill-rule="evenodd" clip-rule="evenodd" d="M152.595 157.608C138.227 157.608 126.689 142.758 126.689 124.589C126.689 106.418 138.227 91.5684 152.595 91.5684C153.119 91.5684 153.543 91.146 153.543 90.6255C153.543 90.105 153.119 89.6826 152.595 89.6826C137.319 89.6826 124.791 105.268 124.791 124.589C124.791 143.908 137.319 159.495 152.595 159.495C153.119 159.495 153.543 159.071 153.543 158.551C153.543 158.03 153.119 157.608 152.595 157.608Z" fill="#936A36"/>
<path fill-rule="evenodd" clip-rule="evenodd" d="M180.381 162.268H166.791C166.268 162.268 165.842 161.845 165.842 161.325C165.842 160.804 166.268 160.382 166.791 160.382H183.115C183.226 160.382 183.331 160.401 183.43 160.435C182.443 161.101 181.426 161.713 180.381 162.268ZM195.886 146.388C195.542 147.028 195.185 147.657 194.813 148.274H181.762C181.238 148.274 180.813 147.852 180.813 147.331C180.813 146.81 181.238 146.388 181.762 146.388H195.886ZM198.461 140.631C198.229 141.268 197.982 141.897 197.725 142.517H183.115C182.591 142.517 182.166 142.095 182.166 141.574C182.166 141.054 182.591 140.631 183.115 140.631H198.461ZM201.176 121.488C201.217 122.114 201.244 122.742 201.259 123.374H188.227C187.703 123.374 187.279 122.952 187.279 122.431C187.279 121.911 187.703 121.488 188.227 121.488H201.176ZM199.103 110.386C199.3 111.008 199.486 111.637 199.658 112.272H185.46C184.937 112.272 184.511 111.85 184.511 111.329C184.511 110.809 184.937 110.386 185.46 110.386H199.103ZM197.155 105.346C197.439 105.966 197.71 106.594 197.967 107.232H184.949C184.426 107.232 184 106.81 184 106.289C184 105.769 184.426 105.346 184.949 105.346H197.155ZM184.531 89.6831C185.35 90.2749 186.146 90.9032 186.919 91.5692H171.903C171.38 91.5692 170.954 91.146 170.954 90.6262C170.954 90.1051 171.38 89.6831 171.903 89.6831H184.531Z" fill="#FFCD80"/>
<path fill-rule="evenodd" clip-rule="evenodd" d="M122.808 15.3349C123.646 12.4568 126.034 4.22998 127.758 0.553991L137.693 5.91645C137.693 5.91645 133.419 21.2912 132.498 25.7003L120.944 22.9641C121.294 20.5616 121.964 18.2304 122.808 15.3349Z" fill="#82B5B2"/>
<path d="M128.073 18.4886C129.975 18.4886 131.517 16.8844 131.517 14.9056C131.517 12.9267 129.975 11.3225 128.073 11.3225C126.17 11.3225 124.628 12.9267 124.628 14.9056C124.628 16.8844 126.17 18.4886 128.073 18.4886Z" fill="#A8CFCC" fill-opacity="0.63"/>
<path fill-rule="evenodd" clip-rule="evenodd" d="M125.618 19.3112C126.179 17.7569 129.309 9.69505 131.24 7.27222L140.235 12.2961C140.235 12.2961 135.387 25.0976 134.282 28.7837L123.628 25.903C124.088 23.8871 124.741 21.742 125.618 19.3112Z" fill="#A8CFCC"/>
<path d="M131.842 22.1537C133.745 22.1537 135.287 20.5495 135.287 18.5706C135.287 16.5917 133.745 14.9875 131.842 14.9875C129.94 14.9875 128.397 16.5917 128.397 18.5706C128.397 20.5495 129.94 22.1537 131.842 22.1537Z" fill="#82B5B2"/>
<path d="M154.093 19.9847C158.29 19.9847 161.691 16.6038 161.691 12.4334C161.691 8.26291 158.29 4.88208 154.093 4.88208C149.897 4.88208 146.495 8.26291 146.495 12.4334C146.495 16.6038 149.897 19.9847 154.093 19.9847Z" fill="#E86135"/>
<path fill-rule="evenodd" clip-rule="evenodd" d="M149.04 6.79793C150.384 5.60721 152.155 4.88306 154.094 4.88306C158.288 4.88306 161.692 8.26674 161.692 12.4343C161.692 13.8643 161.291 15.202 160.596 16.342C154.954 13.8228 155.781 7.74464 155.781 7.74464C152.679 8.75171 150.362 7.7318 149.04 6.79793Z" fill="black"/>
<path fill-rule="evenodd" clip-rule="evenodd" d="M121.534 108.411C121.534 108.411 119.313 104.139 121.534 100.939L117.59 94.0523C117.59 94.0523 115.674 92.8322 113.497 91.4459C108.576 88.3114 105.753 82.7721 106.122 76.9758C106.15 76.5341 106.201 76.129 106.278 75.7748C104.015 73.6527 102.146 68.8895 102.834 64.3321C103.791 57.9845 109.097 53.1744 115.544 52.8094C125.92 52.2244 143.728 51.8247 154.676 54.9449L152.213 48.8525C152.213 48.8525 134.694 55.0785 130.257 40.7812C120.2 44.8172 109.001 47.7676 97.9269 49.364C93.2975 50.0336 88.7298 47.8029 86.4346 43.7512C86.4299 43.754 86.4299 43.754 86.4299 43.754C84.4882 40.327 85.1085 36.0307 87.941 33.2841C90.7889 30.5534 95.646 27.0209 103.941 22.9568C103.941 22.9568 112.249 18.5902 117.115 16.0332C119.289 14.891 121.866 14.7915 124.122 15.7629C128.915 17.8261 136.834 21.2356 136.834 21.2356L137.759 18.9149C143.258 19.8249 148.661 21.4804 153.958 23.5292C159.584 25.7121 163.943 30.2649 165.856 35.9566C170.567 49.9728 179.463 76.8842 180.63 83.6256H183.966C185.84 83.6256 187.463 84.9176 187.873 86.7353C188.192 88.1558 188.5 89.5268 188.5 89.5268C188.5 89.5268 190.624 91.888 191.246 94.0523C191.499 94.934 190.084 95.962 188.5 94.3104C188.032 93.8212 183.482 90.2529 181.438 90.0302C179.875 89.8592 178.492 89.6812 177.202 89.5244C173.244 89.0423 169.731 86.7719 167.68 83.371C166.309 81.0982 165.048 79.007 165.048 79.007C165.048 79.007 160.773 85.8206 149.039 84.5911L150.862 108.144C150.862 108.144 148.521 107.593 147.738 103.791C147.738 103.791 134.514 102.04 126.982 98.8701C126.982 98.8701 124.011 101.802 121.534 108.411Z" fill="url(#paint2_linear_252_5800)"/>
<path fill-rule="evenodd" clip-rule="evenodd" d="M180.568 83.2886C180.591 83.4065 180.611 83.5184 180.63 83.6257H182.209C182.973 84.1585 184.134 84.9955 185.392 85.9928L185.797 85.5401C185.971 85.3456 186.271 85.3279 186.467 85.5012C186.663 85.6733 186.681 85.9716 186.506 86.1661L186.13 86.5869C186.844 87.1728 187.57 87.7999 188.257 88.4436L188.5 89.5269L180.77 83.786C180.6 83.6752 180.526 83.4736 180.568 83.2886Z" fill="#D7441E"/>
<path fill-rule="evenodd" clip-rule="evenodd" d="M135.457 101.494L142.027 82.9561C142.136 82.6484 142.475 82.4869 142.783 82.5954C143.092 82.7038 143.254 83.0398 143.146 83.3475L136.618 101.765C136.233 101.678 135.846 101.587 135.457 101.494ZM117.59 94.0523C117.59 94.0523 120.133 95.4115 122.322 96.5361C125.095 97.9636 128 99.2981 126.982 98.8702C126.982 98.8702 126.699 99.1507 126.234 99.7319C123.739 98.6214 120.868 97.1243 118.666 95.9314L117.59 94.0523ZM105.373 74.7569C107.277 65.6818 114.394 60.5255 122.673 57.6574C134.375 53.6032 148.387 54.1527 152.769 54.4522C153.413 54.6029 154.349 54.8023 154.952 54.9735C154.986 55.0582 155.251 55.2209 155.241 55.3177C155.207 55.6413 155.659 55.8782 155.333 55.8449C155.333 55.8449 137.135 54.7021 123.063 58.7706C114.326 61.2963 108.286 67.5887 106.278 75.7748C105.968 75.4831 105.664 75.1413 105.373 74.7569Z" fill="#D7441E"/>
<path fill-rule="evenodd" clip-rule="evenodd" d="M149.145 85.757C146.959 85.4233 144.185 84.5192 141.261 83.3368C132.69 79.8758 122.768 74.0834 122.768 74.0834C122.485 73.9186 122.392 73.5571 122.557 73.2767C122.723 72.9962 123.087 72.9023 123.369 73.0671C123.369 73.0671 133.207 78.8125 141.707 82.2452C144.774 83.4842 149.305 84.6182 149.039 84.5911L149.145 85.757Z" fill="#8A2208"/>
<path fill-rule="evenodd" clip-rule="evenodd" d="M153.999 53.2702L152.213 48.8525C152.213 48.8525 134.694 55.0785 130.257 40.7812C120.2 44.8172 109.001 47.7676 97.9269 49.364C93.2975 50.0336 88.7298 47.8029 86.4346 43.7512C86.4299 43.754 86.4299 43.754 86.4299 43.754C84.4882 40.327 85.1085 36.0307 87.941 33.2841C90.7889 30.5534 95.646 27.0209 103.941 22.9568C103.941 22.9568 112.249 18.5902 117.115 16.0332C119.289 14.891 121.866 14.7915 124.122 15.7629C128.915 17.8261 136.834 21.2356 136.834 21.2356L137.759 18.9149C143.258 19.8249 148.661 21.4804 153.958 23.5292C159.584 25.7121 163.943 30.2649 165.856 35.9566C168.686 44.3747 173.025 57.4444 176.291 68.0014L162.637 72.1398C159.675 65.9666 156.672 59.8437 154.047 53.2779L153.999 53.2702Z" fill="#D7441E"/>
<path fill-rule="evenodd" clip-rule="evenodd" d="M149.673 49.5446C149.239 47.3892 149.137 45.1271 149.177 42.8194C149.178 42.6925 149.271 42.5846 149.396 42.5613C149.522 42.5378 149.647 42.6052 149.695 42.7227C150.853 45.5272 153.688 52.391 153.688 52.391H153.644L152.213 48.8526C152.213 48.8526 151.23 49.2018 149.673 49.5446ZM112.132 35.5985L97.5558 43.7591C97.2699 43.9187 97.1691 44.2785 97.3292 44.5619C97.4905 44.8452 97.8523 44.9458 98.1381 44.7861L112.714 36.6256C113 36.466 113.101 36.1062 112.94 35.8228C112.78 35.5393 112.418 35.4388 112.132 35.5985ZM127.187 41.9663C127.739 38.0016 129.051 35.2215 129.964 33.6878C130.022 33.6032 130.135 33.5741 130.229 33.6194C130.321 33.6647 130.367 33.7708 130.335 33.869C129.392 37.238 130.202 40.5669 130.255 40.7714L130.257 40.7813C129.245 41.1874 128.222 41.5824 127.187 41.9663Z" fill="#8A2208"/>
<path fill-rule="evenodd" clip-rule="evenodd" d="M104.577 22.6221L117.115 16.0332C119.289 14.891 121.866 14.7915 124.122 15.7629L136.489 21.0872C136.572 21.1421 136.648 21.1916 136.715 21.2356C138.777 22.5782 137.148 23.9055 136.572 23.7161C137.98 24.3811 137.932 25.4861 137.6 25.9649C137.053 26.7548 135.096 26.4666 135.096 26.4666C135.641 26.6596 136.14 27.7155 135.718 28.4987C135.039 29.7578 133.183 28.9928 133.183 28.9928C133.52 30.7487 131.693 30.7545 129.465 30.2854C127.739 29.9222 126.948 29.5379 125.479 29.1739C123.106 35.4638 116.019 34.7373 116.019 34.7373L111.349 37.3685L104.577 22.6221Z" fill="url(#paint3_linear_252_5800)"/>
<path fill-rule="evenodd" clip-rule="evenodd" d="M133.19 29.0293L125.254 25.9676C125.009 25.8734 124.888 25.5999 124.983 25.3573C125.078 25.1147 125.353 24.9942 125.598 25.0884L135.419 28.8776C134.61 29.5807 133.183 28.9928 133.183 28.9928C133.185 29.0052 133.188 29.0173 133.19 29.0293ZM135.216 26.5235L126.193 23.0422C125.949 22.948 125.828 22.6747 125.923 22.4321C126.018 22.1895 126.293 22.069 126.537 22.1631L136.879 26.1534C136.974 26.1899 137.05 26.2535 137.102 26.3318C136.319 26.6467 135.096 26.4666 135.096 26.4666C135.136 26.481 135.177 26.5001 135.216 26.5235ZM136.668 23.7333L127.275 20.1092C127.031 20.015 126.908 19.7415 127.003 19.4989C127.098 19.2563 127.373 19.1359 127.618 19.23L137.614 23.087C137.407 23.4935 136.96 23.7505 136.668 23.7333Z" fill="#D7441E"/>
<path fill-rule="evenodd" clip-rule="evenodd" d="M108.228 159.424C107.557 158.975 107.113 158.213 107.113 157.348V152.349C107.113 150.97 108.24 149.85 109.629 149.85H147.823C149.211 149.85 150.338 150.97 150.338 152.349V157.348C150.338 158.213 149.895 158.975 149.223 159.424C149.895 159.873 150.338 160.636 150.338 161.5V166.5C150.338 167.88 149.211 169 147.823 169H109.629C108.24 169 107.113 167.88 107.113 166.5V161.5C107.113 160.636 107.557 159.873 108.228 159.424Z" fill="#FFDBA3"/>
<path fill-rule="evenodd" clip-rule="evenodd" d="M138.922 158.412H150.099C149.905 158.823 149.6 159.173 149.223 159.424C149.3 159.476 149.373 159.532 149.444 159.591H145.823V169H144.637V159.591H134.722V169H133.536V159.591H132.023V169H130.836V159.591H115.521V169H114.335V159.591H108.007C108.077 159.532 108.151 159.476 108.228 159.424C107.852 159.173 107.547 158.823 107.353 158.412H121.236V149.85H122.422V158.412H123.936V149.85H125.122V158.412H137.736V149.85H138.922V158.412Z" fill="#936A36"/>
<defs>
<linearGradient id="paint0_linear_252_5800" x1="39.5318" y1="119.403" x2="39.2941" y2="186.783" gradientUnits="userSpaceOnUse">
<stop stop-color="#A8CFCC"/>
<stop offset="1" stop-color="#59A09B"/>
</linearGradient>
<linearGradient id="paint1_linear_252_5800" x1="47.3029" y1="66.6016" x2="50.3973" y2="126.422" gradientUnits="userSpaceOnUse">
<stop stop-color="#82B5B2"/>
<stop offset="0.45" stop-color="#A7C6C1"/>
<stop offset="1" stop-color="#FFF0E6"/>
</linearGradient>
<linearGradient id="paint2_linear_252_5800" x1="158.404" y1="78.849" x2="91.8593" y2="19.5177" gradientUnits="userSpaceOnUse">
<stop stop-color="#E86135"/>
<stop offset="0.48" stop-color="#EE734F"/>
<stop offset="1" stop-color="#FFA396"/>
</linearGradient>
<linearGradient id="paint3_linear_252_5800" x1="121.19" y1="28.1884" x2="125.933" y2="-3.14239" gradientUnits="userSpaceOnUse">
<stop stop-color="#E86135"/>
<stop offset="1" stop-color="#FFA396"/>
</linearGradient>
</defs>
</svg>
