<svg width="222" height="169" viewBox="0 0 222 169" fill="none" xmlns="http://www.w3.org/2000/svg">
<path fill-rule="evenodd" clip-rule="evenodd" d="M56.7956 56.7091L54.1466 57.272L53.5913 28.986L145.281 6.44243L159.156 33.5189L61.5914 54.3935L56.7956 56.7091Z" fill="#1A1616"/>
<path fill-rule="evenodd" clip-rule="evenodd" d="M71.8899 52.165L70.8369 52.39L61.9237 26.9433L62.9658 26.6874L71.8899 52.165ZM73.619 24.0711L82.6904 48.5042C82.7908 48.7734 82.6461 49.0701 82.3669 49.1666C82.0887 49.2629 81.7814 49.1227 81.682 48.8535L72.5754 24.3275L73.619 24.0711ZM86.7729 20.8409L96.4985 46.6813C96.5264 46.7535 96.5358 46.8276 96.5296 46.8996L95.5284 47.1134C95.5139 47.0887 95.5015 47.0625 95.4911 47.0349L85.7293 21.0974L86.7729 20.8409ZM109.937 44.0343L108.885 44.2591L99.8378 17.6327L100.879 17.3769L109.937 44.0343ZM103.415 16.754C104.79 20.8753 110.476 37.9087 112.364 43.5157L111.313 43.7403C109.383 38.0085 103.705 20.9968 102.375 17.0096L103.415 16.754ZM120.158 12.6425L128.912 37.7755C129.006 38.0465 128.856 38.3404 128.575 38.4314C128.294 38.5225 127.99 38.3764 127.896 38.1054L119.116 12.8984L120.158 12.6425ZM131.719 9.80337L141.468 35.4901C141.57 35.7586 141.427 36.0563 141.149 36.1547C140.871 36.253 140.563 36.1147 140.461 35.8462L130.675 10.0599L131.719 9.80337ZM149.252 35.6327L148.195 35.8586L137.573 8.36575L138.619 8.10909L149.252 35.6327Z" fill="#D2D2D5"/>
<path fill-rule="evenodd" clip-rule="evenodd" d="M62.3647 53.8499L76.9748 50.799L86.0999 38.1908L99.8434 46.0222L123.916 40.9947L132.938 28.5284L146.527 36.2723L156.552 34.1785L170.829 95.543L69.8162 116.64L55.5534 55.3357L55.5509 55.3352L55.5504 55.3229L55.5394 55.2757L55.5488 55.2738L54.7286 30.6541L62.3647 53.8499Z" fill="#D2D2D5"/>
<path fill-rule="evenodd" clip-rule="evenodd" d="M86.3417 38.873L75.023 55.0625L72.6237 53.4918L84.7385 36.1635C85.181 35.5314 86.0646 35.3583 86.7268 35.7746L104.349 46.856L102.771 49.2048L86.3417 38.873Z" fill="#1A1616"/>
<path fill-rule="evenodd" clip-rule="evenodd" d="M133.294 29.0218L122.263 45.3945L119.838 43.857L131.645 26.3327C132.076 25.6934 132.957 25.5073 133.625 25.9143L151.428 36.7508L149.892 39.1252L133.294 29.0218Z" fill="#1A1616"/>
<path fill-rule="evenodd" clip-rule="evenodd" d="M80.1831 114.326L79.2017 114.535L65.4155 53.5236L66.3969 53.3151L80.1831 114.326Z" fill="white"/>
<path fill-rule="evenodd" clip-rule="evenodd" d="M98.9175 53.4592C98.376 51.131 96.9106 49.0955 94.8457 47.7998C92.7795 46.5045 90.2829 46.0553 87.9031 46.5514C85.5233 47.0475 83.4569 48.4479 82.1567 50.4451C80.8577 52.442 80.4311 54.872 80.9726 57.2001L83.8512 69.5749L101.796 65.834L98.9175 53.4592Z" fill="white"/>
<path fill-rule="evenodd" clip-rule="evenodd" d="M87.1371 46.7444C87.3879 46.669 87.6433 46.605 87.9021 46.5505C87.9794 46.5346 88.0569 46.5196 88.1334 46.5048L89.5857 52.8096L97.9861 51.076C98.1567 51.3782 98.3105 51.69 98.4452 52.0099L89.8119 53.7916L91.2978 60.2427L100.073 58.4318L100.301 59.4134L91.524 61.2247L93.0075 67.665L92.0042 67.8741L90.5203 61.4319L82.3487 63.1183L82.1204 62.1367L90.2941 60.4499L88.8081 53.9988L80.7539 55.661C80.7367 55.3168 80.7384 54.9729 80.7616 54.6306L88.5819 53.0167L87.1371 46.7444Z" fill="#D2D2D5"/>
<path fill-rule="evenodd" clip-rule="evenodd" d="M96.0999 54.7546L94.0986 58.0636C94.0406 58.159 94.0744 58.2827 94.1718 58.3399C94.2701 58.3968 94.3968 58.3665 94.4538 58.2714L96.4561 54.9622C96.5133 54.868 96.4806 54.744 96.3822 54.6871C96.2836 54.6292 96.1582 54.6603 96.0999 54.7546ZM95.0227 54.7792L93.552 57.116C93.4925 57.2096 93.523 57.333 93.6209 57.3921C93.7177 57.4514 93.8448 57.4231 93.9033 57.3297L95.374 54.993C95.4334 54.8994 95.4027 54.775 95.3059 54.7157C95.2083 54.6576 95.0812 54.6859 95.0227 54.7792Z" fill="#D2D2D5"/>
<path fill-rule="evenodd" clip-rule="evenodd" d="M105.929 79.3473C104.781 74.4108 99.761 71.2617 94.7158 72.3136L91.0337 73.0813C85.99 74.1329 82.8299 78.9876 83.9781 83.924L88.4017 102.944L110.353 98.3668L105.929 79.3473Z" fill="white"/>
<path fill-rule="evenodd" clip-rule="evenodd" d="M93.612 72.5572C98.1788 72.5498 102.329 75.6535 103.382 80.186L107.735 98.9098L88.3973 102.943L88.3493 102.739L106.686 98.9147L102.38 80.3949C101.296 75.7321 96.5547 72.7576 91.7907 73.7515C91.2285 73.8686 90.6633 73.9863 90.1011 74.1034C88.1349 74.5134 86.4724 75.5351 85.2732 76.9226C86.5543 75.0289 88.5663 73.6092 91.0285 73.0957L93.612 72.5572Z" fill="#D2D2D5"/>
<path fill-rule="evenodd" clip-rule="evenodd" d="M146.519 43.5956C145.977 41.2675 144.512 39.2319 142.447 37.9363C140.381 36.6409 137.884 36.1918 135.504 36.6879C133.124 37.184 131.058 38.5844 129.758 40.5816C128.459 42.5785 128.032 45.0085 128.574 47.3366L131.452 59.7114L149.397 55.9704L146.519 43.5956Z" fill="white"/>
<path fill-rule="evenodd" clip-rule="evenodd" d="M135.029 36.8009C135.186 36.7601 135.345 36.7223 135.504 36.6894L135.505 36.6891C135.68 36.6521 135.857 36.6208 136.033 36.5948L137.444 42.7237L145.501 41.0611C145.678 41.3619 145.838 41.6725 145.98 41.991L137.671 43.7058L139.157 50.1568L147.637 48.4066L147.866 49.3883L139.383 51.1389L140.904 57.7422L139.9 57.9513L138.379 51.346L129.912 53.0933L129.684 52.1117L138.153 50.364L136.667 43.9129L128.35 45.6294C128.338 45.284 128.347 44.9386 128.376 44.5951L136.441 42.9309L135.029 36.8009Z" fill="#D2D2D5"/>
<path fill-rule="evenodd" clip-rule="evenodd" d="M134.708 46.4107L132.404 49.5334C132.338 49.6232 132.36 49.7487 132.453 49.814C132.545 49.8805 132.675 49.8611 132.74 49.7712L135.044 46.6485C135.11 46.5597 135.088 46.4333 134.995 46.3679C134.903 46.3024 134.774 46.3218 134.708 46.4107ZM133.457 46.4101L131.449 49.1182C131.382 49.2073 131.404 49.3337 131.496 49.4003C131.589 49.4656 131.717 49.4463 131.784 49.3572L133.792 46.6491C133.859 46.5601 133.837 46.4336 133.744 46.3683C133.652 46.3018 133.524 46.321 133.457 46.4101Z" fill="#D2D2D5"/>
<path d="M151.562 64.904L136.668 68.0397L141.122 87.009L156.016 83.8733L151.562 64.904Z" fill="white"/>
<path fill-rule="evenodd" clip-rule="evenodd" d="M148.849 85.332L147.864 85.5424L143.691 66.612L144.676 66.4016L148.849 85.332Z" fill="#D2D2D5"/>
<path d="M128.908 69.7488L114.014 72.8845L118.468 91.8539L133.362 88.7181L128.908 69.7488Z" fill="white"/>
<path fill-rule="evenodd" clip-rule="evenodd" d="M126.623 90.0843L125.638 90.2947L121.167 71.4282L122.152 71.2178L126.623 90.0843Z" fill="#D2D2D5"/>
<path fill-rule="evenodd" clip-rule="evenodd" d="M69.4218 84.552L64.62 87.0002L68.6731 104.812L74.2834 105.917L69.4218 84.552ZM63.1115 56.8206C62.826 55.5661 61.6406 54.7044 60.3458 54.811C59.0508 54.9166 58.0509 55.9571 58.0129 57.2393L58.0128 57.2403C58.0003 57.666 58.0418 58.0916 58.1364 58.5071L61.7447 74.3641L66.3949 71.25L63.1115 56.8206Z" fill="white"/>
<path fill-rule="evenodd" clip-rule="evenodd" d="M90.3789 112.161L88.1472 102.435C88.0846 102.162 88.2596 101.894 88.538 101.836C88.8163 101.778 89.0931 101.953 89.1558 102.226L91.387 111.95L90.3789 112.161ZM98.1981 110.523L97.0732 105.62L93.4061 106.38C93.3688 106.388 93.3306 106.391 93.2925 106.391C93.2353 106.39 93.1791 106.38 93.1251 106.361L93.1238 106.361C92.9048 106.341 92.7134 106.183 92.6626 105.962L91.672 101.645C91.6094 101.372 91.7845 101.103 92.0628 101.046C92.3412 100.988 92.6179 101.163 92.6806 101.436L93.559 105.264L97.3545 104.526L115.077 100.855L114.283 97.3932L108.91 98.5061C108.632 98.5638 108.355 98.389 108.292 98.1159C108.23 97.8429 108.405 97.5745 108.683 97.5169L114.56 96.2995C114.838 96.2418 115.115 96.4166 115.178 96.6897L116.085 100.646L119.522 99.9336C119.801 99.876 120.078 100.051 120.14 100.324L121.367 105.669L120.358 105.88L119.245 101.027L98.0817 105.411L99.2062 110.312L98.1981 110.523Z" fill="white"/>
<path fill-rule="evenodd" clip-rule="evenodd" d="M118.523 55.2176C118.362 54.4337 117.888 53.7405 117.207 53.2905C116.526 52.8404 115.692 52.6704 114.891 52.8176C114.807 52.833 114.724 52.8484 114.641 52.8636C113.839 53.011 113.134 53.4638 112.681 54.1223C112.229 54.7807 112.064 55.5911 112.226 56.3751C112.658 58.4727 113.161 60.9176 113.161 60.9176L119.458 59.7602L118.523 55.2176Z" fill="white"/>
<path fill-rule="evenodd" clip-rule="evenodd" d="M116.587 55.5711L114.651 58.8074C114.594 58.9025 114.627 59.0253 114.726 59.0822C114.824 59.1391 114.95 59.1079 115.007 59.0127L116.943 55.7776C117 55.6825 116.966 55.5587 116.868 55.5018C116.77 55.4449 116.643 55.4762 116.587 55.5711ZM115.429 55.5733L114.147 57.6608C114.088 57.7552 114.121 57.8791 114.219 57.9372C114.316 57.9953 114.443 57.9651 114.5 57.8709L115.783 55.7834C115.841 55.688 115.809 55.5649 115.712 55.5068C115.613 55.4489 115.487 55.4779 115.429 55.5733Z" fill="#D2D2D5"/>
<path fill-rule="evenodd" clip-rule="evenodd" d="M71.8772 10.8396C71.8772 10.8396 67.533 10.8372 70.8241 19.0409L77.0055 17.6048L71.8772 10.8396Z" fill="#80B1AE"/>
<path fill-rule="evenodd" clip-rule="evenodd" d="M70.824 11.0619C70.824 11.0619 74.3249 10.3187 82.3571 33.4706L126.268 23.3763C126.268 23.3763 121.029 3.19868 115.394 0L70.824 11.0619Z" fill="#AACFCC"/>
<path d="M85.2352 23.7257C86.5845 24.1016 87.9376 24.0069 89.2959 23.441C90.8865 22.7363 91.437 21.8266 90.9473 20.7119C90.5388 19.802 89.75 19.4866 88.5824 19.765C88.0561 19.9095 87.4767 20.0667 86.8459 20.2358C85.7064 20.5155 84.722 20.473 83.891 20.109C83.0342 19.736 82.4026 19.1075 81.993 18.2247C81.5009 17.1643 81.4617 16.1567 81.8771 15.2015C82.2722 14.2617 83.1027 13.5152 84.372 12.9607C85.9211 12.3401 87.4492 12.1908 88.9562 12.5126L88.6196 14.4718C87.4162 14.2666 86.255 14.3892 85.1325 14.8411C84.5584 15.0858 84.1452 15.4317 83.8928 15.8785C83.6291 16.3434 83.6259 16.8701 83.8866 17.4573C84.0489 17.8071 84.3335 18.0648 84.7405 18.2305C85.1516 18.401 85.6873 18.4121 86.3473 18.2637C86.711 18.1752 87.2032 18.0418 87.8223 17.8643C89.0508 17.5267 90.0948 17.5706 90.9541 17.9955C91.8018 18.4124 92.426 19.0506 92.8254 19.9112C93.84 22.2587 92.9427 24.0511 90.1335 25.2886C88.3063 26.0677 86.4789 26.1817 84.6497 25.6314L85.2352 23.7257Z" fill="black"/>
<path fill-rule="evenodd" clip-rule="evenodd" d="M83.1639 11.6696L88.7981 27.3842L89.7687 27.0586L84.1344 11.344L83.1639 11.6696Z" fill="black"/>
<path fill-rule="evenodd" clip-rule="evenodd" d="M84.8758 11.1011L90.5101 26.8158L91.4806 26.4901L85.8463 10.7755L84.8758 11.1011Z" fill="black"/>
<path fill-rule="evenodd" clip-rule="evenodd" d="M92.2655 11.1004L102.719 8.56525L102.93 9.3514L92.1086 11.9756C91.9005 12.026 91.685 11.9116 91.613 11.7123L90.8854 9.70001C90.8466 9.59274 90.8553 9.47522 90.9097 9.37581C90.963 9.27664 91.0578 9.20459 91.1698 9.17742L101.94 6.56561L102.151 7.35151L91.8163 9.85779L92.2655 11.1004Z" fill="black"/>
<path fill-rule="evenodd" clip-rule="evenodd" d="M114.395 4.34578L102.178 7.31072L101.967 6.52401L114.552 3.4697C114.76 3.41918 114.976 3.53374 115.048 3.73318L115.776 5.7475C115.815 5.85488 115.806 5.97261 115.752 6.07213C115.697 6.17164 115.602 6.24376 115.49 6.27096L102.957 9.31265L102.747 8.5257L114.845 5.58966L114.395 4.34578Z" fill="black"/>
<path fill-rule="evenodd" clip-rule="evenodd" d="M92.9527 15.7914L102.653 13.439L102.864 14.225L92.7958 16.6666C92.5875 16.7171 92.3718 16.6027 92.2997 16.4034L91.5722 14.3912C91.5334 14.2839 91.5419 14.1664 91.5961 14.067C91.6504 13.9677 91.7453 13.8956 91.8565 13.8686L102.634 11.2551L102.844 12.0411L92.5034 14.5488L92.9527 15.7914Z" fill="black"/>
<path fill-rule="evenodd" clip-rule="evenodd" d="M117.189 8.52051L102.87 11.9992L102.659 11.2113L117.346 7.64326C117.555 7.59262 117.769 7.70754 117.841 7.90725L118.569 9.92429C118.608 10.0318 118.6 10.1497 118.545 10.2493C118.492 10.3486 118.397 10.4209 118.285 10.4482L102.889 14.1883L102.679 13.4004L117.639 9.76607L117.189 8.52051Z" fill="black"/>
<path fill-rule="evenodd" clip-rule="evenodd" d="M98.7672 19.2197L107.312 17.1493L107.523 17.9342L98.6102 20.0938C98.4029 20.144 98.1878 20.0297 98.1158 19.8306L97.3885 17.8209C97.3498 17.7138 97.3581 17.5965 97.4125 17.4972C97.4661 17.3981 97.5609 17.3261 97.672 17.2992L106.302 15.2082L106.512 15.9934L98.3181 17.9787L98.7672 19.2197Z" fill="black"/>
<path fill-rule="evenodd" clip-rule="evenodd" d="M119.348 12.8444L106.537 15.9542L106.327 15.1669L119.505 11.968C119.714 11.9175 119.929 12.0321 120.001 12.2316L120.729 14.2466C120.768 14.354 120.759 14.4717 120.705 14.5713C120.651 14.6706 120.556 14.7428 120.444 14.77L107.549 17.9001L107.338 17.1131L119.797 14.0887L119.348 12.8444Z" fill="black"/>
<path fill-rule="evenodd" clip-rule="evenodd" d="M97.4249 24.4122L108.601 21.701L108.812 22.4874L97.2677 25.2878C97.0602 25.3381 96.8446 25.2237 96.7725 25.0242L96.0449 23.0111C96.0061 22.9038 96.015 22.7862 96.0691 22.6868C96.1233 22.5874 96.2177 22.5154 96.3295 22.4882L107.839 19.6962L108.051 20.4824L96.9756 23.169L97.4249 24.4122Z" fill="black"/>
<path fill-rule="evenodd" clip-rule="evenodd" d="M121.298 17.2312L108.075 20.4415L107.863 19.6545L121.455 16.3546C121.662 16.3042 121.878 16.4188 121.95 16.6183L122.678 18.6337C122.717 18.7411 122.708 18.859 122.654 18.9585C122.6 19.058 122.505 19.1301 122.393 19.1572L108.836 22.4488L108.625 21.6615L121.747 18.4757L121.298 17.2312Z" fill="black"/>
<path fill-rule="evenodd" clip-rule="evenodd" d="M38.967 80.1823C38.967 80.1823 55.1512 102.492 62.1998 112.209C64.2514 115.036 67.4253 116.914 70.9641 117.395C73.8173 117.782 77.1072 118.228 79.11 118.5C80.248 118.654 81.3798 118.184 82.0482 117.281C83.2296 115.683 84.9501 113.355 84.9501 113.355C84.9501 113.355 86.806 112.853 87.6626 112.621C88.0123 112.527 88.2399 112.201 88.1996 111.853C88.1509 111.539 87.9823 111.151 87.493 110.78C86.8009 110.256 86.0281 110.133 78.808 111.16C78.808 111.16 79.109 104.169 72.3607 103.454L66.5726 93.4377L38.967 80.1823Z" fill="#FFC5BD"/>
<path fill-rule="evenodd" clip-rule="evenodd" d="M84.95 113.355L84.0976 114.508L80.2666 115.328L79.649 116.777C79.5404 117.034 79.2373 117.155 78.9735 117.05C78.7097 116.944 78.5834 116.651 78.6921 116.396L79.0355 115.591L72.789 116.928C72.5096 116.987 72.2334 116.817 72.1724 116.548C72.1103 116.278 72.2862 116.011 72.5655 115.952L85.8346 113.112C85.847 113.11 85.8594 113.107 85.8728 113.106L84.95 113.355ZM78.7614 110.164C78.8245 110.77 78.8079 111.16 78.8079 111.16C79.1431 111.112 79.4649 111.067 79.7732 111.025C79.7659 111.026 79.7597 111.027 79.7525 111.028L77.881 111.307C77.5986 111.349 77.3347 111.161 77.2913 110.889C77.2478 110.616 77.4413 110.36 77.7237 110.318L78.7614 110.164Z" fill="#DA0F47"/>
<path fill-rule="evenodd" clip-rule="evenodd" d="M39.0346 80.2147C39.0597 80.2391 39.0826 80.2663 39.1027 80.2964C48.3536 94.1488 62.0847 94.0398 66.6481 93.5687L67.1944 94.5138C63.7548 94.9319 53.6066 95.3829 44.6348 87.9951L38.967 80.1823L39.0346 80.2147Z" fill="#DA0F47"/>
<path fill-rule="evenodd" clip-rule="evenodd" d="M22.0425 117.635C20.0701 111.338 18.6964 105.237 18.3653 99.8579C17.8886 92.115 22.4521 86.8233 28.4752 86.1303C30.4104 85.9082 34.5734 85.7892 38.4125 89.4866L38.4276 89.4536C38.4276 89.4536 52.8851 102.523 61.9282 120.327C64.4597 125.336 63.6461 131.278 59.9648 135.464C63.2135 144.765 66.3001 154.977 68.7525 165.562C68.7525 165.562 72.982 166.368 75.1608 168.993H46.9356C46.4175 168.993 45.9384 168.727 45.6776 168.294C44.0545 165.561 37.9629 155.113 31.936 142.323C25.3213 140.758 17.2538 137.478 7.56862 131.431C7.56862 131.431 4.26656 133.758 1.10645 133.766C1.10645 133.766 12.0798 119.022 14.6431 115.579C14.954 115.161 15.5217 115.006 16.0129 115.204C17.8453 115.943 22.0425 117.635 22.0425 117.635Z" fill="url(#paint0_linear_252_5896)"/>
<path fill-rule="evenodd" clip-rule="evenodd" d="M61.6722 119.827C61.7577 119.993 61.8432 120.16 61.9282 120.327C62.012 120.493 62.0921 120.66 62.1684 120.827H55.1916C54.9062 120.827 54.6743 120.603 54.6743 120.327C54.6743 120.051 54.9062 119.827 55.1916 119.827H61.6722Z" fill="#DA0F47"/>
<path fill-rule="evenodd" clip-rule="evenodd" d="M20.7295 117.105L22.0397 117.633C24.3505 123.573 32.4394 143.391 31.9361 142.323C31.5445 142.231 31.1479 142.132 30.7462 142.027C27.6764 134.927 22.1928 120.871 20.7295 117.105ZM40.914 91.861C41.9317 92.8851 43.2131 94.2172 44.6647 95.8174C52.1548 108.37 55.6423 121.461 60.6985 134.557C60.4683 134.867 60.2236 135.17 59.9649 135.464C59.5473 135.703 49.3242 102.042 40.914 91.861Z" fill="#DA0F47"/>
<path fill-rule="evenodd" clip-rule="evenodd" d="M55.5225 122.551C55.6449 122.859 55.7669 123.166 55.8884 123.474L55.9141 123.54L24.0303 123.514L24.0158 123.474C23.9071 123.173 23.7994 122.872 23.6925 122.57L23.6726 122.514L55.5181 122.54L55.5225 122.551Z" fill="#DA0F47"/>
<path fill-rule="evenodd" clip-rule="evenodd" d="M31.9254 50.3694C34.4646 49.5289 43.8235 48.5013 47.9801 58.0733C48.8125 59.99 54.0824 75.2261 66.9802 73.8651C66.9802 73.8651 72.6138 73.4894 79.9839 68.1823C79.9839 68.1823 88.8986 61.5526 98.2426 60.4959C98.6823 60.4504 99.1209 60.5812 99.4572 60.8576C99.7934 61.1341 99.9982 61.532 100.022 61.9581C100.065 62.6595 99.6548 63.4904 98.0471 64.2085C98.0471 64.2085 93.1433 65.9265 91.4136 67.4866C91.4136 67.4866 94.1955 66.5066 95.1286 68.5683C95.2952 68.9355 95.7049 70.5585 93.7299 71.7933C93.7299 71.7933 96.1249 71.2427 96.7415 73.012C97.0508 73.9009 96.9381 74.9226 95.1286 76.0123C95.1286 76.0123 96.3142 75.8454 96.7415 76.7266C97.1253 77.5202 96.9443 78.401 93.7299 80.9889C90.528 83.5673 75.0337 94.2212 64.1373 93.7192C53.2407 93.2171 44.2428 87.7734 38.5489 79.726C38.5489 79.726 27.5692 84.5451 20.8574 75.1522C18.9028 72.4166 14.7698 56.0479 31.9254 50.3694Z" fill="#FFC5BD"/>
<path fill-rule="evenodd" clip-rule="evenodd" d="M92.4182 72.9903C92.4182 72.9903 93.6638 74.9969 93.8148 76.9889C93.8355 77.2641 94.0838 77.4712 94.3683 77.4509C94.6538 77.4307 94.868 77.1908 94.8462 76.9156C94.6786 74.706 93.3058 72.4772 93.3058 72.4772C93.1599 72.2403 92.8889 72.3357 92.6437 72.4772C92.3985 72.6189 92.2713 72.7534 92.4182 72.9903Z" fill="#FD9909"/>
<path fill-rule="evenodd" clip-rule="evenodd" d="M92.9592 77.1814C94.2648 76.4941 94.7397 76.2187 95.1286 76.0123C95.1286 76.0123 95.9045 75.903 96.427 76.3282C95.6325 76.9201 94.6683 77.4202 93.4537 78.0598C93.2023 78.1918 92.8878 78.1021 92.7523 77.8597C92.6157 77.6174 92.7078 77.3135 92.9592 77.1814ZM91.5967 72.8106C93.2406 72.0388 93.3451 71.97 93.7299 71.7933C93.7299 71.7933 94.4914 71.6185 95.2652 71.7826C94.5317 72.4422 93.6306 72.9676 92.0478 73.7103C91.7912 73.8309 91.4819 73.7271 91.3567 73.4789C91.2325 73.2306 91.3391 72.9311 91.5967 72.8106ZM89.6249 68.4032C90.5901 67.9147 91.0515 67.6756 91.4136 67.4866C91.4136 67.4866 92.4595 67.1181 93.4847 67.3086C92.0457 68.1456 91.3577 68.655 90.1039 69.2893C89.8514 69.4173 89.539 69.3227 89.4066 69.0782C89.2741 68.8337 89.3714 68.5312 89.6249 68.4032Z" fill="#DA0F47"/>
<path fill-rule="evenodd" clip-rule="evenodd" d="M38.5462 79.7272C38.3494 79.8125 27.508 84.4601 20.8574 75.1522C18.9028 72.4166 14.7698 56.0479 31.9254 50.3694C34.4646 49.5289 43.8235 48.5013 47.9801 58.0733C48.3398 58.9015 49.528 62.2165 51.8014 65.6037L35.5029 74.0676C36.1407 75.9986 37.3326 77.8465 38.5462 79.7272Z" fill="#DA0F47"/>
<path fill-rule="evenodd" clip-rule="evenodd" d="M34.1621 80.8327C31.8053 74.2196 32.4283 70.1649 32.9685 68.4029C33.007 68.2866 33.124 68.212 33.2497 68.2237C33.3754 68.2354 33.4755 68.3302 33.4902 68.4515C33.7869 70.0563 34.6386 72.2482 35.5837 74.304C36.0311 75.5658 36.7072 76.7938 37.462 78.0207C37.8746 78.762 38.2385 79.363 38.5038 79.7451C38.211 79.8673 36.5114 80.545 34.1621 80.8327Z" fill="#DA0F47"/>
<path fill-rule="evenodd" clip-rule="evenodd" d="M35.8783 73.2498L37.3273 75.8312C37.4634 76.0738 37.7777 76.1639 38.0286 76.0322C38.2796 75.9006 38.3728 75.5969 38.2365 75.3542L36.7877 72.7728C36.6514 72.5303 36.3372 72.4402 36.0862 72.5718C35.8354 72.7034 35.7422 73.0072 35.8783 73.2498ZM38.6592 71.8568L39.9823 74.5006C40.1066 74.7491 40.4162 74.8532 40.6732 74.733C40.9302 74.6127 41.0379 74.3135 40.9135 74.0651L39.5904 71.4213C39.466 71.1728 39.1565 71.0687 38.8995 71.1889C38.6425 71.3092 38.5348 71.6084 38.6592 71.8568ZM41.4427 70.3008L42.7979 72.9294C42.9252 73.1765 43.2361 73.277 43.4916 73.1539C43.7472 73.0308 43.8511 72.7303 43.7238 72.4833L42.3686 69.8547C42.2413 69.6078 41.9304 69.5071 41.675 69.6303C41.4194 69.7534 41.3154 70.0538 41.4427 70.3008ZM44.2258 68.8409L45.6373 71.4416C45.7699 71.686 46.0828 71.7803 46.3357 71.6521C46.5884 71.5239 46.686 71.2213 46.5534 70.9769L45.1419 68.3762C45.0093 68.1318 44.6963 68.0375 44.4435 68.1657C44.1908 68.2939 44.0932 68.5964 44.2258 68.8409ZM46.9952 67.4215L48.4066 70.0223C48.5393 70.2666 48.8522 70.361 49.1051 70.2327C49.3578 70.1045 49.4554 69.8021 49.3227 69.5576L47.9113 66.9568C47.7787 66.7125 47.4657 66.6182 47.2129 66.7464C46.9601 66.8746 46.8626 67.1772 46.9952 67.4215ZM49.7646 66.0022L51.176 68.6029C51.3086 68.8474 51.6216 68.9417 51.8744 68.8135C52.1272 68.6852 52.2247 68.3827 52.0921 68.1383L50.6807 65.5376C50.548 65.2931 50.2351 65.1988 49.9823 65.327C49.7295 65.4553 49.632 65.7578 49.7646 66.0022Z" fill="#DA0F47"/>
<path d="M31.542 47.7982C35.7057 47.7982 39.081 44.5352 39.081 40.5101C39.081 36.4849 35.7057 33.2219 31.542 33.2219C27.3783 33.2219 24.0029 36.4849 24.0029 40.5101C24.0029 44.5352 27.3783 47.7982 31.542 47.7982Z" fill="#FFC5BD"/>
<path fill-rule="evenodd" clip-rule="evenodd" d="M25.7284 39.0278C25.7763 39.1063 25.5437 38.9899 25.4511 38.9731C25.1959 38.9267 24.9461 38.8546 24.6957 38.789C24.0238 38.6129 23.3676 38.4014 22.7147 38.1685C20.7131 37.4544 18.7315 36.6669 16.7756 35.8436C12.4698 34.0314 2.92374 29.2012 0.573155 35.7601C0.276862 36.5871 0.0911619 37.4667 0.0239166 38.3395C-0.0875039 39.7841 0.197203 41.2222 0.735684 42.5675C3.39839 49.22 8.26148 48.7828 14.1877 46.6345C18.451 45.0889 22.1396 42.9504 26.0123 40.7041" fill="black"/>
<path fill-rule="evenodd" clip-rule="evenodd" d="M26.3662 45.8077C24.9115 44.4787 24.0034 42.5965 24.0034 40.5108C24.0034 36.4883 27.3815 33.2227 31.5425 33.2227C32.9525 33.2227 34.2727 33.5977 35.4025 34.2505C35.1046 36.7295 33.6329 43.0383 26.3662 45.8077Z" fill="black"/>
<path fill-rule="evenodd" clip-rule="evenodd" d="M181.71 80.2998C181.71 80.2998 185.376 79.4866 188.85 77.0248C194.375 73.1031 195.868 65.7439 192.286 60.0953C188.296 53.7935 180.033 44.3717 169.142 51.3216C166.727 52.8633 162.056 56.2943 160.688 72.126C160.688 72.126 160.791 85.7327 149.615 87.0379C139.736 88.191 131.262 92.2795 128.499 95.7909C128.281 96.0709 128.227 96.44 128.358 96.767C128.488 97.0941 128.784 97.3321 129.14 97.3981C130.851 97.7141 133.496 98.2022 133.496 98.2022C133.496 98.2022 132.394 99.8604 128.378 102.781C128.378 102.781 125.127 104.784 125.486 107.629C125.522 107.915 125.684 108.172 125.932 108.333C126.179 108.494 126.486 108.544 126.775 108.47C127.374 108.237 128.304 107.842 129.686 107.157C129.686 107.157 133.296 108.582 137.174 106.299C137.174 106.299 159.974 106.46 174.194 93.6247C176.918 91.1664 180.095 87.4859 181.71 80.2998Z" fill="#FD9500"/>
<path fill-rule="evenodd" clip-rule="evenodd" d="M141.495 106.08L140.397 104.893C140.206 104.688 140.224 104.371 140.437 104.187C140.649 104.003 140.977 104.021 141.167 104.226L142.771 105.958C142.324 106.005 141.898 106.045 141.495 106.08Z" fill="#FFCF84"/>
<path fill-rule="evenodd" clip-rule="evenodd" d="M129.686 107.157C129.485 107.257 138.371 101.222 138.371 101.222C138.606 101.065 138.928 101.121 139.091 101.348C139.253 101.574 139.195 101.886 138.962 102.044L130.887 107.464C130.135 107.334 129.686 107.157 129.686 107.157ZM137.174 106.299C136.913 106.453 141.379 103.337 141.379 103.337C141.613 103.179 141.936 103.234 142.099 103.46C142.263 103.686 142.206 103.998 141.972 104.157L138.875 106.254C137.787 106.304 137.174 106.299 137.174 106.299ZM132.409 98.0021C133.17 97.026 133.406 96.0609 133.452 95.8399L133.458 95.8099L133.46 95.7959C133.471 95.7349 133.487 95.7039 133.489 95.6969C133.543 95.5709 133.619 95.5138 133.656 95.4868C133.822 95.3648 133.984 95.3658 134.123 95.4078C134.229 95.4398 134.386 95.5098 134.46 95.7299C134.463 95.7399 134.5 95.8129 134.481 95.9499C134.481 95.9549 134.477 95.9829 134.467 96.0339C134.394 96.387 133.496 98.2022 133.496 98.2022L132.409 98.0021ZM134.474 95.9939C134.468 96.0189 134.46 96.0439 134.45 96.0679C134.453 96.0609 134.457 96.0509 134.462 96.0359C134.466 96.0249 134.47 96.0129 134.473 95.9979L134.476 95.9819L134.474 95.9939Z" fill="#C93400"/>
<path fill-rule="evenodd" clip-rule="evenodd" d="M154.612 85.2937C160.757 81.2844 160.688 72.126 160.688 72.126C162.056 56.2943 166.727 52.8633 169.142 51.3216C180.033 44.3717 188.296 53.7935 192.286 60.0953C195.868 65.7439 194.375 73.1031 188.851 77.0248C185.377 79.4866 181.71 80.2998 181.71 80.2998C180.095 87.4859 176.918 91.1664 174.194 93.6247C171.891 95.7039 169.362 97.4421 166.741 98.8963L154.612 85.2937Z" fill="#FD9500"/>
<path fill-rule="evenodd" clip-rule="evenodd" d="M181.71 80.2998C181.71 80.2998 182.293 73.2032 181.985 68.1165C181.962 67.9154 182.097 67.7289 182.299 67.6786C182.501 67.6283 182.711 67.7295 182.792 67.9161C183.859 70.4484 185.397 74.6487 185.877 78.7692C183.561 79.8895 181.71 80.2998 181.71 80.2998Z" fill="#D84B26"/>
<path d="M171.189 46.2551C175.185 46.2551 178.424 43.1237 178.424 39.2608C178.424 35.3979 175.185 32.2665 171.189 32.2665C167.193 32.2665 163.954 35.3979 163.954 39.2608C163.954 43.1237 167.193 46.2551 171.189 46.2551Z" fill="#C93400"/>
<path fill-rule="evenodd" clip-rule="evenodd" d="M168.61 32.7251C169.411 32.4288 170.281 32.2665 171.19 32.2665C175.184 32.2665 178.425 35.4004 178.425 39.2607C178.425 41.9436 176.86 44.2757 174.564 45.4486L172.862 41.8131C173.15 41.8066 173.446 41.7322 173.722 41.5836C174.549 41.1385 174.886 40.1954 174.473 39.4788C174.061 38.7622 173.055 38.5418 172.227 38.9869C172.03 39.0928 171.862 39.2268 171.723 39.3793L168.61 32.7251Z" fill="#1A1616"/>
<path fill-rule="evenodd" clip-rule="evenodd" d="M199.103 82.9382C194.205 80.9795 187.171 81.1655 175.057 97.1694C172.847 100.09 146.413 129.288 142.383 143.11C141.408 146.453 138.797 154.024 138.42 165.79C136.038 166.362 134.012 167.261 132.886 169H161.057C161.928 169 162.657 168.36 162.742 167.522C163.21 163.817 165.467 153.68 176.242 143.11C176.242 143.11 192.275 159.49 205.965 164.863C202.241 165.812 200.227 167.273 199.103 169H213.363C214.281 169 215.125 168.514 215.563 167.734C217.002 165.169 220.248 159.385 221.736 156.733C222.194 155.916 222.046 154.906 221.373 154.243C217.945 150.87 207.42 140.491 199.103 132.101C202.28 122.358 205.413 112.32 208.234 100.205C209.394 95.2372 207.95 90.0366 204.374 86.2971C202.896 84.756 201.486 83.8913 199.103 82.9382Z" fill="url(#paint1_linear_252_5896)"/>
<path fill-rule="evenodd" clip-rule="evenodd" d="M199.384 131.235C199.29 131.524 199.196 131.812 199.103 132.101C199.768 132.772 200.448 133.456 201.137 134.148L198.153 136.764C198.008 136.89 197.793 136.906 197.631 136.8C197.469 136.695 197.402 136.496 197.469 136.318L199.384 131.235Z" fill="#C93400"/>
<path fill-rule="evenodd" clip-rule="evenodd" d="M216.324 149.264C216.572 149.509 216.814 149.748 217.05 149.982L204.408 164.212C204.086 164.068 203.762 163.919 203.441 163.766L216.324 149.264ZM138.859 159.448L164.254 161.305C164.138 161.639 164.03 161.966 163.929 162.284L138.758 160.444C138.79 160.107 138.824 159.775 138.859 159.448ZM183.891 87.3307C179.842 91.9252 172.482 106.584 170.751 120.525C169.597 129.825 170.933 138.818 177.578 144.209C177.705 144.312 177.768 144.462 177.763 144.611C176.787 143.668 176.241 143.11 176.241 143.11C176.015 143.332 175.792 143.554 175.573 143.776C169.821 138.101 168.608 129.404 169.724 120.406C171.085 109.443 175.888 98.0509 179.9 91.2912C181.308 89.742 182.636 88.4328 183.891 87.3307Z" fill="#C93400"/>
<path fill-rule="evenodd" clip-rule="evenodd" d="M98.5471 63.9579C99.2557 65.1635 99.6954 66.2738 99.7709 66.9675C99.8227 67.4453 99.6871 67.7636 99.4637 67.8994C99.2402 68.0352 98.8854 68.0153 98.4622 67.7632C97.7412 67.3334 96.7025 66.2177 95.7631 64.7741C94.8237 63.3306 94.233 61.942 94.1451 61.1274C94.0934 60.6496 94.2278 60.3314 94.4513 60.1956C94.6748 60.0597 95.0307 60.0797 95.4528 60.3318C95.6555 60.4524 95.8811 60.6083 96.1242 60.829L95.4227 60.9784C95.2355 60.8345 95.072 60.739 94.9251 60.6862C94.8548 60.6606 94.7968 60.6337 94.7534 60.6601C94.7099 60.6865 94.711 60.7479 94.7037 60.821C94.6893 60.9757 94.7141 61.1744 94.77 61.4076C94.9572 62.1896 95.4838 63.3147 96.2431 64.4819C97.0025 65.6491 97.8239 66.5955 98.4715 67.0968C98.665 67.2464 98.8398 67.3545 98.9899 67.4086C99.0612 67.4342 99.1181 67.4612 99.1616 67.4348C99.205 67.4084 99.205 67.347 99.2112 67.2739C99.2268 67.1192 99.2009 66.9206 99.145 66.6872C98.9899 66.0373 98.604 65.1621 98.0402 64.2107C98.1933 64.1468 98.3629 64.0583 98.5471 63.9579Z" fill="black"/>
<path fill-rule="evenodd" clip-rule="evenodd" d="M101.394 68.846C102.453 68.846 103.313 69.6769 103.313 70.7003C103.313 71.7238 102.453 72.5547 101.394 72.5547C100.837 72.5547 100.385 72.9919 100.385 73.5305C100.385 74.069 100.837 74.5062 101.394 74.5062C103.567 74.5062 105.331 72.8009 105.331 70.7003C105.331 68.5999 103.567 66.8945 101.394 66.8945C100.837 66.8945 100.385 67.3318 100.385 67.8703C100.385 68.4088 100.837 68.846 101.394 68.846Z" fill="black"/>
<path fill-rule="evenodd" clip-rule="evenodd" d="M101.393 72.555C100.335 72.555 99.4754 71.724 99.4754 70.7006C99.4754 69.6772 100.335 68.8462 101.393 68.8462C101.951 68.8462 102.403 68.4091 102.403 67.8705C102.403 67.332 101.951 66.8948 101.393 66.8948C99.2207 66.8948 97.4563 68.6001 97.4563 70.7006C97.4563 72.8011 99.2207 74.5064 101.393 74.5064C101.951 74.5064 102.403 74.0692 102.403 73.5307C102.403 72.9921 101.951 72.555 101.393 72.555Z" fill="black"/>
<path fill-rule="evenodd" clip-rule="evenodd" d="M109.836 82.4623L110.142 82.9549C110.428 83.4168 110.273 84.0162 109.796 84.2932C109.318 84.5702 108.697 84.4202 108.411 83.9582L102.094 73.7742C101.807 73.3123 101.963 72.7124 102.44 72.4355C102.918 72.1586 103.539 72.3088 103.826 72.7706L107.516 78.7213L108.438 78.2034C108.666 78.0748 108.96 78.1499 109.093 78.371C109.335 78.7728 109.704 79.3872 109.941 79.7807C110.001 79.8807 110.017 79.9997 109.986 80.1116C109.956 80.2234 109.881 80.3189 109.777 80.377L108.862 80.8913L109.183 81.4098L110.122 80.8824C110.21 80.8332 110.314 80.8197 110.411 80.8447C110.51 80.8697 110.593 80.9313 110.644 81.0158C110.728 81.1552 110.825 81.3178 110.908 81.4554C110.957 81.5356 110.969 81.631 110.945 81.7207C110.92 81.8104 110.86 81.887 110.777 81.9336L109.836 82.4623Z" fill="black"/>
<defs>
<linearGradient id="paint0_linear_252_5896" x1="38.1334" y1="127.515" x2="-0.784395" y2="217.084" gradientUnits="userSpaceOnUse">
<stop stop-color="#FFC5BD"/>
<stop offset="1" stop-color="#DA0F47"/>
</linearGradient>
<linearGradient id="paint1_linear_252_5896" x1="177.696" y1="125.542" x2="214.22" y2="90.4588" gradientUnits="userSpaceOnUse">
<stop stop-color="#FD9500"/>
<stop offset="1" stop-color="#C93400"/>
</linearGradient>
</defs>
</svg>
