<svg width="265" height="169" viewBox="0 0 265 169" fill="none" xmlns="http://www.w3.org/2000/svg">
<path fill-rule="evenodd" clip-rule="evenodd" d="M39.7002 133.617H85.4902V137.701H41.1887L52.3078 169H48.1293L19.3481 89.7075L23.1855 88.3088L39.7002 133.617Z" fill="#1A1616"/>
<path fill-rule="evenodd" clip-rule="evenodd" d="M6.16674 164.375C6.16674 164.375 6.7312 137.871 7.16338 117.58C7.43994 104.585 17.6784 93.994 30.659 93.2767C59.3419 91.6758 87.6582 91.2688 115.391 92.7589C128.861 93.4853 139.984 103.541 142.057 116.869C142.065 116.868 142.065 116.868 142.065 116.868C143.199 124.157 141.218 131.587 136.604 137.344C130.749 144.622 120.864 154.762 105.558 164.435C105.558 164.435 111.219 166.07 111.797 168.598C111.797 168.598 68.7307 168.548 57.7552 168.537C57.3509 168.535 56.9884 168.287 56.8423 167.909C56.6963 167.533 56.7966 167.104 57.0949 166.833C64.8049 159.786 93.8401 133.253 93.8401 133.253L44.8645 133.75C44.8645 133.75 44.0778 161.125 43.8929 167.555C43.8715 168.3 43.2585 168.892 42.5129 168.887C35.1523 168.835 0.00241891 168.595 0.00241891 168.595C0.00241891 168.595 -0.239882 166.025 6.16674 164.375Z" fill="url(#paint0_linear_252_6024)"/>
<path fill-rule="evenodd" clip-rule="evenodd" d="M117.05 156.367L79.5596 146.303L80.6875 145.271L118.312 155.371C117.897 155.702 117.477 156.034 117.05 156.367ZM44.5491 144.741L6.56592 145.658L6.59335 144.368L44.5862 143.451L44.5491 144.741Z" fill="#82B5B2"/>
<path fill-rule="evenodd" clip-rule="evenodd" d="M93.7775 133.309L107.103 133.278C107.231 133.278 107.339 133.371 107.358 133.497C107.378 133.623 107.303 133.744 107.181 133.783L86.0183 140.4L93.7775 133.309ZM44.8639 133.788L44.6914 139.792L33.451 134.733C33.2333 134.636 33.1137 134.399 33.164 134.165C33.2143 133.931 33.421 133.765 33.6597 133.766L44.8639 133.788Z" fill="#4644AB"/>
<path fill-rule="evenodd" clip-rule="evenodd" d="M109.974 37.4492C109.974 37.4492 97.0318 19.9779 67.9182 27.6083C63.9976 28.636 32.9439 38.49 20.6937 66.1758C19.4959 68.883 13.0373 81.1916 22.4004 87.7716C28.9331 92.3643 35.9381 91.513 60.4834 83.2999C62.5604 82.6044 75.3546 79.9023 73.0416 76.9481C73.0416 76.9481 74.0739 77.157 74.5696 76.4702C74.5696 76.4702 74.6263 76.8241 74.6683 77.0857C74.6969 77.2644 74.7814 77.4295 74.9097 77.5573C75.4964 78.1421 77.2587 79.8985 78.3673 81.0035C78.558 81.1928 78.8365 81.265 79.0951 81.1903C79.3538 81.1169 79.5519 80.9082 79.6127 80.6455C79.94 79.2365 80.4168 77.1839 80.4168 77.1839C80.4168 77.1839 92.0609 79.7104 99.0787 68.3656C99.0787 68.3656 99.3711 79.5714 108.047 84.0945C110.581 85.416 124.65 88.2223 128.342 73.715C130.923 63.5677 132.809 45.4363 134.459 32.4089C134.459 32.4089 143.081 26.9977 143.732 24.4059C143.967 23.475 143.021 21.946 140.914 23.4922C140.914 23.4922 144.061 20.8168 143.011 19.5561C142.426 18.8548 141.23 18.8181 138.859 20.8472C138.859 20.8472 141.812 17.824 140.463 16.6141C139.013 15.3147 137.329 17.9873 135.786 19.4259C135.786 19.4259 139.22 14.1536 137.278 13.2432C136.454 12.8575 135.566 12.8089 132.568 16.583C129.792 20.0781 125.855 20.4387 123.002 20.0959C123.002 20.0959 124.126 13.5108 122.839 12.8728C121.386 12.1518 120.076 13.4408 116.918 19.9162C113.801 26.3066 112.246 32.6383 109.974 37.4492Z" fill="url(#paint1_linear_252_6024)"/>
<path fill-rule="evenodd" clip-rule="evenodd" d="M75.7166 26.0849C98.23 23.2559 108.933 36.1237 109.902 37.3554C108.433 42.5929 105.915 53.7817 105.915 53.7817L103.265 53.7446C103.308 60.2825 99.0917 68.0964 99.0917 68.0964L99.075 68.3713C92.4024 79.1515 81.4025 77.3638 80.3637 77.2093L80.7031 75.5045L79.8213 73.031L79.547 72.3303C79.547 72.3303 80.7637 70.6999 81.8416 69.2554C82.751 68.0365 82.5386 66.3175 81.3597 65.3565C79.0021 63.435 75.5106 60.5892 75.5106 60.5892C75.4903 60.5736 75.47 60.558 75.4499 60.5427C72.6451 58.3971 69.1009 57.4573 65.6014 57.9313C58.185 58.9355 43.2737 60.9549 43.2737 60.9549L34.2712 47.0384C44.774 36.9077 57.0937 31.3873 63.6542 28.9921L75.7166 26.0849Z" fill="#82B5B2"/>
<path fill-rule="evenodd" clip-rule="evenodd" d="M74.5736 76.4959C74.8248 76.1906 75.655 75.0379 74.9105 73.9252L73.8626 72.6584C73.8626 72.6584 75.3325 72.8704 75.9298 72.8136C75.9298 72.8136 75.8477 74.2849 77.0631 74.5407C77.3956 74.6096 77.7386 74.4852 77.9496 74.2191C78.536 73.4826 79.8494 71.8268 79.8494 71.8268C79.8494 71.8268 80.5817 74.9867 80.7141 75.5582C80.7275 75.6161 80.7279 75.6764 80.715 75.7345C80.5943 76.2802 79.9549 79.1721 79.9549 79.1721L79.6126 80.6455C79.5518 80.9082 79.3537 81.1169 79.095 81.1903C78.8364 81.265 78.5579 81.1929 78.3672 81.0035C77.2586 79.8985 75.4963 78.1421 74.9096 77.5573C74.7813 77.4295 74.6968 77.2644 74.6682 77.0857L74.5736 76.4959ZM69.3834 57.9309C69.3834 57.9309 74.0481 58.614 77.0413 61.9322L74.9791 51.9817L68.1458 52.0212L69.3834 57.9309Z" fill="#FFBF2F"/>
<path fill-rule="evenodd" clip-rule="evenodd" d="M79.9901 79.0114L79.9544 79.1724L79.6121 80.6458C79.5513 80.9085 79.3532 81.1171 79.0945 81.1905C78.8359 81.2652 78.5574 81.1931 78.3667 81.0038L76.7983 79.4403L79.9901 79.0114ZM75.3593 72.8139C75.5792 72.8255 75.781 72.828 75.9293 72.8139C75.9293 72.8139 75.8472 74.2852 77.0626 74.541C77.1946 74.5683 77.3282 74.5652 77.4547 74.5348L77.6438 75.4141L80.4884 74.5866L80.7136 75.5584C80.7206 75.5885 80.7239 75.619 80.7239 75.6495L74.785 77.4012C74.7258 77.3055 74.6857 77.1984 74.6677 77.0859L74.5731 76.4962C74.6182 76.4414 74.6818 76.3595 74.7517 76.2553L76.0229 75.8856L75.3593 72.8139ZM72.3272 58.7801L70.8638 52.0058L72.6068 51.9957L74.2681 59.7195C73.6017 59.3325 72.9394 59.0241 72.3272 58.7801Z" fill="#1A1616"/>
<path fill-rule="evenodd" clip-rule="evenodd" d="M73.2911 77.9107L69.3727 77.5975C69.0892 77.5748 68.8774 77.3264 68.9001 77.0429C68.9227 76.7596 69.1712 76.5478 69.4547 76.5705L73.8686 76.9231C73.4451 77.0298 73.0416 76.9481 73.0416 76.9481C73.2959 77.2728 73.3676 77.5945 73.2911 77.9107ZM75.0661 73.0525C75.1021 73.0255 75.1426 73.0028 75.1866 72.9856C75.1866 72.9856 75.6803 72.792 76.2062 72.5857C76.8257 72.3428 77.2857 71.8103 77.4359 71.1623V71.162C77.7423 69.8402 77.1906 68.4677 76.0543 67.7257C74.7637 66.8827 73.3824 65.9805 73.3824 65.9805C73.1444 65.8251 73.0773 65.5056 73.2329 65.2675C73.3884 65.0295 73.708 64.9624 73.946 65.118L76.5159 66.7963L76.5847 66.2122C76.6179 65.9298 76.8742 65.7276 77.1566 65.7608C77.4391 65.7941 77.6413 66.0504 77.6081 66.3327L77.4605 67.5856C78.373 68.6028 78.7587 70.0195 78.4399 71.3946L78.4397 71.3949C78.2129 72.3737 77.5182 73.178 76.5825 73.5449C76.0565 73.7511 75.5629 73.9447 75.5629 73.9447C75.3793 74.0167 75.1793 73.976 75.0391 73.8561C74.9089 73.9533 74.7349 73.9876 74.569 73.9328L70.1725 72.4826C69.9024 72.3935 69.7555 72.1021 69.8447 71.832C69.9337 71.562 70.2253 71.4151 70.4953 71.5042L74.8919 72.9544C74.9579 72.9762 75.0165 73.0099 75.0661 73.0525ZM106.097 48.1385C106.097 48.1385 102.343 63.8754 101.52 70.9038C101.486 71.1861 101.689 71.4422 101.972 71.4753C102.254 71.5084 102.51 71.306 102.543 71.0237C103.363 64.032 107.1 48.3777 107.1 48.3777C107.166 48.1012 106.994 47.823 106.717 47.757C106.442 47.6911 106.164 47.862 106.097 48.1385ZM46.0453 58.893C37.109 60.8957 31.6489 62.5969 28.9951 64.074C28.6845 64.2469 28.5727 64.6393 28.7457 64.9498C28.9186 65.2605 29.3111 65.3721 29.6217 65.1993C32.2206 63.7528 37.5753 62.1111 46.3272 60.1497C46.6739 60.0721 46.8925 59.7273 46.8147 59.3806C46.7369 59.0337 46.3922 58.8153 46.0453 58.893ZM134.619 32.3068C134.514 32.3735 134.459 32.409 134.459 32.409C134.339 33.3521 134.218 34.3221 134.097 35.3135L131.454 34.6184C131.353 34.5919 131.279 34.507 131.266 34.4036C131.252 34.3003 131.302 34.1989 131.392 34.1473L134.619 32.3068ZM143.179 19.8578C143.613 21.1982 140.914 23.4923 140.914 23.4923C140.991 23.4355 141.067 23.3829 141.141 23.3344C139.259 25.0594 136.717 27.1062 134.263 28.1861C134.003 28.3007 133.699 28.1825 133.584 27.9222C133.47 27.6621 133.588 27.3577 133.848 27.2432C137.98 25.4249 142.361 20.7548 143.179 19.8578ZM140.815 17.4721C140.792 18.8685 138.859 20.8473 138.859 20.8473C139.001 20.7249 139.14 20.61 139.275 20.5025C137.379 22.3254 134.633 24.7346 132.22 25.9596C131.967 26.0883 131.656 25.987 131.527 25.7335C131.398 25.4799 131.5 25.1697 131.754 25.0409C135.645 23.0649 140.423 17.9005 140.815 17.4721ZM137.668 15.5692C137.144 17.3426 135.786 19.4259 135.786 19.4259C135.828 19.3868 135.871 19.3467 135.912 19.306C134.341 20.9504 132.219 22.7507 129.832 23.656C129.565 23.7567 129.268 23.6227 129.167 23.3569C129.067 23.0911 129.201 22.7933 129.466 22.6925C133.587 21.1301 136.856 16.7336 137.668 15.5692Z" fill="#82B5B2"/>
<path fill-rule="evenodd" clip-rule="evenodd" d="M59.0737 58.8151L63.0576 54.5865C63.2369 54.3962 63.5149 54.336 63.7568 54.4351C63.9989 54.5342 64.1547 54.7721 64.1489 55.0335L64.0806 58.1372L59.0737 58.8151ZM103.256 54.3814C103.245 53.8199 103.165 50.4967 102.822 48.2163C102.796 48.1085 102.856 47.9985 102.96 47.9598C103.063 47.9212 103.18 47.9661 103.231 48.0647C103.975 49.4826 105.106 51.7816 105.754 53.7793L103.265 53.7446C103.267 53.9556 103.263 54.1682 103.256 54.3814Z" fill="#4644AB"/>
<path d="M74.7475 22.2804C80.3003 22.2804 84.8017 17.7647 84.8017 12.1943C84.8017 6.62395 80.3003 2.10828 74.7475 2.10828C69.1948 2.10828 64.6934 6.62395 64.6934 12.1943C64.6934 17.7647 69.1948 22.2804 74.7475 22.2804Z" fill="#99C3C0"/>
<path fill-rule="evenodd" clip-rule="evenodd" d="M68.0639 19.7259C65.9964 17.8776 64.6938 15.1873 64.6938 12.1942C64.6938 6.62749 69.199 2.10815 74.748 2.10815C78.1468 2.10815 81.154 3.80358 82.9744 6.39707L74.7404 13.7577C74.6417 13.4677 74.491 13.1848 74.2875 12.9247C73.4273 11.8252 71.947 11.5439 70.9841 12.2969C70.0213 13.05 69.9379 14.554 70.7981 15.6535C71.0654 15.9952 71.3925 16.2578 71.7454 16.435L68.0639 19.7259Z" fill="#1A1616"/>
<path d="M186.677 29.6593H178.994L182.234 40.8164H189.916L186.677 29.6593Z" fill="#FAF4FA"/>
<path fill-rule="evenodd" clip-rule="evenodd" d="M182.423 40.562H184.848C184.988 40.562 185.103 40.676 185.103 40.8165C185.103 40.957 184.988 41.071 184.848 41.071H182.232C182.119 41.071 182.02 40.9962 181.988 40.8875L178.749 29.7304C178.727 29.6534 178.742 29.5705 178.79 29.5066C178.838 29.4426 178.913 29.4049 178.994 29.4049H184.383C184.524 29.4049 184.637 29.5189 184.637 29.6594C184.637 29.7999 184.524 29.9139 184.383 29.9139H179.332L182.423 40.562Z" fill="#1A1616"/>
<path fill-rule="evenodd" clip-rule="evenodd" d="M186.485 29.9138H184.383C184.243 29.9138 184.129 29.7998 184.129 29.6593C184.129 29.5188 184.242 29.4048 184.383 29.4048H186.677C186.789 29.4048 186.889 29.4796 186.92 29.5883L190.16 40.7454C190.182 40.8224 190.167 40.9052 190.119 40.9693C190.071 41.0332 189.996 41.0709 189.916 41.0709H184.849C184.708 41.0709 184.594 40.9569 184.594 40.8164C184.594 40.6759 184.709 40.5619 184.849 40.5619H189.577L186.485 29.9138Z" fill="#1A1616"/>
<path d="M186.348 30.6606H179.988L180.414 31.8947H186.775L186.348 30.6606Z" fill="#1A1616"/>
<path d="M186.971 32.6875H180.61L181.037 33.9215H187.397L186.971 32.6875Z" fill="#1A1616"/>
<path d="M187.596 34.714H181.235L181.661 35.948H188.022L187.596 34.714Z" fill="#1A1616"/>
<path d="M188.219 36.741H181.858L182.285 37.975H188.645L188.219 36.741Z" fill="#1A1616"/>
<path d="M188.844 38.7653H182.483L182.91 39.9993H189.271L188.844 38.7653Z" fill="#1A1616"/>
<path fill-rule="evenodd" clip-rule="evenodd" d="M188.445 36.0667C188.194 35.3586 186.695 30.9273 187.853 29.0458C187.931 28.9233 188.056 28.8383 188.198 28.8112C188.61 28.7444 189.489 28.9182 190.732 30.9219C190.732 30.9219 202.019 47.8704 206.093 50.4026C206.093 50.4026 206.201 37.461 221.441 35.3451C223.556 35.0513 238.424 32.162 246.757 52.7874C249.514 59.6112 249.483 65.0673 249.434 70.8993C249.402 75.5223 247.002 79.8062 243.075 82.2468C237.928 85.446 231.547 85.9457 225.965 83.5849C222.221 82.0072 217.387 80.4038 211.901 79.5962L199.857 78.432C199.857 78.432 200.459 81.7226 195.472 81.0889C195.472 81.0889 191.546 80.5712 192.33 77.9383C192.33 77.9383 189.685 77.5104 190.231 74.9534C190.231 74.9534 187.723 72.9968 189.95 70.6082C189.95 70.6082 182.709 70.5211 181.237 67.0735C181.113 66.7752 181.105 66.4407 181.218 66.1374C181.353 65.7625 181.703 65.3632 182.557 65.334C182.557 65.334 192.574 65.1801 195.209 64.4255L189.484 54.6861C189.484 54.6861 185.024 52.2353 183.996 48.3176C182.937 48.3225 182.038 47.5059 181.957 46.4335C181.887 45.5161 182.439 44.6938 183.255 44.3789L182.786 44.4144C181.679 44.4978 180.713 43.6669 180.629 42.5599C180.562 41.6665 181.09 40.8646 181.878 40.5445C180.809 40.5939 179.888 39.7833 179.807 38.7098C179.725 37.6167 180.545 36.6623 181.637 36.5799L188.445 36.0667Z" fill="url(#paint2_linear_252_6024)"/>
<path fill-rule="evenodd" clip-rule="evenodd" d="M199.692 79.7005C197.335 79.5653 195.443 80.1307 195.443 80.1307C195.101 80.2337 194.742 80.0392 194.64 79.6992C194.538 79.3592 194.732 78.9999 195.073 78.8969C195.073 78.8969 197.826 78.0716 200.949 78.5375L199.857 78.4319C199.857 78.4319 199.97 79.0514 199.692 79.7005ZM191.118 77.4343C191.569 76.0674 193.103 73.0524 197.978 72.3087C198.328 72.2552 198.658 72.4969 198.711 72.8482C198.765 73.1996 198.523 73.5284 198.171 73.582C193.872 74.2378 192.631 76.9386 192.314 77.9354C192.213 77.9167 191.645 77.7989 191.118 77.4343ZM189.301 73.7739C189.931 72.4306 191.648 70.2478 196.262 69.3885C196.611 69.3235 196.948 69.5542 197.013 69.9037C197.079 70.2531 196.847 70.5896 196.498 70.6547C190.741 71.7267 190.213 75.0346 190.231 74.9534C190.231 74.9534 189.655 74.5043 189.301 73.7739ZM188.351 70.4968C189.105 69.5201 191.491 66.8023 195.011 66.298C195.363 66.2475 195.69 66.4922 195.74 66.8441C195.79 67.1959 195.546 67.5224 195.194 67.5729C192.716 67.9279 190.899 69.5519 189.941 70.6134C189.821 70.6111 189.2 70.5894 188.351 70.4968ZM225.815 63.9786L233.679 66.7426C234.014 66.8604 234.382 66.684 234.501 66.3486C234.618 66.0134 234.441 65.6454 234.106 65.5276L226.242 62.7634C225.906 62.6456 225.539 62.8221 225.42 63.1574C225.303 63.4928 225.48 63.8606 225.815 63.9786ZM194.538 63.2824C195.364 63.1193 204.452 61.3549 211.081 61.4262C211.436 61.43 211.722 61.7216 211.718 62.0771C211.715 62.4324 211.422 62.7178 211.067 62.7141C204.229 62.6405 195.033 64.4762 195.209 64.4255L194.538 63.2824ZM189.484 54.6861L191.476 55.5823C191.735 55.7022 191.846 56.0089 191.728 56.2667C191.607 56.5246 191.3 56.6366 191.042 56.5167L190.379 56.208L189.484 54.6861ZM188.108 35.0188C189.274 35.2086 190.103 35.8311 190.405 36.3233C191.078 37.4221 190.812 38.5004 190.168 39.2686C190.209 39.4732 190.28 39.7855 190.387 40.166C190.543 40.2756 190.674 40.3897 190.783 40.5036C191.38 41.123 191.418 41.7804 191.43 41.9833C191.443 42.2277 191.421 42.455 191.37 42.666C191.931 43.7229 192.722 44.7652 193.839 45.365C194.089 45.4994 194.183 45.812 194.049 46.0625C193.915 46.313 193.602 46.4071 193.351 46.2727C192.878 46.0185 192.453 45.6979 192.07 45.3335C192.072 45.3384 192.073 45.3432 192.074 45.3481C192.493 46.6562 191.822 48.0684 190.539 48.5683C188.586 49.3345 185.85 49.3853 184.354 49.3444C184.21 49.0145 184.089 48.6721 183.996 48.3175C183.865 48.3182 187.91 48.4929 190.163 47.6087C190.948 47.3026 191.354 46.433 191.085 45.6344C191.081 45.6255 191.078 45.6165 191.076 45.6075C190.883 45.0762 190.354 44.7406 189.79 44.7939L188.729 44.8942C188.525 44.9546 188.396 44.981 188.396 44.981C188.293 45.0022 188.19 44.9907 188.1 44.9536L182.097 45.5208C182.307 45.0016 182.725 44.5834 183.255 44.3789L188.539 43.8773C188.852 43.7782 189.325 43.5939 189.728 43.2915C190.107 43.007 190.433 42.6089 190.401 42.0401C190.394 41.9275 190.372 41.5626 190.041 41.2185C189.632 40.7944 188.828 40.4371 187.291 40.4016C187.25 40.4007 187.21 40.3949 187.173 40.3848C185.373 40.4443 183.529 40.472 181.694 40.5444C181.021 40.5133 180.424 40.1424 180.088 39.5894C182.753 39.4381 185.474 39.4274 188.073 39.3206C188.44 39.3055 188.841 39.1162 189.162 38.8294C189.205 38.7516 189.27 38.6857 189.348 38.6397C189.748 38.1787 189.918 37.5373 189.526 36.8614C189.163 36.2352 188.445 36.0667 188.445 36.0667C188.386 35.8987 188.256 35.5215 188.108 35.0188ZM191.366 44.9973C191.192 45.0707 191.165 45.1473 191.152 45.1722C191.179 45.1331 191.212 45.0976 191.25 45.0672C191.284 45.0395 191.323 45.0158 191.366 44.9973ZM190.787 43.7212C190.738 43.7749 190.686 43.8268 190.633 43.8768C190.755 43.9181 190.874 43.9696 190.987 44.0307C190.917 43.9284 190.852 43.8251 190.787 43.7212Z" fill="#FD9500"/>
<path fill-rule="evenodd" clip-rule="evenodd" d="M206.051 50.3761L206.093 50.4026C206.093 50.4026 206.201 37.461 221.441 35.3451C223.556 35.0513 238.424 32.162 246.757 52.7875C246.787 52.8592 246.815 52.9307 246.844 53.0019C241.905 58.1993 236.475 54.2819 236.475 54.2819C233.82 62.3964 225.332 58.91 225.332 58.91L228.078 64.7727C221.664 62.4176 209.188 62.7594 209.188 62.7594C206.602 59.5004 206.111 53.6312 206.051 50.3761Z" fill="#FD9500"/>
<path fill-rule="evenodd" clip-rule="evenodd" d="M225.075 63.9068C225.075 63.9068 223.419 58.5608 222.226 54.716C222.173 54.5437 222.261 54.3591 222.427 54.291C222.594 54.223 222.786 54.2941 222.869 54.4547C224.98 58.5822 228.163 64.802 228.163 64.802L225.075 63.9068Z" fill="#C93400"/>
<path fill-rule="evenodd" clip-rule="evenodd" d="M177.977 98.5175C189.935 84.0154 214.697 89.3951 220.148 90.1138C255.43 94.7645 247.604 121.861 246.329 125.322C243.528 132.917 236.786 135.854 226.724 136.876V166.352C226.724 166.352 223.653 163.611 222.948 160.496C222.948 160.496 221.737 160.422 219.642 160.212C219.642 160.212 221.236 164.535 222.074 166.812C222.19 167.124 222.145 167.472 221.954 167.743C221.765 168.017 221.455 168.179 221.122 168.179H181.058C183.24 164.197 187.536 164.23 187.536 164.23C185.858 160.026 184.127 155.938 182.422 151.765C171.45 147.383 161.775 140.876 158.823 131.269C157.678 127.542 157.002 111.143 177.977 98.5175Z" fill="url(#paint3_linear_252_6024)"/>
<path fill-rule="evenodd" clip-rule="evenodd" d="M183.619 154.675C187.608 156.688 194.514 158.555 199.091 150.876C199.187 150.712 199.351 150.601 199.538 150.569C199.725 150.538 199.915 150.591 200.061 150.713C200.061 150.713 202.923 153.133 206.444 154.328C208.474 155.017 210.731 155.309 212.758 154.394C214.1 153.788 215.332 152.65 216.338 150.779C216.505 150.466 216.896 150.347 217.21 150.516C217.523 150.685 217.64 151.075 217.471 151.388C216.303 153.563 214.849 154.863 213.288 155.567C210.957 156.62 208.362 156.34 206.029 155.548C203.258 154.607 200.87 152.954 199.811 152.154C195.208 159.232 188.69 158.231 184.329 156.392L184.025 155.659C183.918 155.4 183.811 155.141 183.704 154.882L183.619 154.675Z" fill="#FD9500"/>
<path fill-rule="evenodd" clip-rule="evenodd" d="M212.542 137.144C212.542 137.144 201.605 137.099 195.587 137.074C195.341 137.073 195.131 137.256 195.099 137.5C195.068 137.745 195.223 137.976 195.461 138.037C201.768 139.691 213.848 142.859 213.848 142.859L212.542 137.144Z" fill="#FD9500"/>
<path fill-rule="evenodd" clip-rule="evenodd" d="M227.513 136.791C227.251 136.82 226.99 136.849 226.724 136.876V138.133C221.922 138.434 217.473 138.509 213.134 138.45L221.018 160.342C220.616 160.306 220.155 160.263 219.642 160.212L220.791 163.331C220.726 163.265 220.671 163.184 220.638 163.09L211.757 138.428C210.946 138.411 210.138 138.39 209.331 138.366C208.976 138.356 208.697 138.058 208.707 137.704C208.717 137.348 209.015 137.069 209.369 137.079C215.148 137.253 220.995 137.233 227.513 136.791ZM181.213 95.2938C173.872 101.839 170.976 108.982 173.001 121.426C174.379 129.9 178.014 140.791 184.051 155.537C184.091 155.633 184.105 155.735 184.097 155.833C183.538 154.482 182.979 153.128 182.422 151.765C181.908 151.561 181.398 151.351 180.891 151.136C175.976 138.71 172.962 129.211 171.729 121.633C170.221 112.368 171.346 105.922 174.889 100.507C175.862 99.835 176.89 99.1718 177.977 98.5175C178.973 97.3094 180.057 96.2392 181.213 95.2938Z" fill="#FD9500"/>
<path d="M209.783 34.6323C215.002 34.6323 219.232 30.3708 219.232 25.1141C219.232 19.8573 215.002 15.5958 209.783 15.5958C204.563 15.5958 200.333 19.8573 200.333 25.1141C200.333 30.3708 204.563 34.6323 209.783 34.6323Z" fill="#FFBF2F"/>
<path fill-rule="evenodd" clip-rule="evenodd" d="M202.447 19.118C204.181 16.9699 206.824 15.5964 209.785 15.5964C215 15.5964 219.235 19.8612 219.235 25.1145C219.235 26.1883 219.058 27.2207 218.732 28.1833C217.065 28.0373 216.118 26.7963 215.793 26.2774C216.402 25.9637 216.826 25.272 216.826 24.4702C216.826 23.3736 216.033 22.4833 215.057 22.4833C214.081 22.4833 213.288 23.3736 213.288 24.4702C213.288 24.7293 213.332 24.9771 213.413 25.2043C207.426 25.8492 203.618 20.907 202.447 19.118ZM206.739 14.0814C206.984 14.1638 207.253 14.0695 207.394 13.8525C207.533 13.6356 207.508 13.3514 207.332 13.1625C207.282 13.1005 207.225 13.0402 207.166 12.9781C205.677 11.4256 204 10.0166 202.213 8.82472C196.718 5.15787 190.17 2.4151 183.733 0.959745C177.084 -0.543521 168.784 -0.628135 162.909 3.2623C159.043 5.82154 156.152 11.2367 159.485 15.4655C160.68 16.9823 162.397 18.0365 164.173 18.7464C171.358 21.62 178.85 19.8071 185.676 16.9296C189.562 15.2913 193.426 13.1194 197.659 12.4455C200.317 12.0224 204.417 13.259 206.739 14.0814Z" fill="#1A1616"/>
<path fill-rule="evenodd" clip-rule="evenodd" d="M243.182 137.198L261.163 88.6599L265 90.0586L236.447 168.393H231.626L241.669 141.281H213.062V137.198H243.182Z" fill="#1A1616"/>
<path d="M174.168 38.1174H120.113L126.508 76.0743H180.563L174.168 38.1174Z" fill="#1A1616"/>
<path d="M160.314 74.1827H148.246L150.001 84.6022H162.07L160.314 74.1827Z" fill="#1A1616"/>
<path d="M171.209 41.0099H123.927L129.215 72.3886H176.496L171.209 41.0099Z" fill="#EAEAEB"/>
<path d="M169.709 43.7845H153.643L155.992 57.7226H172.057L169.709 43.7845Z" fill="#FAF4FA"/>
<path fill-rule="evenodd" clip-rule="evenodd" d="M154.101 44.1709L154.913 48.9923C154.949 49.2025 154.807 49.402 154.596 49.4374C154.386 49.4729 154.186 49.3309 154.151 49.1206L153.263 43.8487C153.244 43.7366 153.275 43.6219 153.349 43.5351C153.422 43.4483 153.53 43.3982 153.644 43.3982H169.71C169.898 43.3982 170.06 43.5344 170.091 43.7204L170.979 48.9923C171.014 49.2025 170.872 49.402 170.662 49.4374C170.452 49.4729 170.253 49.3309 170.217 49.1206L169.383 44.1709H154.101Z" fill="#1A1616"/>
<path fill-rule="evenodd" clip-rule="evenodd" d="M171.602 57.3356L170.217 49.1199C170.182 48.9097 170.324 48.7102 170.534 48.6747C170.744 48.6393 170.944 48.7813 170.979 48.9916L172.44 57.6578C172.458 57.7699 172.427 57.8847 172.354 57.9715C172.28 58.0583 172.172 58.1083 172.059 58.1083H155.993C155.804 58.1083 155.643 57.9722 155.612 57.7861L154.152 49.1199C154.116 48.9097 154.258 48.7102 154.469 48.6747C154.679 48.6393 154.878 48.7813 154.914 48.9916L156.32 57.3356H171.602Z" fill="#1A1616"/>
<path fill-rule="evenodd" clip-rule="evenodd" d="M161.812 57.722H161.029L158.665 43.7838H159.45L161.812 57.722ZM167.528 57.722H166.743L164.381 43.7838H165.164L167.528 57.722Z" fill="#1A1616"/>
<path fill-rule="evenodd" clip-rule="evenodd" d="M171.518 54.5148H155.453L155.322 53.742H171.388L171.518 54.5148ZM170.94 51.0792H154.874L154.744 50.3065H170.81L170.94 51.0792ZM170.318 47.3847H154.252L154.121 46.6119H170.188L170.318 47.3847Z" fill="#1A1616"/>
<path fill-rule="evenodd" clip-rule="evenodd" d="M149.571 69.6179H162.392L158.83 48.4733H149.571" fill="#FAF4FA"/>
<path fill-rule="evenodd" clip-rule="evenodd" d="M158.504 48.8597H149.571C149.358 48.8597 149.185 48.6866 149.185 48.4733C149.185 48.26 149.358 48.0869 149.571 48.0869H158.831C159.019 48.0869 159.18 48.2231 159.212 48.4091L162.774 69.5537C162.793 69.6658 162.762 69.7805 162.688 69.8673C162.615 69.9541 162.507 70.0042 162.393 70.0042H149.571C149.358 70.0042 149.185 69.8311 149.185 69.6179C149.185 69.4046 149.358 69.2315 149.571 69.2315H161.936L158.504 48.8597Z" fill="#1A1616"/>
<path fill-rule="evenodd" clip-rule="evenodd" d="M149.571 48.4733H130.993L134.556 69.6179H149.571" fill="#FAF4FA"/>
<path fill-rule="evenodd" clip-rule="evenodd" d="M134.882 69.2315H149.571C149.784 69.2315 149.958 69.4046 149.958 69.6179C149.957 69.8311 149.785 70.0042 149.571 70.0042H134.555C134.367 70.0042 134.205 69.868 134.174 69.6821L130.612 48.5375C130.593 48.4254 130.625 48.3107 130.698 48.2238C130.772 48.137 130.88 48.0869 130.993 48.0869H149.572C149.785 48.0869 149.958 48.26 149.958 48.4733C149.958 48.6866 149.785 48.8597 149.572 48.8597H131.45L134.882 69.2315Z" fill="#1A1616"/>
<path d="M158.831 48.4731H130.993L131.421 51.0123H159.259L158.831 48.4731Z" fill="#1A1616"/>
<path fill-rule="evenodd" clip-rule="evenodd" d="M161.39 63.6694H133.552L133.422 62.8967H161.26L161.39 63.6694ZM160.243 56.8597H132.406L132.274 56.0869H160.113L160.243 56.8597Z" fill="#1A1616"/>
<path fill-rule="evenodd" clip-rule="evenodd" d="M141.69 69.6188H140.906L137.322 48.4742H138.105L141.69 69.6188ZM149.276 69.6188H148.491L144.906 48.4742H145.691L149.276 69.6188ZM156.766 69.6188H155.983L152.398 48.4742H153.181L156.766 69.6188Z" fill="#1A1616"/>
<path d="M159.342 60.7199C159.359 60.9308 159.318 61.1264 159.221 61.3068C159.118 61.4826 158.967 61.6277 158.758 61.7427C158.548 61.8529 158.295 61.922 157.998 61.9453C157.64 61.9733 157.342 61.9324 157.1 61.8181C156.931 61.7375 156.785 61.6207 156.672 61.4716C156.554 61.3229 156.492 61.1748 156.48 61.0277C156.473 60.9394 156.498 60.8634 156.559 60.7995C156.614 60.731 156.688 60.6956 156.783 60.6881C156.859 60.6822 156.926 60.7016 156.985 60.7414C157.045 60.7861 157.096 60.8562 157.138 60.9466C157.193 61.0558 157.25 61.1451 157.311 61.2143C157.368 61.284 157.448 61.3418 157.548 61.3834C157.653 61.4245 157.78 61.4392 157.937 61.427C158.153 61.41 158.326 61.3471 158.454 61.2384C158.583 61.1297 158.639 61.0019 158.627 60.8548C158.618 60.737 158.576 60.6466 158.494 60.579C158.418 60.5109 158.318 60.4644 158.199 60.4343C158.08 60.4041 157.92 60.3771 157.725 60.3479C157.464 60.3092 157.242 60.2575 157.059 60.1928C156.877 60.1281 156.732 60.0309 156.615 59.9018C156.504 59.7724 156.44 59.6096 156.424 59.4036C156.409 59.2123 156.451 59.0363 156.545 58.8759C156.645 58.7201 156.792 58.5902 156.987 58.4959C157.187 58.3963 157.426 58.3382 157.703 58.3165C157.925 58.2991 158.119 58.3087 158.284 58.35C158.45 58.3913 158.592 58.4543 158.704 58.5343C158.817 58.6143 158.9 58.7015 158.958 58.7957C159.016 58.8899 159.049 58.9811 159.056 59.0743C159.063 59.1577 159.038 59.2385 158.983 59.307C158.923 59.3808 158.85 59.421 158.759 59.4281C158.673 59.4348 158.611 59.42 158.563 59.3843C158.514 59.3437 158.464 59.2835 158.406 59.1942C158.33 59.0669 158.241 58.9702 158.145 58.9037C158.048 58.8373 157.899 58.8095 157.693 58.8256C157.506 58.8402 157.358 58.8913 157.248 58.9837C157.139 59.0713 157.086 59.1741 157.095 59.2869C157.1 59.3556 157.125 59.4178 157.169 59.4637C157.214 59.5145 157.267 59.5498 157.341 59.5835C157.414 59.6123 157.487 59.6362 157.56 59.6552C157.632 59.6693 157.75 59.6897 157.914 59.7163C158.12 59.7496 158.31 59.784 158.481 59.825C158.647 59.8712 158.793 59.9288 158.915 59.9982C159.037 60.0676 159.136 60.1635 159.211 60.281C159.286 60.3985 159.328 60.5433 159.342 60.7199Z" fill="#1A1616"/>
<path fill-rule="evenodd" clip-rule="evenodd" d="M157.214 58.1532L157.765 62.1598C157.794 62.371 157.988 62.519 158.199 62.4901C158.411 62.4612 158.559 62.2661 158.531 62.0548L157.98 58.0482C157.952 57.8369 157.757 57.689 157.546 57.7179C157.334 57.747 157.186 57.942 157.214 58.1532Z" fill="#1A1616"/>
<path fill-rule="evenodd" clip-rule="evenodd" d="M134.578 52.2507L135.02 54.819C135.056 55.0292 135.257 55.1703 135.467 55.1343C135.677 55.0981 135.819 54.8981 135.781 54.6879L135.339 52.1198C135.303 51.9096 135.104 51.7683 134.894 51.8045C134.684 51.8407 134.542 52.0406 134.578 52.2507Z" fill="#1A1616"/>
<path fill-rule="evenodd" clip-rule="evenodd" d="M137.017 65.3722L137.459 67.9405C137.495 68.1506 137.696 68.2918 137.906 68.2557C138.116 68.2195 138.258 68.0195 138.22 67.8093L137.778 65.2412C137.742 65.031 137.543 64.8898 137.333 64.9259C137.123 64.9621 136.981 65.162 137.017 65.3722Z" fill="#1A1616"/>
<path fill-rule="evenodd" clip-rule="evenodd" d="M143.471 58.861C143.589 58.8439 143.688 58.9411 143.784 59.0608C143.942 59.2572 144.058 59.5447 144.105 59.8723C144.153 60.2 144.123 60.5086 144.028 60.742C143.97 60.8837 143.903 61.005 143.785 61.0221C143.574 61.0528 143.428 61.2489 143.458 61.46C143.489 61.671 143.685 61.8176 143.896 61.7869C144.194 61.7437 144.458 61.5552 144.641 61.2442C144.85 60.886 144.955 60.3453 144.871 59.7613C144.786 59.1773 144.531 58.6889 144.229 58.405C143.965 58.1588 143.658 58.0531 143.36 58.0963C143.149 58.127 143.003 58.323 143.034 58.5341C143.064 58.7451 143.26 58.8917 143.471 58.861Z" fill="#1A1616"/>
<path fill-rule="evenodd" clip-rule="evenodd" d="M143.784 61.0211C143.667 61.038 143.567 60.941 143.472 60.8214C143.315 60.6248 143.199 60.3373 143.151 60.0096C143.103 59.6821 143.133 59.3733 143.228 59.1402C143.285 58.9984 143.354 58.8769 143.471 58.86C143.682 58.8293 143.829 58.6331 143.798 58.4221C143.767 58.211 143.571 58.0646 143.36 58.0953C143.062 58.1385 142.799 58.3268 142.616 58.6379C142.405 58.9962 142.301 59.5366 142.386 60.1207C142.471 60.7047 142.724 61.1933 143.028 61.477C143.292 61.7232 143.597 61.8291 143.895 61.7859C144.106 61.7553 144.253 61.5589 144.223 61.3479C144.192 61.1369 143.995 60.9905 143.784 61.0211Z" fill="#1A1616"/>
<path fill-rule="evenodd" clip-rule="evenodd" d="M144.524 65.6423C144.642 65.6251 144.741 65.7223 144.836 65.842C144.994 66.0384 145.111 66.326 145.158 66.6536C145.206 66.9812 145.176 67.2898 145.08 67.5232C145.023 67.665 144.956 67.7863 144.838 67.8034C144.626 67.834 144.481 68.0302 144.511 68.2412C144.542 68.4522 144.737 68.5988 144.949 68.5682C145.246 68.525 145.51 68.3365 145.693 68.0254C145.903 67.6672 146.008 67.1266 145.923 66.5425C145.839 65.9585 145.584 65.4701 145.281 65.1863C145.017 64.9401 144.711 64.8344 144.413 64.8776C144.202 64.9082 144.056 65.1043 144.087 65.3154C144.117 65.5264 144.313 65.6729 144.524 65.6423Z" fill="#1A1616"/>
<path fill-rule="evenodd" clip-rule="evenodd" d="M144.839 67.802C144.722 67.8189 144.622 67.7219 144.527 67.6023C144.37 67.4056 144.253 67.1182 144.206 66.7905C144.158 66.463 144.188 66.1542 144.283 65.9211C144.34 65.7793 144.408 65.6578 144.525 65.6409C144.736 65.6102 144.883 65.414 144.853 65.203C144.822 64.9919 144.625 64.8455 144.414 64.8762C144.117 64.9194 143.854 65.1077 143.671 65.4188C143.46 65.7771 143.356 66.3175 143.441 66.9015C143.525 67.4855 143.779 67.9742 144.083 68.2579C144.347 68.5041 144.652 68.61 144.95 68.5668C145.161 68.5361 145.308 68.3398 145.277 68.1288C145.247 67.9178 145.05 67.7713 144.839 67.802Z" fill="#1A1616"/>
<path fill-rule="evenodd" clip-rule="evenodd" d="M152.055 65.6357C152.173 65.6186 152.272 65.7157 152.367 65.8354C152.525 66.0318 152.641 66.3194 152.689 66.647C152.737 66.9746 152.707 67.2833 152.611 67.5166C152.554 67.6584 152.486 67.7797 152.368 67.7968C152.157 67.8274 152.011 68.0236 152.042 68.2346C152.073 68.4456 152.268 68.5922 152.479 68.5616C152.777 68.5184 153.041 68.3299 153.224 68.0188C153.434 67.6606 153.539 67.12 153.454 66.536C153.369 65.952 153.115 65.4635 152.812 65.1797C152.548 64.9335 152.241 64.8278 151.944 64.871C151.733 64.9016 151.587 65.0977 151.617 65.3088C151.648 65.5198 151.844 65.6663 152.055 65.6357Z" fill="#1A1616"/>
<path fill-rule="evenodd" clip-rule="evenodd" d="M152.37 67.7982C152.253 67.8151 152.153 67.7181 152.057 67.5985C151.9 67.4019 151.784 67.1144 151.736 66.7867C151.689 66.4592 151.719 66.1504 151.813 65.9173C151.871 65.7755 151.939 65.654 152.056 65.6371C152.267 65.6064 152.414 65.4102 152.384 65.1992C152.353 64.9881 152.156 64.8417 151.945 64.8724C151.647 64.9156 151.384 65.1039 151.201 65.415C150.991 65.7733 150.887 66.3137 150.971 66.8977C151.056 67.4818 151.31 67.9704 151.613 68.2541C151.877 68.5003 152.183 68.6062 152.481 68.563C152.692 68.5324 152.839 68.336 152.808 68.125C152.778 67.914 152.581 67.7676 152.37 67.7982Z" fill="#1A1616"/>
<path d="M143.622 14.8523L128.607 8.64404L119.984 27.5338L134.999 33.7421L143.622 14.8523Z" fill="#C93400"/>
<path d="M141.446 16.2682L129.045 11.1404L127.924 13.596L140.325 18.7238L141.446 16.2682Z" fill="#FAF4FA"/>
<path fill-rule="evenodd" clip-rule="evenodd" d="M128.593 15.7806C129.116 16.0067 129.367 16.5969 129.149 17.1004C128.931 17.604 128.329 17.8248 127.806 17.5986L127.652 17.9532C128.374 18.2654 129.202 17.9493 129.503 17.2538C129.804 16.5582 129.468 15.7382 128.747 15.426L128.593 15.7806Z" fill="#FAF4FA"/>
<path fill-rule="evenodd" clip-rule="evenodd" d="M127.806 17.5985C127.283 17.3723 127.032 16.7821 127.25 16.2786C127.468 15.7751 128.071 15.5543 128.593 15.7804L128.747 15.4259C128.024 15.1132 127.196 15.4292 126.895 16.1248C126.594 16.8203 126.93 17.6403 127.652 17.953L127.806 17.5985Z" fill="#FAF4FA"/>
<path fill-rule="evenodd" clip-rule="evenodd" d="M127.276 18.8222C127.799 19.0484 128.05 19.6385 127.832 20.1421C127.614 20.6456 127.012 20.8664 126.489 20.6402L126.336 20.9948C127.057 21.307 127.885 20.991 128.186 20.2954C128.488 19.5998 128.151 18.7798 127.43 18.4677L127.276 18.8222Z" fill="#FAF4FA"/>
<path fill-rule="evenodd" clip-rule="evenodd" d="M126.489 20.6402C125.967 20.414 125.716 19.8239 125.934 19.3203C126.152 18.8168 126.754 18.596 127.276 18.8222L127.43 18.4676C126.707 18.1549 125.879 18.4709 125.578 19.1665C125.277 19.8621 125.613 20.6821 126.336 20.9948L126.489 20.6402Z" fill="#FAF4FA"/>
<path fill-rule="evenodd" clip-rule="evenodd" d="M125.961 21.8638C126.483 22.09 126.734 22.6802 126.516 23.1837C126.298 23.6872 125.696 23.908 125.174 23.6819L125.02 24.0364C125.741 24.3486 126.57 24.0326 126.871 23.337C127.172 22.6414 126.836 21.8215 126.114 21.5093L125.961 21.8638Z" fill="#FAF4FA"/>
<path fill-rule="evenodd" clip-rule="evenodd" d="M125.173 23.6817C124.651 23.4555 124.4 22.8654 124.618 22.3618C124.836 21.8583 125.438 21.6375 125.961 21.8637L126.114 21.5091C125.392 21.1964 124.563 21.5125 124.262 22.208C123.961 22.9036 124.297 23.7236 125.02 24.0363L125.173 23.6817Z" fill="#FAF4FA"/>
<path fill-rule="evenodd" clip-rule="evenodd" d="M124.638 24.9109C125.161 25.1371 125.412 25.7273 125.194 26.2308C124.976 26.7344 124.374 26.9552 123.851 26.729L123.698 27.0835C124.419 27.3957 125.247 27.0797 125.548 26.3841C125.85 25.6886 125.513 24.8686 124.792 24.5564L124.638 24.9109Z" fill="#FAF4FA"/>
<path fill-rule="evenodd" clip-rule="evenodd" d="M123.851 26.7288C123.329 26.5027 123.077 25.9125 123.295 25.409C123.513 24.9054 124.116 24.6846 124.638 24.9108L124.792 24.5563C124.069 24.2436 123.241 24.5596 122.94 25.2551C122.639 25.9507 122.975 26.7707 123.698 27.0834L123.851 26.7288Z" fill="#FAF4FA"/>
<path fill-rule="evenodd" clip-rule="evenodd" d="M131.675 17.1094C132.197 17.3356 132.448 17.9258 132.23 18.4293C132.012 18.9328 131.41 19.1536 130.887 18.9275L130.734 19.282C131.455 19.5942 132.283 19.2782 132.585 18.5826C132.886 17.887 132.549 17.0671 131.828 16.7549L131.675 17.1094Z" fill="#FAF4FA"/>
<path fill-rule="evenodd" clip-rule="evenodd" d="M130.887 18.9273C130.365 18.7012 130.114 18.111 130.332 17.6075C130.55 17.1039 131.152 16.8831 131.674 17.1093L131.828 16.7547C131.105 16.442 130.277 16.7581 129.976 17.4536C129.675 18.1492 130.011 18.9692 130.734 19.2819L130.887 18.9273Z" fill="#FAF4FA"/>
<path fill-rule="evenodd" clip-rule="evenodd" d="M130.357 20.1562C130.88 20.3824 131.131 20.9725 130.913 21.4761C130.695 21.9796 130.093 22.2004 129.57 21.9742L129.417 22.3288C130.138 22.641 130.966 22.3249 131.267 21.6294C131.569 20.9338 131.232 20.1138 130.511 19.8016L130.357 20.1562Z" fill="#FAF4FA"/>
<path fill-rule="evenodd" clip-rule="evenodd" d="M129.57 21.9741C129.048 21.7479 128.797 21.1577 129.015 20.6542C129.233 20.1507 129.835 19.9299 130.358 20.156L130.511 19.8015C129.789 19.4888 128.96 19.8048 128.659 20.5004C128.358 21.196 128.694 22.0159 129.417 22.3286L129.57 21.9741Z" fill="#FAF4FA"/>
<path fill-rule="evenodd" clip-rule="evenodd" d="M129.036 23.1982C129.559 23.4243 129.81 24.0145 129.592 24.5181C129.374 25.0216 128.772 25.2424 128.249 25.0162L128.096 25.3708C128.817 25.683 129.645 25.3669 129.946 24.6714C130.247 23.9758 129.911 23.1558 129.19 22.8436L129.036 23.1982Z" fill="#FAF4FA"/>
<path fill-rule="evenodd" clip-rule="evenodd" d="M128.25 25.0164C127.727 24.7903 127.476 24.2001 127.694 23.6966C127.912 23.193 128.514 22.9722 129.037 23.1984L129.19 22.8439C128.468 22.5312 127.64 22.8472 127.338 23.5427C127.037 24.2383 127.374 25.0583 128.096 25.371L128.25 25.0164Z" fill="#FAF4FA"/>
<path fill-rule="evenodd" clip-rule="evenodd" d="M127.719 26.2449C128.242 26.4711 128.493 27.0613 128.275 27.5648C128.057 28.0683 127.455 28.2891 126.932 28.063L126.779 28.4175C127.5 28.7297 128.328 28.4137 128.629 27.7181C128.93 27.0225 128.594 26.2026 127.873 25.8904L127.719 26.2449Z" fill="#FAF4FA"/>
<path fill-rule="evenodd" clip-rule="evenodd" d="M126.932 28.0628C126.409 27.8367 126.158 27.2465 126.376 26.7429C126.594 26.2394 127.196 26.0186 127.719 26.2448L127.873 25.8902C127.15 25.5775 126.322 25.8936 126.021 26.5891C125.72 27.2847 126.056 28.1047 126.778 28.4174L126.932 28.0628Z" fill="#FAF4FA"/>
<path fill-rule="evenodd" clip-rule="evenodd" d="M134.753 18.4432C135.275 18.6693 135.526 19.2595 135.308 19.763C135.09 20.2666 134.488 20.4874 133.965 20.2612L133.812 20.6158C134.533 20.928 135.361 20.6119 135.662 19.9164C135.964 19.2208 135.627 18.4008 134.906 18.0886L134.753 18.4432Z" fill="#FAF4FA"/>
<path fill-rule="evenodd" clip-rule="evenodd" d="M133.965 20.2611C133.443 20.0349 133.192 19.4447 133.41 18.9412C133.628 18.4377 134.23 18.2169 134.753 18.443L134.906 18.0885C134.184 17.7758 133.355 18.0918 133.054 18.7874C132.753 19.4829 133.089 20.3029 133.812 20.6156L133.965 20.2611Z" fill="#FAF4FA"/>
<path fill-rule="evenodd" clip-rule="evenodd" d="M133.433 21.4878C133.956 21.714 134.207 22.3042 133.989 22.8077C133.771 23.3113 133.169 23.5321 132.646 23.3059L132.493 23.6604C133.214 23.9726 134.042 23.6566 134.343 22.961C134.645 22.2655 134.308 21.4455 133.587 21.1333L133.433 21.4878Z" fill="#FAF4FA"/>
<path fill-rule="evenodd" clip-rule="evenodd" d="M132.646 23.3084C132.124 23.0823 131.873 22.4921 132.091 21.9886C132.309 21.485 132.911 21.2642 133.433 21.4904L133.587 21.1358C132.864 20.8231 132.036 21.1392 131.735 21.8347C131.434 22.5303 131.77 23.3503 132.493 23.663L132.646 23.3084Z" fill="#FAF4FA"/>
<path fill-rule="evenodd" clip-rule="evenodd" d="M132.117 24.5317C132.639 24.7578 132.891 25.348 132.672 25.8515C132.454 26.3551 131.852 26.5759 131.33 26.3497L131.176 26.7043C131.897 27.0165 132.726 26.7004 133.027 26.0049C133.328 25.3093 132.992 24.4893 132.27 24.1771L132.117 24.5317Z" fill="#FAF4FA"/>
<path fill-rule="evenodd" clip-rule="evenodd" d="M131.329 26.3497C130.807 26.1235 130.556 25.5333 130.774 25.0298C130.992 24.5263 131.594 24.3055 132.117 24.5316L132.27 24.1771C131.548 23.8644 130.719 24.1804 130.418 24.876C130.117 25.5716 130.453 26.3915 131.176 26.7042L131.329 26.3497Z" fill="#FAF4FA"/>
<path fill-rule="evenodd" clip-rule="evenodd" d="M130.801 27.5735C131.323 27.7997 131.574 28.3899 131.356 28.8934C131.138 29.397 130.536 29.6178 130.013 29.3916L129.86 29.7461C130.581 30.0583 131.409 29.7423 131.711 29.0467C132.012 28.3512 131.675 27.5312 130.954 27.219L130.801 27.5735Z" fill="#FAF4FA"/>
<path fill-rule="evenodd" clip-rule="evenodd" d="M130.013 29.3914C129.491 29.1653 129.24 28.5751 129.458 28.0716C129.676 27.568 130.278 27.3472 130.8 27.5734L130.954 27.2189C130.231 26.9062 129.403 27.2222 129.102 27.9177C128.801 28.6133 129.137 29.4333 129.86 29.746L130.013 29.3914Z" fill="#FAF4FA"/>
<path fill-rule="evenodd" clip-rule="evenodd" d="M137.831 19.777C138.354 20.0032 138.605 20.5934 138.387 21.0969C138.169 21.6004 137.567 21.8212 137.044 21.5951L136.89 21.9496C137.612 22.2618 138.44 21.9458 138.741 21.2502C139.042 20.5547 138.706 19.7347 137.985 19.4225L137.831 19.777Z" fill="#FAF4FA"/>
<path fill-rule="evenodd" clip-rule="evenodd" d="M137.044 21.595C136.521 21.3689 136.27 20.7787 136.488 20.2752C136.706 19.7716 137.308 19.5508 137.831 19.777L137.984 19.4225C137.262 19.1098 136.434 19.4258 136.133 20.1214C135.831 20.8169 136.168 21.6369 136.89 21.9496L137.044 21.595Z" fill="#FAF4FA"/>
<path fill-rule="evenodd" clip-rule="evenodd" d="M136.514 22.8198C137.037 23.0459 137.288 23.6361 137.07 24.1396C136.852 24.6432 136.25 24.864 135.727 24.6378L135.574 24.9924C136.295 25.3045 137.123 24.9885 137.424 24.2929C137.725 23.5974 137.389 22.7774 136.668 22.4652L136.514 22.8198Z" fill="#FAF4FA"/>
<path fill-rule="evenodd" clip-rule="evenodd" d="M135.727 24.637C135.205 24.4109 134.953 23.8207 135.171 23.3172C135.389 22.8136 135.992 22.5928 136.514 22.819L136.668 22.4645C135.945 22.1518 135.117 22.4678 134.816 23.1633C134.515 23.8589 134.851 24.6789 135.574 24.9916L135.727 24.637Z" fill="#FAF4FA"/>
<path fill-rule="evenodd" clip-rule="evenodd" d="M135.198 25.8661C135.72 26.0923 135.971 26.6825 135.753 27.186C135.535 27.6896 134.933 27.9104 134.41 27.6842L134.257 28.0387C134.978 28.3509 135.806 28.0349 136.108 27.3393C136.409 26.6438 136.072 25.8238 135.351 25.5116L135.198 25.8661Z" fill="#FAF4FA"/>
<path fill-rule="evenodd" clip-rule="evenodd" d="M134.41 27.684C133.888 27.4579 133.637 26.8677 133.855 26.3642C134.073 25.8606 134.675 25.6398 135.198 25.866L135.351 25.5115C134.629 25.1988 133.8 25.5148 133.499 26.2103C133.198 26.9059 133.534 27.7259 134.257 28.0386L134.41 27.684Z" fill="#FAF4FA"/>
<path fill-rule="evenodd" clip-rule="evenodd" d="M133.878 28.9079C134.401 29.1341 134.652 29.7242 134.434 30.2278C134.216 30.7313 133.614 30.9521 133.091 30.7259L132.938 31.0805C133.659 31.3927 134.487 31.0767 134.788 30.3811C135.09 29.6855 134.753 28.8655 134.032 28.5533L133.878 28.9079Z" fill="#FAF4FA"/>
<path fill-rule="evenodd" clip-rule="evenodd" d="M133.091 30.7258C132.569 30.4996 132.318 29.9094 132.536 29.4059C132.754 28.9024 133.356 28.6816 133.878 28.9077L134.032 28.5532C133.31 28.2405 132.481 28.5565 132.18 29.2521C131.879 29.9477 132.215 30.7676 132.938 31.0803L133.091 30.7258Z" fill="#FAF4FA"/>
<path d="M224.323 84.1929H51.6553V89.0803H224.323V84.1929Z" fill="#1A1616"/>
<path fill-rule="evenodd" clip-rule="evenodd" d="M175.318 81.6007H177.52V80.6786H180.956V81.6007H183.3V80.6786H186.736V81.6007H189.081V80.6786H192.518V81.6007H193.249C193.585 81.6007 193.907 81.7347 194.146 81.973C194.383 82.2099 194.517 82.5319 194.517 82.8681V84.1534H169.619C169.619 84.1534 169.619 83.5094 169.619 82.8681C169.619 82.5319 169.753 82.2099 169.99 81.973C170.229 81.7347 170.551 81.6007 170.887 81.6007H171.881V80.6786H175.318V81.6007Z" fill="#D2D3D5"/>
<path d="M90.1304 81.0853H59.9043V84.5337H90.1304V81.0853Z" fill="#FAF4FA"/>
<path fill-rule="evenodd" clip-rule="evenodd" d="M76.2567 80.5171V81.5474H60.5918V83.764H76.2567V84.7943H60.0765C59.792 84.7943 59.5613 84.5638 59.5613 84.2791V81.0323C59.5613 80.7476 59.792 80.5171 60.0765 80.5171H76.2567Z" fill="#1A1616"/>
<path fill-rule="evenodd" clip-rule="evenodd" d="M76.2567 80.5171H90.5699C90.8546 80.5171 91.0851 80.7476 91.0851 81.0323V84.2791C91.0851 84.5638 90.8546 84.7943 90.5699 84.7943H76.2567C75.7773 84.2894 75.9606 84.0074 76.2567 83.764H90.0546V81.5474H76.2567C76.0614 81.1675 76.0135 80.8146 76.2567 80.5171Z" fill="#1A1616"/>
<path fill-rule="evenodd" clip-rule="evenodd" d="M78.1284 81.1894L78.2126 84.4247C78.2201 84.7093 78.4568 84.9334 78.7411 84.927C79.0254 84.9192 79.2502 84.6823 79.2429 84.3976L79.1585 81.1624C79.151 80.879 78.9143 80.6536 78.63 80.6614C78.3457 80.6691 78.1209 80.9061 78.1284 81.1894ZM84.5981 79.6825V84.2263C84.5981 84.511 84.8289 84.7415 85.1134 84.7415C85.3977 84.7415 85.6286 84.511 85.6286 84.2263V79.6825C85.6286 79.3979 85.3977 79.1674 85.1134 79.1674C84.8289 79.1674 84.5981 79.3979 84.5981 79.6825ZM81.4229 79.7572V83.934C81.4229 84.2186 81.6538 84.4491 81.9382 84.4491C82.2226 84.4491 82.4535 84.2186 82.4535 83.934V79.7572C82.4535 79.4726 82.2226 79.2421 81.9382 79.2421C81.6538 79.2421 81.4229 79.4726 81.4229 79.7572ZM87.6265 79.7276V83.8245C87.6265 84.1078 87.8571 84.3397 88.1418 84.3397C88.4265 84.3397 88.6571 84.1078 88.6571 83.8245V79.7276C88.6571 79.4443 88.4265 79.2124 88.1418 79.2124C87.8571 79.2124 87.6265 79.4443 87.6265 79.7276Z" fill="#1A1616"/>
<path fill-rule="evenodd" clip-rule="evenodd" d="M97.6009 56.6143H96.6889C96.1814 56.6143 95.7692 56.2022 95.7692 55.6947C95.7692 55.1872 96.1814 54.7751 96.6889 54.7751H119.564C120.073 54.7751 120.484 55.1872 120.484 55.6947C120.484 56.2022 120.073 56.6143 119.564 56.6143H119.139C119.601 56.7768 120.028 57.042 120.381 57.3958C121.001 58.0157 121.349 58.8565 121.349 59.733V84.1595H95.3892C95.3892 84.1595 95.3892 67.0873 95.3892 59.733C95.3892 58.8565 95.7383 58.0157 96.3579 57.3958C96.7121 57.042 97.1372 56.7768 97.6009 56.6143Z" fill="#FAF4FA"/>
<path fill-rule="evenodd" clip-rule="evenodd" d="M119.139 56.6143C119.469 56.7299 119.779 56.8979 120.059 57.1126L95.9792 57.8492C96.0913 57.6881 96.2175 57.5363 96.358 57.3958C96.7122 57.042 97.1373 56.7768 97.601 56.6143H119.139Z" fill="#DA0F47"/>
<path d="M104.538 60.8727L96.1699 63.4084L100.567 77.9132L108.936 75.3774L104.538 60.8727Z" fill="#DA0F47"/>
<path fill-rule="evenodd" clip-rule="evenodd" d="M102.692 67.8533C103.673 67.8533 104.471 68.6506 104.471 69.6325C104.471 70.6144 103.673 71.4115 102.692 71.4115C102.478 71.4115 102.305 71.5846 102.305 71.7979C102.305 72.0111 102.478 72.1842 102.692 72.1842C104.1 72.1842 105.243 71.0408 105.243 69.6325C105.243 68.2241 104.1 67.0806 102.692 67.0806C102.478 67.0806 102.305 67.2538 102.305 67.4669C102.305 67.6802 102.478 67.8533 102.692 67.8533Z" fill="#DE6647"/>
<path fill-rule="evenodd" clip-rule="evenodd" d="M102.692 71.4115C101.709 71.4115 100.913 70.6144 100.913 69.6325C100.913 68.6506 101.709 67.8533 102.692 67.8533C102.905 67.8533 103.078 67.6802 103.078 67.4669C103.078 67.2538 102.905 67.0806 102.692 67.0806C101.283 67.0806 100.14 68.2241 100.14 69.6325C100.14 71.0408 101.283 72.1842 102.692 72.1842C102.905 72.1842 103.078 72.0111 103.078 71.7979C103.078 71.5846 102.905 71.4115 102.692 71.4115Z" fill="#DE6647"/>
<path fill-rule="evenodd" clip-rule="evenodd" d="M103.514 77.0216L102.847 74.9796C102.759 74.7094 102.907 74.4183 103.177 74.3301C103.447 74.2419 103.738 74.3896 103.827 74.6599L104.501 76.7227L103.514 77.0216ZM104.901 76.6011L104.452 75.1479C104.368 74.8763 104.52 74.5875 104.792 74.5034C105.064 74.4195 105.352 74.5717 105.436 74.8433L105.888 76.3022L104.901 76.6011ZM101.627 61.7566L102.355 64.1089C102.438 64.3805 102.286 64.6692 102.015 64.7532C101.743 64.8373 101.454 64.6849 101.371 64.4133L100.64 62.0555L101.627 61.7566ZM100.013 62.2456L100.625 64.029C100.717 64.2979 100.573 64.5912 100.304 64.6834C100.035 64.7756 99.7423 64.6321 99.6496 64.3631L99.0261 62.5447L100.013 62.2456Z" fill="#DE6647"/>
<path d="M120.948 69.339L112.501 67.0803L108.584 81.722L117.032 83.9807L120.948 69.339Z" fill="#DA0F47"/>
<path fill-rule="evenodd" clip-rule="evenodd" d="M115.697 74.2926C116.531 74.8102 116.788 75.908 116.27 76.7422C115.752 77.5765 114.654 77.8332 113.82 77.3155C113.639 77.2028 113.401 77.2588 113.288 77.44C113.175 77.6212 113.231 77.8593 113.412 77.972C114.609 78.7145 116.184 78.3463 116.927 77.1498C117.67 75.9533 117.301 74.3785 116.105 73.636C115.923 73.5233 115.685 73.5794 115.573 73.7605C115.46 73.9417 115.516 74.1798 115.697 74.2926Z" fill="#DE6647"/>
<path fill-rule="evenodd" clip-rule="evenodd" d="M113.82 77.3163C112.985 76.798 112.729 75.701 113.247 74.8668C113.765 74.0326 114.862 73.7751 115.697 74.2934C115.877 74.4055 116.117 74.3501 116.229 74.1689C116.342 73.9878 116.285 73.749 116.105 73.6369C114.907 72.8937 113.333 73.2627 112.59 74.4592C111.847 75.6557 112.215 77.2297 113.412 77.9729C113.592 78.0849 113.832 78.0296 113.944 77.8484C114.057 77.6672 114 77.4284 113.82 77.3163Z" fill="#DE6647"/>
<path fill-rule="evenodd" clip-rule="evenodd" d="M111.558 82.5167L112.069 80.43C112.137 80.1542 112.416 79.9851 112.691 80.0521C112.968 80.1198 113.137 80.3988 113.07 80.6754L112.554 82.7831L111.558 82.5167ZM112.959 82.8911L113.343 81.4194C113.416 81.1445 113.697 80.9794 113.972 81.0512C114.247 81.1232 114.412 81.4047 114.34 81.6797L113.955 83.1575L112.959 82.8911ZM118.009 68.5527L117.386 70.9349C117.314 71.2099 117.032 71.375 116.757 71.303C116.482 71.2311 116.317 70.9495 116.389 70.6746L117.013 68.2863L118.009 68.5527ZM116.38 68.117L115.958 69.9548C115.895 70.2322 115.618 70.4052 115.341 70.3416C115.063 70.278 114.891 70.0019 114.954 69.7244L115.384 67.8507L116.38 68.117Z" fill="#DE6647"/>
<path d="M112.785 65.5602C114.508 65.5602 115.905 64.1635 115.905 62.4406C115.905 60.7176 114.508 59.3209 112.785 59.3209C111.062 59.3209 109.665 60.7176 109.665 62.4406C109.665 64.1635 111.062 65.5602 112.785 65.5602Z" fill="#FFCF84"/>
<path fill-rule="evenodd" clip-rule="evenodd" d="M112.826 60.4552C113.953 60.4552 114.869 61.3711 114.869 62.4993C114.869 63.6277 113.953 64.5436 112.826 64.5436C112.717 64.5436 112.628 64.6317 112.628 64.74C112.628 64.8483 112.717 64.9363 112.826 64.9363C114.17 64.9363 115.262 63.8444 115.262 62.4993C115.262 61.1545 114.17 60.0625 112.826 60.0625C112.717 60.0625 112.628 60.1505 112.628 60.2588C112.628 60.3672 112.717 60.4552 112.826 60.4552Z" fill="#FDA92F"/>
<path fill-rule="evenodd" clip-rule="evenodd" d="M112.825 64.5436C111.697 64.5436 110.781 63.6277 110.781 62.4993C110.781 61.3711 111.697 60.4552 112.825 60.4552C112.933 60.4552 113.02 60.3672 113.02 60.2588C113.02 60.1505 112.933 60.0625 112.825 60.0625C111.48 60.0625 110.388 61.1545 110.388 62.4993C110.388 63.8444 111.48 64.9363 112.825 64.9363C112.933 64.9363 113.02 64.8483 113.02 64.74C113.02 64.6317 112.933 64.5436 112.825 64.5436Z" fill="#FDA92F"/>
<path fill-rule="evenodd" clip-rule="evenodd" d="M112.32 65.5271L112.349 64.7811C112.353 64.6728 112.444 64.5883 112.552 64.5926C112.662 64.5967 112.745 64.688 112.742 64.7963L112.712 65.5607C112.579 65.5576 112.448 65.5463 112.32 65.5271ZM113.463 65.4874L113.271 64.7254C113.245 64.6203 113.308 64.5135 113.414 64.4871C113.518 64.4607 113.625 64.5246 113.652 64.6295L113.84 65.3781C113.718 65.4223 113.592 65.4588 113.463 65.4874ZM110.19 64.1737L110.777 63.71C110.862 63.6427 110.986 63.6573 111.053 63.7423C111.12 63.8273 111.106 63.9508 111.021 64.018L110.428 64.4858C110.343 64.387 110.263 64.2828 110.19 64.1737ZM109.793 63.3305L110.527 62.9327C110.623 62.8811 110.742 62.9165 110.794 63.0118C110.845 63.107 110.809 63.2262 110.714 63.2779L109.931 63.7028C109.877 63.5825 109.832 63.4582 109.793 63.3305ZM115.87 62.9026L115.162 62.8697C115.054 62.8647 114.97 62.7727 114.975 62.6646C114.98 62.5562 115.072 62.4725 115.18 62.4774L115.904 62.511C115.901 62.6437 115.89 62.7743 115.87 62.9026ZM114.967 60.2138C115.061 60.3056 115.149 60.4032 115.232 60.5063L114.656 61.0974C114.58 61.1751 114.456 61.1769 114.379 61.1013C114.3 61.0257 114.299 60.9013 114.375 60.8236L114.967 60.2138ZM111.231 59.737L111.741 60.4987C111.801 60.5887 111.777 60.7107 111.687 60.7711C111.596 60.8313 111.474 60.8072 111.415 60.7172L110.903 59.954C111.006 59.875 111.116 59.8025 111.231 59.737ZM113.056 59.3339C113.187 59.3452 113.317 59.3648 113.445 59.3922L113.368 60.1717C113.356 60.2796 113.259 60.3584 113.152 60.3476C113.044 60.3369 112.966 60.2407 112.976 60.1329L113.056 59.3339Z" fill="#FDA92F"/>
<path d="M104.355 68.9922C104.16 70.7041 105.389 72.2503 107.101 72.4458C108.813 72.6413 110.36 71.412 110.555 69.7002C110.751 67.9883 109.521 66.4421 107.809 66.2466C106.097 66.0511 104.551 67.2804 104.355 68.9922Z" fill="#FFCF84"/>
<path fill-rule="evenodd" clip-rule="evenodd" d="M109.424 69.6101C109.296 70.7302 108.281 71.5362 107.16 71.4082C106.039 71.2802 105.233 70.2664 105.361 69.1463C105.373 69.0385 105.296 68.9399 105.188 68.9276C105.081 68.9153 104.983 68.994 104.971 69.1018C104.818 70.4374 105.779 71.6458 107.116 71.7984C108.452 71.951 109.661 70.9903 109.814 69.6547C109.826 69.5469 109.749 69.4483 109.641 69.436C109.533 69.4237 109.436 69.5024 109.424 69.6101Z" fill="#FDA92F"/>
<path fill-rule="evenodd" clip-rule="evenodd" d="M105.363 69.147C105.491 68.0256 106.505 67.2196 107.626 67.3476C108.747 67.4756 109.554 68.4894 109.425 69.6108C109.413 69.7173 109.491 69.8146 109.598 69.8268C109.706 69.8391 109.804 69.7618 109.816 69.6554C109.968 68.3184 109.007 67.11 107.671 66.9574C106.334 66.8048 105.125 67.7655 104.973 69.1025C104.96 69.2089 105.038 69.3062 105.146 69.3185C105.253 69.3308 105.351 69.2534 105.363 69.147Z" fill="#FDA92F"/>
<path fill-rule="evenodd" clip-rule="evenodd" d="M104.441 68.5348L105.179 68.6475C105.286 68.6637 105.359 68.7641 105.343 68.8711C105.326 68.9794 105.226 69.0522 105.119 69.0361L104.363 68.92C104.381 68.7885 104.407 68.6593 104.441 68.5348ZM104.35 69.6743L105.129 69.5701C105.237 69.5564 105.336 69.6312 105.35 69.7392C105.364 69.8458 105.289 69.9448 105.181 69.9597L104.416 70.0617C104.386 69.9351 104.364 69.8055 104.35 69.6743ZM106.027 66.5718L106.421 67.2079C106.479 67.3 106.45 67.4212 106.358 67.4781C106.266 67.535 106.145 67.5069 106.088 67.4148L105.69 66.7731C105.798 66.6998 105.911 66.6323 106.027 66.5718ZM106.91 66.2733L107.222 67.0478C107.263 67.1484 107.214 67.2634 107.113 67.3037C107.013 67.3441 106.898 67.2948 106.858 67.1942L106.525 66.368C106.65 66.3279 106.779 66.2972 106.91 66.2733ZM106.646 72.3592L106.759 71.6591C106.776 71.5522 106.877 71.4795 106.984 71.4968C107.091 71.5143 107.164 71.6146 107.147 71.7215L107.031 72.4369C106.899 72.4193 106.771 72.3929 106.646 72.3592ZM109.42 71.7672C109.318 71.8502 109.211 71.9261 109.099 71.9963L108.577 71.3573C108.509 71.273 108.521 71.1499 108.605 71.0817C108.689 71.0122 108.813 71.0251 108.881 71.1094L109.42 71.7672ZM110.318 68.109L109.503 68.5294C109.407 68.5793 109.288 68.5411 109.239 68.4447C109.189 68.3483 109.227 68.2295 109.323 68.1808L110.139 67.7594C110.206 67.8707 110.266 67.9877 110.318 68.109ZM110.511 69.968C110.485 70.0973 110.451 70.2243 110.409 70.3479L109.643 70.1827C109.537 70.1589 109.47 70.054 109.493 69.949C109.516 69.8427 109.62 69.7756 109.726 69.798L110.511 69.968Z" fill="#FDA92F"/>
<path d="M98.5129 82.9709C99.7757 84.1432 101.75 84.07 102.923 82.8074C104.095 81.5447 104.022 79.5708 102.759 78.3985C101.496 77.2262 99.5219 77.2994 98.3494 78.5621C97.1768 79.8247 97.2501 81.7986 98.5129 82.9709Z" fill="#FFCF84"/>
<path fill-rule="evenodd" clip-rule="evenodd" d="M102.017 79.2559C102.843 80.0229 102.891 81.3173 102.123 82.1441C101.356 82.971 100.061 83.0191 99.2347 82.2521C99.1552 82.1783 99.0299 82.1821 98.9562 82.2614C98.8825 82.3408 98.888 82.466 98.9675 82.5399C99.9527 83.4544 101.496 83.3969 102.411 82.4113C103.326 81.4257 103.27 79.8827 102.284 78.9681C102.205 78.8943 102.08 78.8981 102.006 78.9775C101.932 79.0569 101.938 79.1821 102.017 79.2559Z" fill="#FDA92F"/>
<path fill-rule="evenodd" clip-rule="evenodd" d="M99.2355 82.2522C98.4083 81.4843 98.3604 80.19 99.1282 79.3631C99.896 78.5363 101.191 78.4881 102.018 79.2561C102.096 79.3289 102.221 79.3242 102.294 79.2448C102.368 79.1654 102.364 79.0412 102.285 78.9683C101.299 78.0528 99.7557 78.1103 98.8404 79.0959C97.9251 80.0815 97.982 81.6245 98.9683 82.54C99.0468 82.6129 99.1711 82.6082 99.2448 82.5288C99.3185 82.4494 99.314 82.3251 99.2355 82.2522Z" fill="#FDA92F"/>
<path fill-rule="evenodd" clip-rule="evenodd" d="M98.1969 82.6292L98.7254 82.1018C98.8019 82.025 98.9264 82.0253 99.0028 82.1021C99.0803 82.1796 99.0795 82.3034 99.003 82.3802L98.4611 82.9202C98.3659 82.8277 98.2773 82.73 98.1969 82.6292ZM99.0613 83.3774L99.4392 82.6884C99.4919 82.5938 99.6108 82.5585 99.7062 82.611C99.8006 82.6626 99.8355 82.7822 99.7839 82.8775L99.4123 83.554C99.2925 83.5031 99.1751 83.4441 99.0613 83.3774ZM97.5566 80.188L98.3027 80.2477C98.4107 80.2563 98.4914 80.3511 98.4827 80.4589C98.4739 80.5668 98.3795 80.6476 98.2714 80.6391L97.5188 80.5788C97.5238 80.4485 97.5362 80.3179 97.5566 80.188ZM97.8397 79.3001L98.6485 79.5081C98.7535 79.5351 98.8172 79.6425 98.7901 79.7474C98.7631 79.8522 98.6555 79.9151 98.5505 79.8881L97.6874 79.6667C97.7296 79.5417 97.7811 79.42 97.8397 79.3001ZM102.585 83.1209L102.088 82.6149C102.012 82.5376 102.013 82.4133 102.091 82.3375C102.168 82.2616 102.292 82.2625 102.368 82.3397L102.876 82.8568C102.784 82.9523 102.686 83.0401 102.585 83.1209ZM103.753 80.5362C103.759 80.6675 103.757 80.7986 103.747 80.9302L102.923 80.9717C102.814 80.9769 102.723 80.8941 102.717 80.7861C102.711 80.6773 102.795 80.5852 102.904 80.58L103.753 80.5362ZM101.339 77.6446L101.194 78.5498C101.177 78.657 101.076 78.7297 100.969 78.7126C100.862 78.6954 100.789 78.5945 100.807 78.4883L100.951 77.5811C101.081 77.5933 101.21 77.6147 101.339 77.6446ZM102.951 78.5909C103.039 78.6886 103.121 78.7915 103.196 78.8983L102.609 79.4169C102.527 79.4882 102.403 79.4802 102.332 79.3995C102.26 79.3181 102.267 79.1941 102.348 79.1221L102.951 78.5909Z" fill="#FDA92F"/>
<path d="M118.041 83.9742C119.734 83.6524 120.845 82.0194 120.524 80.3267C120.202 78.634 118.568 77.5227 116.876 77.8444C115.183 78.1662 114.071 79.7992 114.393 81.4919C114.715 83.1846 116.348 84.2959 118.041 83.9742Z" fill="#FFCF84"/>
<path fill-rule="evenodd" clip-rule="evenodd" d="M117.128 78.9495C118.236 78.739 119.306 79.4678 119.517 80.5762C119.728 81.6848 118.999 82.7556 117.892 82.9661C117.785 82.9864 117.714 83.0895 117.734 83.1959C117.754 83.3023 117.859 83.3721 117.965 83.3519C119.286 83.1009 120.154 81.8243 119.903 80.5029C119.652 79.1816 118.375 78.3127 117.055 78.5637C116.948 78.5839 116.877 78.687 116.897 78.7935C116.917 78.8999 117.021 78.9697 117.128 78.9495Z" fill="#FDA92F"/>
<path fill-rule="evenodd" clip-rule="evenodd" d="M117.892 82.9649C116.783 83.1757 115.712 82.4468 115.501 81.3383C115.29 80.2299 116.019 79.159 117.128 78.9483C117.233 78.9283 117.303 78.8254 117.283 78.719C117.263 78.6126 117.16 78.5425 117.055 78.5625C115.733 78.8138 114.864 80.0904 115.115 81.4116C115.367 82.733 116.643 83.602 117.965 83.3507C118.07 83.3307 118.14 83.2279 118.12 83.1214C118.1 83.015 117.997 82.9449 117.892 82.9649Z" fill="#FDA92F"/>
<path fill-rule="evenodd" clip-rule="evenodd" d="M117.58 84.0254L117.469 83.2873C117.452 83.1801 117.527 83.0801 117.634 83.064C117.742 83.0476 117.841 83.1217 117.858 83.2289L117.971 83.9854C117.841 84.0071 117.709 84.0205 117.58 84.0254ZM118.695 83.7732L118.365 83.0603C118.32 82.9619 118.362 82.8452 118.461 82.7995C118.558 82.7541 118.675 82.7969 118.721 82.895L119.046 83.5953C118.934 83.6615 118.817 83.721 118.695 83.7732ZM115.235 83.0936L115.725 82.5283C115.796 82.4464 115.92 82.4376 116.002 82.5086C116.084 82.5796 116.093 82.7036 116.022 82.7855L115.527 83.3557C115.425 83.2745 115.327 83.1871 115.235 83.0936ZM114.687 82.3393L115.334 81.8113C115.418 81.7428 115.543 81.7552 115.611 81.8392C115.679 81.9231 115.666 82.047 115.582 82.1156L114.892 82.6792C114.817 82.5711 114.749 82.4574 114.687 82.3393ZM120.578 80.7842L119.876 80.8842C119.768 80.8995 119.669 80.8247 119.654 80.7175C119.639 80.6101 119.713 80.5108 119.82 80.4954L120.537 80.3933C120.56 80.5241 120.573 80.6546 120.578 80.7842ZM119.188 78.3111C119.298 78.3838 119.402 78.4634 119.502 78.5492L119.047 79.2375C118.987 79.328 118.866 79.3528 118.776 79.293C118.684 79.2334 118.66 79.1114 118.72 79.0209L119.188 78.3111ZM115.428 78.5404L116.072 79.1935C116.148 79.2706 116.147 79.395 116.069 79.4712C115.992 79.5472 115.867 79.5464 115.792 79.469L115.147 78.8147C115.234 78.7179 115.328 78.6262 115.428 78.5404ZM117.146 77.8036C117.277 77.7902 117.409 77.7851 117.539 77.7883L117.609 78.5685C117.618 78.6767 117.537 78.7721 117.43 78.7815C117.322 78.7912 117.227 78.7113 117.217 78.6035L117.146 77.8036Z" fill="#FDA92F"/>
<path fill-rule="evenodd" clip-rule="evenodd" d="M109.755 83.7571L94.6401 110.073H88.4235C88.4235 110.073 86.5133 114.153 89.4077 115.647H117.921C117.951 115.647 117.979 115.65 118.008 115.654C118.577 115.695 121.821 115.602 124.389 108.951C128.56 98.1484 132.787 91.9161 137.058 83.7571H109.755Z" fill="#E9E9EB"/>
<path d="M103.588 107.982C106.063 108.334 108.713 106.658 109.507 104.238C110.301 101.819 108.938 99.5722 106.463 99.22C103.987 98.8679 101.337 100.544 100.543 102.963C99.7491 105.383 101.112 107.629 103.588 107.982Z" fill="#FAF4FA"/>
<path d="M133.692 85.1552L110.222 84.9062L109.217 86.7388L132.687 86.9878L133.692 85.1552Z" fill="#BABDC2"/>
<path d="M132.116 88.5355L108.536 88.3237L107.534 90.158L131.114 90.3697L132.116 88.5355Z" fill="#BABDC2"/>
<path d="M130.297 92.208L106.641 91.5928L105.609 93.4092L129.265 94.0245L130.297 92.208Z" fill="#BABDC2"/>
<path d="M128.412 95.8446L104.88 94.8251L103.819 96.6232L127.351 97.6428L128.412 95.8446Z" fill="#BABDC2"/>
<path d="M125.876 99.6199L113.314 98.9867L112.433 100.74L124.995 101.374L125.876 99.6199Z" fill="#BABDC2"/>
<path d="M123.798 103.334L115.315 102.825L114.581 104.587L123.064 105.096L123.798 103.334Z" fill="#BABDC2"/>
<path d="M122.1 107.068L110.846 106.23L110.231 108L121.485 108.839L122.1 107.068Z" fill="#BABDC2"/>
<path fill-rule="evenodd" clip-rule="evenodd" d="M95.2056 109.088H115.573C115.596 109.088 115.619 109.091 115.642 109.093C115.861 109.123 116.045 109.243 116.13 109.521C116.172 109.655 116.175 109.921 116.123 110.282C115.936 111.574 115.102 114.833 118.439 115.641C118.242 115.663 118.094 115.659 118.008 115.654C117.979 115.65 117.951 115.647 117.921 115.647H116.178C116.065 115.547 115.96 115.441 115.864 115.332C114.689 113.998 114.815 112.066 115.006 110.771C115.038 110.549 115.07 110.308 115.095 110.118L94.6401 110.073L95.2056 109.088Z" fill="#1A1616"/>
<path d="M102.947 104.461C103.299 104.917 103.797 105.203 104.445 105.337C105.224 105.48 105.695 105.3 105.883 104.801C106.023 104.391 105.849 104.093 105.361 103.908C105.129 103.83 104.881 103.749 104.611 103.655C104.128 103.479 103.797 103.225 103.622 102.902C103.442 102.571 103.425 102.204 103.562 101.803C103.726 101.323 104.025 100.969 104.475 100.744C104.909 100.515 105.435 100.46 106.047 100.571C106.784 100.731 107.361 101.049 107.779 101.517L107.043 102.108C106.693 101.752 106.251 101.509 105.72 101.398C105.445 101.344 105.19 101.36 104.961 101.456C104.725 101.55 104.556 101.732 104.458 101.993C104.402 102.155 104.422 102.308 104.51 102.465C104.599 102.622 104.787 102.749 105.06 102.86C105.211 102.914 105.425 102.989 105.699 103.075C106.234 103.253 106.579 103.518 106.743 103.871C106.902 104.215 106.919 104.581 106.784 104.976C106.4 106.022 105.517 106.419 104.152 106.17C103.276 106 102.604 105.598 102.141 104.972L102.947 104.461Z" fill="#1A1616"/>
<path fill-rule="evenodd" clip-rule="evenodd" d="M106.22 99.8591L103.232 106.626L103.924 106.837L106.938 100.01L106.22 99.8591Z" fill="#1A1616"/>
<path fill-rule="evenodd" clip-rule="evenodd" d="M169.824 98.2821C169.488 97.9138 169.04 97.709 168.675 97.9486C167.395 98.7896 166.522 99.6873 165.266 100.562C161.383 103.266 155.937 104.02 153.529 108.457C151.088 112.952 150.965 118.46 148.793 123.131C145.867 129.427 141.68 135.012 138.578 141.215C134.736 148.892 128.754 165.728 128.754 165.728C126.822 165.7 117.294 166.943 111.501 167.837C111.28 167.87 111.125 168.068 111.141 168.29C111.158 168.513 111.344 168.684 111.566 168.684C125.223 168.684 165.268 168.684 174.584 168.684C175.059 168.684 175.499 168.43 175.737 168.019C175.975 167.609 175.978 167.101 175.741 166.689C174.548 164.604 172.483 163.382 170.184 162.812C168.415 162.374 166.708 162.59 164.927 162.74C164.86 162.745 164.775 162.757 164.723 162.704C164.71 162.691 164.692 162.668 164.685 162.653C164.212 161.671 164.464 156.1 164.48 154.847C164.546 149.625 164.779 144.389 165.227 139.185C165.371 137.515 165.67 132.712 165.67 132.712C165.67 132.712 169.687 132.16 170.839 131.898C173.678 131.257 175.997 129.419 177.62 127.029C180.028 123.483 180.184 118.667 181.273 114.634C182.184 111.257 183.888 108.625 185.345 105.528C186.101 103.921 185.835 101.546 184.087 100.682C182.377 99.8354 180.586 101.604 179.51 102.734C176.087 106.338 175.912 111.297 172.988 114.871C170.914 117.404 166.73 117.869 166.73 117.869C166.73 117.869 166.601 114.779 166.73 113.921C167.376 109.629 169.796 106.9 170.781 102.95C171.066 101.806 170.905 99.4619 169.824 98.2821Z" fill="#C93400"/>
<path fill-rule="evenodd" clip-rule="evenodd" d="M160.183 134.493C162.046 133.541 165.671 132.712 165.671 132.712C165.671 132.712 165.575 134.25 165.466 135.887C164.068 135.38 162.316 135.231 160.382 135.263C160.194 135.266 160.027 135.138 159.981 134.957C159.933 134.774 160.017 134.582 160.183 134.493Z" fill="#1A1616"/>
<path fill-rule="evenodd" clip-rule="evenodd" d="M162.03 104.023L162.857 104.633C163.087 104.801 163.41 104.752 163.579 104.523C163.747 104.295 163.698 103.972 163.469 103.803L162.642 103.194C162.413 103.025 162.091 103.074 161.922 103.302C161.753 103.531 161.801 103.855 162.03 104.023Z" fill="#1A1616"/>
<path fill-rule="evenodd" clip-rule="evenodd" d="M164.614 162.453C164.579 162.399 164.555 162.338 164.54 162.271C163.469 156.823 162.034 153.095 160.409 150.621C158.852 148.248 157.132 147.06 155.411 146.637C151.94 145.783 148.525 147.996 146.625 149.543C145.759 150.246 145.105 150.934 145.105 150.934C145.006 151.056 144.851 151.131 144.681 151.123C144.398 151.109 144.177 150.867 144.192 150.583C144.192 150.576 144.18 150.42 144.342 150.241C144.452 150.121 145.044 149.5 145.974 148.743C148.061 147.043 151.842 144.699 155.657 145.637C157.581 146.109 159.53 147.402 161.271 150.055C162.429 151.819 163.501 154.195 164.418 157.349C164.381 159.249 164.377 161.582 164.614 162.453ZM155.666 106.619C155.666 106.619 153.997 110.812 152.968 113.401C152.351 114.949 152.995 116.714 154.462 117.503C155.131 117.865 155.808 118.133 156.493 118.302C157.423 118.533 158.409 118.322 159.164 117.732C159.92 117.141 160.36 116.236 160.36 115.276C160.36 112.029 160.36 106.808 160.36 106.808C160.36 106.525 160.13 106.293 159.845 106.293C159.562 106.293 159.33 106.525 159.33 106.808C159.33 106.808 159.33 112.029 159.33 115.276C159.33 115.919 159.035 116.524 158.529 116.92C158.024 117.316 157.364 117.457 156.741 117.302C156.137 117.153 155.541 116.916 154.951 116.596C153.943 116.054 153.502 114.844 153.925 113.782C154.955 111.194 156.625 106.999 156.625 106.999C156.729 106.735 156.6 106.435 156.336 106.33C156.071 106.225 155.772 106.354 155.666 106.619ZM166.697 116.84C166.712 117.431 166.73 117.869 166.73 117.869C166.73 117.869 166.813 117.86 166.961 117.838C166.325 117.968 165.736 118.023 165.183 118.018C164.899 118.016 164.671 117.783 164.673 117.499C164.676 117.215 164.908 116.985 165.192 116.988C165.661 116.992 166.16 116.945 166.697 116.84ZM185.171 101.642C185.363 101.932 185.505 102.257 185.599 102.598C183.642 104.015 182.179 106.172 182.11 106.299C181.974 106.549 181.661 106.642 181.411 106.507C181.161 106.372 181.069 106.059 181.204 105.809C181.281 105.665 182.955 103.196 185.171 101.642ZM183.264 100.463C183.538 100.478 183.814 100.546 184.087 100.682C184.2 100.737 184.307 100.8 184.409 100.868C183.577 101.502 181.885 102.944 180.15 105.335C179.984 105.564 179.661 105.616 179.432 105.448C179.201 105.282 179.149 104.959 179.317 104.729C180.819 102.66 182.294 101.266 183.264 100.463ZM166.965 99.2403C167.499 98.8025 168.037 98.3684 168.675 97.9486C169.04 97.709 169.488 97.9138 169.824 98.2821C170.08 98.5603 170.283 98.9029 170.443 99.2803C168.979 100.799 167.363 99.5829 166.965 99.2403Z" fill="#1A1616"/>
<defs>
<linearGradient id="paint0_linear_252_6024" x1="71.8236" y1="130.365" x2="198.946" y2="55.3928" gradientUnits="userSpaceOnUse">
<stop stop-color="#B8D8D5"/>
<stop offset="0.42" stop-color="#CEE0DA"/>
<stop offset="1" stop-color="#FFF0E6"/>
</linearGradient>
<linearGradient id="paint1_linear_252_6024" x1="30.0398" y1="40.3293" x2="-32.6852" y2="118.941" gradientUnits="userSpaceOnUse">
<stop stop-color="#B8D8D5"/>
<stop offset="0.47" stop-color="#CCDFDA"/>
<stop offset="1" stop-color="#FFF0E6"/>
</linearGradient>
<linearGradient id="paint2_linear_252_6024" x1="214.623" y1="56.9289" x2="253.362" y2="94.6595" gradientUnits="userSpaceOnUse">
<stop stop-color="#FFBF2F"/>
<stop offset="1" stop-color="#FD9500"/>
</linearGradient>
<linearGradient id="paint3_linear_252_6024" x1="241.128" y1="127.452" x2="177.941" y2="84.8543" gradientUnits="userSpaceOnUse">
<stop stop-color="#FFBF2F"/>
<stop offset="0.48" stop-color="#FEB422"/>
<stop offset="1" stop-color="#FD9500"/>
</linearGradient>
</defs>
</svg>
