<svg width="256" height="192" viewBox="0 0 256 192" fill="none" xmlns="http://www.w3.org/2000/svg">
<path fill-rule="evenodd" clip-rule="evenodd" d="M35.7562 168.824H225.605V110.823C225.605 110.823 204.283 110.048 187.579 137.479C184.323 142.825 175.905 150.163 162.627 149.587C159.358 149.444 154.522 147.054 150.032 144.535C142.673 140.405 133.788 140.028 126.106 143.519C124.849 144.09 123.54 144.725 122.193 145.432C117.54 147.874 108.981 151.536 102.584 147.871C102.517 147.833 102.45 147.795 102.382 147.76C101.201 147.125 88.8658 140.517 78.1147 134.758C66.8256 128.71 52.8096 131.894 45.2375 142.227C40.0694 149.273 35.7113 158.335 35.7562 168.824Z" fill="#007D1B"/>
<path fill-rule="evenodd" clip-rule="evenodd" d="M29.5673 101.154C29.524 101.176 29.479 101.197 29.4323 101.215C28.77 101.47 28.0171 101.116 27.752 100.426C27.4868 99.7367 27.8091 98.9701 28.4714 98.7155C29.1336 98.4608 29.8866 98.8141 30.1518 99.5038C30.3068 99.907 30.261 100.336 30.0642 100.674L89.9522 160.982C90.0679 160.872 90.206 160.782 90.3638 160.721C90.6629 160.606 90.9807 160.615 91.264 160.724L103.969 126.011C103.906 125.92 103.853 125.821 103.811 125.713C103.546 125.023 103.868 124.256 104.53 124.002C105.193 123.747 105.945 124.1 106.211 124.791C106.263 124.927 106.293 125.066 106.301 125.205L135.716 140.701C135.853 140.42 136.088 140.191 136.396 140.073C136.778 139.925 137.193 139.982 137.525 140.189L181.245 71.0822C181.208 71.0186 181.176 70.9506 181.148 70.8784C180.883 70.1888 181.205 69.4224 181.868 69.1679C182.53 68.9133 183.282 69.2664 183.547 69.9561C183.626 70.1615 183.654 70.3739 183.635 70.5778L191.587 76.9931C191.714 76.8536 191.873 76.7415 192.058 76.6702C192.366 76.5521 192.693 76.5654 192.981 76.6815L209.454 47.2938C209.334 47.167 209.236 47.0144 209.169 46.8404C208.904 46.1506 209.226 45.3839 209.888 45.1294C210.551 44.8744 211.304 45.2278 211.569 45.9176C211.834 46.6074 211.512 47.374 210.849 47.629C210.586 47.7302 210.309 47.7352 210.053 47.6614L193.545 77.112C193.624 77.2144 193.689 77.3307 193.738 77.4584C194.004 78.1481 193.682 78.9155 193.02 79.1701C192.357 79.4247 191.604 79.0705 191.339 78.3808C191.243 78.1309 191.223 77.8695 191.271 77.6269L183.373 71.257C183.237 71.4369 183.053 71.5817 182.829 71.6678C182.468 71.8063 182.08 71.7644 181.76 71.5867L138.017 140.728C138.038 140.771 138.058 140.815 138.076 140.861C138.341 141.551 138.019 142.317 137.356 142.571C136.694 142.826 135.941 142.473 135.675 141.784C135.63 141.665 135.602 141.544 135.59 141.424L106.149 125.913C106.011 126.176 105.784 126.389 105.491 126.501C105.174 126.623 104.836 126.606 104.541 126.479L91.8474 161.159C91.9278 161.263 91.9944 161.38 92.0444 161.51C92.3096 162.2 91.987 162.966 91.3249 163.221C90.6626 163.475 89.9097 163.122 89.6445 162.433C89.5374 162.154 89.5261 161.864 89.5938 161.6L29.5673 101.154Z" fill="#007D1B"/>
<path fill-rule="evenodd" clip-rule="evenodd" d="M52.0613 112.133C52.0613 112.133 52.3925 111.405 52.4169 111.373C52.943 110.696 53.6027 110.134 54.3321 109.709C55.751 108.882 57.3238 108.979 58.8763 108.703C60.3669 108.437 61.7537 107.802 63.0483 107.003C65.2142 105.664 67.0627 103.753 69.3307 102.597C70.1755 102.166 71.0827 101.872 72.0141 101.733C77.4907 100.919 80.2592 105.827 84.754 107.777C87.2002 108.838 89.4802 107.944 91.971 109.432C93.6048 110.408 93.6757 112.133 93.6757 112.133H52.0613ZM189.791 66.1465C189.919 65.1906 190.744 64.2089 190.899 64.071C192.622 62.5479 194.787 63.0805 196.794 62.4646C200.738 61.2547 203.152 57.1273 207.185 56.1002C207.798 55.9441 208.444 55.8444 209.076 55.8811C213.16 56.1179 214.645 60.3254 217.988 61.9769C220.16 63.0505 222.218 62.8108 224.325 64.3249C225.424 65.1151 225.428 66.1465 225.428 66.1465C225.428 66.1465 198.901 66.1915 189.791 66.1465ZM46.146 43.2306C46.3351 41.9097 46.8881 40.8764 48.2325 40.0014C49.7834 38.992 51.7258 39.2878 53.1773 38.0788C56.3622 35.4259 58.4807 29.8355 63.4734 30.9898C66.65 31.7244 68.4726 34.8231 70.9534 36.721C72.98 38.2715 75.3479 38.5316 77.708 39.1937C79.3588 39.6568 81.094 40.3309 82.3805 41.5449C82.9196 42.0537 83.3362 42.5756 83.5907 43.2306C83.6467 43.3745 51.5341 42.8084 46.146 43.2306Z" fill="#FFF1E8"/>
<path fill-rule="evenodd" clip-rule="evenodd" d="M215.794 88.7839L218.671 94.2678L229.662 76.9998L209.772 77.2973L212.727 82.9347L69.4162 160.022L58.1606 140.851L47.9219 145.701L36 123.052V136.671L45.4557 154.188L55.6559 149.357L67.0634 168.787L215.794 88.7839Z" fill="#00370C"/>
<path d="M175.119 101.163C180.66 92.3211 177.686 80.4748 168.477 74.7035C159.268 68.9322 147.311 71.4213 141.769 80.263C136.228 89.1048 139.202 100.951 148.411 106.722C157.62 112.494 169.577 110.005 175.119 101.163Z" fill="#FFBB22"/>
<path d="M178.479 82.1682C179.105 83.505 179.594 84.8929 179.94 86.3097" stroke="#FFBB22" stroke-width="8.00126" stroke-miterlimit="1.5" stroke-linecap="round" stroke-linejoin="round"/>
<path d="M179.94 86.3085C180.657 89.2406 180.761 92.2979 180.2 95.2728" stroke="#FFBB22" stroke-width="8.00126" stroke-miterlimit="1.5" stroke-linecap="round" stroke-linejoin="round"/>
<path d="M157.933 112.089C156.139 111.97 154.341 111.634 152.579 111.073C150.778 110.499 149.015 109.69 147.334 108.637" stroke="#FFBB22" stroke-width="8.00126" stroke-miterlimit="1.5" stroke-linecap="round" stroke-linejoin="round"/>
<path d="M150.264 70.4111C153.066 69.3786 156.09 68.9275 159.134 69.1007" stroke="#FFBB22" stroke-width="8.00126" stroke-miterlimit="1.5" stroke-linecap="round" stroke-linejoin="round"/>
<path fill-rule="evenodd" clip-rule="evenodd" d="M166.958 77.1278C174.767 82.0219 177.292 92.0828 172.593 99.5807C167.894 107.079 157.739 109.193 149.93 104.299C149.707 104.159 149.418 104.219 149.284 104.433C149.15 104.647 149.222 104.934 149.445 105.073C157.699 110.246 168.433 108.012 173.4 100.086C178.367 92.161 175.697 81.527 167.443 76.354C167.22 76.2145 166.931 76.2744 166.797 76.4882C166.663 76.7019 166.735 76.9883 166.958 77.1278Z" fill="#007D1B"/>
<path fill-rule="evenodd" clip-rule="evenodd" d="M149.93 104.299C142.121 99.4047 139.596 89.344 144.295 81.8461C148.993 74.3482 159.149 72.2338 166.958 77.128C167.181 77.2675 167.47 77.2075 167.604 76.9938C167.738 76.7801 167.666 76.4936 167.443 76.3541C159.189 71.181 148.455 73.4153 143.488 81.3406C138.521 89.2659 141.19 99.9001 149.445 105.073C149.668 105.213 149.957 105.152 150.091 104.939C150.225 104.725 150.153 104.438 149.93 104.299Z" fill="#007D1B"/>
<path fill-rule="evenodd" clip-rule="evenodd" d="M156.429 78.2544L155.815 78.3762L155.596 77.4694L156.668 77.2568C156.921 77.2065 157.175 77.369 157.235 77.6193L157.605 79.153C158.553 79.0087 159.488 78.9794 160.411 79.0645C161.589 79.1729 162.746 79.4681 163.882 79.9493C164.011 80.003 164.11 80.1093 164.155 80.2384C164.199 80.3677 164.185 80.5075 164.115 80.6219L162.563 83.157C162.446 83.3477 162.203 83.4223 161.988 83.333C160.871 82.8714 159.701 82.6872 158.479 82.7794L159.711 87.89C164.358 87.9406 166.989 89.6166 167.686 92.7675C168.071 94.4778 167.77 96.0175 166.79 97.3804C165.904 98.6629 164.545 99.645 162.705 100.313L163.34 102.949C163.401 103.199 163.245 103.442 162.991 103.492L161.939 103.701L161.721 102.795L162.316 102.677L161.694 100.099C161.639 99.8692 161.765 99.6421 161.989 99.5693C163.814 98.9718 165.157 98.0689 166.01 96.8357C166.841 95.68 167.092 94.3797 166.766 92.9337C166.14 90.0988 163.642 88.7791 159.364 88.8147C159.138 88.8158 158.937 88.6597 158.885 88.4427L157.444 82.463C157.413 82.338 157.437 82.2084 157.509 82.104C157.58 82.0005 157.693 81.9313 157.821 81.915C159.261 81.7219 160.637 81.8631 161.948 82.3369L163.017 80.5909C162.144 80.2708 161.257 80.068 160.357 79.9858C159.373 79.8947 158.374 79.9465 157.359 80.1389C157.107 80.1868 156.856 80.0244 156.796 79.7755L156.429 78.2544ZM161.821 96.6464C162.439 96.3148 162.858 95.9373 163.059 95.4965C163.182 95.2132 163.248 94.9087 163.259 94.5838L164.2 94.6497C164.184 95.0894 164.092 95.5016 163.923 95.8924C163.594 96.6146 162.866 97.2462 161.706 97.7453C161.578 97.8002 161.429 97.7952 161.301 97.7304C161.173 97.6653 161.079 97.5479 161.046 97.4113L160.274 94.2064L161.19 94.0247L161.821 96.6464ZM153.72 84.8178C153.782 84.3761 153.909 83.9935 154.097 83.669C154.101 83.661 154.107 83.6527 154.112 83.6447C154.552 82.9838 155.156 82.533 155.922 82.2929C156.047 82.2538 156.187 82.2697 156.304 82.3357C156.422 82.4027 156.507 82.5148 156.538 82.6427L157.17 85.2673L156.255 85.4489L155.756 83.3795C155.418 83.5663 155.138 83.8259 154.914 84.1587C154.781 84.3921 154.696 84.6678 154.652 84.9842C154.651 84.9925 154.649 85.001 154.647 85.0094C154.582 85.3411 154.607 85.7229 154.711 86.1521L153.795 86.3337C153.658 85.765 153.637 85.2597 153.72 84.8178Z" fill="#007D1B"/>
<path fill-rule="evenodd" clip-rule="evenodd" d="M154.936 88.0984C154.362 87.6782 153.978 87.0925 153.795 86.3339L154.711 86.1523C154.836 86.6725 155.09 87.0791 155.484 87.3664L155.498 87.3768C155.812 87.6232 156.259 87.7781 156.837 87.8625L156.255 85.4491L157.17 85.2675L157.9 88.2932C157.934 88.4336 157.899 88.5795 157.807 88.6881C157.716 88.7955 157.577 88.8547 157.431 88.8461C156.302 88.7796 155.475 88.5163 154.936 88.0984Z" fill="#007D1B"/>
<path fill-rule="evenodd" clip-rule="evenodd" d="M160.667 91.8553L161.19 94.0246L160.275 94.2062L159.619 91.4866C159.587 91.3539 159.616 91.2163 159.697 91.1099C159.779 91.0032 159.904 90.9387 160.042 90.9338C161.37 90.8865 162.322 91.1252 162.909 91.5802L162.922 91.5918C163.504 92.0773 163.888 92.6955 164.07 93.4493C164.171 93.8707 164.214 94.2714 164.201 94.6495L163.259 94.5836C163.27 94.283 163.235 93.9652 163.154 93.6309C163.024 93.0893 162.752 92.6438 162.336 92.2938C161.967 92.0116 161.41 91.8766 160.667 91.8553Z" fill="#007D1B"/>
<path fill-rule="evenodd" clip-rule="evenodd" d="M157.803 91.8723C153.324 91.7791 150.812 90.1375 150.181 87.0984C149.779 85.2707 150.025 83.7305 150.89 82.4728C151.681 81.322 153.004 80.4027 154.879 79.7385L154.499 78.1622C154.438 77.9119 154.594 77.6682 154.846 77.6181L155.597 77.4693L155.815 78.3761L155.523 78.434L155.89 79.9551C155.946 80.1857 155.818 80.414 155.593 80.4861C153.74 81.0841 152.427 81.915 151.675 83.0093C150.943 84.0753 150.761 85.3855 151.102 86.941C151.667 89.6633 154.049 90.9469 158.156 90.9527C158.379 90.953 158.578 91.1084 158.63 91.3235L160.141 97.5909C160.172 97.7188 160.146 97.8508 160.072 97.9558C159.997 98.061 159.88 98.1279 159.748 98.1418C158.577 98.2626 157.545 98.2013 156.655 97.9646C155.882 97.7931 155.164 97.5325 154.5 97.182L153.099 98.9929C154.089 99.4197 155.149 99.7353 156.275 99.9414C157.586 100.169 158.903 100.159 160.227 99.9148C160.479 99.8688 160.729 100.03 160.789 100.278L161.41 102.857L161.721 102.795L161.94 103.701L161.17 103.853C160.917 103.903 160.664 103.742 160.604 103.492L159.979 100.899C158.694 101.089 157.416 101.072 156.141 100.851C154.713 100.59 153.392 100.164 152.172 99.5747C152.044 99.5128 151.948 99.3968 151.913 99.2607C151.876 99.1248 151.904 98.9821 151.989 98.873L153.986 96.2933C154.126 96.11 154.39 96.0648 154.598 96.1891C155.274 96.5939 156.023 96.8851 156.839 97.0652L156.861 97.07C157.52 97.2469 158.267 97.3098 159.102 97.2629L157.803 91.8723Z" fill="#007D1B"/>
<path d="M118.292 120.755C116.455 110.293 106.381 102.964 95.7919 104.387C85.2029 105.809 78.1081 115.444 79.9454 125.907C81.7826 136.37 91.8561 143.698 102.445 142.276C113.034 140.853 120.129 131.218 118.292 120.755Z" fill="#FFBB22"/>
<path fill-rule="evenodd" clip-rule="evenodd" d="M96.2962 107.255C105.276 106.049 113.83 112.273 115.388 121.146C116.946 130.018 110.921 138.201 101.942 139.407C101.686 139.442 101.514 139.675 101.559 139.928C101.603 140.18 101.847 140.358 102.103 140.323C111.594 139.048 117.963 130.399 116.316 121.021C114.669 111.643 105.627 105.065 96.1354 106.34C95.8794 106.374 95.7077 106.607 95.7521 106.86C95.7965 107.113 96.0402 107.29 96.2962 107.255Z" fill="#007D1B"/>
<path fill-rule="evenodd" clip-rule="evenodd" d="M101.941 139.407C92.9615 140.613 84.4065 134.39 82.8485 125.517C81.2905 116.645 87.3157 108.462 96.2953 107.255C96.5511 107.221 96.723 106.988 96.6786 106.735C96.6342 106.482 96.3903 106.305 96.1345 106.34C86.6431 107.615 80.2742 116.264 81.921 125.642C83.5678 135.02 92.6106 141.599 102.102 140.323C102.358 140.289 102.53 140.056 102.485 139.803C102.441 139.55 102.197 139.373 101.941 139.407Z" fill="#007D1B"/>
<path fill-rule="evenodd" clip-rule="evenodd" d="M89.3383 114.908L88.97 115.398L88.2054 114.831L88.8481 113.976C89.0002 113.773 89.2942 113.737 89.5053 113.893L90.7983 114.852C91.3959 114.13 92.0613 113.505 92.7931 112.978C93.7279 112.305 94.7722 111.79 95.9245 111.435C96.0543 111.394 96.1975 111.413 96.3167 111.485C96.4352 111.558 96.5182 111.676 96.5432 111.81L97.0971 114.786C97.1385 115.01 97.0105 115.224 96.7933 115.293C95.6679 115.652 94.6889 116.26 93.8555 117.119L98.1641 120.313C101.6 117.363 104.643 116.977 107.254 118.987C108.676 120.074 109.482 121.468 109.673 123.162C109.879 124.733 109.539 126.373 108.638 128.078L110.86 129.725C111.07 129.882 111.118 130.172 110.966 130.374L110.335 131.213L109.571 130.647L109.928 130.173L107.755 128.561C107.561 128.418 107.502 128.159 107.617 127.959C108.555 126.318 108.936 124.75 108.739 123.239C108.577 121.803 107.894 120.627 106.691 119.709C104.343 117.9 101.635 118.478 98.5262 121.258C98.3617 121.404 98.1107 121.411 97.9277 121.276L92.8865 117.538C92.7811 117.46 92.7123 117.343 92.6947 117.216C92.678 117.09 92.7147 116.963 92.7978 116.868C93.7228 115.791 94.8244 115.016 96.1001 114.542L95.7189 112.492C94.866 112.804 94.082 113.216 93.3677 113.732C92.5867 114.293 91.8904 114.976 91.275 115.78C91.1226 115.979 90.8306 116.014 90.6207 115.858L89.3383 114.908ZM105.546 125.786C105.777 125.13 105.832 124.566 105.685 124.093C105.587 123.793 105.432 123.513 105.223 123.253L105.957 122.698C106.238 123.051 106.446 123.432 106.582 123.846C106.823 124.621 106.711 125.582 106.194 126.718C106.137 126.843 106.025 126.935 105.888 126.967C105.751 126.998 105.604 126.967 105.489 126.881L102.787 124.878L103.336 124.148L105.546 125.786ZM91.7303 121.77C91.4812 121.386 91.3194 121.006 91.2404 120.632C91.2384 120.623 91.2371 120.613 91.235 120.604C91.1169 119.805 91.2587 119.064 91.6589 118.384C91.7247 118.273 91.8378 118.196 91.9677 118.172C92.0985 118.148 92.2353 118.181 92.3431 118.261L94.5558 119.902L94.0066 120.632L92.2619 119.339C92.1392 119.702 92.1071 120.085 92.1648 120.488C92.2233 120.756 92.3448 121.026 92.5232 121.301C92.5283 121.308 92.5326 121.316 92.5369 121.323C92.7103 121.624 92.9833 121.906 93.3451 122.174L92.7959 122.905C92.3164 122.549 91.9638 122.169 91.7303 121.77Z" fill="#007D1B"/>
<path fill-rule="evenodd" clip-rule="evenodd" d="M94.8067 123.547C94.1065 123.589 93.435 123.379 92.7954 122.905L93.3447 122.174C93.7833 122.499 94.2398 122.653 94.7199 122.624L94.7371 122.623C95.131 122.613 95.5616 122.447 96.0408 122.141L94.0062 120.632L94.5554 119.901L97.1063 121.793C97.2247 121.88 97.2969 122.016 97.302 122.16C97.3069 122.302 97.244 122.439 97.1314 122.526C96.2611 123.2 95.4797 123.527 94.8067 123.547Z" fill="#007D1B"/>
<path fill-rule="evenodd" clip-rule="evenodd" d="M101.507 122.791L103.336 124.147L102.787 124.878L100.494 123.178C100.382 123.095 100.311 122.969 100.3 122.834C100.289 122.698 100.338 122.567 100.435 122.475C101.376 121.583 102.232 121.157 102.965 121.134L102.982 121.135C103.732 121.139 104.425 121.375 105.061 121.846C105.416 122.109 105.714 122.394 105.957 122.698L105.224 123.252C105.031 123.01 104.793 122.785 104.512 122.576C104.055 122.238 103.559 122.065 103.021 122.06C102.563 122.077 102.065 122.33 101.507 122.791Z" fill="#007D1B"/>
<path fill-rule="evenodd" clip-rule="evenodd" d="M99.4217 124.647C96.0806 127.456 93.1471 127.792 90.6593 125.827C89.1466 124.66 88.3004 123.3 88.0947 121.763C87.9068 120.356 88.2628 118.787 89.1922 117.063L87.8633 116.078C87.6522 115.922 87.6038 115.631 87.7553 115.43L88.2053 114.831L88.9698 115.398L88.7948 115.631L90.0771 116.581C90.2715 116.726 90.3305 116.986 90.2136 117.187C89.2557 118.845 88.8486 120.338 89.0275 121.676C89.2022 122.978 89.942 124.118 91.2289 125.111C93.4572 126.872 96.0569 126.34 99.0667 123.703C99.2306 123.56 99.4801 123.553 99.6614 123.687L104.945 127.605C105.053 127.685 105.122 127.804 105.138 127.933C105.153 128.064 105.112 128.191 105.025 128.287C104.248 129.135 103.452 129.751 102.643 130.138C101.962 130.502 101.263 130.761 100.543 130.914L100.725 133.229C101.734 132.924 102.72 132.489 103.682 131.925C104.793 131.259 105.751 130.405 106.557 129.362C106.711 129.164 107.002 129.129 107.211 129.284L109.384 130.896L109.571 130.647L110.335 131.214L109.873 131.828C109.722 132.029 109.428 132.066 109.218 131.91L107.032 130.29C106.218 131.264 105.271 132.074 104.191 132.721C102.971 133.436 101.72 133.954 100.434 134.279C100.299 134.313 100.151 134.284 100.035 134.201C99.9172 134.118 99.843 133.989 99.8319 133.849L99.5741 130.552C99.555 130.319 99.7181 130.114 99.9527 130.077C100.718 129.958 101.46 129.703 102.178 129.319L102.197 129.308C102.797 129.022 103.386 128.591 103.966 128.017L99.4217 124.647Z" fill="#007D1B"/>
<path d="M82.0088 109.191C83.9403 106.948 86.3601 105.114 89.133 103.85" stroke="#FFBB22" stroke-width="7.85006" stroke-miterlimit="1.5" stroke-linecap="round" stroke-linejoin="round"/>
<path d="M120.802 123.123C120.934 124.885 120.848 126.666 120.528 128.428C120.201 130.227 119.631 132.006 118.801 133.722" stroke="#FFBB22" stroke-width="7.96241" stroke-miterlimit="1.5" stroke-linecap="round" stroke-linejoin="round"/>
<path d="M87.8237 141.59C85.2148 139.983 82.9381 137.868 81.1566 135.379" stroke="#FFBB22" stroke-width="7.85006" stroke-miterlimit="1.5" stroke-linecap="round" stroke-linejoin="round"/>
<path fill-rule="evenodd" clip-rule="evenodd" d="M113.529 105.986L114.417 106.346C114.844 106.031 115.463 106.048 115.897 106.419C116.116 106.606 116.253 106.852 116.301 107.11L118.249 107.899L118.305 107.924L118.359 107.951L118.412 107.98L118.462 108.011L118.511 108.045L118.557 108.081L118.603 108.117L118.645 108.157L118.685 108.198L118.723 108.241L118.76 108.286L118.794 108.331L118.825 108.378L118.854 108.427L118.882 108.477L118.906 108.527L118.928 108.579L118.948 108.632L118.965 108.685L118.979 108.74L118.991 108.795L119 108.85L119.007 108.906L119.01 108.962L119.012 109.018L119.01 109.075L119.004 109.132L118.997 109.188L118.986 109.245L118.972 109.301L118.956 109.356L118.936 109.412L118.913 109.466L118.888 109.519L118.86 109.57L118.83 109.618L118.798 109.664L118.763 109.709L118.726 109.752L118.688 109.792L118.647 109.83L118.605 109.866L118.561 109.9L118.516 109.932L118.469 109.961L118.42 109.989L118.371 110.013L118.32 110.035L118.268 110.055L118.215 110.072L118.161 110.088L118.107 110.099L118.051 110.109L117.995 110.116L117.938 110.121L117.882 110.122L117.824 110.121L117.766 110.117L117.708 110.11L117.65 110.101L117.593 110.087L117.535 110.072L117.477 110.054L117.42 110.032L115.13 109.104L100.92 125.368C100.623 125.708 100.144 125.837 99.6965 125.697C99.2495 125.558 98.9182 125.176 98.8509 124.722L95.3432 101.084L83.0244 96.0909C82.4166 95.8445 82.1086 95.1667 82.3373 94.5782C82.566 93.9897 83.2452 93.7119 83.8529 93.9583L91.3469 96.9963C91.3803 96.9726 91.4142 96.9521 91.45 96.9328L143.142 68.7631L140.913 65.429C140.551 64.8865 140.694 64.1739 141.233 63.8376C141.772 63.5002 142.504 63.6675 142.866 64.21L159.457 89.0278C159.82 89.5702 159.676 90.2836 159.138 90.6204C158.598 90.9565 157.866 90.789 157.504 90.2476L146.475 73.7479L113.529 105.986ZM111.128 105.013L145.132 71.7401L144.457 70.7307L94.1644 98.1378L111.128 105.013ZM111.006 107.432L97.8601 102.104L100.797 121.895L112.798 108.159L111.039 107.446C111.028 107.441 111.017 107.437 111.006 107.432Z" fill="#007D1B"/>
<path fill-rule="evenodd" clip-rule="evenodd" d="M143.474 62.3117C143.191 61.8576 142.593 61.703 142.142 61.966L137.248 64.8122C136.797 65.0741 136.661 65.656 136.945 66.1091L137.974 67.7518C138.258 68.2059 138.855 68.3605 139.307 68.0976L144.2 65.2514C144.651 64.9894 144.788 64.4075 144.504 63.9544L143.474 62.3117ZM89.4537 90.838C88.8294 89.8401 87.5156 89.4993 86.5221 90.0766L76.6128 95.8338C75.6194 96.411 75.3197 97.6897 75.9441 98.6874C76.5684 99.6852 77.8818 100.027 78.8752 99.4495L88.7846 93.692C89.7781 93.1148 90.0779 91.8359 89.4537 90.838Z" fill="black"/>
<path fill-rule="evenodd" clip-rule="evenodd" d="M134.652 102.772C137.398 108.605 137.668 112.438 137.668 112.438C139.439 111.716 141.282 112.399 141.986 113.341L123.016 122.248C117.387 108.654 110.971 104.301 108.114 102.996C87.1247 93.4035 83.3221 90.9827 80.4206 87.9982C73.9412 81.3342 74.0386 75.6885 75.6703 71.7727C77.5682 67.2284 82.336 64.5918 87.3454 65.2654L87.3411 65.2614L87.3658 65.2674C87.4947 65.2849 87.6233 65.3048 87.7525 65.3264C89.3128 65.5911 90.8914 66.029 92.4042 66.5794L119.514 73.6358C128.921 76.0853 135.45 84.7271 135.032 94.1775L134.652 102.772Z" fill="#A8CFCC"/>
<path fill-rule="evenodd" clip-rule="evenodd" d="M91.6362 66.311C91.8938 66.3969 92.1495 66.487 92.404 66.5792L96.6928 67.695C105.598 72.1418 125.28 83.5264 134.721 101.215L134.652 102.772C135.384 104.328 135.941 105.743 136.363 106.978C136.329 106.937 136.3 106.891 136.28 106.839C136.263 106.793 136.245 106.747 136.227 106.701L136.221 106.685L136.213 106.662L136.195 106.617L136.169 106.553L136.161 106.53L136.157 106.521C136.139 106.476 136.121 106.43 136.103 106.385L136.1 106.376L136.092 106.356L136.064 106.288L136.048 106.245L136.039 106.223L136.032 106.207L136.02 106.177L135.978 106.073L135.977 106.069C135.958 106.023 135.94 105.978 135.921 105.931L135.915 105.917L135.907 105.896L135.886 105.848L135.86 105.783L135.852 105.765L135.849 105.756C135.83 105.709 135.81 105.663 135.791 105.617L135.789 105.612L135.783 105.598L135.75 105.52L135.732 105.476L135.725 105.46L135.719 105.445C135.679 105.352 135.639 105.259 135.599 105.166L135.595 105.156L135.59 105.142L135.565 105.086L135.535 105.016L135.53 105.005L135.528 104.999C135.506 104.951 135.486 104.903 135.464 104.854L135.423 104.761L135.402 104.714L135.398 104.703L135.393 104.694C135.351 104.599 135.308 104.503 135.266 104.408L135.263 104.403L135.26 104.395L135.23 104.332L135.198 104.26L135.195 104.253L135.193 104.25C135.15 104.155 135.106 104.06 135.062 103.964L135.057 103.955L135.053 103.944C135.009 103.852 134.966 103.759 134.922 103.667L134.917 103.657L134.909 103.639L134.883 103.584L134.857 103.53L134.847 103.508L134.841 103.496C134.821 103.455 134.802 103.413 134.781 103.372C134.644 103.087 134.504 102.805 134.362 102.523C122.424 78.9417 91.8101 66.4321 91.8101 66.4321C91.7417 66.4041 91.6832 66.362 91.6362 66.311ZM117.949 112.484L134.362 102.523L134.749 103.392L134.781 103.372L134.841 103.496L134.857 103.53L134.909 103.639L134.922 103.667L134.987 103.806L135.053 103.944L135.062 103.964L135.126 104.103L135.193 104.25L135.198 104.26L135.26 104.395L135.266 104.408L135.33 104.553L135.393 104.694L135.402 104.714L135.464 104.853L135.464 104.854L135.528 104.999L135.535 105.016L135.59 105.142L135.599 105.166L135.66 105.308L135.719 105.445L135.732 105.476L135.783 105.598L135.791 105.617L135.849 105.756L135.86 105.783L135.907 105.896L135.921 105.931L135.977 106.069L135.978 106.073L136.032 106.207L136.048 106.245L136.092 106.356L136.103 106.385L136.157 106.521L136.169 106.553L136.213 106.662L136.227 106.701L136.28 106.839L134.749 103.392L118.46 113.278C118.289 113.007 118.119 112.742 117.949 112.484Z" fill="#82B5B2"/>
<path fill-rule="evenodd" clip-rule="evenodd" d="M145.616 71.2667L110.591 105.539C110.139 105.98 110.151 106.713 110.618 107.173C111.085 107.633 111.83 107.648 112.282 107.207L147.307 72.9342C147.759 72.4924 147.747 71.7594 147.28 71.2997C146.813 70.8399 146.068 70.8245 145.616 71.2667ZM143.427 68.6072L91.45 96.9327C90.8914 97.2369 90.7061 97.9392 91.0369 98.4999C91.3676 99.0605 92.0898 99.2683 92.6487 98.9637L144.625 70.6389C145.183 70.335 145.369 69.6318 145.038 69.0713C144.708 68.5108 143.985 68.3033 143.427 68.6072Z" fill="#007D1B"/>
<path fill-rule="evenodd" clip-rule="evenodd" d="M84.6344 65.0189C81.8293 65.0472 79.1958 66.3736 77.5038 68.6094C74.7519 72.2344 71.9015 79.2367 80.4206 87.9986C83.322 90.983 87.1246 93.4039 108.114 102.996C110.971 104.301 117.387 108.655 123.016 122.249L141.986 113.341C141.282 112.4 139.439 111.717 137.668 112.439C137.936 113.001 137.283 89.6979 95.2684 67.7843C92.0705 66.1172 88.1505 64.9763 84.6344 65.0189Z" fill="url(#paint0_linear_609_5152)"/>
<path fill-rule="evenodd" clip-rule="evenodd" d="M117.712 112.128L134.542 102.429C134.688 102.716 134.828 102.999 134.961 103.277L118.23 112.918C118.057 112.648 117.884 112.384 117.712 112.128Z" fill="#82B5B2"/>
<path fill-rule="evenodd" clip-rule="evenodd" d="M129.364 58.2422C126.686 53.044 123.278 48.7525 119.582 44.8184C118.015 43.1483 116.023 41.9351 113.82 41.308C108.985 39.9298 100.476 39.4529 92.9104 48.9511C92.9104 48.9511 92.5914 49.3687 92.1213 49.984C89.6155 53.2643 89.9213 57.8928 92.8372 60.8176C97.5414 65.5157 105.499 70.2438 114.941 62.7579C114.941 62.7579 117.308 65.363 119.572 67.8562C122.329 70.8903 126.7 71.8567 130.477 70.267C135.018 68.3578 139.255 65.4625 142.671 61.828C143.288 62.762 143.514 63.1707 144.622 64.4838C144.851 64.7556 145.105 64.8724 145.357 64.9024C145.722 64.9439 146.084 64.8029 146.326 64.5255C146.567 64.2481 146.656 63.87 146.565 63.5144C146.421 62.9958 146.205 62.4801 145.85 61.7536C145.85 61.7536 146.209 60.7676 146.568 59.7805C146.751 59.2764 146.72 58.7179 146.482 58.2357C146.243 57.7546 145.819 57.3903 145.306 57.2293C142.97 56.4839 140.165 55.4879 137.201 55.6535C134.289 55.8157 131.794 56.8771 129.364 58.2422Z" fill="#A8CFCC"/>
<path fill-rule="evenodd" clip-rule="evenodd" d="M140.012 55.8081C141.009 55.9628 141.975 56.2051 142.895 56.4728C143.889 57.3161 145.076 58.6248 146.255 60.6391L145.85 61.7535C145.924 61.9051 145.992 62.0475 146.055 62.1825C146.042 62.1648 146.03 62.1452 146.019 62.125C143.199 56.6718 140.194 55.8951 140.194 55.8951C140.126 55.8783 140.064 55.8488 140.012 55.8081ZM130.044 57.87C128.783 58.6223 127.443 59.5916 126.104 60.7449C125.912 60.9094 125.614 60.8858 125.439 60.6911C125.264 60.4963 125.278 60.2042 125.469 60.0397C126.642 59.03 127.816 58.1577 128.942 57.4408C129.085 57.7056 129.225 57.973 129.364 58.2421C129.59 58.1154 129.816 57.9915 130.044 57.87Z" fill="#82B5B2"/>
<path d="M127.782 40.544C129.444 37.892 128.552 34.3388 125.79 32.6077C123.028 30.8767 119.441 31.6232 117.779 34.2753C116.117 36.9273 117.009 40.4804 119.771 42.2115C122.534 43.9426 126.12 43.196 127.782 40.544Z" fill="#A8CFCC"/>
<path fill-rule="evenodd" clip-rule="evenodd" d="M121.396 38.9843L119.372 41.9392C116.928 40.1289 116.201 36.7935 117.779 34.2758C119.436 31.6313 123.014 30.8819 125.773 32.5972L122.139 37.8996C122.066 37.6041 121.86 37.3159 121.55 37.1217C120.991 36.7713 120.304 36.8585 120.017 37.3163C119.73 37.7742 119.951 38.4304 120.51 38.7808C120.796 38.9598 121.114 39.0247 121.396 38.9843Z" fill="black"/>
<path fill-rule="evenodd" clip-rule="evenodd" d="M116.524 64.5011L114.941 62.7582C106.661 69.3225 99.5233 66.4952 94.7219 62.529C90.5422 59.071 89.745 53.0952 92.9103 48.9514C97.8596 42.7374 103.212 40.7937 107.677 40.5785C112.587 40.3483 117.41 42.3763 120.733 46.0672C123.324 48.9313 125.745 52.008 127.834 55.4945L116.524 64.5011Z" fill="url(#paint1_linear_609_5152)"/>
<path fill-rule="evenodd" clip-rule="evenodd" d="M112.049 64.7098L109.5 57.1984C109.461 57.0837 109.509 56.9612 109.615 56.9047C109.72 56.8492 109.854 56.8751 109.934 56.9675C111.677 58.9666 115.528 63.3852 115.528 63.3852L115.52 63.3949L114.941 62.7586C113.96 63.5364 112.995 64.1826 112.049 64.7098Z" fill="#04433F"/>
<defs>
<linearGradient id="paint0_linear_609_5152" x1="102.648" y1="97.7479" x2="57.8391" y2="67.8348" gradientUnits="userSpaceOnUse">
<stop stop-color="#A8CFCC"/>
<stop offset="0.6" stop-color="#B8D5D1"/>
<stop offset="0.81" stop-color="#DBE3DC"/>
<stop offset="1" stop-color="#FFF1E8"/>
</linearGradient>
<linearGradient id="paint1_linear_609_5152" x1="108.794" y1="54.7033" x2="79.3513" y2="35.116" gradientUnits="userSpaceOnUse">
<stop stop-color="#82B5B2"/>
<stop offset="1" stop-color="#A8CFCC"/>
</linearGradient>
</defs>
</svg>
