<svg width="256" height="192" viewBox="0 0 256 192" fill="none" xmlns="http://www.w3.org/2000/svg">
<path d="M199 116H57V169H199V116Z" fill="#E86135"/>
<path fill-rule="evenodd" clip-rule="evenodd" d="M35.7562 168.825H225.605V110.824C225.605 110.824 204.283 110.049 187.579 137.48C184.323 142.826 175.905 150.164 162.627 149.588C159.358 149.445 154.522 147.055 150.032 144.536C142.673 140.406 133.788 140.029 126.106 143.52C124.849 144.091 123.54 144.726 122.193 145.433C117.54 147.875 108.981 151.537 102.584 147.872C102.517 147.834 102.45 147.796 102.382 147.761C101.201 147.126 88.8658 140.518 78.1147 134.759C66.8256 128.711 52.8096 131.895 45.2375 142.228C40.0694 149.274 35.7113 158.336 35.7562 168.825Z" fill="#D70015"/>
<path fill-rule="evenodd" clip-rule="evenodd" d="M215.551 158.553L218.427 153.069L229.418 170.337L209.528 170.04L212.484 164.402L69.1725 87.3144L57.9169 106.486L47.6782 101.636L35.7563 124.285V110.666L45.2121 93.1494L55.4123 97.9801L66.8197 78.5498L215.551 158.553Z" fill="#97000F"/>
<path fill-rule="evenodd" clip-rule="evenodd" d="M52.0618 112.133C52.0618 112.133 52.3929 111.405 52.4174 111.373C52.9435 110.696 53.6032 110.134 54.3326 109.709C55.7515 108.882 57.3243 108.979 58.8768 108.703C60.3674 108.437 61.7542 107.802 63.0488 107.003C65.2146 105.664 67.0632 103.753 69.3312 102.597C70.176 102.166 71.0832 101.872 72.0146 101.733C77.4912 100.919 80.2597 105.827 84.7545 107.777C87.2006 108.838 89.4807 107.944 91.9715 109.432C93.6053 110.408 93.6762 112.133 93.6762 112.133H52.0618ZM189.792 66.1465C189.919 65.1906 190.744 64.2089 190.9 64.071C192.622 62.5479 194.787 63.0805 196.794 62.4646C200.739 61.2547 203.153 57.1273 207.185 56.1002C207.799 55.9441 208.444 55.8444 209.077 55.8811C213.161 56.1179 214.646 60.3254 217.989 61.9769C220.16 63.0505 222.219 62.8108 224.325 64.3249C225.424 65.1151 225.429 66.1465 225.429 66.1465C225.429 66.1465 198.902 66.1915 189.792 66.1465ZM46.1465 43.2306C46.3355 41.9097 46.8886 40.8764 48.233 40.0014C49.7839 38.992 51.7263 39.2878 53.1778 38.0788C56.3627 35.4259 58.4812 29.8355 63.4739 30.9898C66.6505 31.7244 68.4731 34.8231 70.9539 36.721C72.9805 38.2715 75.3484 38.5316 77.7085 39.1937C79.3593 39.6568 81.0945 40.3309 82.381 41.5449C82.9201 42.0537 83.3367 42.5756 83.5912 43.2306C83.6472 43.3745 51.5346 42.8084 46.1465 43.2306Z" fill="#FFF1E8"/>
<path fill-rule="evenodd" clip-rule="evenodd" d="M186.243 143.328L185.111 87.0691L139.821 77.2286L90.8176 66.2824C82.0739 64.3293 72.964 64.7589 64.4443 67.5262L54.7407 70.6781L41.3561 87.7736C41.0985 88.1026 40.6216 88.1611 40.2916 87.9044C39.9617 87.6476 39.9029 87.172 40.1605 86.8431L53.8303 69.3833L63.9745 66.0884C72.7531 63.237 82.1397 62.7944 91.1491 64.8069C109.547 68.9166 140.15 75.7525 140.145 75.7516L186.604 85.8457L187.765 143.612L188.77 142.313C188.909 142.133 189.17 142.098 189.351 142.238C189.531 142.377 189.566 142.637 189.426 142.818L187.792 144.932L187.926 151.583C187.934 152.001 187.602 152.346 187.183 152.355C186.765 152.363 186.418 152.031 186.41 151.614L186.271 144.696L184.786 142.822C184.644 142.643 184.675 142.383 184.854 142.241C185.033 142.099 185.295 142.13 185.436 142.309L186.243 143.328Z" fill="#1A1616"/>
<path fill-rule="evenodd" clip-rule="evenodd" d="M80.3694 83.0899C80.3694 83.0899 67.1174 87.1437 56.7505 90.3149C53.9525 91.1707 51.7408 93.3216 50.8121 96.0899C49.8833 98.858 50.352 101.903 52.0703 104.265C55.8905 109.516 59.75 114.822 59.75 114.822C59.75 114.822 58.0213 115.331 58.2027 116.46L78.4654 116.758L70.4749 105.057C70.4749 105.057 87.6886 103.8 92.1033 101.506L118.388 114.999C118.388 114.999 115.343 115.492 115.183 116.871L130.191 116.703C130.191 116.703 134.213 113.46 135.872 112.121C136.04 111.985 136.135 111.779 136.13 111.564C136.124 111.348 136.019 111.147 135.843 111.02C130.762 107.326 100.776 85.6548 94.9847 84.4451C94.9847 84.4451 89.2375 80.7354 80.3694 83.0899Z" fill="url(#paint0_linear_609_4081)"/>
<path fill-rule="evenodd" clip-rule="evenodd" d="M94.7576 84.3219C94.9081 84.4064 94.9854 84.4563 94.9854 84.4563C95.5032 84.5644 96.2144 84.8359 97.0831 85.2431C97.9443 86.1698 98.761 87.3822 99.2365 88.9202C99.6962 90.4072 99.8401 92.2009 99.3873 94.3375L124.769 109.404L129.195 106.234L129.448 106.415C129.554 106.49 129.66 106.565 129.764 106.641L129.906 106.742L118.155 115.16C118.003 115.269 117.801 115.26 117.66 115.151C118.083 115.04 118.388 114.99 118.388 114.99L117.582 114.577C117.606 114.544 117.636 114.514 117.672 114.489L124.035 109.93L99.1827 95.1779C99.1039 95.4648 99.0146 95.7576 98.9142 96.0562C98.2991 97.8847 96.7084 100.23 93.0347 101.984L92.1041 101.507C91.5452 101.797 90.7812 102.07 89.8738 102.326C89.9058 102.305 89.9414 102.288 89.98 102.276C95.3129 100.641 97.4254 97.8828 98.1281 95.7937C99.0379 93.0888 98.9812 90.9014 98.4441 89.1638C97.6844 86.7063 95.9738 85.1562 94.7576 84.3219ZM90.4025 82.7579C90.7215 82.8262 91.0255 82.8998 91.3142 82.9769C91.3663 83.2202 91.4025 83.4656 91.4419 83.6892C91.6357 84.7855 91.7625 85.8794 91.6998 86.9945C91.5036 90.4851 90.1227 93.8564 86.7652 95.3442C84.747 96.2386 82.3368 96.5985 80.136 96.5571C78.311 96.5226 76.1053 96.3135 74.2941 96.1803C70.1569 95.876 66.7311 95.3682 61.8241 95.9545C60.0867 96.1621 58.7856 96.7669 58.0347 97.8123C57.2813 98.861 57.0956 100.333 57.5172 102.223C57.808 103.527 58.3797 104.732 59.0132 105.9C59.9913 107.702 60.9952 109.557 62.1605 111.25L74.3323 110.698L74.8806 111.501L62.3699 112.067C62.3462 112.097 62.3181 112.123 62.2857 112.146C62.1161 112.266 61.8871 112.24 61.7474 112.096L57.8996 112.27L57.3167 111.469L61.1905 111.294C60.129 109.694 59.1947 107.972 58.2839 106.293C57.614 105.059 57.0154 103.781 56.7079 102.403C56.2225 100.227 56.4933 98.5386 57.3606 97.3314C58.2303 96.1208 59.7139 95.3743 61.7256 95.134C66.6954 94.5401 70.1652 95.048 74.3553 95.3561C76.1525 95.4883 78.3411 95.6967 80.1519 95.7308C82.2353 95.7701 84.518 95.4358 86.4286 94.5891C89.4884 93.2333 90.6933 90.1296 90.8721 86.9484C90.9311 85.8972 90.808 84.8663 90.6255 83.8327C90.566 83.4965 90.5371 83.0928 90.4025 82.7579Z" fill="#82B5B2"/>
<path fill-rule="evenodd" clip-rule="evenodd" d="M71.1515 106.045L71.3155 106.286L71.2973 106.291C71.2503 106.209 71.2016 106.127 71.1515 106.045ZM70.6252 105.275C68.5025 102.444 64.7182 100.144 62.7135 99.05C62.5585 98.9661 62.4821 98.7866 62.5295 98.617C62.5768 98.4476 62.7353 98.3332 62.9115 98.3412C67.6381 98.7338 72.646 103.181 74.2524 104.724C71.9961 104.941 70.4727 105.052 70.4727 105.052L70.6252 105.275Z" fill="#14514D"/>
<path d="M70.3764 61.5708C72.8012 61.6306 74.8163 59.7184 74.8772 57.2998C74.9381 54.8812 73.0218 52.8721 70.597 52.8123C68.1722 52.7525 66.1571 54.6648 66.0962 57.0834C66.0353 59.502 67.9516 61.5111 70.3764 61.5708Z" fill="#BCD6D2"/>
<path fill-rule="evenodd" clip-rule="evenodd" d="M68.5082 53.2803C69.1347 52.9639 69.8463 52.793 70.5971 52.8116C73.0203 52.8715 74.9383 54.8818 74.8776 57.2981C74.8312 59.1416 73.6462 60.6922 72.0107 61.2971L70.93 58.8235C71.1061 58.8412 71.2933 58.8145 71.4754 58.7372C72.0308 58.5012 72.3283 57.8822 72.1395 57.3557C71.9507 56.8291 71.3465 56.5932 70.7912 56.8291C70.5641 56.9256 70.3802 57.0862 70.2549 57.2783L68.5082 53.2803Z" fill="#1A1616"/>
<path fill-rule="evenodd" clip-rule="evenodd" d="M80.3625 63.5987C75.2856 63.0273 64.1693 63.5491 55.2549 64.2361C53.5748 64.3665 52.0174 65.1646 50.9324 66.4512C49.8473 67.7377 49.3257 69.4049 49.4846 71.0783C49.6077 72.3337 49.9184 73.6036 50.5525 74.7109C50.5525 74.7109 49.6525 77.2524 52.4217 79.0625C53.26 79.609 54.2164 79.949 55.2124 80.0546C57.3443 80.2613 63.0915 80.6569 70.8226 79.8886C70.8226 79.8886 77.7577 85.4525 85.3755 81.0293C91.4205 77.5194 92.2813 64.9401 80.3625 63.5987Z" fill="url(#paint1_linear_609_4081)"/>
<path fill-rule="evenodd" clip-rule="evenodd" d="M50.5513 74.709C51.872 75.6659 54.176 76.8748 56.8666 76.9997C62.2763 77.2512 76.9764 77.9332 76.9764 77.9332C77.2049 77.9438 77.3818 78.1373 77.3711 78.365C77.3604 78.5926 77.1662 78.7688 76.9376 78.7582C76.9376 78.7582 62.2374 78.0761 56.8277 77.8246C54.4275 77.7133 52.179 76.7666 50.4443 75.2009C50.4856 74.8944 50.5513 74.709 50.5513 74.709Z" fill="#82B5B2"/>
<path fill-rule="evenodd" clip-rule="evenodd" d="M66.6788 63.5465C72.2184 63.3109 77.3517 63.2661 80.3621 63.6051C92.2816 64.9474 91.6365 77.544 85.5097 80.9068C78.7144 84.6366 72.4033 82.1513 70.5254 79.9319C69.9971 79.3074 69.6723 77.5767 69.6723 77.5767L65.5965 77.3475L60.7987 71.1684L66.6788 63.5465Z" fill="#82B5B2"/>
<path fill-rule="evenodd" clip-rule="evenodd" d="M69.6719 77.5766C69.6719 77.5766 74.0475 77.5293 76.4517 77.5794C76.5604 77.5817 76.6514 77.6618 76.6671 77.7691C76.6827 77.8763 76.6183 77.979 76.5148 78.012L70.52 79.9255C69.9946 79.296 69.6719 77.5766 69.6719 77.5766Z" fill="#14514D"/>
<path fill-rule="evenodd" clip-rule="evenodd" d="M150.048 79.7863C150.134 79.8665 145.947 85.4382 138.219 82.4686C136.811 81.9275 130.307 77.2584 134.853 68.5855C136.069 66.2667 141.342 59.4368 153.083 63.645C154.482 64.1464 156.995 65.2756 161.475 68.5855C163.143 69.8176 176.002 81.0553 183.305 83.9517C184.759 84.5289 184.999 84.7004 186.295 85.3195C186.661 85.4945 187.013 86.1679 185.615 86.466C185.615 86.466 186.995 86.3974 186.409 87.4172C186.409 87.4172 185.515 88.6387 184.966 89.3898C184.68 89.7811 184.218 90.0065 183.733 89.9921C183.311 89.9792 182.839 89.9223 182.615 89.7402C182.615 89.7402 181.645 91.1455 179.539 90.0551C179.539 90.0551 178.643 92.1908 174.462 89.7402C172.715 88.7163 171.334 88.0738 169.945 87.5402V89.7402L206.995 105.481C206.995 105.481 208.312 105.178 210.386 105.481L198.389 116.721L168.92 109.113V114.55C168.92 114.55 171.385 115.339 171.675 116.721H152.249V107.753C152.249 107.753 133.756 109.465 137.163 94.7385C137.488 93.3365 142.006 83.0908 152.249 80.8776L150.048 79.7863Z" fill="#A8CFCC"/>
<path fill-rule="evenodd" clip-rule="evenodd" d="M170.267 100.274V100.273L191.409 108.101L195.824 100.735L196.594 101.063L192.049 108.645C192.048 108.687 192.038 108.729 192.024 108.77C191.99 108.861 191.926 108.934 191.849 108.98L188.706 114.222L187.87 114.006L190.976 108.823L170.217 101.137L170.242 100.71L170.267 100.274ZM136.822 96.7205C137.123 97.9417 137.907 99.0701 139.219 99.3133C140.82 99.6101 142.622 98.621 143.939 97.8234C145.65 96.7869 146.89 95.3877 148.05 93.9125C149.25 92.3852 150.364 90.7765 151.787 89.3724C152.467 88.7014 153.396 87.9834 154.387 87.6677C155.103 87.4399 155.849 87.4163 156.571 87.7301C157.495 88.1328 158.246 88.9632 158.809 89.9608C159.617 91.391 160.042 93.159 160.11 94.3587C160.427 99.9838 160.286 105.158 160.176 110.759L168.921 110.784V111.61L152.249 111.563V110.736L159.347 110.756C159.456 105.172 159.599 100.014 159.282 94.4052C159.22 93.3033 158.828 91.6798 158.087 90.3661C157.618 89.5344 157.01 88.8235 156.239 88.4877C155.571 88.1967 154.872 88.3215 154.226 88.6154C153.518 88.9382 152.87 89.4666 152.37 89.9598C150.972 91.3391 149.881 92.922 148.702 94.4223C147.482 95.9747 146.17 97.4391 144.369 98.5299C142.897 99.422 140.858 100.458 139.067 100.126C138.064 99.9398 137.29 99.3489 136.753 98.5706C136.73 97.9904 136.752 97.3744 136.822 96.7205ZM169.946 89.7403L170.706 90.0637L170.225 100.939L169.71 109.317L168.921 109.113V110.164C168.867 110.089 168.838 109.996 168.844 109.897C168.844 109.897 169.932 93.4973 169.935 88.7545L169.936 88.7214C169.939 88.6772 169.942 88.6331 169.946 88.5899V89.7403ZM151.084 80.3006C151.392 80.2422 151.893 80.1514 152.532 80.051L149.626 77.5555C149.453 77.4067 149.433 77.1455 149.582 76.9726C149.732 76.7998 149.994 76.7803 150.167 76.9291L153.485 79.7785C153.526 79.8128 153.557 79.8531 153.581 79.8968C155.178 79.6781 157.269 79.4641 159.377 79.457C162.351 79.4471 165.348 79.8663 167.104 81.2005C167.987 81.8716 170.706 83.9834 170.79 87.8794C170.507 87.7604 170.226 87.6482 169.946 87.5403V87.5603C169.723 84.248 167.374 82.446 166.601 81.8578C164.964 80.613 162.154 80.2745 159.379 80.2837C155.985 80.2951 152.632 80.8538 151.402 81.082C151.68 81.0081 151.962 80.9398 152.249 80.8778L151.084 80.3006ZM170.217 101.137L170.225 100.939L170.267 100.274L170.242 100.71L170.217 101.137Z" fill="#82B5B2"/>
<path fill-rule="evenodd" clip-rule="evenodd" d="M178.994 90.6274L176.862 89.2215C176.671 89.0957 176.619 88.839 176.745 88.6487C176.871 88.4585 177.129 88.4061 177.32 88.5319L179.857 90.2047C179.754 90.1611 179.648 90.1115 179.539 90.0552C179.539 90.0552 179.405 90.377 178.994 90.6274ZM182.01 90.2387L178.949 88.1513C178.759 88.0226 178.711 87.7651 178.84 87.5768C178.969 87.3885 179.228 87.3401 179.416 87.4689L182.991 89.9057C182.838 89.8676 182.706 89.8143 182.616 89.7403C182.616 89.7403 182.419 90.025 182.01 90.2387ZM186.547 86.8924C185.837 86.7249 185.386 86.7378 185.103 86.8219C185.041 86.8405 184.988 86.8652 184.947 86.8891L185.204 87.1296C185.371 87.2856 185.381 87.5474 185.224 87.7139C185.068 87.8803 184.804 87.8888 184.638 87.7328L182.973 86.1767C182.806 86.0208 182.797 85.7589 182.953 85.5924C183.11 85.4261 183.373 85.4176 183.54 85.5735L184.325 86.3067C184.617 86.0524 185.241 85.7816 186.524 86.0412C186.392 86.2043 186.115 86.3593 185.615 86.4661C185.615 86.4661 186.457 86.4243 186.547 86.8924Z" fill="#936A36"/>
<path fill-rule="evenodd" clip-rule="evenodd" d="M150.107 79.8158L150.048 79.7863C150.134 79.8665 145.947 85.4382 138.219 82.4686C136.811 81.9275 130.307 77.2584 134.853 68.5855C136.069 66.2667 141.342 59.4368 153.083 63.645C154.167 64.0334 155.918 64.798 158.733 66.6604C159.088 68.0903 159.039 70.5226 155.291 71.8022C155.291 71.8022 157.309 76.9295 151.262 77.7407C151.262 77.7407 150.902 78.7062 150.107 79.8158Z" fill="#83B5B2"/>
<path fill-rule="evenodd" clip-rule="evenodd" d="M149.097 107.775L152.21 95.3978C152.243 95.2697 152.366 95.1866 152.498 95.2053C152.629 95.224 152.724 95.3385 152.719 95.4705L152.245 107.753C152.165 107.76 150.888 107.87 149.097 107.775ZM150.045 79.8018C149.969 79.8849 149.889 79.9576 149.809 80.016C149.809 80.016 146.171 75.5643 144.327 73.307C144.249 73.2119 144.253 73.0743 144.337 72.9843C144.42 72.8942 144.558 72.8793 144.658 72.9492C146.564 74.2406 149.913 76.5662 151.177 77.8034C151.177 77.8034 150.672 79.1213 150.056 79.7906L150.047 79.7862C150.05 79.7882 150.049 79.7934 150.045 79.8018Z" fill="#263238"/>
<path fill-rule="evenodd" clip-rule="evenodd" d="M132.612 57.1708C132.534 57.2072 132.64 56.9998 132.644 56.9134C132.65 56.7523 132.652 56.5911 132.656 56.43C132.667 55.9622 132.649 55.4946 132.652 55.0268C132.659 54.07 132.449 51.3487 133.572 50.8803C134.132 50.6469 134.282 51.6826 134.29 52.0293C134.322 53.3693 133.39 54.3924 133.197 55.6429C133.188 55.7052 133.24 55.5246 133.264 55.4665C133.314 55.3462 133.362 55.2251 133.414 55.1055C133.561 54.767 133.709 54.4293 133.862 54.0936C134.346 53.0334 134.817 51.894 135.534 50.9637C135.704 50.7424 136.202 50.1457 136.546 50.4066C137.055 50.7949 136.363 51.8942 136.137 52.2655C135.641 53.0798 134.998 53.7938 134.462 54.5806C133.918 55.3776 133.48 56.2635 132.924 57.0456" fill="#936A36"/>
<path d="M136.817 63.1478C139.282 63.1478 141.28 61.1557 141.28 58.6984C141.28 56.2411 139.282 54.249 136.817 54.249C134.352 54.249 132.354 56.2411 132.354 58.6984C132.354 61.1557 134.352 63.1478 136.817 63.1478Z" fill="#936A36"/>
<path d="M127.203 61.3468C130.346 61.3468 132.894 58.8067 132.894 55.6734C132.894 52.5401 130.346 50 127.203 50C124.061 50 121.513 52.5401 121.513 55.6734C121.513 58.8067 124.061 61.3468 127.203 61.3468Z" fill="#1A1616"/>
<path fill-rule="evenodd" clip-rule="evenodd" d="M133.341 61.4886C132.723 60.7253 132.354 59.755 132.354 58.6993C132.354 56.2437 134.354 54.25 136.816 54.25C137.465 54.25 138.081 54.3881 138.637 54.6365C138.52 56.1554 137.691 59.1363 133.341 61.4886Z" fill="#1A1616"/>
<defs>
<linearGradient id="paint0_linear_609_4081" x1="97.3669" y1="122.781" x2="78.7547" y2="68.69" gradientUnits="userSpaceOnUse">
<stop stop-color="#82B5B2"/>
<stop offset="0.59" stop-color="#A8CFCC"/>
<stop offset="0.8" stop-color="#B1D2CF"/>
<stop offset="1" stop-color="#C1D8D4"/>
</linearGradient>
<linearGradient id="paint1_linear_609_4081" x1="156.496" y1="104.991" x2="33.2447" y2="48.2508" gradientUnits="userSpaceOnUse">
<stop stop-color="#86B8B5"/>
<stop offset="1" stop-color="#A9CFCC"/>
</linearGradient>
</defs>
</svg>
