<svg width="343" height="219" viewBox="0 0 343 219" fill="none" xmlns="http://www.w3.org/2000/svg">
<g id="etapa1">
<g id="_6---FINANCES">
<g id="DEBIT-CARD">
<g id="Group">
<g id="Group_2">
<path id="Vector" fill-rule="evenodd" clip-rule="evenodd" d="M124.752 150.068C124.752 145.843 121.318 142.414 117.091 142.414H7.6617C3.43362 142.414 0.000976562 145.843 0.000976562 150.068V210.748C0.000976562 214.972 3.43362 218.402 7.6617 218.402H117.091C121.318 218.402 124.752 214.972 124.752 210.748V150.068Z" fill="#8ABBB8"/>
</g>
<path id="Vector_2" fill-rule="evenodd" clip-rule="evenodd" d="M21.6424 203.6H8.76825V212.695H21.6424V203.6ZM68.2434 186.604H8.73853V199.509H68.2434V186.604ZM115.605 186.604H85.0615V199.509H115.605V186.604Z" fill="#FAF4FA"/>
<path id="Vector_3" d="M124.751 163.604H0V181.458H124.751V163.604Z" fill="#1A1616"/>
</g>
<path id="Vector_4" fill-rule="evenodd" clip-rule="evenodd" d="M19.5995 194.602C19.5497 193.783 19.6419 192.879 19.8243 192.035C20.1067 190.73 20.6166 189.579 21.0919 189.07C21.5032 188.629 21.953 188.538 22.3278 188.665C22.8639 188.845 23.1807 189.325 23.2392 190.006C23.3231 190.984 22.8223 192.465 22.637 192.889C22.2075 193.868 21.6623 194.6 21.0347 195.178C21.1242 195.601 21.277 195.964 21.5637 196.18C21.8677 196.41 22.3033 196.428 22.896 196.256C23.2101 196.165 23.8563 195.76 24.4835 195.26C24.3779 194.629 24.4894 193.956 24.737 193.454C25.1185 192.683 25.7945 192.342 26.4224 192.553C26.8486 192.697 27.0803 192.943 27.2 193.21C27.3565 193.559 27.3259 194.025 27.0328 194.528C26.8364 194.865 26.5087 195.245 26.1215 195.616C26.3147 195.772 26.5989 195.848 26.9818 195.841C27.4564 195.832 28.1761 195.468 28.9668 195.049C30.3732 194.307 31.9413 193.348 32.8596 193.1C33.6561 192.884 34.1658 193.146 34.377 193.596C34.5418 193.947 34.6959 194.202 34.855 194.371C34.9316 194.453 34.9978 194.511 35.0747 194.526C35.1776 194.545 35.277 194.496 35.3856 194.445C35.5258 194.378 35.6689 194.288 35.8182 194.189C36.8541 193.502 38.1046 192.541 39.8129 193.122C40.5184 193.362 40.7107 194.013 40.5864 194.818C40.5511 195.048 40.4949 195.289 40.4601 195.512C40.4549 195.547 40.4505 195.589 40.4476 195.63C40.5304 195.625 40.6216 195.61 40.7187 195.591C40.9806 195.544 41.2696 195.461 41.5617 195.37C42.2547 195.157 42.9632 194.919 43.4479 194.889C48.5891 194.555 53.7647 194.641 58.9 194.202C59.2716 194.17 59.5989 194.447 59.6306 194.818C59.6626 195.189 59.3866 195.515 59.0152 195.547C53.8706 195.988 48.6859 195.902 43.5354 196.236C43.0346 196.268 42.2633 196.583 41.562 196.777C40.9276 196.955 40.3339 197.029 39.9279 196.924C39.2097 196.737 38.9949 196.104 39.1307 195.269C39.1623 195.075 39.2084 194.869 39.2418 194.67C39.2568 194.58 39.2641 194.45 39.2671 194.366C38.6466 194.192 38.1266 194.357 37.6695 194.6C37.266 194.816 36.9037 195.09 36.5652 195.314C35.951 195.721 35.3708 195.954 34.8257 195.853C34.332 195.76 33.7814 195.392 33.2664 194.398C33.1773 194.418 33.0604 194.448 32.9646 194.484C32.6452 194.604 32.2693 194.789 31.8632 195.004C30.522 195.713 28.8837 196.715 27.7809 197.051C27.4916 197.14 27.2301 197.186 27.0075 197.191C26.1012 197.208 25.4864 196.914 25.082 196.494C24.3558 197.037 23.6322 197.449 23.2719 197.552C22.1447 197.88 21.3289 197.694 20.7508 197.258C20.3646 196.968 20.0752 196.548 19.8823 196.035C19.6906 196.151 19.4941 196.261 19.2938 196.364C18.0524 197.002 16.648 197.404 15.2774 198.092C14.9443 198.259 14.5379 198.124 14.3705 197.792C14.2032 197.458 14.3378 197.053 14.671 196.885C15.7773 196.33 16.9051 195.959 17.9534 195.503C18.5353 195.25 19.0918 194.97 19.5995 194.602ZM21.8986 190.238C21.7109 190.54 21.5343 190.957 21.3823 191.431C21.2924 191.711 21.212 192.011 21.1451 192.32C21.0906 192.573 21.0445 192.832 21.0098 193.092C21.1504 192.865 21.2806 192.617 21.3997 192.346C21.5257 192.059 21.8469 191.156 21.8935 190.416C21.8974 190.356 21.8993 190.295 21.8986 190.238Z" fill="#1A1616"/>
</g>
<g id="CHECK">
<g id="Group_3">
<path id="Vector_5" d="M343 117.317H156.596V218.288H343V117.317Z" fill="#4644AB"/>
</g>
<g id="Group_4">
<g id="Group_5">
<path id="Vector_6" fill-rule="evenodd" clip-rule="evenodd" d="M284.535 206.962C285.224 204.446 286.325 201.923 287.853 199.812C288.158 199.391 288.673 198.573 289.264 198.034C289.815 197.531 290.442 197.272 291.048 197.406C291.747 197.559 292.107 198.071 292.182 198.795C292.292 199.871 291.613 201.554 291.349 202.028C290.057 204.362 287.952 206.261 285.715 207.795C285.617 208.207 285.553 208.637 285.582 209.035C285.62 209.543 285.845 209.985 286.468 210.159C287.744 210.513 289.159 210.146 290.513 209.467C291.032 209.206 291.54 208.9 292.028 208.562C292.04 208.352 292.061 208.157 292.082 208.001C292.362 205.767 293.628 203.671 295.15 202.055C295.389 201.801 296.178 200.901 296.823 200.633C297.376 200.403 297.873 200.482 298.236 200.945C298.572 201.374 298.652 201.981 298.492 202.66C298.226 203.802 297.273 205.207 296.876 205.754C296.083 206.846 294.84 208.141 293.395 209.237C293.407 209.308 293.425 209.376 293.45 209.436C293.465 209.471 293.473 209.51 293.509 209.523C294.122 209.754 294.784 209.498 295.433 209.115C296.649 208.397 297.789 207.166 298.503 206.507C298.812 206.221 299.323 205.688 299.859 205.365C300.378 205.053 300.927 204.936 301.415 205.109C302.014 205.321 302.236 205.733 302.238 206.271C302.238 206.584 302.126 206.974 301.96 207.387C301.813 207.753 301.623 208.147 301.514 208.514C301.478 208.631 301.45 208.743 301.446 208.85C301.441 208.923 301.469 208.982 301.555 209.016C301.935 209.166 302.266 209.066 302.571 208.864C303.012 208.571 303.408 208.098 303.803 207.621C304.379 206.927 304.951 206.223 305.564 205.825C306.104 205.476 306.676 205.333 307.301 205.487C308.196 205.71 308.363 206.452 308.127 207.435C308.053 207.749 307.942 208.092 307.891 208.413C307.861 208.605 307.793 208.802 307.985 208.888C308.281 209.019 308.562 208.957 308.836 208.835C309.097 208.718 309.353 208.546 309.608 208.366C310.079 208.036 310.546 207.677 311.022 207.445C311.422 207.251 311.83 207.139 312.248 207.152C312.603 207.164 312.836 207.276 312.998 207.41C313.197 207.575 313.314 207.793 313.359 208.057C313.385 208.195 313.386 208.353 313.374 208.518C313.368 208.605 313.362 208.741 313.358 208.838C314.738 209.018 316.28 208.586 317.659 208.494C320.008 208.337 322.38 208.475 324.719 208.265C325.09 208.231 325.419 208.505 325.452 208.876C325.485 209.247 325.211 209.576 324.84 209.61C322.491 209.822 320.108 209.683 317.749 209.841C316.249 209.941 314.564 210.385 313.072 210.161C312.73 210.111 312.504 209.978 312.347 209.823C312.168 209.648 312.065 209.432 312.022 209.184C311.993 209.015 311.996 208.825 312.009 208.634C312.012 208.601 312.015 208.558 312.018 208.515C311.752 208.559 311.497 208.708 311.239 208.873C310.795 209.157 310.357 209.513 309.911 209.787C309.122 210.271 308.306 210.507 307.437 210.121C306.808 209.843 306.564 209.371 306.524 208.804C306.496 208.418 306.592 207.967 306.707 207.531C306.76 207.329 306.816 207.132 306.851 206.949C306.86 206.9 306.867 206.834 306.87 206.78C306.584 206.752 306.334 206.911 306.084 207.117C305.657 207.471 305.257 207.985 304.844 208.481C304.359 209.068 303.858 209.63 303.317 209.99C302.64 210.438 301.901 210.604 301.061 210.273C300.303 209.975 300.066 209.44 300.095 208.794C300.114 208.366 300.296 207.859 300.504 207.364C300.604 207.127 300.709 206.891 300.787 206.672C300.818 206.585 300.846 206.467 300.863 206.379C300.819 206.389 300.773 206.411 300.728 206.432C300.604 206.485 300.482 206.564 300.364 206.651C299.985 206.928 299.643 207.292 299.418 207.5C298.655 208.204 297.422 209.508 296.12 210.277C295.088 210.887 294.007 211.155 293.031 210.786C292.664 210.647 292.404 210.382 292.241 210.039C291.874 210.27 291.499 210.483 291.12 210.674C289.445 211.513 287.683 211.898 286.107 211.46C284.661 211.058 284.211 209.96 284.233 208.751C284.083 208.842 283.934 208.931 283.785 209.019C282.815 209.591 281.759 210.307 280.672 210.646C280.681 210.643 280.709 210.632 280.709 210.632C280.709 210.632 280.536 210.691 280.457 210.699C280.336 210.712 280.233 210.694 280.155 210.668C280.001 210.616 279.889 210.525 279.81 210.413C279.594 210.109 279.667 209.688 279.97 209.473C280.066 209.405 280.174 209.365 280.281 209.352C281.268 209.043 282.216 208.375 283.098 207.857C283.577 207.575 284.057 207.278 284.535 206.962ZM280.881 209.592L280.89 209.604L280.889 209.601L280.881 209.592ZM280.856 209.564L280.867 209.574L280.864 209.571L280.856 209.564ZM280.831 209.539L280.842 209.548L280.837 209.544L280.831 209.539ZM280.806 209.515L280.811 209.52L280.808 209.517L280.806 209.515ZM297.223 201.965C297.095 202.049 296.916 202.171 296.806 202.274C296.505 202.554 296.248 202.859 296.135 202.98C294.992 204.194 293.995 205.705 293.578 207.345C294.477 206.548 295.244 205.702 295.782 204.961C296.076 204.556 296.733 203.616 297.059 202.737C297.148 202.494 297.214 202.258 297.221 202.046C297.223 202.018 297.224 201.991 297.223 201.965ZM286.361 205.649C287.884 204.443 289.251 203.031 290.166 201.375C290.343 201.059 290.774 200.054 290.837 199.245C290.847 199.117 290.847 198.996 290.831 198.887C290.821 198.816 290.827 198.74 290.757 198.725C290.669 198.704 290.585 198.744 290.501 198.79C290.389 198.85 290.281 198.935 290.175 199.031C289.656 199.506 289.217 200.233 288.948 200.603C287.851 202.118 286.993 203.859 286.361 205.649Z" fill="#1A1616"/>
</g>
<g id="Group_6">
<path id="Vector_7" fill-rule="evenodd" clip-rule="evenodd" d="M260.656 186.267V184.66C260.656 184.045 261.111 183.546 261.67 183.546C262.229 183.546 262.683 184.045 262.683 184.66V187.255C262.683 187.869 262.229 188.368 261.67 188.368H261.668C261.528 188.45 261.367 188.495 261.197 188.495H173.135C172.958 188.495 172.791 188.444 172.646 188.357C172.088 188.354 171.637 187.856 171.637 187.243V184.66C171.637 184.045 172.092 183.546 172.651 183.546C173.21 183.546 173.664 184.045 173.664 184.66V186.267H260.656ZM295.629 162.141V160.049C295.629 159.434 296.083 158.935 296.642 158.935C297.201 158.935 297.656 159.434 297.656 160.049V162.644C297.656 162.885 297.586 163.108 297.468 163.29C297.449 163.888 297.004 164.368 296.455 164.368H172.723C172.711 164.368 172.7 164.368 172.688 164.368C172.674 164.368 172.662 164.368 172.651 164.368C172.092 164.368 171.637 163.869 171.637 163.255V160.671C171.637 160.056 172.092 159.557 172.651 159.557C173.21 159.557 173.664 160.056 173.664 160.671V162.141H295.629ZM172.065 140.968L172.137 138.375C172.156 137.76 172.624 137.278 173.183 137.296C173.742 137.317 174.181 137.831 174.164 138.444L174.123 139.892H295.869V138.41C295.869 137.796 296.323 137.296 296.882 137.296C297.441 137.296 297.895 137.796 297.895 138.41V141.005C297.895 141.62 297.441 142.119 296.882 142.119C296.87 142.119 296.857 142.119 296.845 142.119C296.833 142.119 296.821 142.119 296.809 142.119H173.081C173.076 142.119 173.069 142.119 173.064 142.119H173.059C172.958 142.117 172.862 142.099 172.771 142.067C172.612 142.011 172.47 141.915 172.357 141.789L172.352 141.783L172.347 141.777L172.343 141.774C172.232 141.644 172.147 141.486 172.102 141.31C172.076 141.209 172.063 141.102 172.065 140.992V140.985C172.065 140.979 172.065 140.974 172.065 140.968Z" fill="#FAF4FA"/>
</g>
<path id="Vector_8" fill-rule="evenodd" clip-rule="evenodd" d="M324.577 189.574V183.544C324.577 182.985 325.031 182.531 325.59 182.531C326.149 182.531 326.604 182.985 326.604 183.544V190.587C326.604 191.147 326.151 191.599 325.59 191.599H275.359C274.798 191.599 274.346 191.147 274.346 190.587V183.544C274.346 182.985 274.8 182.531 275.359 182.531C275.918 182.531 276.373 182.985 276.373 183.544V189.574H324.577Z" fill="#FAF4FA"/>
<path id="Vector_9" fill-rule="evenodd" clip-rule="evenodd" d="M276.373 176.288V183.543C276.373 184.102 275.918 184.556 275.359 184.556C274.8 184.556 274.346 184.102 274.346 183.543V175.275C274.346 174.717 274.798 174.263 275.359 174.263H325.59C326.151 174.263 326.604 174.717 326.604 175.275V183.543C326.604 184.102 326.149 184.556 325.59 184.556C325.031 184.556 324.577 184.102 324.577 183.543V176.288H276.373Z" fill="#FAF4FA"/>
<path id="Vector_10" fill-rule="evenodd" clip-rule="evenodd" d="M280.014 187.419H285.174C285.733 187.419 286.187 186.965 286.187 186.406C286.187 185.848 285.733 185.394 285.174 185.394H280.014C279.455 185.394 279.001 185.848 279.001 186.406C279.001 186.965 279.455 187.419 280.014 187.419ZM297.896 187.419H303.054C303.613 187.419 304.067 186.965 304.067 186.406C304.067 185.848 303.613 185.394 303.054 185.394H297.896C297.337 185.394 296.882 185.848 296.882 186.406C296.882 186.965 297.337 187.419 297.896 187.419ZM288.954 187.419H294.114C294.673 187.419 295.127 186.965 295.127 186.406C295.127 185.848 294.673 185.394 294.114 185.394H288.954C288.395 185.394 287.941 185.848 287.941 186.406C287.941 186.965 288.395 187.419 288.954 187.419ZM306.836 187.419H311.995C312.554 187.419 313.009 186.965 313.009 186.406C313.009 185.848 312.554 185.394 311.995 185.394H306.836C306.276 185.394 305.822 185.848 305.822 186.406C305.822 186.965 306.276 187.419 306.836 187.419ZM315.777 187.419H320.935C321.494 187.419 321.949 186.965 321.949 186.406C321.949 185.848 321.494 185.394 320.935 185.394H315.777C315.218 185.394 314.764 185.848 314.764 186.406C314.764 186.965 315.218 187.419 315.777 187.419Z" fill="#FAF4FA"/>
</g>
<g id="Group_7">
<path id="Vector_11" d="M319.594 152.757C327.438 152.757 333.797 146.403 333.797 138.565C333.797 130.727 327.438 124.373 319.594 124.373C311.75 124.373 305.391 130.727 305.391 138.565C305.391 146.403 311.75 152.757 319.594 152.757Z" fill="#FAF4FA"/>
</g>
<path id="Vector_12" fill-rule="evenodd" clip-rule="evenodd" d="M319.121 130.966L319.217 124.38C319.342 124.377 319.467 124.375 319.592 124.375C319.922 124.375 320.246 124.387 320.569 124.409L320.472 130.982C321.682 130.967 322.942 130.868 324.237 130.657C323.386 128.199 322.344 126.083 321.454 124.497C322.036 124.572 322.611 124.684 323.17 124.829C323.98 126.37 324.85 128.265 325.578 130.4C327.034 130.078 328.529 129.61 330.042 128.959C330.36 129.303 330.66 129.664 330.942 130.039C329.265 130.79 327.607 131.327 325.99 131.69C326.09 132.024 326.184 132.361 326.274 132.706C326.765 134.564 327.113 136.554 327.215 138.614L333.793 138.81C333.787 139.266 333.756 139.715 333.707 140.158L327.243 139.966C327.23 142.26 326.89 144.623 326.083 146.979C327.321 147.328 328.579 147.789 329.85 148.381C329.512 148.732 329.157 149.066 328.786 149.382C327.713 148.909 326.651 148.536 325.602 148.244C325.043 149.588 324.321 150.924 323.414 152.237C322.771 152.418 322.109 152.553 321.432 152.641C322.653 151.095 323.58 149.512 324.264 147.915C322.879 147.618 321.528 147.46 320.227 147.407L320.148 152.747C319.964 152.754 319.778 152.759 319.592 152.759C319.325 152.759 319.06 152.751 318.797 152.737L318.876 147.39C317.255 147.414 315.728 147.593 314.331 147.86C315.074 149.389 316.04 150.96 317.27 152.568C316.576 152.455 315.9 152.29 315.245 152.079C314.324 150.744 313.574 149.434 312.973 148.155C311.879 148.42 310.885 148.73 310.017 149.044C309.654 148.712 309.308 148.362 308.982 147.995C309.967 147.618 311.127 147.233 312.431 146.908C311.46 144.493 311.01 142.194 310.926 140.044C310.919 139.855 310.914 139.667 310.912 139.482L305.41 139.318C305.398 139.07 305.391 138.818 305.391 138.567C305.391 138.366 305.394 138.167 305.403 137.968L310.948 138.132C311.102 135.61 311.743 133.322 312.598 131.32C310.835 130.851 309.394 130.301 308.381 129.86C308.669 129.487 308.979 129.131 309.303 128.788C310.279 129.195 311.595 129.674 313.171 130.081C314.314 127.788 315.692 125.943 316.81 124.647C317.483 124.513 318.172 124.427 318.874 124.392C317.804 125.475 315.976 127.553 314.513 130.395C315.905 130.684 317.456 130.901 319.121 130.966ZM325.887 139.926L320.341 139.762L320.248 146.06C321.698 146.116 323.208 146.297 324.757 146.643C325.544 144.386 325.875 142.121 325.887 139.926ZM312.265 139.522C312.267 139.678 312.27 139.834 312.277 139.991C312.357 142.064 312.806 144.277 313.767 146.604C315.329 146.287 317.055 146.071 318.896 146.045L318.991 139.721L312.265 139.522ZM324.658 131.953C323.208 132.201 321.8 132.314 320.452 132.329L320.361 138.412L325.855 138.574C325.755 136.646 325.426 134.786 324.968 133.048C324.87 132.679 324.767 132.312 324.658 131.953ZM313.919 131.641C313.083 133.549 312.451 135.747 312.299 138.172L319.011 138.371L319.101 132.309C317.214 132.238 315.469 131.98 313.919 131.641Z" fill="#4644AB"/>
</g>
<g id="PIGGY-BANK">
<g id="Group_8">
<g id="Group_9">
<path id="Vector_13" fill-rule="evenodd" clip-rule="evenodd" d="M197.352 188.977C197.775 197.385 199.122 204.539 201.392 211.141C202.877 215.504 206.976 218.437 211.587 218.437C211.587 218.442 211.587 218.442 211.587 218.442C215.472 218.442 218.975 216.107 220.465 212.522C223.044 206.33 225.217 198.725 226.773 188.977H197.352Z" fill="#DA0F47"/>
</g>
<path id="Vector_14" fill-rule="evenodd" clip-rule="evenodd" d="M197.625 192.931C197.597 192.605 197.57 192.278 197.542 191.947L205.194 192.089C205.194 192.089 206.949 197.937 208.556 203.132C210.702 210.056 212.749 214.657 217.184 216.645C216.762 216.947 216.314 217.216 215.848 217.445C214.424 217.965 212.662 218.441 211.587 218.441C211.587 218.441 211.587 218.441 211.587 218.436C211.558 218.436 211.527 218.436 211.499 218.436C211.33 218.434 211.163 218.429 210.995 218.421L210.941 218.417C210.87 218.412 210.798 218.409 210.727 218.402L210.674 218.399L210.622 218.394L210.568 218.389C210.551 218.387 210.534 218.385 210.516 218.384L210.487 218.38C210.425 218.375 210.364 218.367 210.301 218.36C210.267 218.357 210.234 218.352 210.2 218.348L210.146 218.341C210.06 218.328 209.972 218.316 209.886 218.303L209.833 218.294C209.816 218.291 209.798 218.287 209.781 218.284L209.729 218.276C209.712 218.272 209.695 218.271 209.676 218.267L209.627 218.257C209.57 218.247 209.512 218.237 209.455 218.225C209.173 218.168 208.894 218.1 208.621 218.021C208.529 217.995 208.44 217.968 208.349 217.94C208.231 217.903 208.112 217.862 207.996 217.822C207.952 217.806 207.908 217.79 207.864 217.774L207.766 217.737C207.087 217.479 206.438 217.155 205.829 216.77L205.743 216.714C205.709 216.693 205.675 216.671 205.643 216.649L205.57 216.6L205.484 216.542L205.457 216.524C205.17 216.325 204.893 216.114 204.628 215.888C204.535 215.81 204.444 215.731 204.354 215.65L204.278 215.579L204.202 215.509C204.177 215.486 204.153 215.462 204.128 215.439L204.065 215.378C203.721 215.042 203.398 214.682 203.101 214.303C202.947 214.105 202.799 213.903 202.658 213.695C202.615 213.628 202.571 213.562 202.527 213.494C202.473 213.41 202.42 213.324 202.368 213.238L202.351 213.211L202.334 213.182C202.214 212.981 202.101 212.775 201.993 212.566L201.969 212.519L201.952 212.483C201.809 212.195 201.677 211.899 201.557 211.596L201.539 211.545C201.512 211.474 201.485 211.403 201.459 211.332C201.436 211.268 201.414 211.204 201.392 211.14L201.341 210.993L201.326 210.946L201.292 210.848L201.272 210.791L201.241 210.699L201.221 210.64L201.192 210.553L201.172 210.492L201.142 210.402L201.123 210.343L201.093 210.249L201.074 210.197L201.037 210.078L201.027 210.05L200.978 209.901L200.966 209.861L200.931 209.754L200.914 209.699L200.883 209.606L200.865 209.545L200.836 209.456L200.817 209.395L200.789 209.305L200.77 209.245L200.741 209.152L200.725 209.096L200.691 208.99L200.677 208.948L200.633 208.797L200.623 208.769L200.588 208.649L200.571 208.595L200.542 208.499L200.525 208.44L200.497 208.348L200.48 208.286L200.453 208.197L200.434 208.136L200.407 208.043L200.39 207.984L200.361 207.884L200.346 207.834L200.304 207.687L200.302 207.684L200.26 207.532L200.247 207.483L200.216 207.381L200.201 207.322L200.174 207.23L200.157 207.167L200.132 207.076L200.115 207.014L200.09 206.922L200.073 206.862L200.046 206.764L200.032 206.708L199.998 206.588L199.99 206.556L199.949 206.404L199.937 206.36L199.909 206.251L199.894 206.193L199.868 206.097L199.851 206.035L199.828 205.944L199.813 205.879L199.789 205.788L199.772 205.726L199.748 205.63L199.733 205.571L199.704 205.463L199.694 205.417L199.655 205.262L199.647 205.231L199.617 205.108L199.603 205.052L199.579 204.953L199.564 204.89L199.541 204.798L199.525 204.732L199.503 204.641L199.488 204.575L199.465 204.482L199.451 204.419L199.427 204.317L199.414 204.263L199.38 204.119L199.377 204.106L199.341 203.95L199.329 203.896L199.306 203.795L199.292 203.731L199.27 203.636L199.255 203.571L199.235 203.478L199.22 203.412L199.199 203.319L199.186 203.253L199.164 203.155L199.15 203.095L199.125 202.978L199.117 202.936L199.083 202.781L199.073 202.73L199.049 202.622L199.036 202.558L199.017 202.462L199.002 202.394L198.983 202.301L198.97 202.232L198.951 202.141L198.936 202.072L198.917 201.979L198.904 201.912L198.884 201.809L198.872 201.751L198.841 201.594L198.833 201.549L198.811 201.434L198.797 201.368L198.779 201.272L198.765 201.201L198.748 201.112L198.735 201.037L198.718 200.948L198.705 200.875L198.688 200.784L198.674 200.713L198.657 200.619L198.645 200.55L198.623 200.431L198.615 200.389L198.61 200.357L198.588 200.231L198.574 200.16L198.559 200.067L198.546 199.991L198.531 199.903L198.517 199.826L198.502 199.739L198.488 199.662L198.475 199.576L198.461 199.496L198.446 199.41L198.434 199.333L198.419 199.238L198.407 199.167L198.382 199.01L198.368 198.933L198.355 198.845L198.341 198.762L198.33 198.68L198.316 198.595L198.303 198.514L198.291 198.43L198.277 198.349L198.264 198.263L198.252 198.183L198.238 198.096L198.228 198.018L198.215 197.929L198.205 197.858L198.191 197.77L198.178 197.679L198.167 197.606L198.154 197.513L198.144 197.439L198.13 197.346L198.12 197.272L198.107 197.179L198.098 197.105L198.085 197.01L198.075 196.94L198.061 196.842L198.053 196.776L198.039 196.673L198.034 196.629L198.017 196.511L198 196.372L197.997 196.351L197.983 196.239L197.975 196.182L197.963 196.075L197.955 196.013L197.941 195.907L197.934 195.844L197.921 195.738L197.914 195.677L197.901 195.567L197.894 195.513L197.88 195.395L197.877 195.367L197.86 195.232C197.855 195.178 197.848 195.124 197.843 195.07L197.826 194.931L197.825 194.904L197.809 194.779L197.806 194.734L197.792 194.612L197.787 194.565L197.774 194.443L197.769 194.396L197.755 194.271L197.752 194.232L197.738 194.099L197.737 194.086C197.715 193.875 197.694 193.665 197.674 193.453L197.673 193.438L197.659 193.294L197.656 193.265L197.644 193.125L197.64 193.097L197.629 192.953L197.625 192.931Z" fill="#FFC2BA"/>
</g>
<g id="Group_10">
<path id="Vector_15" fill-rule="evenodd" clip-rule="evenodd" d="M105.723 189.177C106.145 197.585 107.493 204.739 109.763 211.342C111.247 215.704 115.347 218.638 119.958 218.638C119.958 218.643 119.958 218.643 119.958 218.643C123.842 218.643 127.345 216.307 128.835 212.722C131.414 206.53 133.588 198.925 135.143 189.177H105.723Z" fill="#FFC3BB"/>
<path id="Vector_16" fill-rule="evenodd" clip-rule="evenodd" d="M105.783 190.281C105.762 189.914 105.741 189.548 105.723 189.177H135.143C135.002 190.061 134.856 190.925 134.706 191.774L129.897 191.695C129.007 194.545 123.619 211.762 120.973 214.53C118.806 216.795 117.679 217.547 116.561 218.089C113.457 217.058 110.921 214.643 109.798 211.444L109.797 211.441L109.783 211.399L109.763 211.342C109.427 210.364 109.111 209.374 108.815 208.369C108.775 208.234 108.736 208.099 108.697 207.963C108.589 207.591 108.486 207.217 108.383 206.839C108.363 206.759 108.341 206.68 108.319 206.599C108.2 206.152 108.084 205.699 107.972 205.244C107.878 204.859 107.785 204.471 107.697 204.081C107.572 203.539 107.454 202.992 107.341 202.439C107.261 202.052 107.185 201.661 107.111 201.268C107.081 201.1 107.049 200.933 107.018 200.765L106.988 200.592C106.944 200.348 106.9 200.101 106.859 199.853C106.783 199.406 106.711 198.954 106.641 198.498L106.614 198.321C106.567 198.014 106.523 197.703 106.479 197.391L106.461 197.252L106.456 197.212C106.304 196.09 106.17 194.947 106.057 193.779L106.04 193.592L106.037 193.561C106.005 193.215 105.973 192.868 105.944 192.517C105.883 191.781 105.829 191.037 105.783 190.281Z" fill="#DA0F47"/>
</g>
<g id="Group_11">
<path id="Vector_17" fill-rule="evenodd" clip-rule="evenodd" d="M246.293 110.431C247.546 110.079 248.576 109.761 248.833 109.601C251.846 107.727 254.39 104.633 255.739 101.122C257.043 97.7333 257.369 93.9729 255.786 90.6464C253.888 93.3753 250.877 95.2292 248.132 95.4458C245.075 95.6869 242.136 94.193 240.66 89.8707C238.92 84.7762 242.308 80.7198 247.37 79.7036C249.307 79.3146 251.525 79.4309 253.726 80.2168C253.591 78.9043 253.265 77.62 252.787 76.3839C251.527 73.1257 249.287 70.1859 246.627 67.9127C245.946 67.365 245.84 66.3686 246.387 65.6888C246.934 65.009 247.933 64.9017 248.613 65.4493C251.861 67.9092 254.638 71.1948 256.327 74.8953C257.45 77.3575 258.068 80.0047 258.035 82.7398C259.44 83.9411 260.74 85.5112 261.842 87.5005C264.6 92.484 264.644 98.302 262.941 103.647C261.267 108.908 257.756 113.622 253.505 116.626C252.973 117.004 250.91 117.943 248.519 118.858C248.809 120.277 249.078 121.755 249.326 123.301C253.954 152.104 253.773 179.011 245.262 206.146C242.849 213.795 235.75 218.998 227.725 218.998C227.724 219 227.724 219 227.724 219C220.598 219 214.262 214.46 211.979 207.712C209.232 199.603 206.013 190.093 206.013 190.093H128C128 190.093 123.982 201.449 120.984 209.927C119.06 215.364 113.915 219 108.144 219H108.142C100.959 219 94.7225 214.051 93.0953 207.059C91.2433 199.1 89.147 190.093 89.147 190.093H65.678C62.9538 190.093 60.3992 188.501 59.4347 185.956C56.4315 178.029 50.4514 157.633 60.011 133.828C60.7131 132.081 62.53 131.036 64.4153 131.036C70.6678 131.031 84.4795 131.031 84.4795 131.031C84.4795 131.031 86.5678 99.2468 115.373 82.4866L107.537 67.5436C107.537 67.5436 120.639 62.3861 132.237 77.2932C159.88 70.7938 184.255 70.0949 215.298 79.2979C222.564 81.4396 229.136 85.4575 234.353 90.9465C237.984 94.7589 240.846 98.5787 243.116 102.911C244.337 105.243 245.386 107.723 246.293 110.431ZM252.713 86.8104C251.79 86.1571 250.807 85.7773 249.838 85.656C247.659 85.3838 245.342 86.2123 245.907 88.2527C246.394 90.013 247.561 90.601 248.813 90.2137C250.355 89.7361 251.882 88.4625 252.713 86.8104Z" fill="#FFC3BB"/>
</g>
<path id="Vector_18" fill-rule="evenodd" clip-rule="evenodd" d="M127.449 191.652L129.963 183.919C130.085 183.542 130.458 183.304 130.85 183.353C131.244 183.402 131.548 183.723 131.575 184.118L131.987 190.096H127.999L127.449 191.652ZM201.246 190.096L202.55 183.628C202.609 183.341 202.852 183.129 203.146 183.11C203.439 183.09 203.709 183.271 203.803 183.549C204.761 186.374 206.266 190.815 206.266 190.815L206.259 190.816L206.014 190.096H201.246ZM231.665 136.305C231.665 114.484 214.868 96.3352 193.097 94.6336C177.207 93.3768 161.409 93.3877 145.705 94.6297C123.932 96.3277 107.131 114.478 107.131 136.3C107.13 136.3 107.13 136.3 107.13 136.3C107.13 158.915 125.124 177.434 147.749 178.099C162.235 178.53 176.668 178.53 191.046 178.104C213.671 177.439 231.665 158.92 231.665 136.305ZM74.7212 131.103C76.0653 134.094 77.2997 138.155 78.1456 143.667C78.287 144.586 77.6536 145.449 76.7322 145.589C75.8107 145.731 74.948 145.098 74.8066 144.178C73.8579 137.996 72.441 133.861 70.9839 131.105L73.7912 131.103H74.7212ZM81.3066 131.103C82.369 133.4 83.3258 136.328 84.0264 140.062C84.1982 140.978 83.5938 141.861 82.6775 142.031C81.7614 142.203 80.8781 141.599 80.7063 140.684C79.8871 136.32 78.7205 133.253 77.5168 131.103H81.3066ZM248.518 118.859C248.81 120.278 246.05 109.706 246.294 110.432C247.545 110.081 248.577 109.763 248.834 109.603C249.018 109.488 249.202 109.368 249.383 109.244C250.075 111.484 250.879 114.353 251.589 117.596C250.727 117.98 249.66 118.422 248.518 118.859ZM255.788 90.6481C255.477 91.3336 258.254 86.7091 258.036 82.7414C259.112 83.6616 260.127 84.7983 261.037 86.1738C260.591 88.3315 259.617 91.1171 257.512 93.836C257.319 94.0847 257.071 94.2652 256.798 94.3727C256.679 93.1001 256.357 91.846 255.788 90.6481ZM253.725 80.2185C254.016 83.7824 252.482 87.2711 252.714 86.812C251.791 86.1587 250.808 85.779 249.837 85.6577C249.754 85.6472 249.672 85.6384 249.589 85.6313C250.923 83.4307 250.709 81.0451 250.344 79.5139C251.449 79.5851 252.59 79.8124 253.725 80.2185ZM115.354 82.4998L116.602 84.9913C117.019 85.8242 116.681 86.8391 115.848 87.2561C115.014 87.6731 113.999 87.3354 113.582 86.5025L112.47 84.2852C113.401 83.6736 114.362 83.0778 115.354 82.4998ZM133.411 79.2425C133.411 79.2425 131.769 76.6912 132.239 77.2949C133.372 77.0284 134.5 76.7717 135.625 76.5244L136.171 77.2955C136.708 78.0564 136.525 79.1103 135.765 79.6477C135.003 80.1849 133.948 80.0033 133.411 79.2425Z" fill="#DA0F47"/>
<g id="Group_12">
<g id="Group_13">
<path id="Vector_19" d="M63.4953 190.164C68.482 190.164 72.5246 176.942 72.5246 160.632C72.5246 144.322 68.482 131.101 63.4953 131.101C58.5086 131.101 54.4661 144.322 54.4661 160.632C54.4661 176.942 58.5086 190.164 63.4953 190.164Z" fill="#DA0F47"/>
</g>
<g id="Group_14">
<path id="Vector_20" fill-rule="evenodd" clip-rule="evenodd" d="M58.6667 147.462V173.806C58.6667 174.736 59.4236 175.493 60.3558 175.493C61.2879 175.493 62.0448 174.736 62.0448 173.806V147.462C62.0448 146.531 61.2879 145.774 60.3558 145.774C59.4236 145.774 58.6667 146.531 58.6667 147.462Z" fill="#D7441E"/>
</g>
<g id="Group_15">
<path id="Vector_21" fill-rule="evenodd" clip-rule="evenodd" d="M64.9438 147.462V173.806C64.9438 174.736 65.7007 175.493 66.6329 175.493C67.565 175.493 68.3219 174.736 68.3219 173.806V147.462C68.3219 146.531 67.565 145.774 66.6329 145.774C65.7007 145.774 64.9438 146.531 64.9438 147.462Z" fill="#D7441E"/>
</g>
</g>
<g id="Group_16">
<path id="Vector_22" fill-rule="evenodd" clip-rule="evenodd" d="M90.8885 123.454C90.852 124.41 90.7431 126.457 91.2449 128.302C91.8739 130.615 93.3488 132.615 96.4797 132.791C97.7695 132.863 99.5392 132.697 100.982 131.301C102.216 130.108 103.324 127.853 103.237 123.484L99.859 123.552C99.918 126.485 99.4615 128.074 98.6326 128.877C98.0128 129.475 97.2238 129.452 96.6698 129.421C95.3303 129.345 94.7738 128.407 94.5047 127.416C94.1083 125.959 94.235 124.337 94.2641 123.583L90.8885 123.454Z" fill="#1A1616"/>
</g>
<g id="Group_17">
<path id="Vector_23" d="M206.337 81.8418H139.335L141.028 89.2804H208.03L206.337 81.8418Z" fill="#1A1616"/>
</g>
</g>
<g id="BILL">
<g id="Group_18">
<path id="Vector_24" fill-rule="evenodd" clip-rule="evenodd" d="M145.054 94.6852C145.272 94.6647 145.487 94.6463 145.703 94.6295C161.407 93.3875 177.204 93.3765 193.095 94.6333C196.295 94.8835 199.388 95.489 202.335 96.4092V131.665H145.054V94.6852Z" fill="#82B5B2"/>
<path id="Vector_25" fill-rule="evenodd" clip-rule="evenodd" d="M155.34 94.0227C167.006 93.4763 178.72 93.6098 190.489 94.4386C187.524 101.145 180.806 105.829 173.003 105.829C165.04 105.829 158.208 100.95 155.34 94.0227Z" fill="#A8CFCC"/>
<path id="Vector_26" fill-rule="evenodd" clip-rule="evenodd" d="M163.354 131.665V115.223C163.354 113.262 164.945 111.672 166.906 111.672C168.868 111.672 170.459 113.262 170.459 115.223V131.665H163.354ZM175.221 131.665V119.415C175.221 117.456 176.813 115.864 178.774 115.864C180.735 115.864 182.328 117.456 182.328 119.415V131.665H175.221Z" fill="#A8CFCC"/>
</g>
<g id="Group_19">
<path id="Vector_27" d="M202.334 35.7979H145.053V85.2403H202.334V35.7979Z" fill="#A8CFCC"/>
<path id="Vector_28" fill-rule="evenodd" clip-rule="evenodd" d="M153.955 85.2405C154.72 75.4013 162.962 67.6445 173.003 67.6445C183.044 67.6445 191.287 75.4013 192.052 85.2405H153.955Z" fill="#82B5B2"/>
<path id="Vector_29" fill-rule="evenodd" clip-rule="evenodd" d="M184.394 35.7979V49.8072C184.394 51.7667 182.803 53.3577 180.842 53.3577C178.881 53.3577 177.288 51.7667 177.288 49.8072V35.7979H184.394ZM172.527 35.7979V45.6146C172.527 47.5742 170.934 49.1651 168.973 49.1651C167.012 49.1651 165.419 47.5742 165.419 45.6146V35.7979H172.527Z" fill="#82B5B2"/>
</g>
</g>
<g id="COINS">
<g id="Group_20">
<g id="Group_21">
<path id="Vector_30" d="M145.111 149.25C155.077 149.25 163.157 141.258 163.157 131.4C163.157 121.541 155.077 113.549 145.111 113.549C135.144 113.549 127.065 121.541 127.065 131.4C127.065 141.258 135.144 149.25 145.111 149.25Z" fill="#FFCF84"/>
</g>
<g id="Group_22">
<path id="Vector_31" fill-rule="evenodd" clip-rule="evenodd" d="M145.113 117.475C152.882 117.475 159.189 123.714 159.189 131.398C159.189 139.083 152.882 145.322 145.113 145.322C144.798 145.322 144.542 145.575 144.542 145.888C144.542 146.2 144.798 146.453 145.113 146.453C153.513 146.453 160.333 139.707 160.333 131.398C160.333 123.089 153.513 116.344 145.113 116.344C144.798 116.344 144.542 116.597 144.542 116.909C144.542 117.221 144.798 117.475 145.113 117.475Z" fill="#936A36"/>
</g>
<g id="Group_23">
<path id="Vector_32" fill-rule="evenodd" clip-rule="evenodd" d="M145.112 145.322C137.343 145.322 131.036 139.083 131.036 131.398C131.036 123.714 137.343 117.475 145.112 117.475C145.428 117.475 145.684 117.221 145.684 116.909C145.684 116.597 145.428 116.344 145.112 116.344C136.712 116.344 129.893 123.089 129.893 131.398C129.893 139.707 136.712 146.453 145.112 146.453C145.428 146.453 145.684 146.2 145.684 145.888C145.684 145.575 145.428 145.322 145.112 145.322Z" fill="#936A36"/>
</g>
<path id="Vector_33" fill-rule="evenodd" clip-rule="evenodd" d="M147.285 149.121L146.915 146.18C146.876 145.87 147.099 145.587 147.413 145.549C147.726 145.51 148.011 145.731 148.051 146.04L148.415 148.95C148.043 149.019 147.665 149.076 147.285 149.121ZM150.659 148.388L149.637 145.404C149.536 145.109 149.696 144.787 149.996 144.687C150.294 144.587 150.619 144.746 150.719 145.041L151.736 148.006C151.383 148.145 151.024 148.272 150.659 148.388ZM135.164 146.291L136.753 143.705C136.917 143.439 137.269 143.354 137.539 143.516C137.809 143.678 137.895 144.026 137.731 144.293L136.137 146.885C135.805 146.697 135.481 146.498 135.164 146.291ZM159.96 141.541L157.333 139.618C157.08 139.433 157.027 139.078 157.214 138.827C157.402 138.576 157.76 138.524 158.013 138.709L160.582 140.589C160.385 140.913 160.177 141.231 159.96 141.541ZM127.961 136.962L131.048 135.588C131.335 135.46 131.674 135.587 131.803 135.872C131.933 136.157 131.805 136.492 131.516 136.62L128.354 138.028C128.212 137.678 128.08 137.323 127.961 136.962ZM162.623 127.069C162.714 127.433 162.795 127.802 162.864 128.175L159.821 128.884C159.515 128.956 159.206 128.767 159.134 128.464C159.061 128.16 159.252 127.855 159.558 127.783L162.623 127.069ZM130.2 121.346L132.919 123.106C133.184 123.276 133.258 123.627 133.085 123.889C132.913 124.15 132.558 124.223 132.294 124.052L129.586 122.3C129.781 121.975 129.986 121.657 130.2 121.346ZM131.975 119.164L134.186 120.773C134.44 120.958 134.495 121.312 134.308 121.563C134.121 121.815 133.762 121.869 133.508 121.684L131.216 120.015C131.459 119.724 131.713 119.44 131.975 119.164ZM155.542 116.834C155.854 117.052 156.158 117.28 156.454 117.517L154.477 119.983C154.28 120.228 153.92 120.269 153.673 120.075C153.426 119.881 153.385 119.525 153.58 119.28L155.542 116.834ZM152.48 115.101C152.829 115.256 153.172 115.421 153.508 115.596L152.114 118.183C151.966 118.458 151.619 118.562 151.34 118.416C151.062 118.269 150.957 117.926 151.106 117.65L152.48 115.101ZM141.065 113.999L141.87 116.838C141.955 117.139 141.778 117.451 141.474 117.535C141.169 117.62 140.854 117.444 140.769 117.143L139.96 114.287C140.323 114.18 140.691 114.084 141.065 113.999Z" fill="#936A36"/>
</g>
<g id="Group_24">
<g id="Group_25">
<path id="Vector_34" d="M193.11 171.363C203.076 171.363 211.156 163.371 211.156 153.512C211.156 143.653 203.076 135.661 193.11 135.661C183.143 135.661 175.064 143.653 175.064 153.512C175.064 163.371 183.143 171.363 193.11 171.363Z" fill="#FFCF84"/>
</g>
<g id="Group_26">
<path id="Vector_35" fill-rule="evenodd" clip-rule="evenodd" d="M193.112 139.59C200.881 139.59 207.188 145.829 207.188 153.514C207.188 161.198 200.881 167.437 193.112 167.437C192.797 167.437 192.541 167.691 192.541 168.003C192.541 168.315 192.797 168.568 193.112 168.568C201.512 168.568 208.332 161.823 208.332 153.514C208.332 145.205 201.512 138.459 193.112 138.459C192.797 138.459 192.541 138.712 192.541 139.025C192.541 139.337 192.797 139.59 193.112 139.59Z" fill="#936A36"/>
</g>
<g id="Group_27">
<path id="Vector_36" fill-rule="evenodd" clip-rule="evenodd" d="M193.111 167.437C185.342 167.437 179.035 161.198 179.035 153.514C179.035 145.829 185.342 139.59 193.111 139.59C193.427 139.59 193.683 139.337 193.683 139.025C193.683 138.712 193.427 138.459 193.111 138.459C184.711 138.459 177.892 145.205 177.892 153.514C177.892 161.823 184.711 168.568 193.111 168.568C193.427 168.568 193.683 168.315 193.683 168.003C193.683 167.691 193.427 167.437 193.111 167.437Z" fill="#936A36"/>
</g>
<path id="Vector_37" fill-rule="evenodd" clip-rule="evenodd" d="M195.283 171.235L194.914 168.294C194.875 167.984 195.098 167.702 195.411 167.663C195.724 167.625 196.009 167.845 196.049 168.155L196.414 171.064C196.041 171.133 195.664 171.19 195.283 171.235ZM198.657 170.503L197.635 167.519C197.535 167.223 197.695 166.902 197.994 166.802C198.293 166.701 198.617 166.86 198.718 167.156L199.735 170.121C199.381 170.259 199.022 170.386 198.657 170.503ZM183.163 168.405L184.752 165.82C184.915 165.553 185.268 165.468 185.537 165.63C185.807 165.792 185.893 166.141 185.73 166.407L184.136 168.999C183.804 168.811 183.479 168.613 183.163 168.405ZM207.958 163.655L205.332 161.733C205.079 161.547 205.025 161.193 205.213 160.942C205.4 160.691 205.758 160.638 206.012 160.823L208.58 162.703C208.384 163.028 208.175 163.345 207.958 163.655ZM175.96 159.077L179.046 157.703C179.333 157.575 179.673 157.702 179.802 157.986C179.931 158.271 179.803 158.606 179.515 158.734L176.352 160.142C176.21 159.793 176.079 159.437 175.96 159.077ZM210.621 149.183C210.713 149.547 210.794 149.916 210.863 150.289L207.82 150.999C207.513 151.07 207.205 150.882 207.133 150.578C207.059 150.274 207.25 149.969 207.557 149.898L210.621 149.183ZM178.199 143.461L180.918 145.22C181.182 145.391 181.256 145.741 181.084 146.003C180.911 146.264 180.557 146.337 180.292 146.166L177.585 144.414C177.779 144.089 177.985 143.771 178.199 143.461ZM179.973 141.278L182.185 142.887C182.439 143.072 182.494 143.426 182.306 143.678C182.12 143.929 181.761 143.983 181.507 143.798L179.214 142.129C179.458 141.838 179.712 141.554 179.973 141.278ZM203.541 138.948C203.852 139.166 204.156 139.394 204.452 139.632L202.475 142.097C202.279 142.342 201.918 142.383 201.671 142.189C201.425 141.995 201.383 141.639 201.579 141.394L203.541 138.948ZM200.479 137.215C200.828 137.37 201.171 137.536 201.507 137.711L200.113 140.297C199.964 140.572 199.618 140.677 199.339 140.53C199.061 140.383 198.956 140.04 199.104 139.765L200.479 137.215ZM189.064 136.113L189.869 138.952C189.953 139.253 189.776 139.565 189.472 139.649C189.168 139.734 188.852 139.558 188.768 139.258L187.958 136.401C188.322 136.294 188.69 136.198 189.064 136.113Z" fill="#936A36"/>
</g>
<g id="Group_28">
<g id="Group_29">
<g id="Group_30">
<path id="Vector_38" d="M106.069 35.7016C116.036 35.7016 124.115 27.7095 124.115 17.8508C124.115 7.99208 116.036 0 106.069 0C96.1029 0 88.0234 7.99208 88.0234 17.8508C88.0234 27.7095 96.1029 35.7016 106.069 35.7016Z" fill="#FFCF84"/>
</g>
<g id="Group_31">
<path id="Vector_39" fill-rule="evenodd" clip-rule="evenodd" d="M106.068 3.92795C113.836 3.92795 120.144 10.1669 120.144 17.8516C120.144 25.5362 113.836 31.7752 106.068 31.7752C105.752 31.7752 105.496 32.0286 105.496 32.3407C105.496 32.6529 105.752 32.9063 106.068 32.9063C114.467 32.9063 121.287 26.1605 121.287 17.8516C121.287 9.54262 114.467 2.79688 106.068 2.79688C105.752 2.79688 105.496 3.05026 105.496 3.36241C105.496 3.67456 105.752 3.92795 106.068 3.92795Z" fill="#936A36"/>
</g>
<g id="Group_32">
<path id="Vector_40" fill-rule="evenodd" clip-rule="evenodd" d="M106.068 31.7752C98.2986 31.7752 91.9911 25.5362 91.9911 17.8516C91.9911 10.1669 98.2986 3.92795 106.068 3.92795C106.383 3.92795 106.64 3.67456 106.64 3.36241C106.64 3.05026 106.383 2.79688 106.068 2.79688C97.6675 2.79688 90.8486 9.54262 90.8486 17.8516C90.8486 26.1605 97.6675 32.9063 106.068 32.9063C106.383 32.9063 106.64 32.6529 106.64 32.3407C106.64 32.0286 106.383 31.7752 106.068 31.7752Z" fill="#936A36"/>
</g>
<path id="Vector_41" fill-rule="evenodd" clip-rule="evenodd" d="M108.24 35.574L107.871 32.6331C107.832 32.3233 108.055 32.0406 108.368 32.002C108.681 31.9636 108.966 32.1838 109.006 32.4936L109.371 35.4033C108.998 35.4717 108.621 35.5287 108.24 35.574ZM111.614 34.8416L110.592 31.8575C110.492 31.5618 110.652 31.2405 110.951 31.1404C111.25 31.0402 111.574 31.1989 111.675 31.4944L112.692 34.4595C112.338 34.5977 111.979 34.7252 111.614 34.8416ZM96.1196 32.7437L97.709 30.1584C97.8725 29.8917 98.2246 29.8068 98.4945 29.969C98.7644 30.1312 98.8501 30.4794 98.6866 30.7461L97.0926 33.3383C96.761 33.15 96.4363 32.9515 96.1196 32.7437ZM120.915 27.9942L118.289 26.0716C118.036 25.8858 117.982 25.5315 118.17 25.2805C118.357 25.0296 118.715 24.9767 118.969 25.1623L121.537 27.0424C121.341 27.3665 121.132 27.684 120.915 27.9942ZM88.917 23.4154L92.0032 22.0415C92.2902 21.9134 92.6298 22.0405 92.759 22.3251C92.8882 22.6098 92.7601 22.9448 92.472 23.073L89.3092 24.4813C89.1674 24.1314 89.0359 23.7761 88.917 23.4154ZM123.578 13.5218C123.67 13.8862 123.751 14.2549 123.82 14.6276L120.777 15.3374C120.47 15.4091 120.162 15.2205 120.09 14.9169C120.016 14.613 120.207 14.3082 120.514 14.2365L123.578 13.5218ZM91.1559 7.79942L93.875 9.5587C94.1391 9.7296 94.2134 10.0804 94.0408 10.3416C93.8681 10.6028 93.5136 10.6762 93.2495 10.5053L90.5418 8.75314C90.7362 8.4283 90.942 8.11024 91.1559 7.79942ZM92.9305 5.61734L95.1419 7.22596C95.3958 7.41089 95.4506 7.76526 95.2631 8.01658C95.0767 8.26802 94.7177 8.32198 94.4639 8.13704L92.1712 6.46825C92.4148 6.17677 92.6686 5.89298 92.9305 5.61734ZM116.498 3.28675C116.809 3.50527 117.113 3.73319 117.409 3.9706L115.432 6.43624C115.236 6.68078 114.876 6.72172 114.629 6.52774C114.382 6.33376 114.34 5.9777 114.536 5.73316L116.498 3.28675ZM113.436 1.55393C113.785 1.70878 114.128 1.87437 114.464 2.04957L113.07 4.63579C112.921 4.9112 112.575 5.01549 112.296 4.86868C112.018 4.72175 111.913 4.37892 112.061 4.1035L113.436 1.55393ZM102.021 0.452148L102.826 3.29116C102.91 3.59169 102.733 3.90409 102.429 3.98836C102.125 4.07273 101.809 3.89719 101.725 3.59655L100.915 0.740234C101.279 0.633008 101.647 0.536866 102.021 0.452148Z" fill="#936A36"/>
</g>
<g id="Group_33">
<g id="Group_34">
<path id="Vector_42" d="M45.1322 101.364C55.0987 101.364 63.1781 93.3717 63.1781 83.5129C63.1781 73.6542 55.0987 65.6621 45.1322 65.6621C35.1656 65.6621 27.0862 73.6542 27.0862 83.5129C27.0862 93.3717 35.1656 101.364 45.1322 101.364Z" fill="#FFCF84"/>
</g>
<g id="Group_35">
<path id="Vector_43" fill-rule="evenodd" clip-rule="evenodd" d="M45.131 69.5901C52.8994 69.5901 59.2068 75.829 59.2068 83.5137C59.2068 91.1983 52.8994 97.4373 45.131 97.4373C44.8155 97.4373 44.5593 97.6907 44.5593 98.0029C44.5593 98.315 44.8155 98.5684 45.131 98.5684C53.5305 98.5684 60.3502 91.8226 60.3502 83.5137C60.3502 75.2047 53.5305 68.459 45.131 68.459C44.8155 68.459 44.5593 68.7124 44.5593 69.0245C44.5593 69.3367 44.8155 69.5901 45.131 69.5901Z" fill="#936A36"/>
</g>
<g id="Group_36">
<path id="Vector_44" fill-rule="evenodd" clip-rule="evenodd" d="M45.1335 97.4373C37.3643 97.4373 31.0568 91.1983 31.0568 83.5137C31.0568 75.829 37.3643 69.5901 45.1335 69.5901C45.4491 69.5901 45.7052 69.3367 45.7052 69.0245C45.7052 68.7124 45.4491 68.459 45.1335 68.459C36.7332 68.459 29.9143 75.2047 29.9143 83.5137C29.9143 91.8226 36.7332 98.5684 45.1335 98.5684C45.4491 98.5684 45.7052 98.315 45.7052 98.0029C45.7052 97.6907 45.4491 97.4373 45.1335 97.4373Z" fill="#936A36"/>
</g>
<path id="Vector_45" fill-rule="evenodd" clip-rule="evenodd" d="M47.3043 101.235L46.935 98.2942C46.8961 97.9844 47.1191 97.7017 47.4324 97.6632C47.7457 97.6247 48.0304 97.8449 48.0704 98.1547L48.4352 101.064C48.0624 101.133 47.6851 101.19 47.3043 101.235ZM50.6786 100.503L49.6564 97.5186C49.5557 97.223 49.7158 96.9016 50.0154 96.8015C50.3138 96.7013 50.6386 96.86 50.7392 97.1555L51.7557 100.121C51.4024 100.259 51.0434 100.386 50.6786 100.503ZM35.1838 98.4048L36.7732 95.8195C36.9367 95.5528 37.2889 95.468 37.5587 95.6302C37.8286 95.7924 37.9143 96.1405 37.7508 96.4072L36.1568 98.9994C35.8252 98.8111 35.5005 98.6126 35.1838 98.4048ZM59.9794 93.6553L57.3529 91.7327C57.1002 91.547 57.0465 91.1926 57.234 90.9416C57.4215 90.6907 57.7794 90.6378 58.0333 90.8234L60.6014 92.7035C60.4048 93.0277 60.1967 93.3452 59.9794 93.6553ZM27.9812 89.0766L31.0674 87.7027C31.3544 87.5745 31.694 87.7016 31.8232 87.9862C31.9524 88.2709 31.8243 88.6059 31.5362 88.7341L28.3734 90.1424C28.2316 89.7926 28.1001 89.4373 27.9812 89.0766ZM62.6425 79.1829C62.734 79.5473 62.8152 79.9161 62.8838 80.2888L59.841 80.9985C59.5346 81.0702 59.2259 80.8817 59.1538 80.578C59.0807 80.2742 59.2716 79.9693 59.5781 79.8976L62.6425 79.1829ZM30.2201 73.4605L32.9392 75.2198C33.2033 75.3907 33.2776 75.7415 33.105 76.0028C32.9323 76.2639 32.5779 76.3373 32.3137 76.1664L29.606 74.4143C29.8004 74.0894 30.0062 73.7714 30.2201 73.4605ZM31.9947 71.2785L34.2061 72.8871C34.46 73.072 34.5149 73.4264 34.3273 73.6777C34.1409 73.9292 33.7819 73.9831 33.5281 73.7982L31.2354 72.1294C31.479 71.8379 31.7328 71.5541 31.9947 71.2785ZM55.5623 68.9479C55.8733 69.1664 56.1775 69.3943 56.4736 69.6317L54.4966 72.0974C54.2999 72.3419 53.9397 72.3829 53.6927 72.1889C53.4458 71.9949 53.4046 71.6388 53.6001 71.3943L55.5623 68.9479ZM52.5001 67.2151C52.8489 67.3699 53.1919 67.5355 53.5281 67.7107L52.1342 70.2969C51.9856 70.5723 51.6391 70.6766 51.3601 70.5298C51.0822 70.3829 50.9771 70.0401 51.1257 69.7646L52.5001 67.2151ZM41.0851 66.1133L41.8901 68.9523C41.9747 69.2528 41.7975 69.5652 41.4933 69.6495C41.1892 69.7339 40.8736 69.5583 40.7889 69.2577L39.9794 66.4014C40.343 66.2941 40.7112 66.198 41.0851 66.1133Z" fill="#936A36"/>
</g>
<g id="Group_37">
<g id="Group_38">
<path id="Vector_46" d="M291.709 77.2241C301.676 77.2241 309.755 69.232 309.755 59.3733C309.755 49.5145 301.676 41.5225 291.709 41.5225C281.743 41.5225 273.663 49.5145 273.663 59.3733C273.663 69.232 281.743 77.2241 291.709 77.2241Z" fill="#FFCF84"/>
</g>
<g id="Group_39">
<path id="Vector_47" fill-rule="evenodd" clip-rule="evenodd" d="M291.708 45.4514C299.477 45.4514 305.784 51.6904 305.784 59.375C305.784 67.0597 299.477 73.2986 291.708 73.2986C291.393 73.2986 291.136 73.552 291.136 73.8642C291.136 74.1763 291.393 74.4297 291.708 74.4297C300.108 74.4297 306.927 67.684 306.927 59.375C306.927 51.0661 300.108 44.3203 291.708 44.3203C291.393 44.3203 291.136 44.5737 291.136 44.8858C291.136 45.198 291.393 45.4514 291.708 45.4514Z" fill="#936A36"/>
</g>
<g id="Group_40">
<path id="Vector_48" fill-rule="evenodd" clip-rule="evenodd" d="M291.707 73.2986C283.938 73.2986 277.63 67.0597 277.63 59.375C277.63 51.6904 283.938 45.4514 291.707 45.4514C292.023 45.4514 292.279 45.198 292.279 44.8858C292.279 44.5737 292.023 44.3203 291.707 44.3203C283.307 44.3203 276.488 51.0661 276.488 59.375C276.488 67.684 283.307 74.4297 291.707 74.4297C292.023 74.4297 292.279 74.1763 292.279 73.8642C292.279 73.552 292.023 73.2986 291.707 73.2986Z" fill="#936A36"/>
</g>
<path id="Vector_49" fill-rule="evenodd" clip-rule="evenodd" d="M293.88 77.0964L293.511 74.1555C293.472 73.8457 293.695 73.5631 294.008 73.5245C294.322 73.486 294.606 73.7063 294.646 74.0161L295.011 76.9258C294.638 76.9942 294.261 77.0512 293.88 77.0964ZM297.255 76.3641L296.232 73.3799C296.132 73.0843 296.292 72.7629 296.591 72.6628C296.89 72.5626 297.215 72.7213 297.315 73.0169L298.332 75.982C297.978 76.1202 297.619 76.2477 297.255 76.3641ZM281.76 74.2661L283.349 71.6808C283.513 71.4141 283.865 71.3293 284.135 71.4915C284.404 71.6537 284.49 72.0018 284.327 72.2685L282.733 74.8608C282.401 74.6724 282.076 74.4739 281.76 74.2661ZM306.555 69.5166L303.929 67.594C303.676 67.4083 303.622 67.0539 303.81 66.8029C303.997 66.5521 304.355 66.4991 304.609 66.6847L307.177 68.5648C306.981 68.889 306.773 69.2065 306.555 69.5166ZM274.557 64.9379L277.643 63.564C277.93 63.4358 278.27 63.563 278.399 63.8475C278.528 64.1322 278.4 64.4673 278.112 64.5954L274.949 66.0037C274.808 65.6539 274.676 65.2986 274.557 64.9379ZM309.218 55.0442C309.31 55.4087 309.391 55.7774 309.46 56.1501L306.417 56.8598C306.111 56.9316 305.802 56.743 305.73 56.4393C305.657 56.1355 305.848 55.8307 306.154 55.759L309.218 55.0442ZM276.796 49.3219L279.515 51.0812C279.779 51.2521 279.854 51.6028 279.681 51.8641C279.508 52.1253 279.154 52.1987 278.89 52.0278L276.182 50.2756C276.376 49.9508 276.582 49.6327 276.796 49.3219ZM278.571 47.1398L280.782 48.7484C281.036 48.9334 281.091 49.2877 280.903 49.539C280.717 49.7905 280.358 49.8444 280.104 49.6595L277.811 47.9907C278.055 47.6992 278.309 47.4154 278.571 47.1398ZM302.138 44.8092C302.449 45.0277 302.753 45.2556 303.05 45.4931L301.073 47.9587C300.876 48.2032 300.516 48.2442 300.269 48.0502C300.022 47.8562 299.981 47.5002 300.176 47.2556L302.138 44.8092ZM299.076 43.0764C299.425 43.2312 299.768 43.3968 300.104 43.572L298.71 46.1582C298.561 46.4337 298.215 46.538 297.936 46.3911C297.658 46.2442 297.553 45.9014 297.702 45.626L299.076 43.0764ZM287.661 41.9746L288.466 44.8136C288.551 45.1141 288.373 45.4266 288.069 45.5108C287.765 45.5952 287.449 45.4197 287.365 45.119L286.555 42.2627C286.919 42.1555 287.287 42.0593 287.661 41.9746Z" fill="#936A36"/>
</g>
</g>
</g>
<g id="CROSSES">
<path id="Vector_50" fill-rule="evenodd" clip-rule="evenodd" d="M227.349 37.6302V34.8146C227.349 34.3488 227.728 33.9707 228.194 33.9707C228.66 33.9707 229.039 34.3488 229.039 34.8146V37.6302H231.856C232.322 37.6302 232.7 38.0082 232.7 38.474C232.7 38.9397 232.322 39.3179 231.856 39.3179H229.039V42.1335C229.039 42.5992 228.66 42.9774 228.194 42.9774C227.728 42.9774 227.349 42.5992 227.349 42.1335V39.3179H224.531C224.064 39.3179 223.686 38.9397 223.686 38.474C223.686 38.0082 224.064 37.6302 224.531 37.6302H227.349Z" fill="#FD9500"/>
<g id="Group_41">
<path id="Vector_51" fill-rule="evenodd" clip-rule="evenodd" d="M89.5941 69.5706V66.755C89.5941 66.2892 89.9725 65.9111 90.4386 65.9111C90.9048 65.9111 91.2831 66.2892 91.2831 66.755V69.5706H94.1004C94.5665 69.5706 94.9449 69.9487 94.9449 70.4145C94.9449 70.8801 94.5665 71.2583 94.1004 71.2583H91.2831V74.0739C91.2831 74.5396 90.9048 74.9178 90.4386 74.9178C89.9725 74.9178 89.5941 74.5396 89.5941 74.0739V71.2583H86.7752C86.309 71.2583 85.9307 70.8801 85.9307 70.4145C85.9307 69.9487 86.309 69.5706 86.7752 69.5706H89.5941Z" fill="#FD9500"/>
</g>
<g id="Group_42">
<path id="Vector_52" fill-rule="evenodd" clip-rule="evenodd" d="M282.5 98.4378V95.6222C282.5 95.1564 282.878 94.7783 283.344 94.7783C283.81 94.7783 284.189 95.1564 284.189 95.6222V98.4378H287.006C287.472 98.4378 287.85 98.8158 287.85 99.2817C287.85 99.7473 287.472 100.126 287.006 100.126H284.189V102.941C284.189 103.407 283.81 103.785 283.344 103.785C282.878 103.785 282.5 103.407 282.5 102.941V100.126H279.681C279.215 100.126 278.836 99.7473 278.836 99.2817C278.836 98.8158 279.215 98.4378 279.681 98.4378H282.5Z" fill="#FD9500"/>
</g>
</g>
</g>
</g>
</svg>
