<svg width="332" height="253" viewBox="0 0 332 253" fill="none" xmlns="http://www.w3.org/2000/svg">
<g id="etapa2">
<g id="_9---ECONOMY-ANALYSIS">
<g id="CHART-POSTER-2">
<g id="Group">
<path id="Vector" d="M302.105 144.434H181.034V242.459H302.105V144.434Z" fill="#DA0F47" fill-opacity="0.6"/>
<path id="Vector_2" fill-rule="evenodd" clip-rule="evenodd" d="M216.001 189.394H197.044V230.565H216.001V189.394ZM290.367 191.347H271.409V230.565H290.367V191.347ZM265.58 180.363H246.62V230.565H265.58V180.363ZM240.79 166.305H221.831V230.565H240.79V166.305ZM285.033 184.889H276.497V189.552H285.033V184.889ZM210.426 183.077H201.89V187.738H210.426V183.077ZM260.368 174.349H251.832V179.012H260.368V174.349ZM235.272 159.969H226.738V164.632H235.272V159.969Z" fill="#FFF1E2"/>
</g>
<path id="Vector_3" fill-rule="evenodd" clip-rule="evenodd" d="M251.729 223.134L288.982 182.85C289.514 182.276 290.406 182.248 290.974 182.788C291.539 183.331 291.566 184.24 291.035 184.814L252.622 226.353C252.334 226.663 251.927 226.827 251.511 226.801C251.093 226.776 250.706 226.562 250.46 226.218L223.768 189.21L195.271 227.755C194.802 228.387 193.92 228.515 193.298 228.039C192.676 227.564 192.55 226.665 193.019 226.032L222.654 185.945C222.923 185.582 223.343 185.37 223.789 185.372C224.234 185.374 224.652 185.592 224.917 185.958L251.729 223.134Z" fill="#C93400"/>
</g>
<g id="CURVE">
<path id="Vector_4" fill-rule="evenodd" clip-rule="evenodd" d="M233.474 52.7119C233.326 52.2975 233.246 51.8512 233.246 51.3863C233.246 49.2074 235.014 47.4385 237.193 47.4385C239.371 47.4385 241.141 49.2074 241.141 51.3863C241.141 53.565 239.371 55.334 237.193 55.334C236.663 55.334 236.159 55.2295 235.696 55.0402L196.19 101.239C196.443 101.759 196.586 102.344 196.586 102.961C196.586 105.14 194.816 106.909 192.639 106.909C190.459 106.909 188.692 105.14 188.692 102.961C188.692 102.853 188.695 102.747 188.705 102.641L184.942 100.029C184.272 100.549 183.433 100.858 182.522 100.858C182.08 100.858 181.656 100.786 181.26 100.652L141.351 153.253C141.473 153.634 141.538 154.039 141.538 154.461C141.538 156.638 139.77 158.408 137.591 158.408C135.412 158.408 133.644 156.638 133.644 154.461C133.644 154.248 133.66 154.039 133.692 153.838L109.092 129.179C108.543 129.469 107.917 129.634 107.252 129.634C106.855 129.634 106.471 129.575 106.109 129.464L63.2695 196.163C63.619 196.752 63.8198 197.439 63.8198 198.174C63.8198 200.352 62.0511 202.122 59.8724 202.122C57.6938 202.122 55.925 200.352 55.925 198.174C55.925 195.995 57.6938 194.225 59.8724 194.225C60.1411 194.225 60.4034 194.252 60.6572 194.303L103.667 127.339C103.435 126.836 103.305 126.276 103.305 125.686C103.305 123.507 105.075 121.737 107.252 121.737C109.432 121.737 111.201 123.507 111.201 125.686C111.201 126.015 111.159 126.335 111.084 126.641L135.498 151.114C136.105 150.732 136.823 150.513 137.591 150.513C138.15 150.513 138.682 150.628 139.164 150.838L178.895 98.4712C178.689 97.9927 178.573 97.4649 178.573 96.9107C178.573 94.7318 180.343 92.9629 182.522 92.9629C184.7 92.9629 186.469 94.7318 186.469 96.9107C186.469 97.0028 186.466 97.0942 186.46 97.1848L190.253 99.8171C190.916 99.313 191.742 99.0135 192.639 99.0135C193.023 99.0135 193.395 99.0686 193.745 99.1709L233.474 52.7119Z" fill="#DA0F47" fill-opacity="0.6"/>
</g>
<g id="CHART-POSTER-ONE">
<path id="Vector_5" d="M154.388 19.1396H28.9458V113.907H154.388V19.1396Z" fill="#FFF1E2"/>
<path id="Vector_6" fill-rule="evenodd" clip-rule="evenodd" d="M54.115 35.1546H45.5796V104.677H54.115V35.1546ZM71.0508 28.9492H62.5156V104.64H71.0508V28.9492ZM87.9868 44.8337H79.4516V104.6H87.9868V44.8337ZM104.923 34.9732H96.3874V104.556H104.923V34.9732ZM121.86 54.3067H113.324V104.509H121.86V54.3067ZM138.794 68.3387H130.259V104.457H138.794V68.3387Z" fill="#DA0F47" fill-opacity="0.6"/>
</g>
<g id="UP-ARROW">
<path id="Vector_7" fill-rule="evenodd" clip-rule="evenodd" d="M172.417 212.854H155.364V190.17H143.692L163.891 160.877L184.089 190.17H172.417V212.854Z" fill="#C93400"/>
</g>
<g id="DOWN-ARROW">
<path id="Vector_8" fill-rule="evenodd" clip-rule="evenodd" d="M264.844 23.5469L281.897 23.5469V46.2311H293.569L273.371 75.5241L253.172 46.2311H264.844V23.5469Z" fill="#FFB000"/>
</g>
<g id="DOLLAR-">
<g id="Group_2">
<path id="Vector_9" d="M222.388 157.796C238.085 157.796 250.811 144.851 250.811 128.882C250.811 112.914 238.085 99.9688 222.388 99.9688C206.691 99.9688 193.966 112.914 193.966 128.882C193.966 144.851 206.691 157.796 222.388 157.796Z" fill="#FFCD80"/>
</g>
<g id="Group_3">
<g id="Group_4">
<path id="Vector_10" fill-rule="evenodd" clip-rule="evenodd" d="M215.754 109.155L214.709 109.534L214.191 108.058L216.015 107.396C216.447 107.24 216.912 107.444 217.055 107.851L217.93 110.348C219.55 109.837 221.167 109.524 222.778 109.409C224.836 109.261 226.887 109.436 228.929 109.933C229.16 109.988 229.348 110.14 229.446 110.346C229.542 110.553 229.539 110.794 229.435 111.008L227.134 115.743C226.96 116.099 226.55 116.294 226.163 116.203C224.157 115.734 222.103 115.751 219.998 116.251L222.914 124.57C230.976 123.349 235.791 125.451 237.48 130.598C238.409 133.389 238.123 136.084 236.633 138.671C235.292 141.095 233.088 143.142 230.002 144.793L231.505 149.083C231.648 149.49 231.415 149.946 230.983 150.102L229.192 150.752L228.676 149.277L229.688 148.91L228.217 144.713C228.086 144.34 228.27 143.919 228.647 143.733C231.718 142.206 233.907 140.298 235.198 137.967C236.462 135.773 236.697 133.498 235.912 131.138C234.393 126.507 229.863 124.972 222.454 126.236C222.062 126.301 221.691 126.093 221.567 125.74L218.155 116.006C218.084 115.802 218.106 115.576 218.213 115.379C218.321 115.183 218.506 115.034 218.726 114.97C221.191 114.238 223.598 114.09 225.942 114.525L227.528 111.264C225.966 110.967 224.399 110.872 222.825 110.986C221.106 111.108 219.384 111.477 217.653 112.089C217.224 112.241 216.764 112.036 216.622 111.631L215.754 109.155ZM227.91 138.824C228.929 138.088 229.597 137.33 229.878 136.526C230.048 136.011 230.117 135.476 230.085 134.922L231.727 134.769C231.767 135.519 231.67 136.244 231.437 136.954C230.977 138.271 229.812 139.547 227.878 140.72C227.665 140.849 227.406 140.882 227.173 140.808C226.942 140.734 226.762 140.561 226.684 140.339L224.855 135.122L226.414 134.556L227.91 138.824ZM212.063 121.046C212.102 120.279 212.265 119.595 212.54 118.992C212.547 118.977 212.556 118.961 212.562 118.946C213.224 117.702 214.202 116.768 215.492 116.145C215.704 116.044 215.949 116.031 216.162 116.11C216.376 116.191 216.54 116.357 216.613 116.565L218.111 120.838L216.552 121.403L215.371 118.034C214.814 118.446 214.368 118.965 214.03 119.592C213.836 120.025 213.731 120.517 213.702 121.066C213.703 121.08 213.701 121.095 213.699 121.11C213.637 121.691 213.739 122.331 213.984 123.029L212.425 123.595C212.1 122.669 211.986 121.818 212.063 121.046Z" fill="#936A36"/>
</g>
<g id="Group_5">
<path id="Vector_11" fill-rule="evenodd" clip-rule="evenodd" d="M214.671 126.266C213.613 125.715 212.858 124.83 212.425 123.595L213.984 123.03C214.281 123.877 214.782 124.495 215.509 124.871L215.535 124.885C216.116 125.214 216.915 125.351 217.929 125.332L216.552 121.403L218.111 120.838L219.837 125.763C219.917 125.992 219.88 126.249 219.737 126.459C219.596 126.666 219.363 126.806 219.109 126.832C217.143 127.037 215.669 126.823 214.671 126.266Z" fill="#936A36"/>
</g>
<g id="Group_6">
<path id="Vector_12" fill-rule="evenodd" clip-rule="evenodd" d="M225.177 131.025L226.415 134.557L224.856 135.122L223.304 130.695C223.229 130.479 223.257 130.238 223.381 130.035C223.507 129.831 223.715 129.686 223.953 129.639C226.247 129.185 227.932 129.322 229.02 129.928L229.044 129.945C230.127 130.604 230.887 131.544 231.317 132.771C231.557 133.457 231.692 134.125 231.728 134.769L230.086 134.923C230.059 134.41 229.949 133.881 229.758 133.337C229.449 132.455 228.91 131.776 228.136 131.3C227.454 130.925 226.467 130.853 225.177 131.025Z" fill="#936A36"/>
</g>
<g id="Group_7">
<path id="Vector_13" fill-rule="evenodd" clip-rule="evenodd" d="M220.214 131.86C212.438 132.962 207.834 130.885 206.275 125.909C205.299 122.923 205.491 120.242 206.797 117.867C207.992 115.693 210.145 113.762 213.292 112.109L212.392 109.543C212.25 109.135 212.482 108.678 212.912 108.522L214.189 108.059L214.707 109.535L214.21 109.715L215.078 112.191C215.209 112.567 215.024 112.99 214.644 113.175C211.524 114.71 209.377 116.488 208.24 118.555C207.135 120.569 207.019 122.842 207.848 125.383C209.243 129.84 213.568 131.347 220.685 130.202C221.072 130.139 221.441 130.347 221.564 130.697L225.14 140.899C225.213 141.107 225.188 141.339 225.076 141.537C224.963 141.737 224.769 141.883 224.544 141.944C222.531 142.478 220.734 142.664 219.156 142.513C217.79 142.44 216.506 142.2 215.302 141.792L213.151 145.257C214.932 145.702 216.817 145.939 218.8 145.972C221.106 145.988 223.386 145.602 225.644 144.815C226.074 144.666 226.531 144.87 226.673 145.274L228.144 149.471L228.674 149.278L229.191 150.753L227.88 151.228C227.45 151.384 226.986 151.181 226.843 150.774L225.364 146.554C223.167 147.237 220.95 147.569 218.707 147.552C216.192 147.511 213.837 147.161 211.633 146.504C211.402 146.435 211.218 146.265 211.136 146.044C211.051 145.824 211.079 145.574 211.208 145.366L214.275 140.43C214.49 140.08 214.941 139.929 215.319 140.081C216.554 140.577 217.895 140.86 219.338 140.936L219.376 140.938C220.545 141.053 221.85 140.949 223.29 140.635L220.214 131.86Z" fill="#936A36"/>
</g>
</g>
</g>
<g id="MAGNIFYING-GLASS">
<g id="Group_8">
<path id="Vector_14" fill-rule="evenodd" clip-rule="evenodd" d="M228.382 161.421C226.271 161.863 224.082 162.096 221.843 162.096C219.986 162.096 218.481 160.564 218.481 158.677C218.481 156.79 219.986 155.257 221.843 155.257C235.958 155.257 247.417 143.6 247.417 129.241C247.417 114.881 235.958 103.223 221.843 103.223C219.986 103.223 218.481 101.691 218.481 99.8041C218.481 97.917 219.986 96.3848 221.843 96.3848C239.668 96.3848 254.14 111.107 254.14 129.241C254.14 142.681 246.189 154.246 234.815 159.333L255.886 209.896C256.61 211.633 255.812 213.642 254.104 214.377C252.396 215.115 250.422 214.302 249.697 212.565L228.382 161.421Z" fill="#C93400"/>
<g id="Group_9">
<path id="Vector_15" fill-rule="evenodd" clip-rule="evenodd" d="M221.841 155.254C207.726 155.254 196.266 143.597 196.266 129.238C196.266 114.879 207.726 103.221 221.841 103.221C223.696 103.221 225.202 101.689 225.202 99.8021C225.202 97.9149 223.696 96.3828 221.841 96.3828C204.016 96.3828 189.544 111.105 189.544 129.238C189.544 147.371 204.016 162.093 221.841 162.093C223.696 162.093 225.202 160.561 225.202 158.674C225.202 156.787 223.696 155.254 221.841 155.254Z" fill="#C93400"/>
</g>
</g>
</g>
<g id="BOY">
<path id="Vector_16" fill-rule="evenodd" clip-rule="evenodd" d="M267.099 172.558C267.099 172.558 265.29 165.647 265.889 156.836C266.734 144.443 274.53 133.659 285.907 129.145C297.283 124.633 310.199 127.201 319.066 135.741C321.114 137.722 322.982 140.049 324.553 142.786C332.276 156.25 334.78 171.092 328.276 185.757C328.276 185.757 332.467 213.759 326.429 233.943C323.383 244.082 314.74 251.433 304.394 252.69C304.045 252.737 303.695 252.777 303.34 252.82C293.89 253.968 284.622 249.563 279.42 241.457C269.292 225.673 253.715 201.396 253.715 201.396C253.715 201.396 244.9 202.176 241.495 202.477C240.276 202.588 239.186 201.714 239.008 200.483C238.909 199.746 239.136 198.934 240.171 198.246C240.171 198.246 239.077 198.237 238.22 198.025C236.867 197.694 236.325 196.517 236.266 195.256C236.211 194.07 236.556 192.7 238.142 191.896C236.144 192.279 234.207 190.982 233.766 188.964C233.747 188.883 233.73 188.806 233.716 188.733C233.554 188 233.657 187.233 234.004 186.571C234.331 185.94 234.896 185.25 235.863 184.833C235.863 184.833 234.922 184.536 233.905 184.216C232.436 183.752 231.434 182.371 231.434 180.807V180.805C231.434 179.418 232.258 178.166 233.52 177.636C236.262 176.479 240.741 174.595 240.741 174.595C240.741 174.595 234.972 167.111 237.371 164.912C237.798 164.52 238.749 164.294 241.547 166.717C242.604 167.632 246.707 168.801 251.898 168.077C251.898 168.077 258.69 168.034 267.099 172.558ZM273.343 92.0254C282.168 92.0254 289.334 99.3147 289.334 108.293C289.334 117.272 282.168 124.561 273.343 124.561C264.515 124.561 257.349 117.272 257.349 108.293C257.349 99.3147 264.515 92.0254 273.343 92.0254Z" fill="#A8CFCC"/>
<path id="Vector_17" fill-rule="evenodd" clip-rule="evenodd" d="M253.173 201.445L256.677 201.043C257.137 200.99 257.553 201.327 257.606 201.797C257.658 202.265 257.326 202.689 256.864 202.742L254.734 202.986L253.715 201.396L253.173 201.445ZM236.695 196.884L246.818 195.933C247.281 195.888 247.69 196.235 247.732 196.705C247.776 197.175 247.436 197.592 246.974 197.634L240.123 198.278C240.138 198.267 240.155 198.256 240.171 198.246C240.171 198.246 239.077 198.237 238.22 198.025C237.495 197.848 237.004 197.429 236.695 196.884ZM234.88 190.939C234.955 190.894 235.041 190.86 235.132 190.838L244.51 188.783C244.961 188.682 245.409 188.977 245.507 189.439C245.604 189.898 245.316 190.353 244.863 190.454L238.037 191.952C238.071 191.933 238.106 191.913 238.142 191.896C236.924 192.129 235.728 191.738 234.88 190.939ZM233.184 183.895L243.188 180.76C243.631 180.621 244.102 180.873 244.239 181.324C244.375 181.775 244.125 182.254 243.682 182.393L235.781 184.87C235.808 184.857 235.836 184.844 235.863 184.833C235.863 184.833 234.922 184.536 233.905 184.216C233.651 184.134 233.409 184.028 233.184 183.895ZM239.726 173.169L243.226 171.697C243.655 171.515 244.146 171.722 244.325 172.158C244.501 172.596 244.297 173.096 243.869 173.276L240.739 174.592C240.711 174.556 240.287 174.003 239.726 173.169Z" fill="#82B5B2"/>
<path id="Vector_18" fill-rule="evenodd" clip-rule="evenodd" d="M267.021 172.235C266.679 170.778 265.366 164.531 265.889 156.835C266.734 144.442 274.53 133.659 285.907 129.145C297.283 124.633 310.199 127.201 319.066 135.74C321.114 137.721 322.982 140.049 324.553 142.786C332.276 156.25 334.78 171.092 328.276 185.756C328.276 185.756 332.467 213.758 326.429 233.943C323.383 244.081 314.741 251.433 304.394 252.689C304.045 252.736 303.695 252.777 303.34 252.82C293.89 253.967 284.622 249.563 279.42 241.457L272.486 230.65L296.063 202.62C283.737 183.102 270.313 174.22 267.021 172.235Z" fill="url(#paint0_linear_252_5276)"/>
<path id="Vector_19" fill-rule="evenodd" clip-rule="evenodd" d="M295.972 202.479C296.014 202.519 296.054 202.569 296.088 202.62L311.316 226.004C311.573 226.399 311.467 226.929 311.081 227.19C310.694 227.451 310.173 227.342 309.917 226.948L294.941 203.953L296.063 202.62L295.972 202.479ZM328.423 186.838L328.461 187.141L328.414 187.239C328.414 187.239 325.051 168.192 320.226 153.63C320.11 153.328 320.244 152.989 320.53 152.852C320.816 152.713 321.158 152.824 321.316 153.104C323.885 158.179 327.408 165.777 331.313 176.001C331.257 176.304 331.198 176.607 331.135 176.909L331.133 176.919L331.103 177.06L331.101 177.073L331.07 177.216L331.068 177.225C331.005 177.526 330.935 177.828 330.864 178.127L330.862 178.138L330.828 178.274L330.824 178.296L330.792 178.428L330.784 178.454L330.753 178.584L330.746 178.608L330.713 178.742L330.711 178.751C330.66 178.948 330.608 179.144 330.555 179.343L330.551 179.356L330.517 179.482L330.507 179.518L330.475 179.634L330.463 179.678L330.431 179.792L330.419 179.839L330.387 179.95L330.374 179.997L330.341 180.11L330.33 180.149L330.295 180.268C330.28 180.32 330.265 180.371 330.248 180.422L330.208 180.555L330.202 180.576L330.171 180.683L330.154 180.738L330.122 180.837L330.103 180.901L330.074 180.995L330.053 181.063L330.024 181.155L330 181.226L329.971 181.318L329.948 181.388L329.919 181.478L329.895 181.55L329.866 181.64L329.837 181.726L329.816 181.794L329.788 181.871L329.761 181.954L329.734 182.036L329.704 182.119L329.677 182.198L329.648 182.281L329.62 182.36L329.591 182.446L329.564 182.523L329.532 182.61L329.505 182.685L329.473 182.777L329.448 182.848L329.408 182.955L329.387 183.01L329.328 183.17L329.307 183.224L329.267 183.333L329.242 183.399L329.206 183.495L329.179 183.566L329.143 183.66L329.116 183.73L329.08 183.824L329.053 183.895L329.015 183.991L328.988 184.057L328.946 184.162L328.923 184.22L328.868 184.354L328.858 184.382L328.79 184.545L328.772 184.594L328.723 184.707L328.698 184.771L328.656 184.871L328.629 184.938L328.587 185.034L328.559 185.102L328.517 185.201L328.488 185.267L328.446 185.367L328.419 185.429L328.37 185.54L328.347 185.592L328.276 185.756L328.288 185.842L328.29 185.869L328.303 185.949L328.307 185.987L328.324 186.1L328.33 186.143L328.349 186.295L328.356 186.34L328.383 186.532L328.387 186.57L328.419 186.814L328.423 186.838ZM274.981 178.054C274.981 178.054 274.181 171.761 273.103 153.264C273.078 152.852 273.357 152.724 273.511 152.689C273.784 152.627 273.992 152.807 274.017 152.965L278.523 181.196C277.277 180.031 276.093 178.986 274.981 178.054Z" fill="#4644AB"/>
<path id="Vector_20" fill-rule="evenodd" clip-rule="evenodd" d="M260.885 98.097C263.818 94.3954 268.309 92.0254 273.343 92.0254C282.168 92.0254 289.334 99.3147 289.334 108.293C289.334 113.373 287.04 117.913 283.449 120.897L277.868 115.257C278.462 115.213 279.076 115.053 279.67 114.766C281.773 113.747 282.313 111.069 281.504 109.34C280.693 107.612 278.33 107.035 276.229 108.054C274.866 108.715 274.452 110.333 274.196 111.546L260.885 98.097Z" fill="black"/>
</g>
<g id="WORLD">
<g id="Group_10">
<path id="Vector_21" d="M120.027 143.04C135.724 143.04 148.45 130.095 148.45 114.126C148.45 98.1579 135.724 85.2129 120.027 85.2129C104.33 85.2129 91.6047 98.1579 91.6047 114.126C91.6047 130.095 104.33 143.04 120.027 143.04Z" fill="#A8CFCC"/>
</g>
<path id="Vector_22" fill-rule="evenodd" clip-rule="evenodd" d="M92.3259 107.631C92.5315 107.538 92.7826 107.483 93.0862 107.538C93.6845 107.645 94.1097 108.166 94.1271 108.761C94.326 109.12 94.863 110.058 95.5033 110.943C97.0152 113.032 99.5658 116.033 103.097 119.097C104.715 112.056 107.811 106.186 111.236 101.479C106.179 97.5098 103.398 93.8539 102.832 93.1557C102.389 92.6095 102.467 91.8008 103.003 91.3505C103.54 90.9004 104.335 90.9782 104.778 91.5243C105.318 92.1899 107.967 95.6704 112.786 99.4483C119.353 91.2556 126.466 87.177 126.466 87.177C127.071 86.8295 127.84 87.0477 128.183 87.6643C128.525 88.2806 128.311 89.0634 127.704 89.4109C127.704 89.4109 121.013 93.2487 114.809 100.956C119.613 104.354 126.147 107.726 134.453 109.292C135.346 103.127 135.021 97.3997 134.392 93.1546C134.289 92.4547 134.764 91.8012 135.451 91.6956C136.14 91.5903 136.783 92.0728 136.886 92.7727C137.546 97.2311 137.875 103.232 136.939 109.697C140.172 110.144 143.655 110.315 147.388 110.115C147.697 110.098 147.982 110.196 148.211 110.37C148.291 110.992 148.35 111.62 148.392 112.253C148.176 112.497 147.869 112.657 147.52 112.676C143.587 112.886 139.917 112.705 136.508 112.23C135.287 118.484 132.808 125.032 128.258 130.944C132.834 131.619 137.838 131.66 143.253 130.784C142.548 131.801 141.777 132.771 140.951 133.686C135.693 134.271 130.825 134.038 126.361 133.233C123.309 136.656 119.479 139.808 114.698 142.49C114.681 142.501 114.662 142.51 114.643 142.518C114.126 142.418 113.616 142.302 113.109 142.174C113.063 142.116 113.021 142.054 112.985 141.986C112.649 141.366 112.872 140.586 113.481 140.244C117.471 138.005 120.758 135.419 123.456 132.615C115.973 130.786 109.736 127.38 104.826 123.73C104.276 127.882 104.278 132.414 105.051 137.325C105.118 137.757 104.965 138.174 104.675 138.456C103.898 137.947 103.148 137.402 102.425 136.821C101.669 131.416 101.795 126.454 102.538 121.937C96.5797 117.018 92.9998 112.047 91.9937 110.174C91.9582 110.108 91.9255 110.045 91.895 109.983C92.0074 109.188 92.1515 108.403 92.3259 107.631ZM113.254 102.988C109.82 107.717 106.731 113.687 105.292 120.903C110.389 124.877 117.135 128.676 125.407 130.431C130.214 124.622 132.783 118.075 134.021 111.823C125.222 110.174 118.315 106.589 113.254 102.988ZM93.0754 110.065C93.0166 110.075 92.9567 110.081 92.8962 110.083C92.8357 110.084 92.7744 110.081 92.7126 110.073C92.8441 110.09 92.9647 110.086 93.0754 110.065Z" fill="#4644AB"/>
</g>
<g id="GIRL">
<g id="Group_11">
<path id="Vector_23" fill-rule="evenodd" clip-rule="evenodd" d="M23.0106 168.735C23.0106 168.735 -18.7593 135.115 10.2549 95.2936C13.3431 91.0556 32.0819 66.3527 58.7105 49.6092C59.7502 48.9533 61.0886 49.0623 62.0129 49.8778C62.6022 50.4108 62.9853 51.2246 62.6053 52.4741C62.6053 52.4741 66.7264 51.5603 66.4424 55.5878C66.4424 55.5878 71.268 54.2714 71.4357 59.3284C71.4357 59.3284 79.4138 49.3833 82.8895 45.0504C83.8006 43.9149 85.393 43.6322 86.6281 44.387L86.6285 44.3872C87.189 44.7298 87.5925 45.2848 87.7503 45.9302C87.9081 46.5756 87.807 47.2584 87.4694 47.8279C72.6388 72.8146 56.8738 95.7387 41.0615 118.559C41.0615 118.559 54.105 131.982 60.8264 136.814C63.5557 138.773 90.8294 156.109 94.7734 165.602C94.7734 165.602 95.1059 163.427 95.4849 160.95C96.1412 156.654 99.2537 153.175 103.392 152.102C106.199 151.376 108.804 150.7 108.804 150.7C108.804 150.7 113.459 149.893 117.423 149.925C120.02 149.944 122.314 151.643 123.133 154.148C123.509 155.304 123.352 156.571 122.7 157.592C122.333 158.172 122.007 158.68 122.007 158.68C122.007 158.68 122.942 159.003 123.81 159.302C124.734 159.621 125.48 160.324 125.864 161.236C126.612 163.014 126.291 165.072 125.036 166.528C124.646 166.983 124.356 167.318 124.356 167.318H124.639C126.118 167.318 127.448 168.233 128.001 169.631C128.759 171.55 128.146 173.747 126.511 174.975C126.106 175.279 125.824 175.493 125.824 175.493C126.337 175.315 126.816 175.674 127.152 176.497C127.818 178.123 127.207 180.002 125.757 180.966C123.497 182.468 120.514 184.451 120.514 184.451C119.843 198.477 118.177 213.605 110.352 231.636C107.991 237.057 103.346 241.099 97.7159 242.631C97.7117 242.635 97.7075 242.635 97.7033 242.637C85.918 245.843 73.5671 240.007 68.3747 228.778C65.8819 223.382 63.2196 216.732 60.8264 208.899C60.8264 208.899 50.9191 210.216 41.0615 205.138C29.2192 199.039 17.4486 185.212 23.0106 168.735Z" fill="url(#paint1_linear_252_5276)"/>
<path id="Vector_24" fill-rule="evenodd" clip-rule="evenodd" d="M5.19849 145.832C6.44256 141.947 10.7849 133.221 24.5741 134.042C24.5741 134.042 29.4649 119.535 44.9291 122.453C49.3155 126.805 56.4258 133.651 60.8263 136.814C63.5556 138.773 90.8293 156.109 94.7733 165.602L94.8189 165.305C97.3642 172.905 101.987 189.215 99.6633 206.865C99.6633 206.865 90.5068 213.094 81.601 205.268C81.601 205.268 73.1704 216.646 60.9778 209.391C60.9269 209.226 60.8765 209.064 60.8263 208.899C60.8263 208.899 50.919 210.216 41.0614 205.138C29.2191 199.039 17.4485 185.212 23.0105 168.735C23.0105 168.735 11.9838 159.86 5.19849 145.832ZM63.168 133.031L66.7561 135.303C65.4621 134.702 64.2571 133.937 63.168 133.031Z" fill="#FD9500"/>
<path id="Vector_25" fill-rule="evenodd" clip-rule="evenodd" d="M98.4091 202.76L96.3734 226.148C96.3325 226.618 96.6745 227.035 97.1364 227.075C97.5984 227.118 98.0058 226.77 98.0478 226.3L100.081 202.911C100.123 202.441 99.7809 202.025 99.3187 201.984C98.8566 201.941 98.449 202.29 98.4091 202.76Z" fill="#FD9500"/>
<path id="Vector_26" fill-rule="evenodd" clip-rule="evenodd" d="M54.7805 208.933C54.0643 200.376 55.9769 193.418 57.2556 189.87C57.3581 189.622 57.6174 189.486 57.8753 189.539C58.1331 189.593 58.3184 189.823 58.318 190.09C58.5656 197.047 60.3658 206.418 60.946 209.288C60.9059 209.157 60.866 209.029 60.8263 208.899C60.8263 208.899 58.4114 209.219 54.7805 208.933ZM17.188 163.131C20.2289 159.293 23.2351 156.389 26.0337 154.19C30.3434 150.803 34.1608 149.089 36.8523 148.212C37.1636 148.142 37.4806 148.309 37.6054 148.606C37.7302 148.905 37.6272 149.251 37.3609 149.431C29.2181 155.098 24.5741 164.914 23.0027 168.728C22.8487 168.602 20.4173 166.617 17.188 163.131Z" fill="#C93400"/>
<path id="Vector_27" fill-rule="evenodd" clip-rule="evenodd" d="M125.841 175.486C126.349 175.324 126.82 175.685 127.152 176.497C127.171 176.542 127.188 176.587 127.204 176.632C125.652 177.619 122.276 179.568 119.192 180.002C118.732 180.066 118.308 179.739 118.245 179.273C118.18 178.805 118.501 178.373 118.961 178.309C121.516 177.95 124.28 176.448 125.841 175.486ZM124.358 167.318H124.639C125.324 167.318 125.978 167.515 126.536 167.865C125.61 168.554 121.919 171.169 118.051 172.105C117.6 172.214 117.148 171.93 117.039 171.471C116.932 171.013 117.211 170.552 117.663 170.443C120.303 169.802 122.854 168.314 124.358 167.318ZM122.018 158.685L123.69 159.262C122.15 161.285 119.261 164.294 115.238 165.115C114.785 165.209 114.341 164.908 114.249 164.446C114.159 163.982 114.453 163.531 114.909 163.44C118.18 162.771 120.595 160.454 122.018 158.685Z" fill="#FD9500"/>
<path id="Vector_28" fill-rule="evenodd" clip-rule="evenodd" d="M110.774 153.049C110.774 153.049 107.907 153.692 104.884 153.254C104.424 153.188 103.999 153.515 103.932 153.981C103.867 154.449 104.189 154.881 104.646 154.947C107.976 155.43 111.136 154.72 111.136 154.72C111.587 154.618 111.875 154.16 111.774 153.701C111.676 153.239 111.226 152.949 110.774 153.049Z" fill="#FD9500"/>
<path id="Vector_29" fill-rule="evenodd" clip-rule="evenodd" d="M70.9714 57.2196C71.2346 57.7551 71.4063 58.4443 71.4357 59.3282L72.7039 57.7472C72.6793 57.7927 72.6499 57.8365 72.6163 57.8782L69.4721 61.7514C69.1767 62.1152 68.6467 62.1667 68.2891 61.8662C67.9316 61.5657 67.881 61.0265 68.1763 60.6628L70.9714 57.2196ZM66.0169 53.481C66.3298 53.958 66.5092 54.6331 66.4426 55.5843L64.4932 57.8547C64.1882 58.2101 63.6569 58.2466 63.3076 57.9363C62.9582 57.626 62.9223 57.0856 63.2273 56.7302L66.0169 53.481ZM62.4013 50.3232C62.7442 50.8364 62.892 51.5311 62.6053 52.474H62.6055C61.5534 53.4829 60.34 54.6536 60.34 54.6536C60.0035 54.9782 59.4711 54.9639 59.152 54.6215C58.8329 54.2792 58.847 53.7376 59.1836 53.413C59.1836 53.413 61.3322 51.3405 62.4013 50.3232Z" fill="#FD9500"/>
<path id="Vector_30" fill-rule="evenodd" clip-rule="evenodd" d="M41.0615 118.559C41.0615 118.559 35.5159 112.988 32.2313 109.689C32.0057 109.462 31.9714 109.108 32.1494 108.843C32.3271 108.577 32.6679 108.474 32.9632 108.596C37.298 110.39 44.6521 113.435 44.6521 113.435L41.0615 118.559Z" fill="#FD9500"/>
</g>
<g id="Group_12">
<g id="Group_13">
<g id="Group_14">
<path id="Vector_31" fill-rule="evenodd" clip-rule="evenodd" d="M108.067 155.056L109.342 145.542C107.304 144.824 105.308 143.888 103.382 142.721C101.788 141.757 101.262 139.656 102.21 138.034C103.159 136.413 105.224 135.88 106.817 136.844C118.948 144.185 134.655 140.123 141.871 127.783C149.085 115.442 145.093 99.4635 132.961 92.1235C131.367 91.1588 130.841 89.0587 131.791 87.437C132.738 85.815 134.803 85.2812 136.398 86.2459C151.718 95.5152 156.758 115.693 147.648 131.278C140.894 142.831 128.25 148.637 115.919 147.094L115.09 153.283C113.569 154.016 111.048 154.964 108.067 155.056Z" fill="#C93400"/>
</g>
<g id="Group_15">
<path id="Vector_32" fill-rule="evenodd" clip-rule="evenodd" d="M106.819 136.845C94.6873 129.505 90.6951 113.526 97.9099 101.185C105.125 88.8441 120.832 84.7837 132.964 92.1237C134.558 93.0883 136.623 92.5546 137.571 90.9327C138.519 89.3107 137.994 87.2106 136.4 86.246C121.079 76.9769 101.243 82.1043 92.1319 97.6893C83.0207 113.274 88.0624 133.453 103.383 142.723C104.978 143.687 107.042 143.153 107.99 141.532C108.939 139.91 108.414 137.81 106.819 136.845Z" fill="#C93400"/>
</g>
</g>
</g>
<g id="Group_16">
<path id="Vector_33" d="M73.6033 136.813C82.7295 136.813 90.1278 129.287 90.1278 120.003C90.1278 110.719 82.7295 103.193 73.6033 103.193C64.4771 103.193 57.0789 110.719 57.0789 120.003C57.0789 129.287 64.4771 136.813 73.6033 136.813Z" fill="#FFBB22"/>
<path id="Vector_34" fill-rule="evenodd" clip-rule="evenodd" d="M67.8575 126.643C64.8767 127.166 61.7045 127.24 58.4143 126.63C57.5551 124.597 57.0789 122.356 57.0789 120.003C57.0789 110.726 64.4832 103.193 73.6033 103.193C80.873 103.193 87.0527 107.979 89.2606 114.619C88.5682 117.78 83.3685 124.093 72.6874 125.38C73.033 124.481 73.0611 123.388 72.6893 122.326C71.9595 120.241 69.9637 119.057 68.2354 119.683C66.5071 120.309 65.6964 122.51 66.4262 124.595C66.7256 125.45 67.238 126.154 67.8575 126.643Z" fill="black"/>
<g id="Group_17">
<path id="Vector_35" d="M79.3003 102.013C85.5243 102.013 90.5698 96.8807 90.5698 90.5492C90.5698 84.2177 85.5243 79.085 79.3003 79.085C73.0763 79.085 68.0308 84.2177 68.0308 90.5492C68.0308 96.8807 73.0763 102.013 79.3003 102.013Z" fill="black"/>
</g>
</g>
</g>
<g id="PIE-CHART">
<g id="Group_18">
<path id="Vector_36" fill-rule="evenodd" clip-rule="evenodd" d="M198.833 54.1561C192.751 65.8785 180.645 73.8729 166.717 73.8729C146.679 73.8729 130.409 57.3226 130.409 36.937C130.409 24.532 136.434 13.5472 145.673 6.85645L166.717 36.937L198.833 54.1561Z" fill="#C93400"/>
</g>
<path id="Vector_37" fill-rule="evenodd" clip-rule="evenodd" d="M166.717 36.9356L145.674 6.85499C150.942 3.023 157.264 0.596995 164.108 0.105469L166.717 36.9356Z" fill="#FFBB22"/>
<path id="Vector_38" fill-rule="evenodd" clip-rule="evenodd" d="M165.053 0.0427375L166.717 0C176.925 0 186.156 4.29445 192.75 11.2102L166.717 36.9357L164.108 0.105569L164.599 0.0673183L165.053 0.0427375Z" fill="#A8CFCC"/>
<g id="Group_19">
<path id="Vector_39" fill-rule="evenodd" clip-rule="evenodd" d="M202.563 9.04785C208.924 15.6941 212.84 24.7722 212.84 34.7733C212.84 40.9909 211.325 46.8518 208.647 51.9923L176.53 34.7733L202.563 9.04785Z" fill="#DA0F47" fill-opacity="0.6"/>
</g>
</g>
</g>
</g>
<defs>
<linearGradient id="paint0_linear_252_5276" x1="265.767" y1="189.977" x2="356.582" y2="261.32" gradientUnits="userSpaceOnUse">
<stop stop-color="#82B5B2"/>
<stop offset="0.57" stop-color="#9AC1BB"/>
<stop offset="0.8" stop-color="#CED9CF"/>
<stop offset="1" stop-color="#FFF1E2"/>
</linearGradient>
<linearGradient id="paint1_linear_252_5276" x1="66.6711" y1="201.441" x2="-14.9467" y2="222.276" gradientUnits="userSpaceOnUse">
<stop stop-color="#FFBB22"/>
<stop offset="0.47" stop-color="#FEB019"/>
<stop offset="1" stop-color="#FD9500"/>
</linearGradient>
</defs>
</svg>
