<svg width="96" height="96" viewBox="0 0 96 96" fill="none" xmlns="http://www.w3.org/2000/svg">
<path d="M48 96C74.5097 96 96 74.5097 96 48C96 21.4903 74.5097 0 48 0C21.4903 0 0 21.4903 0 48C0 74.5097 21.4903 96 48 96Z" fill="#FFCF84"/>
<path fill-rule="evenodd" clip-rule="evenodd" d="M47.9978 10.5648C68.6605 10.5648 85.4375 27.3411 85.4375 48.0048C85.4375 68.6685 68.6605 85.4448 47.9978 85.4448C47.1584 85.4448 46.4771 86.1262 46.4771 86.9655C46.4771 87.8049 47.1584 88.4862 47.9978 88.4862C70.3392 88.4862 88.4789 70.3472 88.4789 48.0048C88.4789 25.6624 70.3392 7.52344 47.9978 7.52344C47.1584 7.52344 46.4771 8.20479 46.4771 9.04413C46.4771 9.88348 47.1584 10.5648 47.9978 10.5648Z" fill="#936A36"/>
<path fill-rule="evenodd" clip-rule="evenodd" d="M47.9946 85.4448C27.3294 85.4448 10.5524 68.6685 10.5524 48.0048C10.5524 27.3411 27.3294 10.5648 47.9946 10.5648C48.8339 10.5648 49.5153 9.88348 49.5153 9.04413C49.5153 8.20479 48.8339 7.52344 47.9946 7.52344C25.6507 7.52344 7.51343 25.6624 7.51343 48.0048C7.51343 70.3472 25.6507 88.4862 47.9946 88.4862C48.8339 88.4862 49.5153 87.8049 49.5153 86.9655C49.5153 86.1262 48.8339 85.4448 47.9946 85.4448Z" fill="#936A36"/>
<path fill-rule="evenodd" clip-rule="evenodd" d="M53.7749 95.6568L52.7925 87.7488C52.6891 86.9157 53.2822 86.1557 54.1156 86.052C54.9489 85.9486 55.7062 86.5407 55.8127 87.3738L56.7829 95.1978C55.7914 95.3818 54.7877 95.5351 53.7749 95.6568ZM62.7502 93.6875L60.0311 85.6633C59.7635 84.8683 60.1893 84.0042 60.9861 83.735C61.7799 83.4655 62.6437 83.8923 62.9114 84.687L65.6152 92.6601C64.6754 93.0317 63.7204 93.3745 62.7502 93.6875ZM21.5358 88.0462L25.7634 81.0945C26.1984 80.3773 27.1351 80.1492 27.8529 80.5853C28.5707 81.0215 28.7987 81.9576 28.3638 82.6748L24.1241 89.6451C23.2421 89.1387 22.3783 88.6049 21.5358 88.0462ZM87.4891 75.275L80.5029 70.1052C79.8308 69.6058 79.6878 68.6529 80.1866 67.978C80.6854 67.3034 81.6374 67.1611 82.3126 67.6602L89.1436 72.7156C88.6205 73.5873 88.0669 74.441 87.4891 75.275ZM2.37793 62.963L10.5867 59.2686C11.3501 58.924 12.2534 59.2659 12.5971 60.0311C12.9408 60.7966 12.6001 61.6975 11.8337 62.0421L3.42115 65.829C3.04402 64.8883 2.69424 63.9329 2.37793 62.963ZM94.5726 36.3594C94.8159 37.3394 95.0318 38.3309 95.2143 39.333L87.1211 41.2415C86.306 41.4343 85.4848 40.9273 85.2932 40.1107C85.0985 39.2938 85.6064 38.4741 86.4215 38.2813L94.5726 36.3594ZM8.33302 20.9723L15.5655 25.7029C16.2681 26.1625 16.4658 27.1056 16.0065 27.8082C15.5473 28.5104 14.6045 28.7078 13.9019 28.2483L6.69978 23.5368C7.21682 22.6633 7.76427 21.8081 8.33302 20.9723ZM13.0533 15.1048L18.9354 19.4303C19.6106 19.9276 19.7566 20.8804 19.2578 21.5562C18.7621 22.2323 17.8071 22.3774 17.1319 21.8801L11.0338 17.3928C11.6816 16.6091 12.3568 15.846 13.0533 15.1048ZM75.7401 8.83792C76.5673 9.42552 77.3764 10.0384 78.1641 10.6768L72.9055 17.3068C72.3823 17.9643 71.4243 18.0744 70.7673 17.5528C70.1104 17.0312 70.0009 16.0738 70.521 15.4162L75.7401 8.83792ZM67.5952 4.17847C68.5228 4.59484 69.4352 5.0401 70.3294 5.51122L66.6219 12.4654C66.2265 13.206 65.3049 13.4864 64.5628 13.0917C63.8238 12.6966 63.544 11.7747 63.9394 11.0341L67.5952 4.17847ZM37.2326 1.21582L39.3738 8.84978C39.5989 9.65789 39.1274 10.4979 38.3184 10.7245C37.5094 10.9514 36.67 10.4794 36.4449 9.67097L34.2916 1.99047C35.2588 1.70214 36.2381 1.44362 37.2326 1.21582Z" fill="#936A36"/>
<path d="M42.0412 56V54.4659L47.8026 48.1591C48.4787 47.4205 49.0355 46.7784 49.473 46.233C49.9105 45.6818 50.2344 45.1648 50.4446 44.6818C50.6605 44.1932 50.7685 43.6818 50.7685 43.1477C50.7685 42.5341 50.6207 42.0028 50.3253 41.554C50.0355 41.1051 49.6378 40.7585 49.1321 40.5142C48.6264 40.2699 48.0582 40.1477 47.4276 40.1477C46.7571 40.1477 46.1719 40.2869 45.6719 40.5653C45.1776 40.8381 44.794 41.2216 44.5213 41.7159C44.2543 42.2102 44.1207 42.7898 44.1207 43.4545H42.1094C42.1094 42.4318 42.3452 41.5341 42.8168 40.7614C43.2884 39.9886 43.9304 39.3864 44.7429 38.9545C45.5611 38.5227 46.4787 38.3068 47.4957 38.3068C48.5185 38.3068 49.4247 38.5227 50.2145 38.9545C51.0043 39.3864 51.6236 39.9687 52.0724 40.7017C52.5213 41.4347 52.7457 42.25 52.7457 43.1477C52.7457 43.7898 52.6293 44.4176 52.3963 45.0312C52.169 45.6392 51.7713 46.3182 51.2031 47.0682C50.6406 47.8125 49.8594 48.7216 48.8594 49.7955L44.9389 53.9886V54.125H53.0526V56H42.0412Z" fill="#936A36"/>
</svg>
