<svg width="329" height="250" viewBox="0 0 329 250" fill="none" xmlns="http://www.w3.org/2000/svg">
<g id="Group">
<g id="_5---RECRUITING">
<g id="CV-2">
<path id="Vector" d="M221.621 5.01465H104.979V162.245H221.621V5.01465Z" fill="#B5D6D4"/>
<g id="Group_2">
<g id="Group_3">
<path id="Vector_2" d="M188.841 57.3975C201.075 57.3975 210.993 47.4911 210.993 35.271C210.993 23.0509 201.075 13.1445 188.841 13.1445C176.607 13.1445 166.689 23.0509 166.689 35.271C166.689 47.4911 176.607 57.3975 188.841 57.3975Z" fill="white"/>
</g>
<g id="Group_4">
<path id="Vector_3" fill-rule="evenodd" clip-rule="evenodd" d="M170.688 47.9493C176.145 44.0378 191.25 35.5876 207.138 47.7357C203.149 53.5651 196.438 57.3948 188.839 57.3948C181.336 57.3948 174.698 53.6595 170.688 47.9493Z" fill="#EC7954"/>
</g>
<g id="Group_5">
<g id="Group_6">
<path id="Vector_4" d="M189.502 37.21C193.827 37.21 197.334 33.7074 197.334 29.3867C197.334 25.0661 193.827 21.5635 189.502 21.5635C185.176 21.5635 181.669 25.0661 181.669 29.3867C181.669 33.7074 185.176 37.21 189.502 37.21Z" fill="#EC7954"/>
</g>
<g id="Group_7">
<path id="Vector_5" d="M202.936 36.4841C206.082 36.4841 208.633 33.9362 208.633 30.7933C208.633 27.6504 206.082 25.1025 202.936 25.1025C199.789 25.1025 197.238 27.6504 197.238 30.7933C197.238 33.9362 199.789 36.4841 202.936 36.4841Z" fill="black"/>
</g>
<path id="Vector_6" fill-rule="evenodd" clip-rule="evenodd" d="M181.672 29.6691C181.67 29.5757 181.668 29.4815 181.668 29.3869C181.668 25.069 185.177 21.5635 189.501 21.5635C193.823 21.5635 197.332 25.069 197.332 29.3869C197.332 29.6428 197.321 29.896 197.296 30.1457C191.433 29.3652 189.817 24.2118 189.817 24.2118C187.908 28.7831 184.103 29.6339 181.672 29.6691Z" fill="black"/>
</g>
</g>
<path id="Vector_7" fill-rule="evenodd" clip-rule="evenodd" d="M151.951 42.2943H114.278V48.0043H151.951V42.2943ZM158.375 30.2637H114.278V35.9737H158.375V30.2637ZM149.131 18.2812H114.278V23.9914H149.131V18.2812Z" fill="#C93400"/>
<path id="Vector_8" fill-rule="evenodd" clip-rule="evenodd" d="M188.98 99.0459H130.399V103.787H188.98V99.0459ZM188.98 89.5656H130.399V94.3067H188.98V89.5656ZM188.98 79.7012H130.399V84.4423H188.98V79.7012Z" fill="#C93400"/>
<path id="Vector_9" fill-rule="evenodd" clip-rule="evenodd" d="M188.98 146.035H130.399V150.776H188.98V146.035ZM188.98 136.556H130.399V141.296H188.98V136.556ZM188.98 126.691H130.399V131.432H188.98V126.691Z" fill="#C93400"/>
<g id="Group_8">
<path id="Vector_10" d="M205.749 63.8145H114.119V72.3441H205.749V63.8145Z" fill="#C93400"/>
</g>
<g id="Group_9">
<path id="Vector_11" d="M205.749 111.758H114.119V120.287H205.749V111.758Z" fill="#C93400"/>
</g>
</g>
<g id="CHARACTER">
<g id="Group_10">
<path id="Vector_12" fill-rule="evenodd" clip-rule="evenodd" d="M153.06 163.226C153.06 163.226 119.095 227.761 111.71 243.861C111.71 243.861 103.452 244.728 99.7036 250.002H156.633L170.376 226.091C170.376 226.091 180.564 239.502 189.751 243.861C189.751 243.861 184.435 246.991 183.766 250.002H236.071L198.737 191.81C198.737 191.81 225.499 141.683 198.737 127.131C191.196 123.031 172.669 123.823 153.06 163.226Z" fill="url(#paint0_linear_252_5347)"/>
<path id="Vector_13" fill-rule="evenodd" clip-rule="evenodd" d="M166.774 141.162L156.954 163.465C149.65 180.058 151.523 199.253 161.898 214.127L161.951 214.202L202.511 197.691L203.311 198.941L162.808 215.43C167.267 221.808 171.395 227.505 173.543 229.924C173.581 229.966 173.614 230.011 173.643 230.059C171.626 227.735 170.376 226.09 170.376 226.09L169.433 227.729C166.989 224.524 163.753 219.986 160.397 215.169C157.397 210.867 155.083 206.214 153.471 201.367L133.942 199.843L134.269 199.213L134.673 198.436L152.996 199.867C149.366 187.779 150.052 174.611 155.282 162.731L161.762 148.009C163.455 145.472 165.127 143.197 166.774 141.162ZM199.334 192.742L199.327 192.759C199.327 192.759 196.133 187.706 194.265 184.752C194.077 184.457 194.102 184.075 194.325 183.805C194.548 183.535 194.919 183.44 195.244 183.568L201.515 186.016C199.906 189.617 198.737 191.809 198.737 191.809L199.334 192.742Z" fill="#DA0F47"/>
</g>
<g id="Group_11">
<g id="Group_12">
<path id="Vector_14" fill-rule="evenodd" clip-rule="evenodd" d="M249.01 35.6186C251.13 33.7711 254.16 30.3791 254.761 28.612C255.637 26.0424 253.802 25.6921 252.817 26.4602C248.718 29.6576 243.109 32.1291 243.109 32.1291C232.562 36.7143 206.535 64.942 206.535 64.942C191.239 79.8682 167.053 80.9105 160.344 80.8983C158.047 80.8879 155.776 81.3924 153.699 82.3749C146.578 85.7591 142.268 92.8574 142.268 92.8574C142.268 92.8574 139.551 89.949 137.171 88.6272C136.179 88.0796 134.945 88.2517 134.141 89.0496C131.848 88.623 129.58 89.9033 128.763 92.0854C128.58 92.5772 128.429 93.028 128.354 93.373C128.354 93.373 126.223 94.2264 126.113 96.5304C126.113 96.5304 123.602 97.5723 123.591 100.022C123.591 100.022 119.861 103.857 123.591 107.603C123.591 107.603 126.133 109.095 126.749 105.827C126.749 105.827 127.663 135.487 128.111 150.023C128.266 155.015 130.53 159.708 134.346 162.937C139.046 166.917 145.805 167.34 150.967 163.98C151.313 163.755 151.645 163.54 151.961 163.333C154.253 161.842 156.221 159.903 157.746 157.633C160.269 153.869 163.5 147.675 163.807 140.271V124.883C163.807 124.883 175.738 129.642 184.175 111.481C184.175 111.481 189.826 112.432 197.49 110.58C202.076 109.473 207.383 107.362 212.633 103.446C216.303 100.715 219.466 97.3626 221.977 93.5401C226.886 86.0742 239.54 66.8059 243.109 61.2628C243.109 61.2628 247.458 54.8949 251.192 51.6858C251.192 51.6858 254.838 55.1946 257.831 47.7988C257.831 47.7988 259.27 44.3107 255.32 42.7109C255.32 42.7109 255.611 38.8137 251.865 38.7612C252.237 36.099 250.927 35.4959 249.01 35.6186Z" fill="#FFCCC5"/>
<g id="Group_13">
<path id="Vector_15" fill-rule="evenodd" clip-rule="evenodd" d="M219.277 51.8154C223.069 54.0596 230.375 59.1546 238.237 68.7525C232.959 76.827 225.489 88.2011 221.978 93.5401C219.467 97.3626 216.303 100.715 212.634 103.446C207.383 107.362 202.076 109.473 197.491 110.58C189.826 112.432 184.176 111.481 184.176 111.481C175.738 129.642 163.808 124.883 163.808 124.883V140.271C163.501 147.675 160.27 153.869 157.746 157.633C156.222 159.903 154.254 161.842 151.962 163.333C151.646 163.54 151.313 163.755 150.968 163.98C145.805 167.34 139.047 166.917 134.347 162.937C130.531 159.708 128.266 155.015 128.111 150.023L127.192 120.19H139.657C139.425 117.031 139.619 100.583 140.924 96.3813C141.434 94.7364 141.944 93.5214 142.499 92.4985C143.479 91.0152 147.536 85.3039 153.7 82.3749C155.776 81.3924 158.048 80.8879 160.345 80.8983C167.054 80.9105 191.239 79.8682 206.535 64.942C206.535 64.942 212.181 58.8202 219.277 51.8154Z" fill="#DA0F47"/>
<path id="Vector_16" fill-rule="evenodd" clip-rule="evenodd" d="M139.625 119.581H139.671V148.55C139.671 148.763 139.505 148.938 139.291 148.947C139.079 148.957 138.896 148.798 138.878 148.586L136.319 120.19H139.658C139.645 120.023 139.634 119.819 139.625 119.581ZM163.809 125.75L162.742 102.826C162.736 102.685 162.833 102.562 162.972 102.536C163.109 102.51 163.246 102.59 163.29 102.723C164.386 106.291 166.636 114.444 168.087 125.427C165.512 125.562 163.809 124.883 163.809 124.883V125.75ZM183.827 112.215C184.621 110.156 187.331 101.659 182.274 92.4551C182.161 92.2508 182.217 91.9945 182.406 91.8565C182.594 91.7183 182.855 91.7417 183.018 91.9109C185.43 94.4619 189.259 100.06 192.028 111.518C187.289 112.005 184.177 111.481 184.177 111.481C184.061 111.73 183.944 111.975 183.827 112.215Z" fill="#B44335"/>
</g>
<path id="Vector_17" fill-rule="evenodd" clip-rule="evenodd" d="M126.929 105.034C126.814 105.729 126.576 106.5 126.576 106.5L124.396 105.333C124.038 105.149 123.897 104.708 124.082 104.35C124.268 103.991 124.708 103.851 125.067 104.036L126.929 105.034ZM124.155 98.1679C124.411 98.1084 124.694 98.0746 125.004 98.0817C126.397 98.1138 128.491 99.0119 130.99 102.857C131.211 103.195 131.114 103.647 130.776 103.867C130.438 104.086 129.984 103.99 129.763 103.652C127.704 100.481 126.119 99.5681 124.97 99.5416C124.08 99.521 123.581 100.095 123.581 100.095L123.592 100.022C123.595 99.2775 123.829 98.6629 124.155 98.1679ZM126.609 94.8918C126.889 94.8564 127.207 94.8506 127.563 94.8942C128.873 95.0548 130.849 95.9352 133.354 99.0346C133.608 99.3482 133.559 99.8083 133.245 100.061C132.93 100.315 132.47 100.265 132.218 99.952C128.159 94.9322 126.114 96.531 126.114 96.531C126.145 95.8701 126.342 95.3285 126.609 94.8918ZM128.917 91.7209C129.222 91.6824 129.568 91.6676 129.95 91.6958C131.361 91.7991 133.342 92.4907 135.527 94.9911C135.792 95.2945 135.761 95.7562 135.458 96.0214C135.154 96.2864 134.692 96.2552 134.427 95.9517C131.415 92.5081 128.994 93.1126 128.356 93.3587C128.435 93.0157 128.583 92.5707 128.764 92.086C128.809 91.9615 128.862 91.8398 128.917 91.7209ZM135.557 88.3389C136.556 88.9933 137.93 90.135 139.179 92.0061C139.402 92.3416 139.31 92.7952 138.976 93.0186C138.64 93.242 138.185 93.1511 137.962 92.8156C136.207 90.1845 134.003 89.0243 134.142 89.0502C134.537 88.6587 135.034 88.4179 135.557 88.3389ZM251.193 51.6865C250.785 52.0369 254.681 47.6861 254.681 47.6861C255.445 47.0534 256.308 47.9506 255.758 48.6746L252.362 52.3628C251.644 52.122 251.193 51.6865 251.193 51.6865ZM255.18 41.3211C255.369 42.0796 255.321 42.7115 255.321 42.7115C255.405 42.7453 253.888 42.977 253.082 43.4017C251.575 44.1963 250.339 45.4168 250.339 45.4168C250.052 45.7001 249.588 45.6973 249.305 45.4106C249.022 45.124 249.025 44.6612 249.312 44.3779C249.312 44.3779 250.703 43.0047 252.401 42.1103C253.291 41.6408 254.263 41.3184 255.18 41.3211ZM251.867 37.2321C251.947 37.6404 251.951 38.1406 251.867 38.7484C250.962 39.031 249.215 39.7911 246.988 41.7972C246.688 42.0672 246.226 42.0433 245.955 41.7439C245.685 41.4445 245.708 40.9825 246.008 40.7127C248.76 38.2344 250.9 37.4667 251.867 37.2321ZM250.813 33.8975C250.189 34.54 249.57 35.1331 249.011 35.6192C249.097 35.6137 245.443 36.9941 243.512 38.2395C243.172 38.458 242.72 38.3605 242.501 38.0219C242.282 37.6833 242.379 37.2312 242.719 37.0125C245.487 35.2282 248.398 34.0411 250.813 33.8975Z" fill="#DA0F47"/>
</g>
<g id="Group_14">
<g id="Group_15">
<path id="Vector_18" d="M160.662 73.3239C166.492 73.3239 171.219 68.6028 171.219 62.7791C171.219 56.9554 166.492 52.2344 160.662 52.2344C154.831 52.2344 150.105 56.9554 150.105 62.7791C150.105 68.6028 154.831 73.3239 160.662 73.3239Z" fill="#FFCCC5"/>
</g>
<path id="Vector_19" fill-rule="evenodd" clip-rule="evenodd" d="M163 52.4941C167.704 53.5589 171.219 57.7619 171.219 62.7786C171.219 68.5983 166.487 73.3233 160.661 73.3233C160.491 73.3233 160.319 73.3191 160.151 73.3111C158.444 69.4675 161.059 67.8992 161.761 67.5586C162.192 67.9196 162.75 68.1372 163.358 68.1372C164.727 68.1372 165.838 67.0378 165.838 65.6835C165.838 64.3294 164.727 63.23 163.358 63.23C162.808 63.23 162.298 63.4087 161.885 63.7108C157.938 58.3372 161.213 54.1748 163 52.4941Z" fill="black"/>
<path id="Vector_20" fill-rule="evenodd" clip-rule="evenodd" d="M173.567 64.3635C173.457 64.3332 174.274 63.9001 174.484 63.7615C175.066 63.3793 175.638 62.9735 176.177 62.5334C177.807 61.199 178.836 59.5947 179.967 57.8507C183.808 51.9273 189.991 45.9387 197.443 45.646C210.625 45.1279 217.932 60.0324 216.013 71.4692C214.558 80.144 205.349 84.688 197.116 83.4763C192.226 82.7562 187.505 79.9434 184.223 76.2884C182.295 74.141 180.84 71.6226 179.252 69.2264C177.823 67.0669 176.317 64.6749 173.567 64.3635Z" fill="black"/>
</g>
</g>
</g>
</g>
</g>
<defs>
<linearGradient id="paint0_linear_252_5347" x1="161.424" y1="170.683" x2="155.222" y2="306.004" gradientUnits="userSpaceOnUse">
<stop stop-color="#FFCCC5"/>
<stop offset="1" stop-color="#F49387"/>
</linearGradient>
</defs>
</svg>
