<svg width="181" height="207" viewBox="0 0 181 207" fill="none" xmlns="http://www.w3.org/2000/svg">
<path d="M180.971 0.793457H92.886V126.827H180.971V0.793457Z" fill="#FFD593"/>
<path d="M156.216 42.7805C165.455 42.7805 172.945 34.8397 172.945 25.0443C172.945 15.2489 165.455 7.30811 156.216 7.30811C146.977 7.30811 139.487 15.2489 139.487 25.0443C139.487 34.8397 146.977 42.7805 156.216 42.7805Z" fill="white"/>
<path d="M156.281 28.4975C159.499 28.4975 162.107 25.7321 162.107 22.3208C162.107 18.9095 159.499 16.144 156.281 16.144C153.064 16.144 150.455 18.9095 150.455 22.3208C150.455 25.7321 153.064 28.4975 156.281 28.4975Z" fill="#B5D6D4"/>
<path fill-rule="evenodd" clip-rule="evenodd" d="M141.907 34.2281C146.38 31.2539 156.347 27.0159 169.791 35.4059C166.752 39.871 161.803 42.78 156.217 42.78C150.154 42.78 144.839 39.3526 141.907 34.2281Z" fill="#B5D6D4"/>
<path fill-rule="evenodd" clip-rule="evenodd" d="M156.592 16.1527C159.489 16.3142 161.827 18.7228 162.085 21.7627C157.125 20.8242 156.605 17.445 156.592 16.1527ZM150.484 21.718C150.77 18.5911 153.259 16.144 156.282 16.144C156.371 16.144 156.46 16.1461 156.548 16.1503C155.884 19.959 152.308 21.285 150.484 21.718Z" fill="black"/>
<path fill-rule="evenodd" clip-rule="evenodd" d="M129.796 30.6756H99.9091V35.2527H129.796V30.6756ZM127.297 21.0321H99.9091V25.6092H127.297V21.0321ZM133.21 11.4272H99.9091V16.0044H133.21V11.4272Z" fill="#FDA527"/>
<path fill-rule="evenodd" clip-rule="evenodd" d="M156.046 77.7755H111.808V81.5758H156.046V77.7755ZM148.134 70.1762H111.808V73.9766H148.134V70.1762ZM156.046 62.269H111.808V66.0694H156.046V62.269Z" fill="#FDA527"/>
<path d="M156.046 86.4233H111.808V90.2237H156.046V86.4233Z" fill="#FDA527"/>
<path fill-rule="evenodd" clip-rule="evenodd" d="M157.947 117.819H113.709V121.619H157.947V117.819ZM148.113 109.912H113.709V113.712H148.113V109.912Z" fill="#FDA527"/>
<path d="M168.984 47.9253H99.7878V54.7625H168.984V47.9253Z" fill="#FDA527"/>
<path d="M170.503 98.7446H101.307V105.582H170.503V98.7446Z" fill="#FDA527"/>
<path fill-rule="evenodd" clip-rule="evenodd" d="M82.5042 77.4518C82.5042 77.4518 53.5619 74.0013 42.3545 96.2043C38.5831 103.675 10.6297 172.954 7.66648 200.258C7.66648 200.258 0.934941 202.517 0 206.185H39.6545C40.0747 206.185 40.4538 205.917 40.6158 205.505C43.5093 198.157 68.9006 133.672 68.9006 133.672C68.9006 133.672 72.1654 192.126 72.832 204.069C72.8988 205.258 73.8263 206.185 74.9477 206.185C82.465 206.185 108.649 206.185 108.649 206.185C108.649 206.185 107.72 202.332 100.919 200.258C100.919 200.258 104.597 109.327 94.3882 86.5606L82.5042 77.4518Z" fill="url(#paint0_linear_393_3748)"/>
<path fill-rule="evenodd" clip-rule="evenodd" d="M63.2783 147.949L66.8577 109.617C66.8821 109.35 67.0957 109.15 67.3483 109.156C67.5993 109.163 67.8031 109.376 67.8145 109.644L68.8348 133.838L63.2783 147.949Z" fill="#13524E"/>
<path fill-rule="evenodd" clip-rule="evenodd" d="M101.563 165.222C101.563 165.803 101.561 166.379 101.56 166.952H70.7585L70.6623 165.222H101.563ZM16.3627 165.222H56.4771L55.796 166.952H15.8157L15.8243 166.924C15.9972 166.374 16.1712 165.826 16.3459 165.275L16.3627 165.222Z" fill="#82B5B2"/>
<path d="M60.314 24.2073C66.1966 24.2073 70.9654 19.1454 70.9654 12.9012C70.9654 6.6571 66.1966 1.59521 60.314 1.59521C54.4314 1.59521 49.6626 6.6571 49.6626 12.9012C49.6626 19.1454 54.4314 24.2073 60.314 24.2073Z" fill="#A8CFCC"/>
<path fill-rule="evenodd" clip-rule="evenodd" d="M59.5264 1.62793C60.0643 3.93228 60.8418 9.74343 56.7949 14.8781C56.3659 14.1407 55.5896 13.6476 54.704 13.6476C53.3542 13.6476 52.2586 14.7926 52.2586 16.2027C52.2586 17.6129 53.3542 18.7579 54.704 18.7579C54.9374 18.7579 55.1633 18.7235 55.3773 18.6595C55.4078 19.55 55.1909 20.795 54.162 22.1323C51.44 20.0839 49.6617 16.7124 49.6617 12.9035C49.6617 6.94426 54.0145 2.05579 59.5264 1.62793Z" fill="black"/>
<path fill-rule="evenodd" clip-rule="evenodd" d="M51.5591 18.623C51.2563 18.8116 50.4936 18.7833 50.1468 18.8571C49.0091 19.0992 47.8779 19.38 46.7516 19.6755C43.2682 20.5892 39.8344 21.6887 36.5848 23.3219C34.2205 24.5101 31.7451 26.0143 30.6265 28.6476C29.0004 32.4753 31.8903 35.9108 35.6474 35.5513C39.2708 35.2046 42.1145 32.418 44.5288 29.7976C47.3535 26.7316 50.5789 23.4269 52.7446 19.7679" fill="black"/>
<path fill-rule="evenodd" clip-rule="evenodd" d="M39.1271 44.0391C37.3244 46.0778 21.4649 64.4821 9.54867 78.6807C5.55072 83.4832 5.18855 90.5732 8.67387 95.8069C8.67338 95.8086 8.67355 95.8086 8.67355 95.8086C11.7348 100.406 17.2755 102.324 22.3017 100.528C27.7479 98.5803 35.1859 94.0819 43.8417 84.0039C48.2387 78.8843 51.7341 74.2097 54.6185 71.3479C54.6185 71.3479 67.2725 75.6689 73.7809 68.2626C73.7809 68.2626 89.6697 89.812 105.047 98.402C111.128 101.758 118.621 99.5059 122.14 93.2618C123.778 90.3795 124.466 86.9088 122.622 83.1406C114.551 66.6357 101.876 54.1473 82.5044 34.3767C78.7441 30.5379 72.1689 25.0549 59.434 28.1838C54.6359 29.3627 48.7873 33.1138 39.1271 44.0391Z" fill="#A8CFCC"/>
<path fill-rule="evenodd" clip-rule="evenodd" d="M67.0048 57.6056C67.0048 57.6056 67.422 57.4914 67.9143 57.5386C68.3315 57.5786 68.8254 57.7352 69.0797 58.2926C69.4203 59.0423 68.9053 59.6611 68.1196 60.2935C66.5272 61.5762 63.722 62.698 61.238 63.7716C60.9038 63.9155 60.7441 64.3197 60.8794 64.6735C61.0147 65.0271 61.3961 65.1975 61.7286 65.0534C64.3251 63.9321 67.2444 62.7363 68.9085 61.3961C70.2973 60.2779 70.8563 59.0173 70.2532 57.691C69.761 56.6088 68.8417 56.2379 68.0316 56.16C67.2965 56.0896 66.6722 56.2675 66.6722 56.2675C66.3234 56.3651 66.1164 56.7441 66.2077 57.1133C66.3006 57.4827 66.6576 57.7033 67.0048 57.6056Z" fill="#82B5B2"/>
<path fill-rule="evenodd" clip-rule="evenodd" d="M72.0551 54.7764C72.0551 54.7764 72.831 53.9779 73.8872 53.3407C74.5473 52.943 75.3199 52.5973 76.0778 52.6014C76.3875 52.602 76.6793 52.7447 76.8798 52.9924C77.0802 53.24 77.1683 53.5681 77.121 53.8905C76.9938 54.6675 76.645 55.7224 75.7453 56.729C74.5082 58.114 71.377 62.2955 61.405 63.6358C61.048 63.6837 60.7954 64.0305 60.841 64.4094C60.8867 64.7883 61.2127 65.057 61.5696 65.009C72.0942 63.594 75.3851 59.1437 76.6923 57.6816C77.817 56.4238 78.2457 55.1028 78.4087 54.1146C78.5146 53.3793 78.3174 52.6457 77.8708 52.0917C77.4225 51.5377 76.7705 51.2184 76.0827 51.2173C75.1047 51.2121 74.0958 51.6232 73.2433 52.1371C72.0323 52.8672 71.1456 53.784 71.1456 53.784C70.8881 54.0502 70.8815 54.4888 71.1325 54.7627C71.3836 55.0364 71.7959 55.0426 72.0551 54.7764Z" fill="#82B5B2"/>
<path fill-rule="evenodd" clip-rule="evenodd" d="M73.7498 59.3122C73.7498 59.3122 72.0791 63.8385 70.4296 65.5879C70.1753 65.8579 70.1753 66.2965 70.4296 66.5666C70.6839 66.8368 71.0979 66.8368 71.3521 66.5668C73.1288 64.6814 74.9625 59.8222 74.9625 59.8222C75.0945 59.4672 74.9315 59.0646 74.5957 58.9238C74.2616 58.7831 73.8818 58.9572 73.7498 59.3122Z" fill="#82B5B2"/>
<path fill-rule="evenodd" clip-rule="evenodd" d="M68.7284 62.299V63.9279C68.7284 64.3099 69.0202 64.6199 69.3804 64.6199C69.739 64.6199 70.0324 64.3099 70.0324 63.9279V62.299C70.0324 61.9171 69.739 61.6069 69.3804 61.6069C69.0202 61.6069 68.7284 61.9171 68.7284 62.299Z" fill="#82B5B2"/>
<path fill-rule="evenodd" clip-rule="evenodd" d="M73.391 36.1447C73.391 36.1447 72.3478 36.6035 71.8572 37.8656C71.5557 38.6404 71.4448 39.7414 72.0153 41.2539C72.6738 42.9967 74.3673 48.1552 72.0658 52.126C71.8768 52.4513 71.9729 52.8778 72.2777 53.0781C72.5858 53.2783 72.9868 53.1767 73.1758 52.8515C75.7414 48.4277 73.9582 42.6807 73.2247 40.7389C72.8303 39.6906 72.8531 38.9309 73.0617 38.394C73.3372 37.689 73.9028 37.4174 73.9028 37.4174C74.2337 37.2672 74.3885 36.8601 74.2467 36.5089C74.1049 36.1578 73.7219 35.9945 73.391 36.1447Z" fill="#82B5B2"/>
<path fill-rule="evenodd" clip-rule="evenodd" d="M48.5001 78.4104C47.0677 80.1596 45.5204 82.0489 43.8417 84.0039C35.1859 94.0819 27.7479 98.5803 22.3017 100.528C17.2755 102.324 11.7348 100.406 8.67355 95.8086C8.67355 95.8086 8.67338 95.8086 8.67387 95.8069C5.18855 90.5732 5.55072 83.4832 9.54867 78.6807C21.4649 64.4821 37.3244 46.0778 39.1271 44.0391C48.7873 33.1138 54.6359 29.3627 59.434 28.1838C72.1689 25.0549 78.7441 30.5379 82.5044 34.3767C101.876 54.1473 114.551 66.6357 122.622 83.1406C124.466 86.9088 123.778 90.3795 122.14 93.2618C119.297 98.3052 113.861 100.745 108.672 99.7273L104.263 97.9539C98.9522 94.8397 93.6125 90.2532 88.9166 85.6095C86.2435 82.6614 84.4114 80.4156 84.4114 80.4156L92.201 59.9976L79.6552 50.5549C79.1271 46.6919 78.9185 44.223 77.7922 41.6631C77.4858 40.9627 77.1092 40.2556 76.6382 39.5113C74.4492 36.0461 73.0702 38.1087 73.0702 38.1087C72.0531 36.776 71.1094 36.1622 70.4802 35.8803C70.1477 35.74 69.7744 35.7647 69.4615 35.9478C69.1502 36.1308 68.9318 36.453 68.8666 36.8255C68.715 37.7414 69.2431 38.7741 69.5283 39.2482C69.6163 39.3918 69.7174 39.5262 69.8299 39.6494C76.0123 46.4336 72.5943 54.0487 72.5943 54.0487C69.5397 58.0396 64.0859 57.945 64.0859 57.945C60.0974 58.2856 57.5889 56.9804 56.1663 55.7903C54.0509 54.0257 51.2531 53.4783 48.684 54.3266C42.4136 56.4477 35.6476 62.7663 35.6476 62.7663L48.5001 78.4104Z" fill="url(#paint1_linear_393_3748)"/>
<path fill-rule="evenodd" clip-rule="evenodd" d="M54.6365 71.3516L61.028 63.7642C61.028 63.7642 68.7295 67.4964 71.1696 64.5765L74.2649 68.9044C73.947 68.4876 73.7808 68.2602 73.7808 68.2602C67.4158 75.5043 55.1698 71.5293 54.6365 71.3516Z" fill="#82B5B2"/>
<path fill-rule="evenodd" clip-rule="evenodd" d="M37.0814 61.508C36.1788 62.2689 35.6476 62.7649 35.6476 62.7649L36.6992 64.045L17.5869 80.8624C17.2405 81.1669 16.7264 81.115 16.4392 80.7482C16.1522 80.3797 16.2003 79.8347 16.5466 79.53L36.8806 61.6379C36.9429 61.5832 37.0107 61.5398 37.0814 61.508ZM91.262 59.2894C91.4332 59.3009 91.6043 59.3699 91.7445 59.4988L110.357 76.6187C110.696 76.9315 110.733 77.4783 110.438 77.839C110.143 78.1999 109.628 78.239 109.289 77.9264L91.5766 61.6339L92.2009 59.9962L91.262 59.2894ZM38.9353 60.009C39.0313 58.3431 39.3034 55.0838 40.0418 52.2323C40.1213 51.9693 40.3545 51.7933 40.6147 51.8001C40.8748 51.8068 41.0998 51.9945 41.1671 52.2613C41.5677 53.8394 42.117 56.0115 42.487 57.4756C41.1756 58.3263 39.9635 59.2114 38.9353 60.009ZM83.8588 53.7181L84.7325 49.3033C84.7651 49.1381 84.8906 49.0113 85.047 48.9839C85.2035 48.9566 85.36 49.0343 85.4399 49.1796C85.9337 50.3376 86.677 52.5679 87.0372 56.1105L83.8588 53.7181Z" fill="#13524E"/>
<path d="M63.5229 58.2739C69.2405 58.2739 73.8756 53.4215 73.8756 47.4358C73.8756 41.4501 69.2405 36.5977 63.5229 36.5977C57.8052 36.5977 53.1702 41.4501 53.1702 47.4358C53.1702 53.4215 57.8052 58.2739 63.5229 58.2739Z" fill="#FFCD80"/>
<path d="M63.4982 56.4516C68.2894 56.4516 72.1734 52.3855 72.1734 47.3696C72.1734 42.3538 68.2894 38.2876 63.4982 38.2876C58.707 38.2876 54.823 42.3538 54.823 47.3696C54.823 52.3855 58.707 56.4516 63.4982 56.4516Z" fill="#FFB000"/>
<path d="M60.531 50.9037C61.495 51.7027 62.5985 52.0848 63.8593 52.0843C65.3606 52.0459 66.0732 51.4653 66.0456 50.342C65.9967 49.4264 65.4665 48.8807 64.4549 48.7047C63.9828 48.6422 63.4784 48.5802 62.9246 48.5015C61.9301 48.3427 61.1497 47.956 60.6006 47.3587C60.0343 46.7443 59.7354 45.9878 59.6874 45.0895C59.6303 44.0184 59.9073 43.1501 60.5507 42.4841C61.1618 41.8185 62.065 41.4774 63.2432 41.4435C64.6826 41.4578 65.9494 41.8722 67.0426 42.6693L66.1555 44.2204C65.2671 43.6279 64.2966 43.3131 63.2619 43.3103C62.7289 43.3178 62.284 43.4624 61.9443 43.7611C61.5885 44.06 61.4186 44.5119 61.4338 45.0995C61.4531 45.4622 61.5989 45.7714 61.873 46.0614C62.1471 46.3515 62.5772 46.5356 63.149 46.6485C63.4587 46.696 63.8985 46.759 64.4514 46.8204C65.5419 46.9606 66.3555 47.3641 66.9083 48.0305C67.4441 48.6799 67.7431 49.4364 67.7901 50.3174C67.8669 52.6675 66.5737 53.8786 63.9427 53.9503C62.2466 53.9741 60.7463 53.4248 59.4588 52.3192L60.531 50.9037Z" fill="#FFCD80"/>
<path fill-rule="evenodd" clip-rule="evenodd" d="M62.3129 40.0874L63.106 55.1625L65.28 55.1442L64.1586 40.0718L62.3129 40.0874Z" fill="#FFCD80"/>
<path fill-rule="evenodd" clip-rule="evenodd" d="M23.0107 180.031C22.0266 179.843 21.2794 178.927 21.2794 177.829V173.351C21.2794 172.116 22.2245 171.112 23.3884 171.112H47.079C48.2431 171.112 49.1881 172.116 49.1881 173.351V177.829C49.1881 178.927 48.441 179.843 47.4568 180.031C48.441 180.221 49.1881 181.137 49.1881 182.235V186.713C49.1881 187.811 48.441 188.725 47.4568 188.915C48.441 189.104 49.1881 190.019 49.1881 191.118V195.595C49.1881 196.694 48.441 197.609 47.4568 197.798C48.441 197.988 49.1881 198.902 49.1881 200V204.478C49.1881 205.713 48.2431 206.717 47.079 206.717H23.3884C22.2245 206.717 21.2794 205.713 21.2794 204.478V200C21.2794 198.902 22.0266 197.988 23.0107 197.798C22.0266 197.609 21.2794 196.694 21.2794 195.595V191.118C21.2794 190.019 22.0266 189.104 23.0107 188.915C22.0266 188.725 21.2794 187.811 21.2794 186.713V182.235C21.2794 181.137 22.0266 180.221 23.0107 180.031Z" fill="#FFCD80"/>
<path fill-rule="evenodd" clip-rule="evenodd" d="M43.5961 171.112V178.277H49.0672C49.0936 178.277 49.1197 178.278 49.1453 178.28C48.9811 179.131 48.3622 179.806 47.5706 180.007H47.5285V180.017C47.5049 180.022 47.4811 180.028 47.457 180.031C47.4811 180.036 47.5049 180.041 47.5285 180.047V187.157H49.0672C49.0936 187.157 49.1198 187.159 49.1456 187.161C48.9823 188.01 48.3662 188.685 47.5771 188.888H45.834V196.04H49.0672C49.0938 196.04 49.12 196.04 49.1459 196.043C48.9836 196.889 48.3701 197.564 47.5836 197.77H43.2605V206.717H41.6305V197.77H40.0881V206.717H38.4582V197.77H27.633V206.717H26.003V197.77H22.8843C22.0967 197.564 21.4824 196.888 21.3212 196.04H31.563V188.888H22.8908C22.1004 188.685 21.4835 188.009 21.3215 187.157H23.6694V180.007H22.8973C22.1045 179.806 21.485 179.128 21.3218 178.277H28.1673V171.112H29.7972V178.277H38.656V171.112H40.286V178.277H41.9661V171.112H43.5961ZM33.1929 188.888V196.04H34.425V188.888H33.1929ZM36.055 188.888V196.04H44.2041V188.888H36.055ZM25.2994 180.007V187.157H37.4515V180.007H25.2994ZM39.0815 180.007V187.157H45.8986V180.007H39.0815Z" fill="#FDA425"/>
<defs>
<linearGradient id="paint0_linear_393_3748" x1="54.3242" y1="141.72" x2="53.9516" y2="240.612" gradientUnits="userSpaceOnUse">
<stop stop-color="#A8CFCC"/>
<stop offset="1" stop-color="#59A09B"/>
</linearGradient>
<linearGradient id="paint1_linear_393_3748" x1="65.0036" y1="64.2258" x2="69.8524" y2="151.99" gradientUnits="userSpaceOnUse">
<stop stop-color="#82B5B2"/>
<stop offset="0.45" stop-color="#A7C6C1"/>
<stop offset="1" stop-color="#FFF0E6"/>
</linearGradient>
</defs>
</svg>
