<svg width="20" height="20" viewBox="0 0 20 20" fill="none" xmlns="http://www.w3.org/2000/svg">
<path d="M19.7495 2.47297C19.9099 2.63388 20 2.85182 20 3.07902C20 3.30623 19.9099 3.52417 19.7495 3.68508L17.9586 5.47749L14.5244 2.04375L16.3153 0.251338C16.4763 0.0904065 16.6946 0 16.9223 0C17.15 0 17.3683 0.0904065 17.5293 0.251338L19.7495 2.47125V2.47297ZM16.7446 6.6896L13.3104 3.25586L1.61186 14.9546C1.51736 15.0491 1.44621 15.1643 1.40409 15.2911L0.0218342 19.4356C-0.00323399 19.5112 -0.00679329 19.5922 0.0115545 19.6697C0.0299022 19.7472 0.0694344 19.818 0.125731 19.8743C0.182029 19.9306 0.252873 19.9701 0.330346 19.9884C0.407819 20.0068 0.488868 20.0032 0.564435 19.9782L4.70949 18.5961C4.83615 18.5545 4.95138 18.4839 5.04604 18.3901L16.7446 6.6896Z" fill="black"/>
</svg>
